M48
; DRILL file {KiCad (5.1.6-0-10_14)} date Saturday, September 05, 2020 at 09:19:20 AM
; FORMAT={-:-/ absolute / inch / decimal}
; #@! TF.CreationDate,2020-09-05T09:19:20-04:00
; #@! TF.GenerationSoftware,Kicad,Pcbnew,(5.1.6-0-10_14)
; #@! TF.FileFunction,Plated,1,2,PTH
FMAT,2
INCH
T1C0.0276
T2C0.0354
T3C0.0402
%
G90
G05
T1
X5.425Y-3.433
X5.425Y-3.733
X5.585Y-3.433
X5.585Y-3.733
T2
X6.149Y-3.587
X6.249Y-3.587
X5.736Y-3.204
X5.836Y-3.204
X6.4385Y-3.576
X6.5385Y-3.576
X5.8555Y-3.589
X5.9555Y-3.589
X6.004Y-3.202
X6.104Y-3.202
X5.477Y-3.2035
X5.577Y-3.2035
T3
X6.2584Y-3.2398
X6.3584Y-3.2398
X6.4584Y-3.2398
X6.5584Y-3.2398
T0
M30
