%TF.GenerationSoftware,KiCad,Pcbnew,(5.1.6-0-10_14)*%
%TF.CreationDate,2020-09-05T00:15:57-04:00*%
%TF.ProjectId,ligths,6c696774-6873-42e6-9b69-6361645f7063,rev?*%
%TF.SameCoordinates,Original*%
%TF.FileFunction,Copper,L1,Top*%
%TF.FilePolarity,Positive*%
%FSLAX46Y46*%
G04 Gerber Fmt 4.6, Leading zero omitted, Abs format (unit mm)*
G04 Created by KiCad (PCBNEW (5.1.6-0-10_14)) date 2020-09-05 00:15:57*
%MOMM*%
%LPD*%
G01*
G04 APERTURE LIST*
%TA.AperFunction,ComponentPad*%
%ADD10O,1.400000X1.400000*%
%TD*%
%TA.AperFunction,ComponentPad*%
%ADD11C,1.400000*%
%TD*%
%TA.AperFunction,ComponentPad*%
%ADD12C,2.020000*%
%TD*%
%TA.AperFunction,ComponentPad*%
%ADD13C,1.800000*%
%TD*%
%TA.AperFunction,ComponentPad*%
%ADD14R,1.800000X1.800000*%
%TD*%
%TA.AperFunction,Conductor*%
%ADD15C,0.250000*%
%TD*%
G04 APERTURE END LIST*
D10*
%TO.P,R2,2*%
%TO.N,Net-(J1-Pad4)*%
X141859000Y-87198200D03*
D11*
%TO.P,R2,1*%
%TO.N,Net-(D4-Pad1)*%
X141859000Y-94818200D03*
%TD*%
D10*
%TO.P,R1,2*%
%TO.N,Net-(J1-Pad2)*%
X137795000Y-94818200D03*
D11*
%TO.P,R1,1*%
%TO.N,Net-(D1-Pad1)*%
X137795000Y-87198200D03*
%TD*%
D12*
%TO.P,J1,4*%
%TO.N,Net-(J1-Pad4)*%
X166583360Y-82290920D03*
%TO.P,J1,3*%
%TO.N,Net-(D4-Pad2)*%
X164043360Y-82290920D03*
%TO.P,J1,2*%
%TO.N,Net-(J1-Pad2)*%
X161503360Y-82290920D03*
%TO.P,J1,1*%
%TO.N,Net-(D1-Pad2)*%
X158963360Y-82290920D03*
%TD*%
D13*
%TO.P,D6,2*%
%TO.N,Net-(D4-Pad2)*%
X158724600Y-91109800D03*
D14*
%TO.P,D6,1*%
%TO.N,Net-(D4-Pad1)*%
X156184600Y-91109800D03*
%TD*%
D13*
%TO.P,D5,2*%
%TO.N,Net-(D4-Pad2)*%
X166077900Y-90830400D03*
D14*
%TO.P,D5,1*%
%TO.N,Net-(D4-Pad1)*%
X163537900Y-90830400D03*
%TD*%
D13*
%TO.P,D4,2*%
%TO.N,Net-(D4-Pad2)*%
X151269700Y-91160600D03*
D14*
%TO.P,D4,1*%
%TO.N,Net-(D4-Pad1)*%
X148729700Y-91160600D03*
%TD*%
D13*
%TO.P,D3,2*%
%TO.N,Net-(D1-Pad2)*%
X155041600Y-81330800D03*
D14*
%TO.P,D3,1*%
%TO.N,Net-(D1-Pad1)*%
X152501600Y-81330800D03*
%TD*%
D13*
%TO.P,D2,2*%
%TO.N,Net-(D1-Pad2)*%
X148234400Y-81381600D03*
D14*
%TO.P,D2,1*%
%TO.N,Net-(D1-Pad1)*%
X145694400Y-81381600D03*
%TD*%
D13*
%TO.P,D1,2*%
%TO.N,Net-(D1-Pad2)*%
X141655800Y-81368900D03*
D14*
%TO.P,D1,1*%
%TO.N,Net-(D1-Pad1)*%
X139115800Y-81368900D03*
%TD*%
D15*
%TO.N,Net-(D1-Pad2)*%
X147009399Y-80156599D02*
X148234400Y-81381600D01*
X142868101Y-80156599D02*
X147009399Y-80156599D01*
X141655800Y-81368900D02*
X142868101Y-80156599D01*
X153816599Y-80105799D02*
X155041600Y-81330800D01*
X149510201Y-80105799D02*
X153816599Y-80105799D01*
X148234400Y-81381600D02*
X149510201Y-80105799D01*
X158003240Y-81330800D02*
X158963360Y-82290920D01*
X155041600Y-81330800D02*
X158003240Y-81330800D01*
%TO.N,Net-(D1-Pad1)*%
X139115800Y-85877400D02*
X137795000Y-87198200D01*
X139115800Y-81368900D02*
X139115800Y-85877400D01*
X144482099Y-82593901D02*
X145694400Y-81381600D01*
X140340801Y-82593901D02*
X144482099Y-82593901D01*
X139115800Y-81368900D02*
X140340801Y-82593901D01*
X146919401Y-82606601D02*
X145694400Y-81381600D01*
X151225799Y-82606601D02*
X146919401Y-82606601D01*
X152501600Y-81330800D02*
X151225799Y-82606601D01*
%TO.N,Net-(D4-Pad2)*%
X157499599Y-89884799D02*
X158724600Y-91109800D01*
X152545501Y-89884799D02*
X157499599Y-89884799D01*
X151269700Y-91160600D02*
X152545501Y-89884799D01*
X164852899Y-89605399D02*
X166077900Y-90830400D01*
X160229001Y-89605399D02*
X164852899Y-89605399D01*
X158724600Y-91109800D02*
X160229001Y-89605399D01*
X164852899Y-83100459D02*
X164043360Y-82290920D01*
X164852899Y-89605399D02*
X164852899Y-83100459D01*
%TO.N,Net-(D4-Pad1)*%
X145072100Y-94818200D02*
X148729700Y-91160600D01*
X141859000Y-94818200D02*
X145072100Y-94818200D01*
X154908799Y-92385601D02*
X156184600Y-91109800D01*
X149954701Y-92385601D02*
X154908799Y-92385601D01*
X148729700Y-91160600D02*
X149954701Y-92385601D01*
X162033499Y-92334801D02*
X163537900Y-90830400D01*
X157409601Y-92334801D02*
X162033499Y-92334801D01*
X156184600Y-91109800D02*
X157409601Y-92334801D01*
%TD*%
M02*
