M48
; DRILL file {KiCad (5.1.6-0-10_14)} date Saturday, September 05, 2020 at 09:23:18 AM
; FORMAT={-:-/ absolute / inch / decimal}
; #@! TF.CreationDate,2020-09-05T09:23:18-04:00
; #@! TF.GenerationSoftware,Kicad,Pcbnew,(5.1.6-0-10_14)
; #@! TF.FileFunction,Plated,1,2,PTH
FMAT,2
INCH
T1C0.0268
T2C0.0315
T3C0.0402
%
G90
G05
T1
X5.471Y-3.6112
X5.521Y-3.6612
X5.571Y-3.6112
X6.5244Y-3.4978
X6.5244Y-3.5978
X6.5744Y-3.5478
T2
X5.5034Y-3.3348
X5.8034Y-3.3348
X6.2304Y-3.5092
X6.2304Y-3.6076
X5.8396Y-3.5322
X5.8396Y-3.6306
X5.4964Y-3.2046
X5.7964Y-3.2046
T3
X5.97Y-3.2732
X6.07Y-3.2732
X6.2584Y-3.2398
X6.3584Y-3.2398
X6.4584Y-3.2398
X6.5584Y-3.2398
T0
M30
