%TF.GenerationSoftware,KiCad,Pcbnew,(5.1.6-0-10_14)*%
%TF.CreationDate,2020-09-04T22:16:53-04:00*%
%TF.ProjectId,bike_ligths,62696b65-5f6c-4696-9774-68732e6b6963,rev?*%
%TF.SameCoordinates,Original*%
%TF.FileFunction,Copper,L1,Top*%
%TF.FilePolarity,Positive*%
%FSLAX46Y46*%
G04 Gerber Fmt 4.6, Leading zero omitted, Abs format (unit mm)*
G04 Created by KiCad (PCBNEW (5.1.6-0-10_14)) date 2020-09-04 22:16:53*
%MOMM*%
%LPD*%
G01*
G04 APERTURE LIST*
%TA.AperFunction,ComponentPad*%
%ADD10O,1.600000X1.600000*%
%TD*%
%TA.AperFunction,ComponentPad*%
%ADD11C,1.600000*%
%TD*%
%TA.AperFunction,ComponentPad*%
%ADD12R,1.600000X1.600000*%
%TD*%
%TA.AperFunction,ComponentPad*%
%ADD13R,1.080000X1.080000*%
%TD*%
%TA.AperFunction,ComponentPad*%
%ADD14C,1.080000*%
%TD*%
%TA.AperFunction,ComponentPad*%
%ADD15C,2.020000*%
%TD*%
%TA.AperFunction,Conductor*%
%ADD16C,0.250000*%
%TD*%
%TA.AperFunction,Conductor*%
%ADD17C,0.254000*%
%TD*%
G04 APERTURE END LIST*
D10*
%TO.P,R3,2*%
%TO.N,Net-(C2-Pad2)*%
X147228560Y-81396840D03*
D11*
%TO.P,R3,1*%
%TO.N,VCC*%
X139608560Y-81396840D03*
%TD*%
%TO.P,C2,2*%
%TO.N,Net-(C2-Pad2)*%
X148325840Y-89717240D03*
D12*
%TO.P,C2,1*%
%TO.N,Net-(C2-Pad1)*%
X148325840Y-92217240D03*
%TD*%
D13*
%TO.P,Q2,1*%
%TO.N,Net-(C1-Pad2)*%
X165719760Y-91384120D03*
D14*
%TO.P,Q2,2*%
%TO.N,Net-(C2-Pad1)*%
X166989760Y-90114120D03*
%TO.P,Q2,3*%
%TO.N,GND*%
X165719760Y-88844120D03*
%TD*%
D13*
%TO.P,Q1,1*%
%TO.N,Net-(C2-Pad2)*%
X138963400Y-91724480D03*
D14*
%TO.P,Q1,2*%
%TO.N,Net-(C1-Pad1)*%
X140233400Y-92994480D03*
%TO.P,Q1,3*%
%TO.N,GND*%
X141503400Y-91724480D03*
%TD*%
D15*
%TO.P,LEDS,4*%
%TO.N,VCC*%
X166583360Y-82290920D03*
%TO.P,LEDS,3*%
%TO.N,Net-(C1-Pad1)*%
X164043360Y-82290920D03*
%TO.P,LEDS,2*%
%TO.N,VCC*%
X161503360Y-82290920D03*
%TO.P,LEDS,1*%
%TO.N,Net-(C2-Pad1)*%
X158963360Y-82290920D03*
%TD*%
%TO.P,J1,2*%
%TO.N,GND*%
X151638000Y-83139280D03*
%TO.P,J1,1*%
%TO.N,VCC*%
X154178000Y-83139280D03*
%TD*%
D11*
%TO.P,C1,2*%
%TO.N,Net-(C1-Pad2)*%
X158252160Y-91633680D03*
D12*
%TO.P,C1,1*%
%TO.N,Net-(C1-Pad1)*%
X158252160Y-89133680D03*
%TD*%
D10*
%TO.P,R2,2*%
%TO.N,Net-(C1-Pad2)*%
X147406360Y-84703920D03*
D11*
%TO.P,R2,1*%
%TO.N,VCC*%
X139786360Y-84703920D03*
%TD*%
D16*
%TO.N,Net-(C1-Pad2)*%
X158501720Y-91384120D02*
X158252160Y-91633680D01*
X165719760Y-91384120D02*
X158501720Y-91384120D01*
%TO.N,Net-(C1-Pad1)*%
X153851361Y-93534479D02*
X158252160Y-89133680D01*
X140773399Y-93534479D02*
X153851361Y-93534479D01*
X140233400Y-92994480D02*
X140773399Y-93534479D01*
X158252160Y-88082120D02*
X164043360Y-82290920D01*
X158252160Y-89133680D02*
X158252160Y-88082120D01*
%TO.N,Net-(C2-Pad2)*%
X148325840Y-89717240D02*
X148325840Y-89712800D01*
X140975080Y-89712800D02*
X138963400Y-91724480D01*
X148325840Y-89712800D02*
X140975080Y-89712800D01*
%TO.N,Net-(C2-Pad1)*%
X149037040Y-92217240D02*
X158963360Y-82290920D01*
X148325840Y-92217240D02*
X149037040Y-92217240D01*
%TO.N,VCC*%
X160168359Y-80955919D02*
X161503360Y-82290920D01*
X156361361Y-80955919D02*
X160168359Y-80955919D01*
X154178000Y-83139280D02*
X156361361Y-80955919D01*
X165248359Y-80955919D02*
X166583360Y-82290920D01*
X163402559Y-80955919D02*
X165248359Y-80955919D01*
X162067558Y-82290920D02*
X163402559Y-80955919D01*
X161503360Y-82290920D02*
X162067558Y-82290920D01*
X149662198Y-83139280D02*
X141351000Y-83139280D01*
X150997199Y-81804279D02*
X149662198Y-83139280D01*
X141351000Y-83139280D02*
X139608560Y-81396840D01*
X152842999Y-81804279D02*
X150997199Y-81804279D01*
X154178000Y-83139280D02*
X152842999Y-81804279D01*
X139608560Y-84526120D02*
X139786360Y-84703920D01*
X139608560Y-81396840D02*
X139608560Y-84526120D01*
%TD*%
D17*
%TO.N,GND*%
G36*
X170561401Y-95956520D02*
G01*
X136316152Y-95956520D01*
X136314936Y-91184480D01*
X137785328Y-91184480D01*
X137785328Y-92264480D01*
X137797588Y-92388962D01*
X137833898Y-92508660D01*
X137892863Y-92618974D01*
X137972215Y-92715665D01*
X138068906Y-92795017D01*
X138179220Y-92853982D01*
X138298918Y-92890292D01*
X138423400Y-92902552D01*
X139058400Y-92902552D01*
X139058400Y-93110207D01*
X139103555Y-93337215D01*
X139192129Y-93551051D01*
X139320718Y-93743499D01*
X139484381Y-93907162D01*
X139676829Y-94035751D01*
X139890665Y-94124325D01*
X140117673Y-94169480D01*
X140349127Y-94169480D01*
X140349160Y-94169473D01*
X140481152Y-94240025D01*
X140624413Y-94283482D01*
X140736066Y-94294479D01*
X140736076Y-94294479D01*
X140773399Y-94298155D01*
X140810722Y-94294479D01*
X153814039Y-94294479D01*
X153851361Y-94298155D01*
X153888683Y-94294479D01*
X153888694Y-94294479D01*
X154000347Y-94283482D01*
X154143608Y-94240025D01*
X154275637Y-94169453D01*
X154391362Y-94074480D01*
X154415165Y-94045476D01*
X156817160Y-91643482D01*
X156817160Y-91775015D01*
X156872307Y-92052254D01*
X156980480Y-92313407D01*
X157137523Y-92548439D01*
X157337401Y-92748317D01*
X157572433Y-92905360D01*
X157833586Y-93013533D01*
X158110825Y-93068680D01*
X158393495Y-93068680D01*
X158670734Y-93013533D01*
X158931887Y-92905360D01*
X159166919Y-92748317D01*
X159366797Y-92548439D01*
X159523840Y-92313407D01*
X159593961Y-92144120D01*
X164582923Y-92144120D01*
X164590258Y-92168300D01*
X164649223Y-92278614D01*
X164728575Y-92375305D01*
X164825266Y-92454657D01*
X164935580Y-92513622D01*
X165055278Y-92549932D01*
X165179760Y-92562192D01*
X166259760Y-92562192D01*
X166384242Y-92549932D01*
X166503940Y-92513622D01*
X166614254Y-92454657D01*
X166710945Y-92375305D01*
X166790297Y-92278614D01*
X166849262Y-92168300D01*
X166885572Y-92048602D01*
X166897832Y-91924120D01*
X166897832Y-91289120D01*
X167105487Y-91289120D01*
X167332495Y-91243965D01*
X167546331Y-91155391D01*
X167738779Y-91026802D01*
X167902442Y-90863139D01*
X168031031Y-90670691D01*
X168119605Y-90456855D01*
X168164760Y-90229847D01*
X168164760Y-89998393D01*
X168119605Y-89771385D01*
X168031031Y-89557549D01*
X167902442Y-89365101D01*
X167738779Y-89201438D01*
X167546331Y-89072849D01*
X167332495Y-88984275D01*
X167105487Y-88939120D01*
X166892458Y-88939120D01*
X166897677Y-88763302D01*
X166859277Y-88535055D01*
X166777085Y-88318685D01*
X166744061Y-88256902D01*
X166526578Y-88216907D01*
X165899365Y-88844120D01*
X165913508Y-88858263D01*
X165733903Y-89037868D01*
X165719760Y-89023725D01*
X165092547Y-89650938D01*
X165132542Y-89868421D01*
X165343657Y-89963300D01*
X165569225Y-90015170D01*
X165800578Y-90022037D01*
X165814760Y-90019651D01*
X165814760Y-90206048D01*
X165179760Y-90206048D01*
X165055278Y-90218308D01*
X164935580Y-90254618D01*
X164825266Y-90313583D01*
X164728575Y-90392935D01*
X164649223Y-90489626D01*
X164590258Y-90599940D01*
X164582923Y-90624120D01*
X159271996Y-90624120D01*
X159200217Y-90552341D01*
X159296340Y-90523182D01*
X159406654Y-90464217D01*
X159503345Y-90384865D01*
X159582697Y-90288174D01*
X159641662Y-90177860D01*
X159677972Y-90058162D01*
X159690232Y-89933680D01*
X159690232Y-88924938D01*
X164541843Y-88924938D01*
X164580243Y-89153185D01*
X164662435Y-89369555D01*
X164695459Y-89431338D01*
X164912942Y-89471333D01*
X165540155Y-88844120D01*
X164912942Y-88216907D01*
X164695459Y-88256902D01*
X164600580Y-88468017D01*
X164548710Y-88693585D01*
X164541843Y-88924938D01*
X159690232Y-88924938D01*
X159690232Y-88333680D01*
X159677972Y-88209198D01*
X159641662Y-88089500D01*
X159613762Y-88037302D01*
X165092547Y-88037302D01*
X165719760Y-88664515D01*
X166346973Y-88037302D01*
X166306978Y-87819819D01*
X166095863Y-87724940D01*
X165870295Y-87673070D01*
X165638942Y-87666203D01*
X165410695Y-87704603D01*
X165194325Y-87786795D01*
X165132542Y-87819819D01*
X165092547Y-88037302D01*
X159613762Y-88037302D01*
X159582697Y-87979186D01*
X159513821Y-87895260D01*
X163544332Y-83864750D01*
X163563531Y-83872703D01*
X163881342Y-83935920D01*
X164205378Y-83935920D01*
X164523189Y-83872703D01*
X164822559Y-83748700D01*
X165091986Y-83568675D01*
X165313360Y-83347301D01*
X165534734Y-83568675D01*
X165804161Y-83748700D01*
X166103531Y-83872703D01*
X166421342Y-83935920D01*
X166745378Y-83935920D01*
X167063189Y-83872703D01*
X167362559Y-83748700D01*
X167631986Y-83568675D01*
X167861115Y-83339546D01*
X168041140Y-83070119D01*
X168165143Y-82770749D01*
X168228360Y-82452938D01*
X168228360Y-82128902D01*
X168165143Y-81811091D01*
X168041140Y-81511721D01*
X167861115Y-81242294D01*
X167631986Y-81013165D01*
X167362559Y-80833140D01*
X167063189Y-80709137D01*
X166745378Y-80645920D01*
X166421342Y-80645920D01*
X166103531Y-80709137D01*
X166084331Y-80717090D01*
X165812163Y-80444922D01*
X165788360Y-80415918D01*
X165672635Y-80320945D01*
X165540606Y-80250373D01*
X165397345Y-80206916D01*
X165285692Y-80195919D01*
X165285681Y-80195919D01*
X165248359Y-80192243D01*
X165211037Y-80195919D01*
X163439892Y-80195919D01*
X163402559Y-80192242D01*
X163365226Y-80195919D01*
X163253573Y-80206916D01*
X163110312Y-80250373D01*
X162978283Y-80320945D01*
X162862558Y-80415918D01*
X162838760Y-80444916D01*
X162383254Y-80900422D01*
X162282559Y-80833140D01*
X161983189Y-80709137D01*
X161665378Y-80645920D01*
X161341342Y-80645920D01*
X161023531Y-80709137D01*
X161004331Y-80717090D01*
X160732163Y-80444922D01*
X160708360Y-80415918D01*
X160592635Y-80320945D01*
X160460606Y-80250373D01*
X160317345Y-80206916D01*
X160205692Y-80195919D01*
X160205681Y-80195919D01*
X160168359Y-80192243D01*
X160131037Y-80195919D01*
X156398686Y-80195919D01*
X156361361Y-80192243D01*
X156324036Y-80195919D01*
X156324028Y-80195919D01*
X156212375Y-80206916D01*
X156069114Y-80250373D01*
X155937085Y-80320945D01*
X155821360Y-80415918D01*
X155797562Y-80444916D01*
X154677029Y-81565450D01*
X154657829Y-81557497D01*
X154340018Y-81494280D01*
X154015982Y-81494280D01*
X153698171Y-81557497D01*
X153678971Y-81565450D01*
X153406803Y-81293282D01*
X153383000Y-81264278D01*
X153267275Y-81169305D01*
X153135246Y-81098733D01*
X152991985Y-81055276D01*
X152880332Y-81044279D01*
X152880321Y-81044279D01*
X152842999Y-81040603D01*
X152805677Y-81044279D01*
X151034532Y-81044279D01*
X150997199Y-81040602D01*
X150959866Y-81044279D01*
X150848213Y-81055276D01*
X150704952Y-81098733D01*
X150572923Y-81169305D01*
X150457198Y-81264278D01*
X150433400Y-81293276D01*
X149347397Y-82379280D01*
X148275516Y-82379280D01*
X148343197Y-82311599D01*
X148500240Y-82076567D01*
X148608413Y-81815414D01*
X148663560Y-81538175D01*
X148663560Y-81255505D01*
X148608413Y-80978266D01*
X148500240Y-80717113D01*
X148343197Y-80482081D01*
X148143319Y-80282203D01*
X147908287Y-80125160D01*
X147647134Y-80016987D01*
X147369895Y-79961840D01*
X147087225Y-79961840D01*
X146809986Y-80016987D01*
X146548833Y-80125160D01*
X146313801Y-80282203D01*
X146113923Y-80482081D01*
X145956880Y-80717113D01*
X145848707Y-80978266D01*
X145793560Y-81255505D01*
X145793560Y-81538175D01*
X145848707Y-81815414D01*
X145956880Y-82076567D01*
X146113923Y-82311599D01*
X146181604Y-82379280D01*
X141665802Y-82379280D01*
X141007248Y-81720726D01*
X141043560Y-81538175D01*
X141043560Y-81255505D01*
X140988413Y-80978266D01*
X140880240Y-80717113D01*
X140723197Y-80482081D01*
X140523319Y-80282203D01*
X140288287Y-80125160D01*
X140027134Y-80016987D01*
X139749895Y-79961840D01*
X139467225Y-79961840D01*
X139189986Y-80016987D01*
X138928833Y-80125160D01*
X138693801Y-80282203D01*
X138493923Y-80482081D01*
X138336880Y-80717113D01*
X138228707Y-80978266D01*
X138173560Y-81255505D01*
X138173560Y-81538175D01*
X138228707Y-81815414D01*
X138336880Y-82076567D01*
X138493923Y-82311599D01*
X138693801Y-82511477D01*
X138848560Y-82614884D01*
X138848561Y-83612323D01*
X138671723Y-83789161D01*
X138514680Y-84024193D01*
X138406507Y-84285346D01*
X138351360Y-84562585D01*
X138351360Y-84845255D01*
X138406507Y-85122494D01*
X138514680Y-85383647D01*
X138671723Y-85618679D01*
X138871601Y-85818557D01*
X139106633Y-85975600D01*
X139367786Y-86083773D01*
X139645025Y-86138920D01*
X139927695Y-86138920D01*
X140204934Y-86083773D01*
X140466087Y-85975600D01*
X140701119Y-85818557D01*
X140900997Y-85618679D01*
X141058040Y-85383647D01*
X141166213Y-85122494D01*
X141221360Y-84845255D01*
X141221360Y-84562585D01*
X141166213Y-84285346D01*
X141058040Y-84024193D01*
X140900997Y-83789161D01*
X140701119Y-83589283D01*
X140466087Y-83432240D01*
X140368560Y-83391843D01*
X140368560Y-83231642D01*
X140787201Y-83650283D01*
X140810999Y-83679281D01*
X140926724Y-83774254D01*
X141058753Y-83844826D01*
X141202014Y-83888283D01*
X141313667Y-83899280D01*
X141313676Y-83899280D01*
X141350999Y-83902956D01*
X141388322Y-83899280D01*
X146218144Y-83899280D01*
X146134680Y-84024193D01*
X146026507Y-84285346D01*
X145971360Y-84562585D01*
X145971360Y-84845255D01*
X146026507Y-85122494D01*
X146134680Y-85383647D01*
X146291723Y-85618679D01*
X146491601Y-85818557D01*
X146726633Y-85975600D01*
X146987786Y-86083773D01*
X147265025Y-86138920D01*
X147547695Y-86138920D01*
X147824934Y-86083773D01*
X148086087Y-85975600D01*
X148321119Y-85818557D01*
X148520997Y-85618679D01*
X148678040Y-85383647D01*
X148786213Y-85122494D01*
X148841360Y-84845255D01*
X148841360Y-84562585D01*
X148786213Y-84285346D01*
X148784755Y-84281825D01*
X150675061Y-84281825D01*
X150772032Y-84547248D01*
X151063353Y-84689136D01*
X151376757Y-84771465D01*
X151700200Y-84791069D01*
X152021253Y-84747196D01*
X152327578Y-84641531D01*
X152503968Y-84547248D01*
X152600939Y-84281825D01*
X151638000Y-83318885D01*
X150675061Y-84281825D01*
X148784755Y-84281825D01*
X148678040Y-84024193D01*
X148594576Y-83899280D01*
X149624876Y-83899280D01*
X149662198Y-83902956D01*
X149699520Y-83899280D01*
X149699531Y-83899280D01*
X149811184Y-83888283D01*
X149954445Y-83844826D01*
X150086474Y-83774254D01*
X150110198Y-83754784D01*
X150135749Y-83828858D01*
X150230032Y-84005248D01*
X150495455Y-84102219D01*
X151458395Y-83139280D01*
X151444252Y-83125138D01*
X151623858Y-82945532D01*
X151638000Y-82959675D01*
X151652143Y-82945533D01*
X151831748Y-83125138D01*
X151817605Y-83139280D01*
X152780545Y-84102219D01*
X152830738Y-84083881D01*
X152900245Y-84187906D01*
X153129374Y-84417035D01*
X153398801Y-84597060D01*
X153698171Y-84721063D01*
X154015982Y-84784280D01*
X154340018Y-84784280D01*
X154657829Y-84721063D01*
X154957199Y-84597060D01*
X155226626Y-84417035D01*
X155455755Y-84187906D01*
X155635780Y-83918479D01*
X155759783Y-83619109D01*
X155823000Y-83301298D01*
X155823000Y-82977262D01*
X155759783Y-82659451D01*
X155751830Y-82640251D01*
X156676163Y-81715919D01*
X157420998Y-81715919D01*
X157381577Y-81811091D01*
X157318360Y-82128902D01*
X157318360Y-82452938D01*
X157381577Y-82770749D01*
X157389530Y-82789948D01*
X149355995Y-90823484D01*
X149273897Y-90798579D01*
X149440477Y-90631999D01*
X149597520Y-90396967D01*
X149705693Y-90135814D01*
X149760840Y-89858575D01*
X149760840Y-89575905D01*
X149705693Y-89298666D01*
X149597520Y-89037513D01*
X149440477Y-88802481D01*
X149240599Y-88602603D01*
X149005567Y-88445560D01*
X148744414Y-88337387D01*
X148467175Y-88282240D01*
X148184505Y-88282240D01*
X147907266Y-88337387D01*
X147646113Y-88445560D01*
X147411081Y-88602603D01*
X147211203Y-88802481D01*
X147110763Y-88952800D01*
X141012402Y-88952800D01*
X140975079Y-88949124D01*
X140937756Y-88952800D01*
X140937747Y-88952800D01*
X140826094Y-88963797D01*
X140682833Y-89007254D01*
X140550803Y-89077826D01*
X140467163Y-89146468D01*
X140435079Y-89172799D01*
X140411281Y-89201797D01*
X139066671Y-90546408D01*
X138423400Y-90546408D01*
X138298918Y-90558668D01*
X138179220Y-90594978D01*
X138068906Y-90653943D01*
X137972215Y-90733295D01*
X137892863Y-90829986D01*
X137833898Y-90940300D01*
X137797588Y-91059998D01*
X137785328Y-91184480D01*
X136314936Y-91184480D01*
X136311408Y-77342600D01*
X170561400Y-77342600D01*
X170561401Y-95956520D01*
G37*
X170561401Y-95956520D02*
X136316152Y-95956520D01*
X136314936Y-91184480D01*
X137785328Y-91184480D01*
X137785328Y-92264480D01*
X137797588Y-92388962D01*
X137833898Y-92508660D01*
X137892863Y-92618974D01*
X137972215Y-92715665D01*
X138068906Y-92795017D01*
X138179220Y-92853982D01*
X138298918Y-92890292D01*
X138423400Y-92902552D01*
X139058400Y-92902552D01*
X139058400Y-93110207D01*
X139103555Y-93337215D01*
X139192129Y-93551051D01*
X139320718Y-93743499D01*
X139484381Y-93907162D01*
X139676829Y-94035751D01*
X139890665Y-94124325D01*
X140117673Y-94169480D01*
X140349127Y-94169480D01*
X140349160Y-94169473D01*
X140481152Y-94240025D01*
X140624413Y-94283482D01*
X140736066Y-94294479D01*
X140736076Y-94294479D01*
X140773399Y-94298155D01*
X140810722Y-94294479D01*
X153814039Y-94294479D01*
X153851361Y-94298155D01*
X153888683Y-94294479D01*
X153888694Y-94294479D01*
X154000347Y-94283482D01*
X154143608Y-94240025D01*
X154275637Y-94169453D01*
X154391362Y-94074480D01*
X154415165Y-94045476D01*
X156817160Y-91643482D01*
X156817160Y-91775015D01*
X156872307Y-92052254D01*
X156980480Y-92313407D01*
X157137523Y-92548439D01*
X157337401Y-92748317D01*
X157572433Y-92905360D01*
X157833586Y-93013533D01*
X158110825Y-93068680D01*
X158393495Y-93068680D01*
X158670734Y-93013533D01*
X158931887Y-92905360D01*
X159166919Y-92748317D01*
X159366797Y-92548439D01*
X159523840Y-92313407D01*
X159593961Y-92144120D01*
X164582923Y-92144120D01*
X164590258Y-92168300D01*
X164649223Y-92278614D01*
X164728575Y-92375305D01*
X164825266Y-92454657D01*
X164935580Y-92513622D01*
X165055278Y-92549932D01*
X165179760Y-92562192D01*
X166259760Y-92562192D01*
X166384242Y-92549932D01*
X166503940Y-92513622D01*
X166614254Y-92454657D01*
X166710945Y-92375305D01*
X166790297Y-92278614D01*
X166849262Y-92168300D01*
X166885572Y-92048602D01*
X166897832Y-91924120D01*
X166897832Y-91289120D01*
X167105487Y-91289120D01*
X167332495Y-91243965D01*
X167546331Y-91155391D01*
X167738779Y-91026802D01*
X167902442Y-90863139D01*
X168031031Y-90670691D01*
X168119605Y-90456855D01*
X168164760Y-90229847D01*
X168164760Y-89998393D01*
X168119605Y-89771385D01*
X168031031Y-89557549D01*
X167902442Y-89365101D01*
X167738779Y-89201438D01*
X167546331Y-89072849D01*
X167332495Y-88984275D01*
X167105487Y-88939120D01*
X166892458Y-88939120D01*
X166897677Y-88763302D01*
X166859277Y-88535055D01*
X166777085Y-88318685D01*
X166744061Y-88256902D01*
X166526578Y-88216907D01*
X165899365Y-88844120D01*
X165913508Y-88858263D01*
X165733903Y-89037868D01*
X165719760Y-89023725D01*
X165092547Y-89650938D01*
X165132542Y-89868421D01*
X165343657Y-89963300D01*
X165569225Y-90015170D01*
X165800578Y-90022037D01*
X165814760Y-90019651D01*
X165814760Y-90206048D01*
X165179760Y-90206048D01*
X165055278Y-90218308D01*
X164935580Y-90254618D01*
X164825266Y-90313583D01*
X164728575Y-90392935D01*
X164649223Y-90489626D01*
X164590258Y-90599940D01*
X164582923Y-90624120D01*
X159271996Y-90624120D01*
X159200217Y-90552341D01*
X159296340Y-90523182D01*
X159406654Y-90464217D01*
X159503345Y-90384865D01*
X159582697Y-90288174D01*
X159641662Y-90177860D01*
X159677972Y-90058162D01*
X159690232Y-89933680D01*
X159690232Y-88924938D01*
X164541843Y-88924938D01*
X164580243Y-89153185D01*
X164662435Y-89369555D01*
X164695459Y-89431338D01*
X164912942Y-89471333D01*
X165540155Y-88844120D01*
X164912942Y-88216907D01*
X164695459Y-88256902D01*
X164600580Y-88468017D01*
X164548710Y-88693585D01*
X164541843Y-88924938D01*
X159690232Y-88924938D01*
X159690232Y-88333680D01*
X159677972Y-88209198D01*
X159641662Y-88089500D01*
X159613762Y-88037302D01*
X165092547Y-88037302D01*
X165719760Y-88664515D01*
X166346973Y-88037302D01*
X166306978Y-87819819D01*
X166095863Y-87724940D01*
X165870295Y-87673070D01*
X165638942Y-87666203D01*
X165410695Y-87704603D01*
X165194325Y-87786795D01*
X165132542Y-87819819D01*
X165092547Y-88037302D01*
X159613762Y-88037302D01*
X159582697Y-87979186D01*
X159513821Y-87895260D01*
X163544332Y-83864750D01*
X163563531Y-83872703D01*
X163881342Y-83935920D01*
X164205378Y-83935920D01*
X164523189Y-83872703D01*
X164822559Y-83748700D01*
X165091986Y-83568675D01*
X165313360Y-83347301D01*
X165534734Y-83568675D01*
X165804161Y-83748700D01*
X166103531Y-83872703D01*
X166421342Y-83935920D01*
X166745378Y-83935920D01*
X167063189Y-83872703D01*
X167362559Y-83748700D01*
X167631986Y-83568675D01*
X167861115Y-83339546D01*
X168041140Y-83070119D01*
X168165143Y-82770749D01*
X168228360Y-82452938D01*
X168228360Y-82128902D01*
X168165143Y-81811091D01*
X168041140Y-81511721D01*
X167861115Y-81242294D01*
X167631986Y-81013165D01*
X167362559Y-80833140D01*
X167063189Y-80709137D01*
X166745378Y-80645920D01*
X166421342Y-80645920D01*
X166103531Y-80709137D01*
X166084331Y-80717090D01*
X165812163Y-80444922D01*
X165788360Y-80415918D01*
X165672635Y-80320945D01*
X165540606Y-80250373D01*
X165397345Y-80206916D01*
X165285692Y-80195919D01*
X165285681Y-80195919D01*
X165248359Y-80192243D01*
X165211037Y-80195919D01*
X163439892Y-80195919D01*
X163402559Y-80192242D01*
X163365226Y-80195919D01*
X163253573Y-80206916D01*
X163110312Y-80250373D01*
X162978283Y-80320945D01*
X162862558Y-80415918D01*
X162838760Y-80444916D01*
X162383254Y-80900422D01*
X162282559Y-80833140D01*
X161983189Y-80709137D01*
X161665378Y-80645920D01*
X161341342Y-80645920D01*
X161023531Y-80709137D01*
X161004331Y-80717090D01*
X160732163Y-80444922D01*
X160708360Y-80415918D01*
X160592635Y-80320945D01*
X160460606Y-80250373D01*
X160317345Y-80206916D01*
X160205692Y-80195919D01*
X160205681Y-80195919D01*
X160168359Y-80192243D01*
X160131037Y-80195919D01*
X156398686Y-80195919D01*
X156361361Y-80192243D01*
X156324036Y-80195919D01*
X156324028Y-80195919D01*
X156212375Y-80206916D01*
X156069114Y-80250373D01*
X155937085Y-80320945D01*
X155821360Y-80415918D01*
X155797562Y-80444916D01*
X154677029Y-81565450D01*
X154657829Y-81557497D01*
X154340018Y-81494280D01*
X154015982Y-81494280D01*
X153698171Y-81557497D01*
X153678971Y-81565450D01*
X153406803Y-81293282D01*
X153383000Y-81264278D01*
X153267275Y-81169305D01*
X153135246Y-81098733D01*
X152991985Y-81055276D01*
X152880332Y-81044279D01*
X152880321Y-81044279D01*
X152842999Y-81040603D01*
X152805677Y-81044279D01*
X151034532Y-81044279D01*
X150997199Y-81040602D01*
X150959866Y-81044279D01*
X150848213Y-81055276D01*
X150704952Y-81098733D01*
X150572923Y-81169305D01*
X150457198Y-81264278D01*
X150433400Y-81293276D01*
X149347397Y-82379280D01*
X148275516Y-82379280D01*
X148343197Y-82311599D01*
X148500240Y-82076567D01*
X148608413Y-81815414D01*
X148663560Y-81538175D01*
X148663560Y-81255505D01*
X148608413Y-80978266D01*
X148500240Y-80717113D01*
X148343197Y-80482081D01*
X148143319Y-80282203D01*
X147908287Y-80125160D01*
X147647134Y-80016987D01*
X147369895Y-79961840D01*
X147087225Y-79961840D01*
X146809986Y-80016987D01*
X146548833Y-80125160D01*
X146313801Y-80282203D01*
X146113923Y-80482081D01*
X145956880Y-80717113D01*
X145848707Y-80978266D01*
X145793560Y-81255505D01*
X145793560Y-81538175D01*
X145848707Y-81815414D01*
X145956880Y-82076567D01*
X146113923Y-82311599D01*
X146181604Y-82379280D01*
X141665802Y-82379280D01*
X141007248Y-81720726D01*
X141043560Y-81538175D01*
X141043560Y-81255505D01*
X140988413Y-80978266D01*
X140880240Y-80717113D01*
X140723197Y-80482081D01*
X140523319Y-80282203D01*
X140288287Y-80125160D01*
X140027134Y-80016987D01*
X139749895Y-79961840D01*
X139467225Y-79961840D01*
X139189986Y-80016987D01*
X138928833Y-80125160D01*
X138693801Y-80282203D01*
X138493923Y-80482081D01*
X138336880Y-80717113D01*
X138228707Y-80978266D01*
X138173560Y-81255505D01*
X138173560Y-81538175D01*
X138228707Y-81815414D01*
X138336880Y-82076567D01*
X138493923Y-82311599D01*
X138693801Y-82511477D01*
X138848560Y-82614884D01*
X138848561Y-83612323D01*
X138671723Y-83789161D01*
X138514680Y-84024193D01*
X138406507Y-84285346D01*
X138351360Y-84562585D01*
X138351360Y-84845255D01*
X138406507Y-85122494D01*
X138514680Y-85383647D01*
X138671723Y-85618679D01*
X138871601Y-85818557D01*
X139106633Y-85975600D01*
X139367786Y-86083773D01*
X139645025Y-86138920D01*
X139927695Y-86138920D01*
X140204934Y-86083773D01*
X140466087Y-85975600D01*
X140701119Y-85818557D01*
X140900997Y-85618679D01*
X141058040Y-85383647D01*
X141166213Y-85122494D01*
X141221360Y-84845255D01*
X141221360Y-84562585D01*
X141166213Y-84285346D01*
X141058040Y-84024193D01*
X140900997Y-83789161D01*
X140701119Y-83589283D01*
X140466087Y-83432240D01*
X140368560Y-83391843D01*
X140368560Y-83231642D01*
X140787201Y-83650283D01*
X140810999Y-83679281D01*
X140926724Y-83774254D01*
X141058753Y-83844826D01*
X141202014Y-83888283D01*
X141313667Y-83899280D01*
X141313676Y-83899280D01*
X141350999Y-83902956D01*
X141388322Y-83899280D01*
X146218144Y-83899280D01*
X146134680Y-84024193D01*
X146026507Y-84285346D01*
X145971360Y-84562585D01*
X145971360Y-84845255D01*
X146026507Y-85122494D01*
X146134680Y-85383647D01*
X146291723Y-85618679D01*
X146491601Y-85818557D01*
X146726633Y-85975600D01*
X146987786Y-86083773D01*
X147265025Y-86138920D01*
X147547695Y-86138920D01*
X147824934Y-86083773D01*
X148086087Y-85975600D01*
X148321119Y-85818557D01*
X148520997Y-85618679D01*
X148678040Y-85383647D01*
X148786213Y-85122494D01*
X148841360Y-84845255D01*
X148841360Y-84562585D01*
X148786213Y-84285346D01*
X148784755Y-84281825D01*
X150675061Y-84281825D01*
X150772032Y-84547248D01*
X151063353Y-84689136D01*
X151376757Y-84771465D01*
X151700200Y-84791069D01*
X152021253Y-84747196D01*
X152327578Y-84641531D01*
X152503968Y-84547248D01*
X152600939Y-84281825D01*
X151638000Y-83318885D01*
X150675061Y-84281825D01*
X148784755Y-84281825D01*
X148678040Y-84024193D01*
X148594576Y-83899280D01*
X149624876Y-83899280D01*
X149662198Y-83902956D01*
X149699520Y-83899280D01*
X149699531Y-83899280D01*
X149811184Y-83888283D01*
X149954445Y-83844826D01*
X150086474Y-83774254D01*
X150110198Y-83754784D01*
X150135749Y-83828858D01*
X150230032Y-84005248D01*
X150495455Y-84102219D01*
X151458395Y-83139280D01*
X151444252Y-83125138D01*
X151623858Y-82945532D01*
X151638000Y-82959675D01*
X151652143Y-82945533D01*
X151831748Y-83125138D01*
X151817605Y-83139280D01*
X152780545Y-84102219D01*
X152830738Y-84083881D01*
X152900245Y-84187906D01*
X153129374Y-84417035D01*
X153398801Y-84597060D01*
X153698171Y-84721063D01*
X154015982Y-84784280D01*
X154340018Y-84784280D01*
X154657829Y-84721063D01*
X154957199Y-84597060D01*
X155226626Y-84417035D01*
X155455755Y-84187906D01*
X155635780Y-83918479D01*
X155759783Y-83619109D01*
X155823000Y-83301298D01*
X155823000Y-82977262D01*
X155759783Y-82659451D01*
X155751830Y-82640251D01*
X156676163Y-81715919D01*
X157420998Y-81715919D01*
X157381577Y-81811091D01*
X157318360Y-82128902D01*
X157318360Y-82452938D01*
X157381577Y-82770749D01*
X157389530Y-82789948D01*
X149355995Y-90823484D01*
X149273897Y-90798579D01*
X149440477Y-90631999D01*
X149597520Y-90396967D01*
X149705693Y-90135814D01*
X149760840Y-89858575D01*
X149760840Y-89575905D01*
X149705693Y-89298666D01*
X149597520Y-89037513D01*
X149440477Y-88802481D01*
X149240599Y-88602603D01*
X149005567Y-88445560D01*
X148744414Y-88337387D01*
X148467175Y-88282240D01*
X148184505Y-88282240D01*
X147907266Y-88337387D01*
X147646113Y-88445560D01*
X147411081Y-88602603D01*
X147211203Y-88802481D01*
X147110763Y-88952800D01*
X141012402Y-88952800D01*
X140975079Y-88949124D01*
X140937756Y-88952800D01*
X140937747Y-88952800D01*
X140826094Y-88963797D01*
X140682833Y-89007254D01*
X140550803Y-89077826D01*
X140467163Y-89146468D01*
X140435079Y-89172799D01*
X140411281Y-89201797D01*
X139066671Y-90546408D01*
X138423400Y-90546408D01*
X138298918Y-90558668D01*
X138179220Y-90594978D01*
X138068906Y-90653943D01*
X137972215Y-90733295D01*
X137892863Y-90829986D01*
X137833898Y-90940300D01*
X137797588Y-91059998D01*
X137785328Y-91184480D01*
X136314936Y-91184480D01*
X136311408Y-77342600D01*
X170561400Y-77342600D01*
X170561401Y-95956520D01*
G36*
X147211203Y-90631999D02*
G01*
X147377783Y-90798579D01*
X147281660Y-90827738D01*
X147171346Y-90886703D01*
X147074655Y-90966055D01*
X146995303Y-91062746D01*
X146936338Y-91173060D01*
X146900028Y-91292758D01*
X146887768Y-91417240D01*
X146887768Y-92774479D01*
X142042541Y-92774479D01*
X142090618Y-92748781D01*
X142130613Y-92531298D01*
X141503400Y-91904085D01*
X141489258Y-91918228D01*
X141309653Y-91738623D01*
X141323795Y-91724480D01*
X141683005Y-91724480D01*
X142310218Y-92351693D01*
X142527701Y-92311698D01*
X142622580Y-92100583D01*
X142674450Y-91875015D01*
X142681317Y-91643662D01*
X142642917Y-91415415D01*
X142560725Y-91199045D01*
X142527701Y-91137262D01*
X142310218Y-91097267D01*
X141683005Y-91724480D01*
X141323795Y-91724480D01*
X141309653Y-91710338D01*
X141489258Y-91530733D01*
X141503400Y-91544875D01*
X142130613Y-90917662D01*
X142090618Y-90700179D01*
X141879503Y-90605300D01*
X141653935Y-90553430D01*
X141422582Y-90546563D01*
X141194335Y-90584963D01*
X141167540Y-90595141D01*
X141289882Y-90472800D01*
X147104830Y-90472800D01*
X147211203Y-90631999D01*
G37*
X147211203Y-90631999D02*
X147377783Y-90798579D01*
X147281660Y-90827738D01*
X147171346Y-90886703D01*
X147074655Y-90966055D01*
X146995303Y-91062746D01*
X146936338Y-91173060D01*
X146900028Y-91292758D01*
X146887768Y-91417240D01*
X146887768Y-92774479D01*
X142042541Y-92774479D01*
X142090618Y-92748781D01*
X142130613Y-92531298D01*
X141503400Y-91904085D01*
X141489258Y-91918228D01*
X141309653Y-91738623D01*
X141323795Y-91724480D01*
X141683005Y-91724480D01*
X142310218Y-92351693D01*
X142527701Y-92311698D01*
X142622580Y-92100583D01*
X142674450Y-91875015D01*
X142681317Y-91643662D01*
X142642917Y-91415415D01*
X142560725Y-91199045D01*
X142527701Y-91137262D01*
X142310218Y-91097267D01*
X141683005Y-91724480D01*
X141323795Y-91724480D01*
X141309653Y-91710338D01*
X141489258Y-91530733D01*
X141503400Y-91544875D01*
X142130613Y-90917662D01*
X142090618Y-90700179D01*
X141879503Y-90605300D01*
X141653935Y-90553430D01*
X141422582Y-90546563D01*
X141194335Y-90584963D01*
X141167540Y-90595141D01*
X141289882Y-90472800D01*
X147104830Y-90472800D01*
X147211203Y-90631999D01*
%TD*%
M02*
