%TF.GenerationSoftware,KiCad,Pcbnew,(5.1.6-0-10_14)*%
%TF.CreationDate,2020-09-05T01:35:09-04:00*%
%TF.ProjectId,solder_beep,736f6c64-6572-45f6-9265-65702e6b6963,rev?*%
%TF.SameCoordinates,Original*%
%TF.FileFunction,Copper,L2,Bot*%
%TF.FilePolarity,Positive*%
%FSLAX46Y46*%
G04 Gerber Fmt 4.6, Leading zero omitted, Abs format (unit mm)*
G04 Created by KiCad (PCBNEW (5.1.6-0-10_14)) date 2020-09-05 01:35:09*
%MOMM*%
%LPD*%
G01*
G04 APERTURE LIST*
%TA.AperFunction,ComponentPad*%
%ADD10O,2.400000X2.400000*%
%TD*%
%TA.AperFunction,ComponentPad*%
%ADD11C,2.400000*%
%TD*%
%TA.AperFunction,ComponentPad*%
%ADD12C,1.600000*%
%TD*%
%TA.AperFunction,ComponentPad*%
%ADD13O,1.700000X1.700000*%
%TD*%
%TA.AperFunction,ComponentPad*%
%ADD14R,1.700000X1.700000*%
%TD*%
%TA.AperFunction,ComponentPad*%
%ADD15C,2.000000*%
%TD*%
%TA.AperFunction,ComponentPad*%
%ADD16R,2.000000X2.000000*%
%TD*%
%TA.AperFunction,ViaPad*%
%ADD17C,0.800000*%
%TD*%
%TA.AperFunction,Conductor*%
%ADD18C,0.250000*%
%TD*%
%TA.AperFunction,Conductor*%
%ADD19C,0.254000*%
%TD*%
G04 APERTURE END LIST*
D10*
%TO.P,R2,2*%
%TO.N,VCC*%
X32572960Y14996160D03*
D11*
%TO.P,R2,1*%
%TO.N,Net-(D2-Pad2)*%
X32572960Y7376160D03*
%TD*%
D10*
%TO.P,R3,2*%
%TO.N,Net-(R1-Pad1)*%
X42199560Y20228560D03*
D11*
%TO.P,R3,1*%
%TO.N,VCC*%
X34579560Y20228560D03*
%TD*%
D10*
%TO.P,R1,2*%
%TO.N,Net-(C1-Pad1)*%
X53324760Y20091400D03*
D11*
%TO.P,R1,1*%
%TO.N,Net-(R1-Pad1)*%
X45704760Y20091400D03*
%TD*%
D12*
%TO.P,C1,2*%
%TO.N,GND*%
X35249480Y4175760D03*
%TO.P,C1,1*%
%TO.N,Net-(C1-Pad1)*%
X37749480Y4175760D03*
%TD*%
D13*
%TO.P,J1,2*%
%TO.N,VCC*%
X30515560Y21229320D03*
D14*
%TO.P,J1,1*%
%TO.N,GND*%
X30515560Y18689320D03*
%TD*%
D15*
%TO.P,BZ1,2*%
%TO.N,VCC*%
X49265840Y14488480D03*
D16*
%TO.P,BZ1,1*%
%TO.N,Net-(BZ1-Pad1)*%
X49265840Y6888480D03*
%TD*%
D17*
%TO.N,Net-(C1-Pad1)*%
X38245111Y9924111D03*
X39385240Y11099800D03*
%TD*%
D18*
%TO.N,Net-(C1-Pad1)*%
X38245111Y9959671D02*
X39385240Y11099800D01*
X38245111Y9924111D02*
X38245111Y9959671D01*
%TD*%
D19*
%TO.N,GND*%
G36*
X55600443Y23231789D02*
G01*
X55581238Y493458D01*
X26354083Y542068D01*
X26351851Y3183058D01*
X34436383Y3183058D01*
X34507966Y2939089D01*
X34763476Y2818189D01*
X35037664Y2749460D01*
X35319992Y2735543D01*
X35599610Y2776973D01*
X35865772Y2872157D01*
X35990994Y2939089D01*
X36062577Y3183058D01*
X35249480Y3996155D01*
X34436383Y3183058D01*
X26351851Y3183058D01*
X26351071Y4105248D01*
X33809263Y4105248D01*
X33850693Y3825630D01*
X33945877Y3559468D01*
X34012809Y3434246D01*
X34256778Y3362663D01*
X35069875Y4175760D01*
X35429085Y4175760D01*
X36242182Y3362663D01*
X36486151Y3434246D01*
X36499804Y3463101D01*
X36634843Y3261001D01*
X36834721Y3061123D01*
X37069753Y2904080D01*
X37330906Y2795907D01*
X37608145Y2740760D01*
X37890815Y2740760D01*
X38168054Y2795907D01*
X38429207Y2904080D01*
X38664239Y3061123D01*
X38864117Y3261001D01*
X39021160Y3496033D01*
X39129333Y3757186D01*
X39184480Y4034425D01*
X39184480Y4317095D01*
X39129333Y4594334D01*
X39021160Y4855487D01*
X38864117Y5090519D01*
X38664239Y5290397D01*
X38429207Y5447440D01*
X38168054Y5555613D01*
X37890815Y5610760D01*
X37608145Y5610760D01*
X37330906Y5555613D01*
X37069753Y5447440D01*
X36834721Y5290397D01*
X36634843Y5090519D01*
X36500788Y4889891D01*
X36486151Y4917274D01*
X36242182Y4988857D01*
X35429085Y4175760D01*
X35069875Y4175760D01*
X34256778Y4988857D01*
X34012809Y4917274D01*
X33891909Y4661764D01*
X33823180Y4387576D01*
X33809263Y4105248D01*
X26351071Y4105248D01*
X26350172Y5168462D01*
X34436383Y5168462D01*
X35249480Y4355365D01*
X36062577Y5168462D01*
X35990994Y5412431D01*
X35735484Y5533331D01*
X35461296Y5602060D01*
X35178968Y5615977D01*
X34899350Y5574547D01*
X34633188Y5479363D01*
X34507966Y5412431D01*
X34436383Y5168462D01*
X26350172Y5168462D01*
X26348152Y7556892D01*
X30737960Y7556892D01*
X30737960Y7195428D01*
X30808478Y6840910D01*
X30946804Y6506961D01*
X31147622Y6206416D01*
X31403216Y5950822D01*
X31703761Y5750004D01*
X32037710Y5611678D01*
X32392228Y5541160D01*
X32753692Y5541160D01*
X33108210Y5611678D01*
X33442159Y5750004D01*
X33742704Y5950822D01*
X33998298Y6206416D01*
X34199116Y6506961D01*
X34337442Y6840910D01*
X34407960Y7195428D01*
X34407960Y7556892D01*
X34342004Y7888480D01*
X47627768Y7888480D01*
X47627768Y5888480D01*
X47640028Y5763998D01*
X47676338Y5644300D01*
X47735303Y5533986D01*
X47814655Y5437295D01*
X47911346Y5357943D01*
X48021660Y5298978D01*
X48141358Y5262668D01*
X48265840Y5250408D01*
X50265840Y5250408D01*
X50390322Y5262668D01*
X50510020Y5298978D01*
X50620334Y5357943D01*
X50717025Y5437295D01*
X50796377Y5533986D01*
X50855342Y5644300D01*
X50891652Y5763998D01*
X50903912Y5888480D01*
X50903912Y7888480D01*
X50891652Y8012962D01*
X50855342Y8132660D01*
X50796377Y8242974D01*
X50717025Y8339665D01*
X50620334Y8419017D01*
X50510020Y8477982D01*
X50390322Y8514292D01*
X50265840Y8526552D01*
X48265840Y8526552D01*
X48141358Y8514292D01*
X48021660Y8477982D01*
X47911346Y8419017D01*
X47814655Y8339665D01*
X47735303Y8242974D01*
X47676338Y8132660D01*
X47640028Y8012962D01*
X47627768Y7888480D01*
X34342004Y7888480D01*
X34337442Y7911410D01*
X34199116Y8245359D01*
X33998298Y8545904D01*
X33742704Y8801498D01*
X33442159Y9002316D01*
X33108210Y9140642D01*
X32753692Y9211160D01*
X32392228Y9211160D01*
X32037710Y9140642D01*
X31703761Y9002316D01*
X31403216Y8801498D01*
X31147622Y8545904D01*
X30946804Y8245359D01*
X30808478Y7911410D01*
X30737960Y7556892D01*
X26348152Y7556892D01*
X26346065Y10026050D01*
X37210111Y10026050D01*
X37210111Y9822172D01*
X37249885Y9622213D01*
X37327906Y9433855D01*
X37441174Y9264337D01*
X37585337Y9120174D01*
X37754855Y9006906D01*
X37943213Y8928885D01*
X38143172Y8889111D01*
X38347050Y8889111D01*
X38547009Y8928885D01*
X38735367Y9006906D01*
X38904885Y9120174D01*
X39049048Y9264337D01*
X39162316Y9433855D01*
X39240337Y9622213D01*
X39280111Y9822172D01*
X39280111Y9919870D01*
X39425042Y10064800D01*
X39487179Y10064800D01*
X39687138Y10104574D01*
X39875496Y10182595D01*
X40045014Y10295863D01*
X40189177Y10440026D01*
X40302445Y10609544D01*
X40380466Y10797902D01*
X40420240Y10997861D01*
X40420240Y11201739D01*
X40380466Y11401698D01*
X40302445Y11590056D01*
X40189177Y11759574D01*
X40045014Y11903737D01*
X39875496Y12017005D01*
X39687138Y12095026D01*
X39487179Y12134800D01*
X39283301Y12134800D01*
X39083342Y12095026D01*
X38894984Y12017005D01*
X38725466Y11903737D01*
X38581303Y11759574D01*
X38468035Y11590056D01*
X38390014Y11401698D01*
X38350240Y11201739D01*
X38350240Y11139602D01*
X38169750Y10959111D01*
X38143172Y10959111D01*
X37943213Y10919337D01*
X37754855Y10841316D01*
X37585337Y10728048D01*
X37441174Y10583885D01*
X37327906Y10414367D01*
X37249885Y10226009D01*
X37210111Y10026050D01*
X26346065Y10026050D01*
X26341710Y15176892D01*
X30737960Y15176892D01*
X30737960Y14815428D01*
X30808478Y14460910D01*
X30946804Y14126961D01*
X31147622Y13826416D01*
X31403216Y13570822D01*
X31703761Y13370004D01*
X32037710Y13231678D01*
X32392228Y13161160D01*
X32753692Y13161160D01*
X33108210Y13231678D01*
X33442159Y13370004D01*
X33742704Y13570822D01*
X33998298Y13826416D01*
X34199116Y14126961D01*
X34337442Y14460910D01*
X34374957Y14649513D01*
X47630840Y14649513D01*
X47630840Y14327447D01*
X47693672Y14011568D01*
X47816922Y13714017D01*
X47995853Y13446228D01*
X48223588Y13218493D01*
X48491377Y13039562D01*
X48788928Y12916312D01*
X49104807Y12853480D01*
X49426873Y12853480D01*
X49742752Y12916312D01*
X50040303Y13039562D01*
X50308092Y13218493D01*
X50535827Y13446228D01*
X50714758Y13714017D01*
X50838008Y14011568D01*
X50900840Y14327447D01*
X50900840Y14649513D01*
X50838008Y14965392D01*
X50714758Y15262943D01*
X50535827Y15530732D01*
X50308092Y15758467D01*
X50040303Y15937398D01*
X49742752Y16060648D01*
X49426873Y16123480D01*
X49104807Y16123480D01*
X48788928Y16060648D01*
X48491377Y15937398D01*
X48223588Y15758467D01*
X47995853Y15530732D01*
X47816922Y15262943D01*
X47693672Y14965392D01*
X47630840Y14649513D01*
X34374957Y14649513D01*
X34407960Y14815428D01*
X34407960Y15176892D01*
X34337442Y15531410D01*
X34199116Y15865359D01*
X33998298Y16165904D01*
X33742704Y16421498D01*
X33442159Y16622316D01*
X33108210Y16760642D01*
X32753692Y16831160D01*
X32392228Y16831160D01*
X32037710Y16760642D01*
X31703761Y16622316D01*
X31403216Y16421498D01*
X31147622Y16165904D01*
X30946804Y15865359D01*
X30808478Y15531410D01*
X30737960Y15176892D01*
X26341710Y15176892D01*
X26339458Y17839320D01*
X29027488Y17839320D01*
X29039748Y17714838D01*
X29076058Y17595140D01*
X29135023Y17484826D01*
X29214375Y17388135D01*
X29311066Y17308783D01*
X29421380Y17249818D01*
X29541078Y17213508D01*
X29665560Y17201248D01*
X30229810Y17204320D01*
X30388560Y17363070D01*
X30388560Y18562320D01*
X30642560Y18562320D01*
X30642560Y17363070D01*
X30801310Y17204320D01*
X31365560Y17201248D01*
X31490042Y17213508D01*
X31609740Y17249818D01*
X31720054Y17308783D01*
X31816745Y17388135D01*
X31896097Y17484826D01*
X31955062Y17595140D01*
X31991372Y17714838D01*
X32003632Y17839320D01*
X32000560Y18403570D01*
X31841810Y18562320D01*
X30642560Y18562320D01*
X30388560Y18562320D01*
X29189310Y18562320D01*
X29030560Y18403570D01*
X29027488Y17839320D01*
X26339458Y17839320D01*
X26338021Y19539320D01*
X29027488Y19539320D01*
X29030560Y18975070D01*
X29189310Y18816320D01*
X30388560Y18816320D01*
X30388560Y18836320D01*
X30642560Y18836320D01*
X30642560Y18816320D01*
X31841810Y18816320D01*
X32000560Y18975070D01*
X32003632Y19539320D01*
X31991372Y19663802D01*
X31955062Y19783500D01*
X31896097Y19893814D01*
X31816745Y19990505D01*
X31720054Y20069857D01*
X31609740Y20128822D01*
X31537180Y20150833D01*
X31669035Y20282688D01*
X31753629Y20409292D01*
X32744560Y20409292D01*
X32744560Y20047828D01*
X32815078Y19693310D01*
X32953404Y19359361D01*
X33154222Y19058816D01*
X33409816Y18803222D01*
X33710361Y18602404D01*
X34044310Y18464078D01*
X34398828Y18393560D01*
X34760292Y18393560D01*
X35114810Y18464078D01*
X35448759Y18602404D01*
X35749304Y18803222D01*
X36004898Y19058816D01*
X36205716Y19359361D01*
X36344042Y19693310D01*
X36414560Y20047828D01*
X36414560Y20409292D01*
X40364560Y20409292D01*
X40364560Y20047828D01*
X40435078Y19693310D01*
X40573404Y19359361D01*
X40774222Y19058816D01*
X41029816Y18803222D01*
X41330361Y18602404D01*
X41664310Y18464078D01*
X42018828Y18393560D01*
X42380292Y18393560D01*
X42734810Y18464078D01*
X43068759Y18602404D01*
X43369304Y18803222D01*
X43624898Y19058816D01*
X43825716Y19359361D01*
X43929556Y19610053D01*
X43940278Y19556150D01*
X44078604Y19222201D01*
X44279422Y18921656D01*
X44535016Y18666062D01*
X44835561Y18465244D01*
X45169510Y18326918D01*
X45524028Y18256400D01*
X45885492Y18256400D01*
X46240010Y18326918D01*
X46573959Y18465244D01*
X46874504Y18666062D01*
X47130098Y18921656D01*
X47330916Y19222201D01*
X47469242Y19556150D01*
X47539760Y19910668D01*
X47539760Y20272132D01*
X51489760Y20272132D01*
X51489760Y19910668D01*
X51560278Y19556150D01*
X51698604Y19222201D01*
X51899422Y18921656D01*
X52155016Y18666062D01*
X52455561Y18465244D01*
X52789510Y18326918D01*
X53144028Y18256400D01*
X53505492Y18256400D01*
X53860010Y18326918D01*
X54193959Y18465244D01*
X54494504Y18666062D01*
X54750098Y18921656D01*
X54950916Y19222201D01*
X55089242Y19556150D01*
X55159760Y19910668D01*
X55159760Y20272132D01*
X55089242Y20626650D01*
X54950916Y20960599D01*
X54750098Y21261144D01*
X54494504Y21516738D01*
X54193959Y21717556D01*
X53860010Y21855882D01*
X53505492Y21926400D01*
X53144028Y21926400D01*
X52789510Y21855882D01*
X52455561Y21717556D01*
X52155016Y21516738D01*
X51899422Y21261144D01*
X51698604Y20960599D01*
X51560278Y20626650D01*
X51489760Y20272132D01*
X47539760Y20272132D01*
X47469242Y20626650D01*
X47330916Y20960599D01*
X47130098Y21261144D01*
X46874504Y21516738D01*
X46573959Y21717556D01*
X46240010Y21855882D01*
X45885492Y21926400D01*
X45524028Y21926400D01*
X45169510Y21855882D01*
X44835561Y21717556D01*
X44535016Y21516738D01*
X44279422Y21261144D01*
X44078604Y20960599D01*
X43974764Y20709907D01*
X43964042Y20763810D01*
X43825716Y21097759D01*
X43624898Y21398304D01*
X43369304Y21653898D01*
X43068759Y21854716D01*
X42734810Y21993042D01*
X42380292Y22063560D01*
X42018828Y22063560D01*
X41664310Y21993042D01*
X41330361Y21854716D01*
X41029816Y21653898D01*
X40774222Y21398304D01*
X40573404Y21097759D01*
X40435078Y20763810D01*
X40364560Y20409292D01*
X36414560Y20409292D01*
X36344042Y20763810D01*
X36205716Y21097759D01*
X36004898Y21398304D01*
X35749304Y21653898D01*
X35448759Y21854716D01*
X35114810Y21993042D01*
X34760292Y22063560D01*
X34398828Y22063560D01*
X34044310Y21993042D01*
X33710361Y21854716D01*
X33409816Y21653898D01*
X33154222Y21398304D01*
X32953404Y21097759D01*
X32815078Y20763810D01*
X32744560Y20409292D01*
X31753629Y20409292D01*
X31831550Y20525909D01*
X31943492Y20796162D01*
X32000560Y21083060D01*
X32000560Y21375580D01*
X31943492Y21662478D01*
X31831550Y21932731D01*
X31669035Y22175952D01*
X31462192Y22382795D01*
X31218971Y22545310D01*
X30948718Y22657252D01*
X30661820Y22714320D01*
X30369300Y22714320D01*
X30082402Y22657252D01*
X29812149Y22545310D01*
X29568928Y22382795D01*
X29362085Y22175952D01*
X29199570Y21932731D01*
X29087628Y21662478D01*
X29030560Y21375580D01*
X29030560Y21083060D01*
X29087628Y20796162D01*
X29199570Y20525909D01*
X29362085Y20282688D01*
X29493940Y20150833D01*
X29421380Y20128822D01*
X29311066Y20069857D01*
X29214375Y19990505D01*
X29135023Y19893814D01*
X29076058Y19783500D01*
X29039748Y19663802D01*
X29027488Y19539320D01*
X26338021Y19539320D01*
X26334878Y23256092D01*
X55600443Y23231789D01*
G37*
X55600443Y23231789D02*
X55581238Y493458D01*
X26354083Y542068D01*
X26351851Y3183058D01*
X34436383Y3183058D01*
X34507966Y2939089D01*
X34763476Y2818189D01*
X35037664Y2749460D01*
X35319992Y2735543D01*
X35599610Y2776973D01*
X35865772Y2872157D01*
X35990994Y2939089D01*
X36062577Y3183058D01*
X35249480Y3996155D01*
X34436383Y3183058D01*
X26351851Y3183058D01*
X26351071Y4105248D01*
X33809263Y4105248D01*
X33850693Y3825630D01*
X33945877Y3559468D01*
X34012809Y3434246D01*
X34256778Y3362663D01*
X35069875Y4175760D01*
X35429085Y4175760D01*
X36242182Y3362663D01*
X36486151Y3434246D01*
X36499804Y3463101D01*
X36634843Y3261001D01*
X36834721Y3061123D01*
X37069753Y2904080D01*
X37330906Y2795907D01*
X37608145Y2740760D01*
X37890815Y2740760D01*
X38168054Y2795907D01*
X38429207Y2904080D01*
X38664239Y3061123D01*
X38864117Y3261001D01*
X39021160Y3496033D01*
X39129333Y3757186D01*
X39184480Y4034425D01*
X39184480Y4317095D01*
X39129333Y4594334D01*
X39021160Y4855487D01*
X38864117Y5090519D01*
X38664239Y5290397D01*
X38429207Y5447440D01*
X38168054Y5555613D01*
X37890815Y5610760D01*
X37608145Y5610760D01*
X37330906Y5555613D01*
X37069753Y5447440D01*
X36834721Y5290397D01*
X36634843Y5090519D01*
X36500788Y4889891D01*
X36486151Y4917274D01*
X36242182Y4988857D01*
X35429085Y4175760D01*
X35069875Y4175760D01*
X34256778Y4988857D01*
X34012809Y4917274D01*
X33891909Y4661764D01*
X33823180Y4387576D01*
X33809263Y4105248D01*
X26351071Y4105248D01*
X26350172Y5168462D01*
X34436383Y5168462D01*
X35249480Y4355365D01*
X36062577Y5168462D01*
X35990994Y5412431D01*
X35735484Y5533331D01*
X35461296Y5602060D01*
X35178968Y5615977D01*
X34899350Y5574547D01*
X34633188Y5479363D01*
X34507966Y5412431D01*
X34436383Y5168462D01*
X26350172Y5168462D01*
X26348152Y7556892D01*
X30737960Y7556892D01*
X30737960Y7195428D01*
X30808478Y6840910D01*
X30946804Y6506961D01*
X31147622Y6206416D01*
X31403216Y5950822D01*
X31703761Y5750004D01*
X32037710Y5611678D01*
X32392228Y5541160D01*
X32753692Y5541160D01*
X33108210Y5611678D01*
X33442159Y5750004D01*
X33742704Y5950822D01*
X33998298Y6206416D01*
X34199116Y6506961D01*
X34337442Y6840910D01*
X34407960Y7195428D01*
X34407960Y7556892D01*
X34342004Y7888480D01*
X47627768Y7888480D01*
X47627768Y5888480D01*
X47640028Y5763998D01*
X47676338Y5644300D01*
X47735303Y5533986D01*
X47814655Y5437295D01*
X47911346Y5357943D01*
X48021660Y5298978D01*
X48141358Y5262668D01*
X48265840Y5250408D01*
X50265840Y5250408D01*
X50390322Y5262668D01*
X50510020Y5298978D01*
X50620334Y5357943D01*
X50717025Y5437295D01*
X50796377Y5533986D01*
X50855342Y5644300D01*
X50891652Y5763998D01*
X50903912Y5888480D01*
X50903912Y7888480D01*
X50891652Y8012962D01*
X50855342Y8132660D01*
X50796377Y8242974D01*
X50717025Y8339665D01*
X50620334Y8419017D01*
X50510020Y8477982D01*
X50390322Y8514292D01*
X50265840Y8526552D01*
X48265840Y8526552D01*
X48141358Y8514292D01*
X48021660Y8477982D01*
X47911346Y8419017D01*
X47814655Y8339665D01*
X47735303Y8242974D01*
X47676338Y8132660D01*
X47640028Y8012962D01*
X47627768Y7888480D01*
X34342004Y7888480D01*
X34337442Y7911410D01*
X34199116Y8245359D01*
X33998298Y8545904D01*
X33742704Y8801498D01*
X33442159Y9002316D01*
X33108210Y9140642D01*
X32753692Y9211160D01*
X32392228Y9211160D01*
X32037710Y9140642D01*
X31703761Y9002316D01*
X31403216Y8801498D01*
X31147622Y8545904D01*
X30946804Y8245359D01*
X30808478Y7911410D01*
X30737960Y7556892D01*
X26348152Y7556892D01*
X26346065Y10026050D01*
X37210111Y10026050D01*
X37210111Y9822172D01*
X37249885Y9622213D01*
X37327906Y9433855D01*
X37441174Y9264337D01*
X37585337Y9120174D01*
X37754855Y9006906D01*
X37943213Y8928885D01*
X38143172Y8889111D01*
X38347050Y8889111D01*
X38547009Y8928885D01*
X38735367Y9006906D01*
X38904885Y9120174D01*
X39049048Y9264337D01*
X39162316Y9433855D01*
X39240337Y9622213D01*
X39280111Y9822172D01*
X39280111Y9919870D01*
X39425042Y10064800D01*
X39487179Y10064800D01*
X39687138Y10104574D01*
X39875496Y10182595D01*
X40045014Y10295863D01*
X40189177Y10440026D01*
X40302445Y10609544D01*
X40380466Y10797902D01*
X40420240Y10997861D01*
X40420240Y11201739D01*
X40380466Y11401698D01*
X40302445Y11590056D01*
X40189177Y11759574D01*
X40045014Y11903737D01*
X39875496Y12017005D01*
X39687138Y12095026D01*
X39487179Y12134800D01*
X39283301Y12134800D01*
X39083342Y12095026D01*
X38894984Y12017005D01*
X38725466Y11903737D01*
X38581303Y11759574D01*
X38468035Y11590056D01*
X38390014Y11401698D01*
X38350240Y11201739D01*
X38350240Y11139602D01*
X38169750Y10959111D01*
X38143172Y10959111D01*
X37943213Y10919337D01*
X37754855Y10841316D01*
X37585337Y10728048D01*
X37441174Y10583885D01*
X37327906Y10414367D01*
X37249885Y10226009D01*
X37210111Y10026050D01*
X26346065Y10026050D01*
X26341710Y15176892D01*
X30737960Y15176892D01*
X30737960Y14815428D01*
X30808478Y14460910D01*
X30946804Y14126961D01*
X31147622Y13826416D01*
X31403216Y13570822D01*
X31703761Y13370004D01*
X32037710Y13231678D01*
X32392228Y13161160D01*
X32753692Y13161160D01*
X33108210Y13231678D01*
X33442159Y13370004D01*
X33742704Y13570822D01*
X33998298Y13826416D01*
X34199116Y14126961D01*
X34337442Y14460910D01*
X34374957Y14649513D01*
X47630840Y14649513D01*
X47630840Y14327447D01*
X47693672Y14011568D01*
X47816922Y13714017D01*
X47995853Y13446228D01*
X48223588Y13218493D01*
X48491377Y13039562D01*
X48788928Y12916312D01*
X49104807Y12853480D01*
X49426873Y12853480D01*
X49742752Y12916312D01*
X50040303Y13039562D01*
X50308092Y13218493D01*
X50535827Y13446228D01*
X50714758Y13714017D01*
X50838008Y14011568D01*
X50900840Y14327447D01*
X50900840Y14649513D01*
X50838008Y14965392D01*
X50714758Y15262943D01*
X50535827Y15530732D01*
X50308092Y15758467D01*
X50040303Y15937398D01*
X49742752Y16060648D01*
X49426873Y16123480D01*
X49104807Y16123480D01*
X48788928Y16060648D01*
X48491377Y15937398D01*
X48223588Y15758467D01*
X47995853Y15530732D01*
X47816922Y15262943D01*
X47693672Y14965392D01*
X47630840Y14649513D01*
X34374957Y14649513D01*
X34407960Y14815428D01*
X34407960Y15176892D01*
X34337442Y15531410D01*
X34199116Y15865359D01*
X33998298Y16165904D01*
X33742704Y16421498D01*
X33442159Y16622316D01*
X33108210Y16760642D01*
X32753692Y16831160D01*
X32392228Y16831160D01*
X32037710Y16760642D01*
X31703761Y16622316D01*
X31403216Y16421498D01*
X31147622Y16165904D01*
X30946804Y15865359D01*
X30808478Y15531410D01*
X30737960Y15176892D01*
X26341710Y15176892D01*
X26339458Y17839320D01*
X29027488Y17839320D01*
X29039748Y17714838D01*
X29076058Y17595140D01*
X29135023Y17484826D01*
X29214375Y17388135D01*
X29311066Y17308783D01*
X29421380Y17249818D01*
X29541078Y17213508D01*
X29665560Y17201248D01*
X30229810Y17204320D01*
X30388560Y17363070D01*
X30388560Y18562320D01*
X30642560Y18562320D01*
X30642560Y17363070D01*
X30801310Y17204320D01*
X31365560Y17201248D01*
X31490042Y17213508D01*
X31609740Y17249818D01*
X31720054Y17308783D01*
X31816745Y17388135D01*
X31896097Y17484826D01*
X31955062Y17595140D01*
X31991372Y17714838D01*
X32003632Y17839320D01*
X32000560Y18403570D01*
X31841810Y18562320D01*
X30642560Y18562320D01*
X30388560Y18562320D01*
X29189310Y18562320D01*
X29030560Y18403570D01*
X29027488Y17839320D01*
X26339458Y17839320D01*
X26338021Y19539320D01*
X29027488Y19539320D01*
X29030560Y18975070D01*
X29189310Y18816320D01*
X30388560Y18816320D01*
X30388560Y18836320D01*
X30642560Y18836320D01*
X30642560Y18816320D01*
X31841810Y18816320D01*
X32000560Y18975070D01*
X32003632Y19539320D01*
X31991372Y19663802D01*
X31955062Y19783500D01*
X31896097Y19893814D01*
X31816745Y19990505D01*
X31720054Y20069857D01*
X31609740Y20128822D01*
X31537180Y20150833D01*
X31669035Y20282688D01*
X31753629Y20409292D01*
X32744560Y20409292D01*
X32744560Y20047828D01*
X32815078Y19693310D01*
X32953404Y19359361D01*
X33154222Y19058816D01*
X33409816Y18803222D01*
X33710361Y18602404D01*
X34044310Y18464078D01*
X34398828Y18393560D01*
X34760292Y18393560D01*
X35114810Y18464078D01*
X35448759Y18602404D01*
X35749304Y18803222D01*
X36004898Y19058816D01*
X36205716Y19359361D01*
X36344042Y19693310D01*
X36414560Y20047828D01*
X36414560Y20409292D01*
X40364560Y20409292D01*
X40364560Y20047828D01*
X40435078Y19693310D01*
X40573404Y19359361D01*
X40774222Y19058816D01*
X41029816Y18803222D01*
X41330361Y18602404D01*
X41664310Y18464078D01*
X42018828Y18393560D01*
X42380292Y18393560D01*
X42734810Y18464078D01*
X43068759Y18602404D01*
X43369304Y18803222D01*
X43624898Y19058816D01*
X43825716Y19359361D01*
X43929556Y19610053D01*
X43940278Y19556150D01*
X44078604Y19222201D01*
X44279422Y18921656D01*
X44535016Y18666062D01*
X44835561Y18465244D01*
X45169510Y18326918D01*
X45524028Y18256400D01*
X45885492Y18256400D01*
X46240010Y18326918D01*
X46573959Y18465244D01*
X46874504Y18666062D01*
X47130098Y18921656D01*
X47330916Y19222201D01*
X47469242Y19556150D01*
X47539760Y19910668D01*
X47539760Y20272132D01*
X51489760Y20272132D01*
X51489760Y19910668D01*
X51560278Y19556150D01*
X51698604Y19222201D01*
X51899422Y18921656D01*
X52155016Y18666062D01*
X52455561Y18465244D01*
X52789510Y18326918D01*
X53144028Y18256400D01*
X53505492Y18256400D01*
X53860010Y18326918D01*
X54193959Y18465244D01*
X54494504Y18666062D01*
X54750098Y18921656D01*
X54950916Y19222201D01*
X55089242Y19556150D01*
X55159760Y19910668D01*
X55159760Y20272132D01*
X55089242Y20626650D01*
X54950916Y20960599D01*
X54750098Y21261144D01*
X54494504Y21516738D01*
X54193959Y21717556D01*
X53860010Y21855882D01*
X53505492Y21926400D01*
X53144028Y21926400D01*
X52789510Y21855882D01*
X52455561Y21717556D01*
X52155016Y21516738D01*
X51899422Y21261144D01*
X51698604Y20960599D01*
X51560278Y20626650D01*
X51489760Y20272132D01*
X47539760Y20272132D01*
X47469242Y20626650D01*
X47330916Y20960599D01*
X47130098Y21261144D01*
X46874504Y21516738D01*
X46573959Y21717556D01*
X46240010Y21855882D01*
X45885492Y21926400D01*
X45524028Y21926400D01*
X45169510Y21855882D01*
X44835561Y21717556D01*
X44535016Y21516738D01*
X44279422Y21261144D01*
X44078604Y20960599D01*
X43974764Y20709907D01*
X43964042Y20763810D01*
X43825716Y21097759D01*
X43624898Y21398304D01*
X43369304Y21653898D01*
X43068759Y21854716D01*
X42734810Y21993042D01*
X42380292Y22063560D01*
X42018828Y22063560D01*
X41664310Y21993042D01*
X41330361Y21854716D01*
X41029816Y21653898D01*
X40774222Y21398304D01*
X40573404Y21097759D01*
X40435078Y20763810D01*
X40364560Y20409292D01*
X36414560Y20409292D01*
X36344042Y20763810D01*
X36205716Y21097759D01*
X36004898Y21398304D01*
X35749304Y21653898D01*
X35448759Y21854716D01*
X35114810Y21993042D01*
X34760292Y22063560D01*
X34398828Y22063560D01*
X34044310Y21993042D01*
X33710361Y21854716D01*
X33409816Y21653898D01*
X33154222Y21398304D01*
X32953404Y21097759D01*
X32815078Y20763810D01*
X32744560Y20409292D01*
X31753629Y20409292D01*
X31831550Y20525909D01*
X31943492Y20796162D01*
X32000560Y21083060D01*
X32000560Y21375580D01*
X31943492Y21662478D01*
X31831550Y21932731D01*
X31669035Y22175952D01*
X31462192Y22382795D01*
X31218971Y22545310D01*
X30948718Y22657252D01*
X30661820Y22714320D01*
X30369300Y22714320D01*
X30082402Y22657252D01*
X29812149Y22545310D01*
X29568928Y22382795D01*
X29362085Y22175952D01*
X29199570Y21932731D01*
X29087628Y21662478D01*
X29030560Y21375580D01*
X29030560Y21083060D01*
X29087628Y20796162D01*
X29199570Y20525909D01*
X29362085Y20282688D01*
X29493940Y20150833D01*
X29421380Y20128822D01*
X29311066Y20069857D01*
X29214375Y19990505D01*
X29135023Y19893814D01*
X29076058Y19783500D01*
X29039748Y19663802D01*
X29027488Y19539320D01*
X26338021Y19539320D01*
X26334878Y23256092D01*
X55600443Y23231789D01*
%TD*%
M02*
