%TF.GenerationSoftware,KiCad,Pcbnew,(5.1.6-0-10_14)*%
%TF.CreationDate,2020-09-05T01:35:09-04:00*%
%TF.ProjectId,solder_beep,736f6c64-6572-45f6-9265-65702e6b6963,rev?*%
%TF.SameCoordinates,Original*%
%TF.FileFunction,Other,Fab,Top*%
%FSLAX46Y46*%
G04 Gerber Fmt 4.6, Leading zero omitted, Abs format (unit mm)*
G04 Created by KiCad (PCBNEW (5.1.6-0-10_14)) date 2020-09-05 01:35:09*
%MOMM*%
%LPD*%
G01*
G04 APERTURE LIST*
%ADD10C,0.100000*%
%ADD11C,0.150000*%
G04 APERTURE END LIST*
D10*
%TO.C,U1*%
X36335800Y9626960D02*
X36335800Y12551960D01*
X36335800Y12551960D02*
X41235800Y12551960D01*
X41235800Y12551960D02*
X41235800Y8651960D01*
X41235800Y8651960D02*
X37310800Y8651960D01*
X37310800Y8651960D02*
X36335800Y9626960D01*
%TO.C,D2*%
X38768120Y2350720D02*
X38768120Y1550720D01*
X40368120Y2350720D02*
X38768120Y2350720D01*
X40368120Y1850720D02*
X40368120Y2350720D01*
X40068120Y1550720D02*
X40368120Y1850720D01*
X38768120Y1550720D02*
X40068120Y1550720D01*
%TO.C,D1*%
X41799560Y2466440D02*
X42599560Y2466440D01*
X41799560Y4066440D02*
X41799560Y2466440D01*
X42299560Y4066440D02*
X41799560Y4066440D01*
X42599560Y3766440D02*
X42299560Y4066440D01*
X42599560Y2466440D02*
X42599560Y3766440D01*
%TO.C,R2*%
X34372960Y7376160D02*
G75*
G03*
X34372960Y7376160I-1800000J0D01*
G01*
X32572960Y7376160D02*
X32572960Y14996160D01*
%TO.C,R3*%
X34579560Y20228560D02*
X42199560Y20228560D01*
X36379560Y20228560D02*
G75*
G03*
X36379560Y20228560I-1800000J0D01*
G01*
%TO.C,R1*%
X45704760Y20091400D02*
X53324760Y20091400D01*
X47504760Y20091400D02*
G75*
G03*
X47504760Y20091400I-1800000J0D01*
G01*
%TO.C,C1*%
X37999480Y3375760D02*
X37999480Y4975760D01*
X37999480Y4975760D02*
X34999480Y4975760D01*
X34999480Y4975760D02*
X34999480Y3375760D01*
X34999480Y3375760D02*
X37999480Y3375760D01*
%TO.C,J1*%
X31150560Y17419320D02*
X29245560Y17419320D01*
X29245560Y17419320D02*
X29245560Y22499320D01*
X29245560Y22499320D02*
X31785560Y22499320D01*
X31785560Y22499320D02*
X31785560Y18054320D01*
X31785560Y18054320D02*
X31150560Y17419320D01*
%TO.C,BZ1*%
X55265840Y10688480D02*
G75*
G03*
X55265840Y10688480I-6000000J0D01*
G01*
X50265840Y10688480D02*
G75*
G03*
X50265840Y10688480I-1000000J0D01*
G01*
%TD*%
%TO.C,BZ1*%
D11*
X46797268Y6497527D02*
X46797268Y7259432D01*
X47178220Y6878480D02*
X46416316Y6878480D01*
%TD*%
M02*
