%TF.GenerationSoftware,KiCad,Pcbnew,(5.1.6-0-10_14)*%
%TF.CreationDate,2020-09-05T01:35:09-04:00*%
%TF.ProjectId,solder_beep,736f6c64-6572-45f6-9265-65702e6b6963,rev?*%
%TF.SameCoordinates,Original*%
%TF.FileFunction,Legend,Top*%
%TF.FilePolarity,Positive*%
%FSLAX46Y46*%
G04 Gerber Fmt 4.6, Leading zero omitted, Abs format (unit mm)*
G04 Created by KiCad (PCBNEW (5.1.6-0-10_14)) date 2020-09-05 01:35:09*
%MOMM*%
%LPD*%
G01*
G04 APERTURE LIST*
%ADD10C,0.120000*%
%ADD11C,0.150000*%
G04 APERTURE END LIST*
D10*
%TO.C,U1*%
X41345800Y10601960D02*
X41345800Y12551960D01*
X41345800Y10601960D02*
X41345800Y8651960D01*
X36225800Y10601960D02*
X36225800Y12551960D01*
X36225800Y10601960D02*
X36225800Y7151960D01*
%TO.C,D2*%
X41053120Y2685720D02*
X38768120Y2685720D01*
X41053120Y1215720D02*
X41053120Y2685720D01*
X38768120Y1215720D02*
X41053120Y1215720D01*
%TO.C,D1*%
X41464560Y4751440D02*
X41464560Y2466440D01*
X42934560Y4751440D02*
X41464560Y4751440D01*
X42934560Y2466440D02*
X42934560Y4751440D01*
%TO.C,R2*%
X34492960Y7376160D02*
G75*
G03*
X34492960Y7376160I-1920000J0D01*
G01*
X32572960Y9296160D02*
X32572960Y13496160D01*
%TO.C,R3*%
X36499560Y20228560D02*
X40699560Y20228560D01*
X36499560Y20228560D02*
G75*
G03*
X36499560Y20228560I-1920000J0D01*
G01*
%TO.C,R1*%
X47624760Y20091400D02*
X51824760Y20091400D01*
X47624760Y20091400D02*
G75*
G03*
X47624760Y20091400I-1920000J0D01*
G01*
%TO.C,C1*%
X37128480Y3255760D02*
X35870480Y3255760D01*
X37128480Y5095760D02*
X35870480Y5095760D01*
%TO.C,J1*%
X31845560Y22559320D02*
X29185560Y22559320D01*
X31845560Y19959320D02*
X31845560Y22559320D01*
X29185560Y19959320D02*
X29185560Y22559320D01*
X31845560Y19959320D02*
X29185560Y19959320D01*
X31845560Y18689320D02*
X31845560Y17359320D01*
X31845560Y17359320D02*
X30515560Y17359320D01*
%TO.C,BZ1*%
X55365840Y10688480D02*
G75*
G03*
X55365840Y10688480I-6100000J0D01*
G01*
D11*
X46797268Y6497527D02*
X46797268Y7259432D01*
X47178220Y6878480D02*
X46416316Y6878480D01*
%TD*%
M02*
