M48
; DRILL file {KiCad (5.1.6-0-10_14)} date Sunday, August 16, 2020 at 01:10:11 AM
; FORMAT={-:-/ absolute / inch / decimal}
; #@! TF.CreationDate,2020-08-16T01:10:11-04:00
; #@! TF.GenerationSoftware,Kicad,Pcbnew,(5.1.6-0-10_14)
; #@! TF.FileFunction,Plated,1,2,PTH
FMAT,2
INCH
T1C0.0276
T2C0.0315
T3C0.0394
%
G90
G05
T1
X0.987Y0.092
X0.867Y0.092
X1.227Y0.092
X1.347Y0.092
X1.467Y0.092
X1.587Y0.093
X1.802Y0.213
X1.801Y0.333
X0.162Y1.14
X1.107Y0.092
X1.634Y1.052
X1.274Y1.049
X0.162Y1.02
X1.394Y1.049
X1.514Y1.049
X1.8Y0.5
X1.8Y0.625
X0.727Y0.093
X0.163Y0.9
X0.163Y0.78
X0.247Y0.093
X0.367Y0.093
X0.607Y0.093
X0.487Y0.093
T2
X0.7856Y1.054
X0.884Y1.054
X0.5656Y1.049
X0.664Y1.049
X1.217Y0.854
X1.517Y0.854
X0.579Y0.824
X0.7759Y0.824
X1.0156Y1.059
X1.114Y1.059
T3
X0.2948Y0.6305
X0.2948Y0.3305
X0.3948Y0.6305
X0.3948Y0.3305
X0.4948Y0.6305
X0.4948Y0.3305
X0.5948Y0.6305
X0.5948Y0.3305
X0.6948Y0.6305
X0.6948Y0.3305
X0.7948Y0.6305
X0.7948Y0.3305
X0.8948Y0.6305
X0.8948Y0.3305
X0.9948Y0.6305
X0.9948Y0.3305
X1.0948Y0.6305
X1.0948Y0.3305
X1.1948Y0.6305
X1.1948Y0.3305
X1.2948Y0.6305
X1.2948Y0.3305
X1.3948Y0.6305
X1.3948Y0.3305
X1.4948Y0.6305
X1.4948Y0.3305
X1.5948Y0.6305
X1.5948Y0.3305
T0
M30
