<?xml version="1.0" standalone="no"?>
 <!DOCTYPE svg PUBLIC "-//W3C//DTD SVG 1.1//EN" 
 "http://www.w3.org/Graphics/SVG/1.1/DTD/svg11.dtd"> 
<svg
  xmlns:svg="http://www.w3.org/2000/svg"
  xmlns="http://www.w3.org/2000/svg"
  xmlns:xlink="http://www.w3.org/1999/xlink"
  version="1.1"
  width="29.700220cm" height="21.000720cm" viewBox="0 0 116930 82680">
<title>SVG Picture created as atmega328compactboard-F_Cu.svg date 2020/08/15 20:27:15 </title>
  <desc>Picture generated by PCBNEW </desc>
<g style="fill:#000000; fill-opacity:1;stroke:#000000; stroke-opacity:1;
stroke-linecap:round; stroke-linejoin:round;"
 transform="translate(0 0) scale(1 1)">
</g>
<g style="fill:#000000; fill-opacity:0.0; 
stroke:#000000; stroke-width:-0.000393701; stroke-opacity:1; 
stroke-linecap:round; stroke-linejoin:round;">
<g >
</g>
<g style="fill:#000000; fill-opacity:0.0; 
stroke:#000000; stroke-width:629.921; stroke-opacity:1; 
stroke-linecap:round; stroke-linejoin:round;">
<path d="M45770 39120
L45770 39120
" />
</g>
<g style="fill:#000000; fill-opacity:1.0; 
stroke:#000000; stroke-width:0; stroke-opacity:1; 
stroke-linecap:round; stroke-linejoin:round;">
<circle cx="45770" cy="42120" r="314.961" /> 
</g>
<g style="fill:#000000; fill-opacity:1.0; 
stroke:#000000; stroke-width:39.3701; stroke-opacity:1; 
stroke-linecap:round; stroke-linejoin:round;">
</g>
<g >
</g>
<g style="fill:#000000; fill-opacity:1.0; 
stroke:#000000; stroke-width:39.3701; stroke-opacity:1; 
stroke-linecap:round; stroke-linejoin:round;">
</g>
<g style="fill:#000000; fill-opacity:1.0; 
stroke:#000000; stroke-width:0; stroke-opacity:1; 
stroke-linecap:round; stroke-linejoin:round;">
<circle cx="43160" cy="42794.3" r="314.961" /> 
</g>
<g style="fill:#000000; fill-opacity:1.0; 
stroke:#000000; stroke-width:39.3701; stroke-opacity:1; 
stroke-linecap:round; stroke-linejoin:round;">
</g>
<g style="fill:#000000; fill-opacity:1.0; 
stroke:#000000; stroke-width:0; stroke-opacity:1; 
stroke-linecap:round; stroke-linejoin:round;">
<path style="fill:#000000; fill-opacity:1.0; 
stroke:#000000; stroke-width:0; stroke-opacity:1; 
stroke-linecap:round; stroke-linejoin:round;fill-rule:evenodd;"
d="M 42845,41495
43475,41495
43475,42125
42845,42125
Z" /> 
</g>
<g >
</g>
<g style="fill:#000000; fill-opacity:1.0; 
stroke:#000000; stroke-width:0; stroke-opacity:1; 
stroke-linecap:round; stroke-linejoin:round;">
<circle cx="43260" cy="46310" r="314.961" /> 
</g>
<g style="fill:#000000; fill-opacity:1.0; 
stroke:#000000; stroke-width:39.3701; stroke-opacity:1; 
stroke-linecap:round; stroke-linejoin:round;">
</g>
<g style="fill:#000000; fill-opacity:1.0; 
stroke:#000000; stroke-width:0; stroke-opacity:1; 
stroke-linecap:round; stroke-linejoin:round;">
<circle cx="43260" cy="47294.3" r="314.961" /> 
</g>
<g style="fill:#000000; fill-opacity:1.0; 
stroke:#000000; stroke-width:39.3701; stroke-opacity:1; 
stroke-linecap:round; stroke-linejoin:round;">
</g>
<g >
</g>
<g style="fill:#000000; fill-opacity:1.0; 
stroke:#000000; stroke-width:39.3701; stroke-opacity:1; 
stroke-linecap:round; stroke-linejoin:round;">
</g>
<g style="fill:#000000; fill-opacity:1.0; 
stroke:#000000; stroke-width:0; stroke-opacity:1; 
stroke-linecap:round; stroke-linejoin:round;">
<circle cx="43210" cy="45094.3" r="314.961" /> 
</g>
<g style="fill:#000000; fill-opacity:1.0; 
stroke:#000000; stroke-width:39.3701; stroke-opacity:1; 
stroke-linecap:round; stroke-linejoin:round;">
</g>
<g style="fill:#000000; fill-opacity:1.0; 
stroke:#000000; stroke-width:0; stroke-opacity:1; 
stroke-linecap:round; stroke-linejoin:round;">
<circle cx="43210" cy="44110" r="314.961" /> 
</g>
<g style="fill:#000000; fill-opacity:1.0; 
stroke:#000000; stroke-width:39.3701; stroke-opacity:1; 
stroke-linecap:round; stroke-linejoin:round;">
</g>
<g >
</g>
<g style="fill:#000000; fill-opacity:1.0; 
stroke:#000000; stroke-width:39.3701; stroke-opacity:1; 
stroke-linecap:round; stroke-linejoin:round;">
</g>
<g style="fill:#000000; fill-opacity:1.0; 
stroke:#000000; stroke-width:0; stroke-opacity:1; 
stroke-linecap:round; stroke-linejoin:round;">
<circle cx="45510" cy="45191.5" r="295.276" /> 
</g>
<g style="fill:#000000; fill-opacity:1.0; 
stroke:#000000; stroke-width:39.3701; stroke-opacity:1; 
stroke-linecap:round; stroke-linejoin:round;">
</g>
<g style="fill:#000000; fill-opacity:1.0; 
stroke:#000000; stroke-width:0; stroke-opacity:1; 
stroke-linecap:round; stroke-linejoin:round;">
<circle cx="45510" cy="47160" r="295.276" /> 
</g>
<g style="fill:#000000; fill-opacity:1.0; 
stroke:#000000; stroke-width:39.3701; stroke-opacity:1; 
stroke-linecap:round; stroke-linejoin:round;">
</g>
<g >
</g>
<g style="fill:#000000; fill-opacity:1.0; 
stroke:#000000; stroke-width:39.3701; stroke-opacity:1; 
stroke-linecap:round; stroke-linejoin:round;">
</g>
<g style="fill:#000000; fill-opacity:1.0; 
stroke:#000000; stroke-width:0; stroke-opacity:1; 
stroke-linecap:round; stroke-linejoin:round;">
<circle cx="50445" cy="37002.1" r="314.961" /> 
</g>
<g style="fill:#000000; fill-opacity:1.0; 
stroke:#000000; stroke-width:39.3701; stroke-opacity:1; 
stroke-linecap:round; stroke-linejoin:round;">
</g>
<g style="fill:#000000; fill-opacity:1.0; 
stroke:#000000; stroke-width:0; stroke-opacity:1; 
stroke-linecap:round; stroke-linejoin:round;">
<circle cx="50445" cy="38002.1" r="314.961" /> 
</g>
<g style="fill:#000000; fill-opacity:1.0; 
stroke:#000000; stroke-width:39.3701; stroke-opacity:1; 
stroke-linecap:round; stroke-linejoin:round;">
</g>
<g style="fill:#000000; fill-opacity:1.0; 
stroke:#000000; stroke-width:0; stroke-opacity:1; 
stroke-linecap:round; stroke-linejoin:round;">
<circle cx="50445" cy="39002.1" r="314.961" /> 
</g>
<g style="fill:#000000; fill-opacity:1.0; 
stroke:#000000; stroke-width:39.3701; stroke-opacity:1; 
stroke-linecap:round; stroke-linejoin:round;">
</g>
<g style="fill:#000000; fill-opacity:1.0; 
stroke:#000000; stroke-width:0; stroke-opacity:1; 
stroke-linecap:round; stroke-linejoin:round;">
<circle cx="50445" cy="40002.1" r="314.961" /> 
</g>
<g style="fill:#000000; fill-opacity:1.0; 
stroke:#000000; stroke-width:39.3701; stroke-opacity:1; 
stroke-linecap:round; stroke-linejoin:round;">
</g>
<g style="fill:#000000; fill-opacity:1.0; 
stroke:#000000; stroke-width:0; stroke-opacity:1; 
stroke-linecap:round; stroke-linejoin:round;">
<circle cx="50445" cy="41002.1" r="314.961" /> 
</g>
<g style="fill:#000000; fill-opacity:1.0; 
stroke:#000000; stroke-width:39.3701; stroke-opacity:1; 
stroke-linecap:round; stroke-linejoin:round;">
</g>
<g style="fill:#000000; fill-opacity:1.0; 
stroke:#000000; stroke-width:0; stroke-opacity:1; 
stroke-linecap:round; stroke-linejoin:round;">
<circle cx="50445" cy="42002.1" r="314.961" /> 
</g>
<g style="fill:#000000; fill-opacity:1.0; 
stroke:#000000; stroke-width:39.3701; stroke-opacity:1; 
stroke-linecap:round; stroke-linejoin:round;">
</g>
<g style="fill:#000000; fill-opacity:1.0; 
stroke:#000000; stroke-width:0; stroke-opacity:1; 
stroke-linecap:round; stroke-linejoin:round;">
<circle cx="50445" cy="43002.1" r="314.961" /> 
</g>
<g style="fill:#000000; fill-opacity:1.0; 
stroke:#000000; stroke-width:39.3701; stroke-opacity:1; 
stroke-linecap:round; stroke-linejoin:round;">
</g>
<g style="fill:#000000; fill-opacity:1.0; 
stroke:#000000; stroke-width:0; stroke-opacity:1; 
stroke-linecap:round; stroke-linejoin:round;">
<circle cx="50445" cy="44002.1" r="314.961" /> 
</g>
<g style="fill:#000000; fill-opacity:1.0; 
stroke:#000000; stroke-width:39.3701; stroke-opacity:1; 
stroke-linecap:round; stroke-linejoin:round;">
</g>
<g style="fill:#000000; fill-opacity:1.0; 
stroke:#000000; stroke-width:0; stroke-opacity:1; 
stroke-linecap:round; stroke-linejoin:round;">
<circle cx="50445" cy="45002.1" r="314.961" /> 
</g>
<g style="fill:#000000; fill-opacity:1.0; 
stroke:#000000; stroke-width:39.3701; stroke-opacity:1; 
stroke-linecap:round; stroke-linejoin:round;">
</g>
<g style="fill:#000000; fill-opacity:1.0; 
stroke:#000000; stroke-width:0; stroke-opacity:1; 
stroke-linecap:round; stroke-linejoin:round;">
<circle cx="50445" cy="46002.1" r="314.961" /> 
</g>
<g style="fill:#000000; fill-opacity:1.0; 
stroke:#000000; stroke-width:39.3701; stroke-opacity:1; 
stroke-linecap:round; stroke-linejoin:round;">
</g>
<g style="fill:#000000; fill-opacity:1.0; 
stroke:#000000; stroke-width:0; stroke-opacity:1; 
stroke-linecap:round; stroke-linejoin:round;">
<circle cx="50445" cy="47002.1" r="314.961" /> 
</g>
<g style="fill:#000000; fill-opacity:1.0; 
stroke:#000000; stroke-width:39.3701; stroke-opacity:1; 
stroke-linecap:round; stroke-linejoin:round;">
</g>
<g style="fill:#000000; fill-opacity:1.0; 
stroke:#000000; stroke-width:0; stroke-opacity:1; 
stroke-linecap:round; stroke-linejoin:round;">
<circle cx="50445" cy="48002.1" r="314.961" /> 
</g>
<g style="fill:#000000; fill-opacity:1.0; 
stroke:#000000; stroke-width:39.3701; stroke-opacity:1; 
stroke-linecap:round; stroke-linejoin:round;">
</g>
<g style="fill:#000000; fill-opacity:1.0; 
stroke:#000000; stroke-width:0; stroke-opacity:1; 
stroke-linecap:round; stroke-linejoin:round;">
<circle cx="50445" cy="49002.1" r="314.961" /> 
</g>
<g style="fill:#000000; fill-opacity:1.0; 
stroke:#000000; stroke-width:39.3701; stroke-opacity:1; 
stroke-linecap:round; stroke-linejoin:round;">
</g>
<g style="fill:#000000; fill-opacity:1.0; 
stroke:#000000; stroke-width:0; stroke-opacity:1; 
stroke-linecap:round; stroke-linejoin:round;">
<circle cx="50445" cy="50002.1" r="314.961" /> 
</g>
<g style="fill:#000000; fill-opacity:1.0; 
stroke:#000000; stroke-width:39.3701; stroke-opacity:1; 
stroke-linecap:round; stroke-linejoin:round;">
</g>
<g style="fill:#000000; fill-opacity:1.0; 
stroke:#000000; stroke-width:0; stroke-opacity:1; 
stroke-linecap:round; stroke-linejoin:round;">
<circle cx="47445" cy="50002.1" r="314.961" /> 
</g>
<g style="fill:#000000; fill-opacity:1.0; 
stroke:#000000; stroke-width:39.3701; stroke-opacity:1; 
stroke-linecap:round; stroke-linejoin:round;">
</g>
<g style="fill:#000000; fill-opacity:1.0; 
stroke:#000000; stroke-width:0; stroke-opacity:1; 
stroke-linecap:round; stroke-linejoin:round;">
<circle cx="47445" cy="49002.1" r="314.961" /> 
</g>
<g style="fill:#000000; fill-opacity:1.0; 
stroke:#000000; stroke-width:39.3701; stroke-opacity:1; 
stroke-linecap:round; stroke-linejoin:round;">
</g>
<g style="fill:#000000; fill-opacity:1.0; 
stroke:#000000; stroke-width:0; stroke-opacity:1; 
stroke-linecap:round; stroke-linejoin:round;">
<circle cx="47445" cy="48002.1" r="314.961" /> 
</g>
<g style="fill:#000000; fill-opacity:1.0; 
stroke:#000000; stroke-width:39.3701; stroke-opacity:1; 
stroke-linecap:round; stroke-linejoin:round;">
</g>
<g style="fill:#000000; fill-opacity:1.0; 
stroke:#000000; stroke-width:0; stroke-opacity:1; 
stroke-linecap:round; stroke-linejoin:round;">
<circle cx="47445" cy="47002.1" r="314.961" /> 
</g>
<g style="fill:#000000; fill-opacity:1.0; 
stroke:#000000; stroke-width:39.3701; stroke-opacity:1; 
stroke-linecap:round; stroke-linejoin:round;">
</g>
<g style="fill:#000000; fill-opacity:1.0; 
stroke:#000000; stroke-width:0; stroke-opacity:1; 
stroke-linecap:round; stroke-linejoin:round;">
<circle cx="47445" cy="46002.1" r="314.961" /> 
</g>
<g style="fill:#000000; fill-opacity:1.0; 
stroke:#000000; stroke-width:39.3701; stroke-opacity:1; 
stroke-linecap:round; stroke-linejoin:round;">
</g>
<g style="fill:#000000; fill-opacity:1.0; 
stroke:#000000; stroke-width:0; stroke-opacity:1; 
stroke-linecap:round; stroke-linejoin:round;">
<circle cx="47445" cy="45002.1" r="314.961" /> 
</g>
<g style="fill:#000000; fill-opacity:1.0; 
stroke:#000000; stroke-width:39.3701; stroke-opacity:1; 
stroke-linecap:round; stroke-linejoin:round;">
</g>
<g style="fill:#000000; fill-opacity:1.0; 
stroke:#000000; stroke-width:0; stroke-opacity:1; 
stroke-linecap:round; stroke-linejoin:round;">
<circle cx="47445" cy="44002.1" r="314.961" /> 
</g>
<g style="fill:#000000; fill-opacity:1.0; 
stroke:#000000; stroke-width:39.3701; stroke-opacity:1; 
stroke-linecap:round; stroke-linejoin:round;">
</g>
<g style="fill:#000000; fill-opacity:1.0; 
stroke:#000000; stroke-width:0; stroke-opacity:1; 
stroke-linecap:round; stroke-linejoin:round;">
<circle cx="47445" cy="43002.1" r="314.961" /> 
</g>
<g style="fill:#000000; fill-opacity:1.0; 
stroke:#000000; stroke-width:39.3701; stroke-opacity:1; 
stroke-linecap:round; stroke-linejoin:round;">
</g>
<g style="fill:#000000; fill-opacity:1.0; 
stroke:#000000; stroke-width:0; stroke-opacity:1; 
stroke-linecap:round; stroke-linejoin:round;">
<circle cx="47445" cy="42002.1" r="314.961" /> 
</g>
<g style="fill:#000000; fill-opacity:1.0; 
stroke:#000000; stroke-width:39.3701; stroke-opacity:1; 
stroke-linecap:round; stroke-linejoin:round;">
</g>
<g style="fill:#000000; fill-opacity:1.0; 
stroke:#000000; stroke-width:0; stroke-opacity:1; 
stroke-linecap:round; stroke-linejoin:round;">
<circle cx="47445" cy="41002.1" r="314.961" /> 
</g>
<g style="fill:#000000; fill-opacity:1.0; 
stroke:#000000; stroke-width:39.3701; stroke-opacity:1; 
stroke-linecap:round; stroke-linejoin:round;">
</g>
<g style="fill:#000000; fill-opacity:1.0; 
stroke:#000000; stroke-width:0; stroke-opacity:1; 
stroke-linecap:round; stroke-linejoin:round;">
<circle cx="47445" cy="40002.1" r="314.961" /> 
</g>
<g style="fill:#000000; fill-opacity:1.0; 
stroke:#000000; stroke-width:39.3701; stroke-opacity:1; 
stroke-linecap:round; stroke-linejoin:round;">
</g>
<g style="fill:#000000; fill-opacity:1.0; 
stroke:#000000; stroke-width:0; stroke-opacity:1; 
stroke-linecap:round; stroke-linejoin:round;">
<circle cx="47445" cy="39002.1" r="314.961" /> 
</g>
<g style="fill:#000000; fill-opacity:1.0; 
stroke:#000000; stroke-width:39.3701; stroke-opacity:1; 
stroke-linecap:round; stroke-linejoin:round;">
</g>
<g style="fill:#000000; fill-opacity:1.0; 
stroke:#000000; stroke-width:0; stroke-opacity:1; 
stroke-linecap:round; stroke-linejoin:round;">
<circle cx="47445" cy="38002.1" r="314.961" /> 
</g>
<g style="fill:#000000; fill-opacity:1.0; 
stroke:#000000; stroke-width:39.3701; stroke-opacity:1; 
stroke-linecap:round; stroke-linejoin:round;">
</g>
<g style="fill:#000000; fill-opacity:1.0; 
stroke:#000000; stroke-width:0; stroke-opacity:1; 
stroke-linecap:round; stroke-linejoin:round;">
<path style="fill:#000000; fill-opacity:1.0; 
stroke:#000000; stroke-width:0; stroke-opacity:1; 
stroke-linecap:round; stroke-linejoin:round;fill-rule:evenodd;"
d="M 47130,37317.1
47130,36687.2
47759.9,36687.2
47759.9,37317.1
Z" /> 
</g>
<g >
</g>
<g style="fill:#000000; fill-opacity:1.0; 
stroke:#000000; stroke-width:0; stroke-opacity:1; 
stroke-linecap:round; stroke-linejoin:round;">
<circle cx="51860" cy="47160" r="275.591" /> 
</g>
<g style="fill:#000000; fill-opacity:1.0; 
stroke:#000000; stroke-width:39.3701; stroke-opacity:1; 
stroke-linecap:round; stroke-linejoin:round;">
</g>
<g >
</g>
<g style="fill:#000000; fill-opacity:1.0; 
stroke:#000000; stroke-width:39.3701; stroke-opacity:1; 
stroke-linecap:round; stroke-linejoin:round;">
</g>
<g style="fill:#000000; fill-opacity:1.0; 
stroke:#000000; stroke-width:0; stroke-opacity:1; 
stroke-linecap:round; stroke-linejoin:round;">
<circle cx="51860" cy="48210" r="275.591" /> 
</g>
<g style="fill:#000000; fill-opacity:1.0; 
stroke:#000000; stroke-width:39.3701; stroke-opacity:1; 
stroke-linecap:round; stroke-linejoin:round;">
</g>
<g >
</g>
<g style="fill:#000000; fill-opacity:1.0; 
stroke:#000000; stroke-width:39.3701; stroke-opacity:1; 
stroke-linecap:round; stroke-linejoin:round;">
</g>
<g style="fill:#000000; fill-opacity:1.0; 
stroke:#000000; stroke-width:0; stroke-opacity:1; 
stroke-linecap:round; stroke-linejoin:round;">
<circle cx="51860" cy="49260" r="275.591" /> 
</g>
<g style="fill:#000000; fill-opacity:1.0; 
stroke:#000000; stroke-width:39.3701; stroke-opacity:1; 
stroke-linecap:round; stroke-linejoin:round;">
</g>
<g >
</g>
<g style="fill:#000000; fill-opacity:1.0; 
stroke:#000000; stroke-width:39.3701; stroke-opacity:1; 
stroke-linecap:round; stroke-linejoin:round;">
</g>
<g style="fill:#000000; fill-opacity:1.0; 
stroke:#000000; stroke-width:0; stroke-opacity:1; 
stroke-linecap:round; stroke-linejoin:round;">
<circle cx="51860" cy="50360" r="275.591" /> 
</g>
<g style="fill:#000000; fill-opacity:1.0; 
stroke:#000000; stroke-width:39.3701; stroke-opacity:1; 
stroke-linecap:round; stroke-linejoin:round;">
</g>
<g >
</g>
<g style="fill:#000000; fill-opacity:1.0; 
stroke:#000000; stroke-width:39.3701; stroke-opacity:1; 
stroke-linecap:round; stroke-linejoin:round;">
</g>
<g style="fill:#000000; fill-opacity:1.0; 
stroke:#000000; stroke-width:0; stroke-opacity:1; 
stroke-linecap:round; stroke-linejoin:round;">
<circle cx="47100" cy="51270" r="275.591" /> 
</g>
<g style="fill:#000000; fill-opacity:1.0; 
stroke:#000000; stroke-width:39.3701; stroke-opacity:1; 
stroke-linecap:round; stroke-linejoin:round;">
</g>
<g >
</g>
<g style="fill:#000000; fill-opacity:1.0; 
stroke:#000000; stroke-width:39.3701; stroke-opacity:1; 
stroke-linecap:round; stroke-linejoin:round;">
</g>
<g style="fill:#000000; fill-opacity:1.0; 
stroke:#000000; stroke-width:0; stroke-opacity:1; 
stroke-linecap:round; stroke-linejoin:round;">
<circle cx="45850" cy="51270" r="275.591" /> 
</g>
<g style="fill:#000000; fill-opacity:1.0; 
stroke:#000000; stroke-width:39.3701; stroke-opacity:1; 
stroke-linecap:round; stroke-linejoin:round;">
</g>
<g >
</g>
<g style="fill:#000000; fill-opacity:1.0; 
stroke:#000000; stroke-width:39.3701; stroke-opacity:1; 
stroke-linecap:round; stroke-linejoin:round;">
</g>
<g style="fill:#000000; fill-opacity:1.0; 
stroke:#000000; stroke-width:0; stroke-opacity:1; 
stroke-linecap:round; stroke-linejoin:round;">
<circle cx="51860" cy="46060" r="275.591" /> 
</g>
<g style="fill:#000000; fill-opacity:1.0; 
stroke:#000000; stroke-width:39.3701; stroke-opacity:1; 
stroke-linecap:round; stroke-linejoin:round;">
</g>
<g >
</g>
<g style="fill:#000000; fill-opacity:1.0; 
stroke:#000000; stroke-width:39.3701; stroke-opacity:1; 
stroke-linecap:round; stroke-linejoin:round;">
</g>
<g style="fill:#000000; fill-opacity:1.0; 
stroke:#000000; stroke-width:0; stroke-opacity:1; 
stroke-linecap:round; stroke-linejoin:round;">
<circle cx="47500" cy="34950" r="275.591" /> 
</g>
<g style="fill:#000000; fill-opacity:1.0; 
stroke:#000000; stroke-width:39.3701; stroke-opacity:1; 
stroke-linecap:round; stroke-linejoin:round;">
</g>
<g >
</g>
<g style="fill:#000000; fill-opacity:1.0; 
stroke:#000000; stroke-width:39.3701; stroke-opacity:1; 
stroke-linecap:round; stroke-linejoin:round;">
</g>
<g style="fill:#000000; fill-opacity:1.0; 
stroke:#000000; stroke-width:0; stroke-opacity:1; 
stroke-linecap:round; stroke-linejoin:round;">
<circle cx="48750" cy="34950" r="275.591" /> 
</g>
<g style="fill:#000000; fill-opacity:1.0; 
stroke:#000000; stroke-width:39.3701; stroke-opacity:1; 
stroke-linecap:round; stroke-linejoin:round;">
</g>
<g >
</g>
<g style="fill:#000000; fill-opacity:1.0; 
stroke:#000000; stroke-width:39.3701; stroke-opacity:1; 
stroke-linecap:round; stroke-linejoin:round;">
</g>
<g style="fill:#000000; fill-opacity:1.0; 
stroke:#000000; stroke-width:0; stroke-opacity:1; 
stroke-linecap:round; stroke-linejoin:round;">
<circle cx="43260" cy="38110" r="275.591" /> 
</g>
<g style="fill:#000000; fill-opacity:1.0; 
stroke:#000000; stroke-width:39.3701; stroke-opacity:1; 
stroke-linecap:round; stroke-linejoin:round;">
</g>
<g >
</g>
<g style="fill:#000000; fill-opacity:1.0; 
stroke:#000000; stroke-width:39.3701; stroke-opacity:1; 
stroke-linecap:round; stroke-linejoin:round;">
</g>
<g style="fill:#000000; fill-opacity:1.0; 
stroke:#000000; stroke-width:0; stroke-opacity:1; 
stroke-linecap:round; stroke-linejoin:round;">
<circle cx="43260" cy="39160" r="275.591" /> 
</g>
<g style="fill:#000000; fill-opacity:1.0; 
stroke:#000000; stroke-width:39.3701; stroke-opacity:1; 
stroke-linecap:round; stroke-linejoin:round;">
</g>
<g >
</g>
<g style="fill:#000000; fill-opacity:1.0; 
stroke:#000000; stroke-width:39.3701; stroke-opacity:1; 
stroke-linecap:round; stroke-linejoin:round;">
</g>
<g style="fill:#000000; fill-opacity:1.0; 
stroke:#000000; stroke-width:0; stroke-opacity:1; 
stroke-linecap:round; stroke-linejoin:round;">
<circle cx="43260" cy="40210" r="275.591" /> 
</g>
<g style="fill:#000000; fill-opacity:1.0; 
stroke:#000000; stroke-width:39.3701; stroke-opacity:1; 
stroke-linecap:round; stroke-linejoin:round;">
</g>
<g >
</g>
<g style="fill:#000000; fill-opacity:1.0; 
stroke:#000000; stroke-width:39.3701; stroke-opacity:1; 
stroke-linecap:round; stroke-linejoin:round;">
</g>
<g style="fill:#000000; fill-opacity:1.0; 
stroke:#000000; stroke-width:0; stroke-opacity:1; 
stroke-linecap:round; stroke-linejoin:round;">
<circle cx="43340" cy="51280" r="275.591" /> 
</g>
<g style="fill:#000000; fill-opacity:1.0; 
stroke:#000000; stroke-width:39.3701; stroke-opacity:1; 
stroke-linecap:round; stroke-linejoin:round;">
</g>
<g >
</g>
<g style="fill:#000000; fill-opacity:1.0; 
stroke:#000000; stroke-width:39.3701; stroke-opacity:1; 
stroke-linecap:round; stroke-linejoin:round;">
</g>
<g style="fill:#000000; fill-opacity:1.0; 
stroke:#000000; stroke-width:0; stroke-opacity:1; 
stroke-linecap:round; stroke-linejoin:round;">
<circle cx="44600" cy="51280" r="275.591" /> 
</g>
<g style="fill:#000000; fill-opacity:1.0; 
stroke:#000000; stroke-width:39.3701; stroke-opacity:1; 
stroke-linecap:round; stroke-linejoin:round;">
</g>
<g >
</g>
<g style="fill:#000000; fill-opacity:1.0; 
stroke:#000000; stroke-width:39.3701; stroke-opacity:1; 
stroke-linecap:round; stroke-linejoin:round;">
</g>
<g style="fill:#000000; fill-opacity:1.0; 
stroke:#000000; stroke-width:0; stroke-opacity:1; 
stroke-linecap:round; stroke-linejoin:round;">
<circle cx="43160" cy="36360" r="275.591" /> 
</g>
<g style="fill:#000000; fill-opacity:1.0; 
stroke:#000000; stroke-width:39.3701; stroke-opacity:1; 
stroke-linecap:round; stroke-linejoin:round;">
</g>
<g >
</g>
<g style="fill:#000000; fill-opacity:1.0; 
stroke:#000000; stroke-width:39.3701; stroke-opacity:1; 
stroke-linecap:round; stroke-linejoin:round;">
</g>
<g style="fill:#000000; fill-opacity:1.0; 
stroke:#000000; stroke-width:0; stroke-opacity:1; 
stroke-linecap:round; stroke-linejoin:round;">
<circle cx="52550" cy="40990" r="275.591" /> 
</g>
<g style="fill:#000000; fill-opacity:1.0; 
stroke:#000000; stroke-width:39.3701; stroke-opacity:1; 
stroke-linecap:round; stroke-linejoin:round;">
</g>
<g >
</g>
<g style="fill:#000000; fill-opacity:1.0; 
stroke:#000000; stroke-width:39.3701; stroke-opacity:1; 
stroke-linecap:round; stroke-linejoin:round;">
</g>
<g style="fill:#000000; fill-opacity:1.0; 
stroke:#000000; stroke-width:0; stroke-opacity:1; 
stroke-linecap:round; stroke-linejoin:round;">
<circle cx="50420" cy="34940" r="275.591" /> 
</g>
<g style="fill:#000000; fill-opacity:1.0; 
stroke:#000000; stroke-width:39.3701; stroke-opacity:1; 
stroke-linecap:round; stroke-linejoin:round;">
</g>
<g >
</g>
<g style="fill:#000000; fill-opacity:1.0; 
stroke:#000000; stroke-width:39.3701; stroke-opacity:1; 
stroke-linecap:round; stroke-linejoin:round;">
</g>
<g style="fill:#000000; fill-opacity:1.0; 
stroke:#000000; stroke-width:0; stroke-opacity:1; 
stroke-linecap:round; stroke-linejoin:round;">
<circle cx="51720" cy="34910" r="275.591" /> 
</g>
<g style="fill:#000000; fill-opacity:1.0; 
stroke:#000000; stroke-width:39.3701; stroke-opacity:1; 
stroke-linecap:round; stroke-linejoin:round;">
</g>
<g >
</g>
<g style="fill:#000000; fill-opacity:1.0; 
stroke:#000000; stroke-width:39.3701; stroke-opacity:1; 
stroke-linecap:round; stroke-linejoin:round;">
</g>
<g style="fill:#000000; fill-opacity:1.0; 
stroke:#000000; stroke-width:0; stroke-opacity:1; 
stroke-linecap:round; stroke-linejoin:round;">
<circle cx="52550" cy="36690" r="275.591" /> 
</g>
<g style="fill:#000000; fill-opacity:1.0; 
stroke:#000000; stroke-width:39.3701; stroke-opacity:1; 
stroke-linecap:round; stroke-linejoin:round;">
</g>
<g >
</g>
<g style="fill:#000000; fill-opacity:1.0; 
stroke:#000000; stroke-width:39.3701; stroke-opacity:1; 
stroke-linecap:round; stroke-linejoin:round;">
</g>
<g style="fill:#000000; fill-opacity:1.0; 
stroke:#000000; stroke-width:0; stroke-opacity:1; 
stroke-linecap:round; stroke-linejoin:round;">
<circle cx="52550" cy="37740" r="275.591" /> 
</g>
<g style="fill:#000000; fill-opacity:1.0; 
stroke:#000000; stroke-width:39.3701; stroke-opacity:1; 
stroke-linecap:round; stroke-linejoin:round;">
</g>
<g >
</g>
<g style="fill:#000000; fill-opacity:1.0; 
stroke:#000000; stroke-width:39.3701; stroke-opacity:1; 
stroke-linecap:round; stroke-linejoin:round;">
</g>
<g style="fill:#000000; fill-opacity:1.0; 
stroke:#000000; stroke-width:0; stroke-opacity:1; 
stroke-linecap:round; stroke-linejoin:round;">
<circle cx="52550" cy="38790" r="275.591" /> 
</g>
<g style="fill:#000000; fill-opacity:1.0; 
stroke:#000000; stroke-width:39.3701; stroke-opacity:1; 
stroke-linecap:round; stroke-linejoin:round;">
</g>
<g >
</g>
<g style="fill:#000000; fill-opacity:1.0; 
stroke:#000000; stroke-width:39.3701; stroke-opacity:1; 
stroke-linecap:round; stroke-linejoin:round;">
</g>
<g style="fill:#000000; fill-opacity:1.0; 
stroke:#000000; stroke-width:0; stroke-opacity:1; 
stroke-linecap:round; stroke-linejoin:round;">
<circle cx="52550" cy="39840" r="275.591" /> 
</g>
<g style="fill:#000000; fill-opacity:1.0; 
stroke:#000000; stroke-width:39.3701; stroke-opacity:1; 
stroke-linecap:round; stroke-linejoin:round;">
</g>
<g >
</g>
<g style="fill:#000000; fill-opacity:1.0; 
stroke:#000000; stroke-width:39.3701; stroke-opacity:1; 
stroke-linecap:round; stroke-linejoin:round;">
</g>
<g style="fill:#000000; fill-opacity:1.0; 
stroke:#000000; stroke-width:0; stroke-opacity:1; 
stroke-linecap:round; stroke-linejoin:round;">
<circle cx="52600" cy="44120" r="275.591" /> 
</g>
<g style="fill:#000000; fill-opacity:1.0; 
stroke:#000000; stroke-width:39.3701; stroke-opacity:1; 
stroke-linecap:round; stroke-linejoin:round;">
</g>
<g >
</g>
<g style="fill:#000000; fill-opacity:1.0; 
stroke:#000000; stroke-width:39.3701; stroke-opacity:1; 
stroke-linecap:round; stroke-linejoin:round;">
</g>
<g style="fill:#000000; fill-opacity:1.0; 
stroke:#000000; stroke-width:0; stroke-opacity:1; 
stroke-linecap:round; stroke-linejoin:round;">
<circle cx="52600" cy="42670" r="275.591" /> 
</g>
<g style="fill:#000000; fill-opacity:1.0; 
stroke:#000000; stroke-width:39.3701; stroke-opacity:1; 
stroke-linecap:round; stroke-linejoin:round;">
</g>
<g >
</g>
<g >
</g>
<g style="fill:#000000; fill-opacity:1.0; 
stroke:#000000; stroke-width:39.3701; stroke-opacity:1; 
stroke-linecap:round; stroke-linejoin:round;">
</g>
<g style="fill:#000000; fill-opacity:1.0; 
stroke:#000000; stroke-width:300; stroke-opacity:1; 
stroke-linecap:round; stroke-linejoin:round;">
</g>
<g style="fill:#000000; fill-opacity:0.0; 
stroke:#000000; stroke-width:300; stroke-opacity:1; 
stroke-linecap:round; stroke-linejoin:round;">
<path d="M49444 45002
L47444 43002
" />
<path d="M50444 45002
L49444 45002
" />
<path d="M47444 43002
L47444 42894
" />
<path d="M51327 44120
L50444 45002
" />
<path d="M52600 44120
L51327 44120
" />
<path d="M46652 43002
L45770 42120
" />
<path d="M47444 43002
L46652 43002
" />
<path d="M43470 42120
L43160 41810
" />
<path d="M45770 42120
L43470 42120
" />
</g>
<g style="fill:#000000; fill-opacity:0.0; 
stroke:#000000; stroke-width:100; stroke-opacity:1; 
stroke-linecap:round; stroke-linejoin:round;">
<path d="M50444 41945
L50444 42002
" />
<path d="M52550 39840
L50444 41945
" />
<path d="M50444 40895
L50444 41002
" />
<path d="M52550 38790
L50444 40895
" />
<path d="M50444 39845
L50444 40002
" />
<path d="M52550 37740
L50444 39845
" />
<path d="M50444 38795
L50444 39002
" />
<path d="M52550 36690
L50444 38795
" />
<path d="M51720 36727
L50444 38002
" />
<path d="M51720 34910
L51720 36727
" />
<path d="M50420 36977
L50444 37002
" />
<path d="M50420 34940
L50420 36977
" />
<path d="M52550 41897
L50444 44002
" />
<path d="M52550 40990
L52550 41897
" />
</g>
<g style="fill:#000000; fill-opacity:0.0; 
stroke:#000000; stroke-width:98.4252; stroke-opacity:1; 
stroke-linecap:round; stroke-linejoin:round;">
<path d="M50502 46060
L50444 46002
" />
<path d="M51860 46060
L50502 46060
" />
<path d="M50602 47160
L50444 47002
" />
<path d="M51860 47160
L50602 47160
" />
<path d="M51652 48002
L51860 48210
" />
<path d="M50444 48002
L51652 48002
" />
<path d="M50702 49260
L50444 49002
" />
<path d="M51860 49260
L50702 49260
" />
<path d="M50444 50002
L50939 50002
" />
<path d="M51297 50360
L51860 50360
" />
<path d="M50939 50002
L51297 50360
" />
</g>
<g style="fill:#000000; fill-opacity:0.0; 
stroke:#000000; stroke-width:100; stroke-opacity:1; 
stroke-linecap:round; stroke-linejoin:round;">
<path d="M47444 50925
L47100 51270
" />
<path d="M47444 50002
L47444 50925
" />
<path d="M45850 50597
L45850 51270
" />
<path d="M47444 49002
L45850 50597
" />
<path d="M44600 50847
L44600 51280
" />
<path d="M47444 48002
L44600 50847
" />
<path d="M43340 51107
L43340 51280
" />
<path d="M47444 47002
L43340 51107
" />
<path d="M46667 46002
L45510 47160
" />
<path d="M47444 46002
L46667 46002
" />
<path d="M43394 47160
L43260 47294
" />
<path d="M45510 47160
L43394 47160
" />
</g>
<g style="fill:#000000; fill-opacity:0.0; 
stroke:#000000; stroke-width:98.4252; stroke-opacity:1; 
stroke-linecap:round; stroke-linejoin:round;">
<path d="M47444 45002
L47444 45025
" />
</g>
<g style="fill:#000000; fill-opacity:0.0; 
stroke:#000000; stroke-width:100; stroke-opacity:1; 
stroke-linecap:round; stroke-linejoin:round;">
<path d="M45699 45002
L45510 45191
" />
<path d="M47444 45002
L45699 45002
" />
<path d="M43307 45191
L43210 45094
" />
<path d="M45510 45191
L43307 45191
" />
</g>
<g style="fill:#000000; fill-opacity:0.0; 
stroke:#000000; stroke-width:98.4252; stroke-opacity:1; 
stroke-linecap:round; stroke-linejoin:round;">
<path d="M44417 41367
L43260 40210
" />
<path d="M46809 41367
L44417 41367
" />
<path d="M47444 42002
L46809 41367
" />
<path d="M45102 41002
L43260 39160
" />
<path d="M47444 41002
L45102 41002
" />
<path d="M45152 40002
L43260 38110
" />
<path d="M47444 40002
L45152 40002
" />
</g>
<g style="fill:#000000; fill-opacity:0.0; 
stroke:#000000; stroke-width:100; stroke-opacity:1; 
stroke-linecap:round; stroke-linejoin:round;">
<path d="M48750 37697
L47444 39002
" />
<path d="M48750 34950
L48750 37697
" />
<path d="M47909 37537
L47444 38002
" />
<path d="M47909 35359
L47909 37537
" />
<path d="M47500 34950
L47909 35359
" />
<path d="M45770 38677
L45770 39120
" />
<path d="M47444 37002
L45770 38677
" />
<path d="M43160 36510
L43160 36360
" />
<path d="M45770 39120
L43160 36510
" />
</g>
<g >
</g>
<g style="fill:#000000; fill-opacity:0.0; 
stroke:#000000; stroke-width:100; stroke-opacity:1; 
stroke-linecap:round; stroke-linejoin:round;">
</g>
<g style="fill:#000000; fill-opacity:1.0; 
stroke:#000000; stroke-width:100; stroke-opacity:1; 
stroke-linecap:round; stroke-linejoin:round;">
<path style="fill:#000000; fill-opacity:1.0; 
stroke:#000000; stroke-width:100; stroke-opacity:1; 
stroke-linecap:round; stroke-linejoin:round;fill-rule:evenodd;"
d="M 53819.9,33559.2
53800.4,52000.2
41799.8,52000.2
41799.8,46337.8
42693,46337.8
42709.3,46447.8
42746.8,46552.6
42773.1,46601.9
42869.2,46630.1
43189.3,46310
43330.7,46310
43650.8,46630.1
43746.9,46601.9
43794.5,46501.3
43821.5,46393.4
43827,46282.2
43810.7,46172.2
43773.2,46067.4
43746.9,46018.1
43650.8,45989.9
43330.7,46310
43189.3,46310
42869.2,45989.9
42773.1,46018.1
42725.5,46118.7
42698.5,46226.6
42693,46337.8
41799.8,46337.8
41799.8,45919.2
42939.9,45919.2
43260,46239.3
43580.1,45919.2
43551.9,45823.1
43451.3,45775.5
43343.4,45748.5
43232.2,45743
43122.2,45759.3
43017.4,45796.8
42968.1,45823.1
42939.9,45919.2
41799.8,45919.2
41799.8,45038.6
42645,45038.6
42645,45149.9
42666.8,45259
42709.3,45361.9
42771.2,45454.4
42849.9,45533.1
42942.4,45594.9
43045.2,45637.5
43154.4,45659.2
43265.6,45659.2
43374.8,45637.5
43477.6,45594.9
43570.1,45533.1
43611.7,45491.5
45054.7,45491.5
45086.5,45539.1
45162.4,45615
45251.7,45674.7
45350.9,45715.8
45456.3,45736.8
45563.7,45736.8
45669.1,45715.8
45768.3,45674.7
45857.6,45615
45933.5,45539.1
45993.2,45449.8
46034.3,45350.5
46044,45302.1
46966,45302.1
47006.2,45362.3
47084.8,45441
47176.4,45502.1
47084.8,45563.3
47006.2,45642
46966,45702.1
46682.6,45702.1
46667.9,45700.7
46653.1,45702.1
46653.1,45702.1
46609.1,45706.5
46552.5,45723.6
46500.4,45751.5
46454.7,45789
46445.3,45800.4
45619.8,46625.9
45563.7,46614.7
45456.3,46614.7
45350.9,46635.7
45251.7,46676.8
45162.4,46736.5
45086.5,46812.4
45054.7,46860
43624.7,46860
43620.1,46855.4
43541.2,46802.6
43551.9,46796.9
43580.1,46700.8
43260,46380.7
42939.9,46700.8
42968.1,46796.9
42979.4,46802.3
42899.9,46855.4
42821.2,46934.1
42759.3,47026.6
42716.8,47129.5
42695,47238.6
42695,47349.9
42716.8,47459
42759.3,47561.9
42821.2,47654.4
42899.9,47733.1
42992.4,47794.9
43095.2,47837.5
43204.4,47859.2
43315.6,47859.2
43424.8,47837.5
43527.6,47794.9
43620.1,47733.1
43698.8,47654.4
43760.7,47561.9
43802.9,47460
45054.7,47460
45086.5,47507.6
45162.4,47583.5
45251.7,47643.2
45350.9,47684.3
45456.3,47705.3
45563.7,47705.3
45669.1,47684.3
45768.3,47643.2
45857.6,47583.5
45933.5,47507.6
45993.2,47418.3
46034.3,47319.1
46055.3,47213.7
46055.3,47106.3
46044.1,47050.2
46792.1,46302.1
46966,46302.1
47006.2,46362.3
47084.8,46441
47176.4,46502.1
47084.8,46563.3
47006.2,46642
46944.3,46734.5
46901.7,46837.3
46880,46946.5
46880,47057.8
46894.1,47128.7
43263.5,50759.3
43186.7,50774.6
43091,50814.2
43005,50871.7
42931.7,50945
42874.2,51031
42834.6,51126.7
42814.4,51228.2
42814.4,51331.8
42834.6,51433.3
42874.2,51529
42931.7,51615
43005,51688.3
43091,51745.8
43186.7,51785.4
43288.2,51805.6
43391.8,51805.6
43493.3,51785.4
43589,51745.8
43675,51688.3
43748.3,51615
43805.8,51529
43845.4,51433.3
43865.6,51331.8
43865.6,51228.2
43845.4,51126.7
43815.9,51055.5
46880,47991.4
46880,48057.8
46894.1,48128.7
44398.3,50624.6
44386.8,50634
44369.7,50654.9
44349.4,50679.6
44341.1,50695
44321.5,50731.8
44304.3,50788.3
44302.2,50810.3
44298.5,50847.1
44298.8,50849.2
44265,50871.7
44191.7,50945
44134.2,51031
44094.6,51126.7
44074.4,51228.2
44074.4,51331.8
44094.6,51433.3
44134.2,51529
44191.7,51615
44265,51688.3
44351,51745.8
44446.7,51785.4
44548.2,51805.6
44651.8,51805.6
44753.3,51785.4
44849,51745.8
44935,51688.3
45008.3,51615
45065.8,51529
45105.4,51433.3
45125.6,51331.8
45125.6,51228.2
45105.4,51126.7
45065.8,51031
45008.3,50945
44967.3,50904
46880,48991.4
46880,49057.8
46894.1,49128.7
45648.3,50374.6
45636.8,50384
45615,50410.6
45599.4,50429.6
45593.3,50441
45571.5,50481.8
45554.3,50538.3
45551.4,50568.6
45548.5,50597.1
45550,50611.8
45550,50838.3
45515,50861.7
45441.7,50935
45384.2,51021
45344.6,51116.7
45324.4,51218.2
45324.4,51321.8
45344.6,51423.3
45384.2,51519
45441.7,51605
45515,51678.3
45601,51735.8
45696.7,51775.4
45798.2,51795.6
45901.8,51795.6
46003.3,51775.4
46099,51735.8
46185,51678.3
46258.3,51605
46315.8,51519
46355.4,51423.3
46375.6,51321.8
46375.6,51218.2
46355.4,51116.7
46315.8,51021
46258.3,50935
46185,50861.7
46150,50838.3
46150,50721.4
46880,49991.4
46880,50057.8
46901.7,50166.9
46944.3,50269.7
47006.2,50362.3
47084.8,50441
47145,50481.1
47145,50744.4
47048.2,50744.4
46946.7,50764.6
46851,50804.2
46765,50861.7
46691.7,50935
46634.2,51021
46594.6,51116.7
46574.4,51218.2
46574.4,51321.8
46594.6,51423.3
46634.2,51519
46691.7,51605
46765,51678.3
46851,51735.8
46946.7,51775.4
47048.2,51795.6
47151.8,51795.6
47253.3,51775.4
47349,51735.8
47435,51678.3
47508.3,51605
47565.8,51519
47605.4,51423.3
47625.6,51321.8
47625.6,51218.2
47617.4,51176.9
47646.7,51147.6
47658.1,51138.2
47681.9,51109.2
47695.6,51092.5
47723.5,51040.4
47723.5,51040.4
47740.6,50983.8
47745,50939.7
47745,50939.7
47746.4,50925
47745,50910.3
47745,50481.1
47805.1,50441
47883.8,50362.3
47945.6,50269.7
47988.2,50166.9
48009.9,50057.8
48009.9,49946.5
47988.2,49837.3
47945.6,49734.5
47883.8,49642
47805.1,49563.3
47713.6,49502.1
47805.1,49441
47883.8,49362.3
47945.6,49269.7
47988.2,49166.9
48009.9,49057.8
48009.9,48946.5
47988.2,48837.3
47945.6,48734.5
47883.8,48642
47805.1,48563.3
47713.6,48502.1
47805.1,48441
47883.8,48362.3
47945.6,48269.7
47988.2,48166.9
48009.9,48057.8
48009.9,47946.5
47988.2,47837.3
47945.6,47734.5
47883.8,47642
47805.1,47563.3
47713.6,47502.1
47805.1,47441
47883.8,47362.3
47945.6,47269.7
47988.2,47166.9
48009.9,47057.8
48009.9,46946.5
47988.2,46837.3
47945.6,46734.5
47883.8,46642
47805.1,46563.3
47713.6,46502.1
47805.1,46441
47883.8,46362.3
47945.6,46269.7
47988.2,46166.9
48009.9,46057.8
48009.9,45946.5
47988.2,45837.3
47945.6,45734.5
47883.8,45642
47805.1,45563.3
47713.6,45502.1
47805.1,45441
47883.8,45362.3
47945.6,45269.7
47988.2,45166.9
48009.9,45057.8
48009.9,44946.5
47988.2,44837.3
47945.6,44734.5
47883.8,44642
47805.1,44563.3
47713,44501.8
47736.9,44489
47765.1,44393
47445,44072.8
47124.9,44393
47153.1,44489
47178.4,44501
47177.4,44501.5
47084.8,44563.3
47006.2,44642
46966,44702.1
45753.4,44702.1
45669.1,44667.2
45563.7,44646.2
45456.3,44646.2
45350.9,44667.2
45251.7,44708.3
45162.4,44768
45086.5,44843.9
45054.7,44891.5
43737.5,44891.5
43710.7,44826.6
43648.8,44734.1
43570.1,44655.4
43491.2,44602.6
43501.9,44596.9
43530.1,44500.8
43210,44180.7
42889.9,44500.8
42918.1,44596.9
42929.4,44602.3
42849.9,44655.4
42771.2,44734.1
42709.3,44826.6
42666.8,44929.5
42645,45038.6
41799.8,45038.6
41799.8,44137.8
42643,44137.8
42659.3,44247.8
42696.8,44352.6
42723.1,44401.9
42819.2,44430.1
43139.3,44110
43280.7,44110
43600.8,44430.1
43696.9,44401.9
43744.5,44301.3
43771.5,44193.4
43777,44082.2
43769.3,44029.9
46878,44029.9
46894.3,44140
46931.8,44244.8
46958.1,44294.1
47054.2,44322.2
47374.3,44002.1
47054.2,43682
46958.1,43710.2
46910.5,43810.8
46883.5,43918.7
46878,44029.9
43769.3,44029.9
43760.7,43972.2
43723.2,43867.4
43696.9,43818.1
43600.8,43789.9
43280.7,44110
43139.3,44110
42819.2,43789.9
42723.1,43818.1
42675.5,43918.7
42648.5,44026.6
42643,44137.8
41799.8,44137.8
41799.8,43719.2
42889.9,43719.2
43210,44039.3
43530.1,43719.2
43501.9,43623.1
43401.3,43575.5
43293.4,43548.5
43182.2,43543
43072.2,43559.3
42967.4,43596.8
42918.1,43623.1
42889.9,43719.2
41799.8,43719.2
41799.8,43185.1
42839.9,43185.1
42868.1,43281.1
42968.7,43328.7
43076.6,43355.8
43187.8,43361.3
43297.8,43345
43402.6,43307.5
43451.9,43281.1
43480.1,43185.1
43160,42865
42839.9,43185.1
41799.8,43185.1
41799.8,42822
42593,42822
42609.3,42932.1
42646.8,43036.9
42673.1,43086.2
42769.2,43114.4
43089.3,42794.3
42769.2,42474.1
42673.1,42502.3
42625.5,42602.9
42598.5,42710.9
42593,42822
41799.8,42822
41799.8,41495
42593.8,41495
42593.8,42125
42598.7,42174
42613,42221.1
42636.2,42264.5
42667.4,42302.6
42705.5,42333.8
42748.9,42357
42796,42371.3
42845,42376.2
42847.9,42376.2
42839.9,42403.4
43160,42723.5
43165.6,42718
43236.3,42788.7
43230.7,42794.3
43550.8,43114.4
43646.9,43086.2
43694.5,42985.6
43721.5,42877.6
43727,42766.5
43710.7,42656.4
43673.2,42551.6
43656.3,42520
45371,42520
45409.9,42558.8
45502.4,42620.7
45605.2,42663.2
45714.4,42685
45769.3,42685
46355.4,43271.1
46367.9,43286.3
46428.8,43336.3
46465.2,43355.8
46498.3,43373.5
46573.7,43396.3
46652.1,43404.1
46671.8,43402.1
47046,43402.1
47084.8,43441
47176.9,43502.5
47153.1,43515.2
47124.9,43611.3
47445,43931.4
47450.6,43925.8
47521.3,43996.6
47515.7,44002.1
47835.8,44322.2
47931.9,44294.1
47979.5,44193.5
47997.7,44120.6
49148.3,45271.1
49160.8,45286.3
49221.7,45336.3
49264.1,45359
49291.2,45373.5
49366.6,45396.3
49445,45404.1
49464.6,45402.1
50046,45402.1
50084.8,45441
50176.4,45502.1
50084.8,45563.3
50006.2,45642
49944.3,45734.5
49901.7,45837.3
49880,45946.5
49880,46057.8
49901.7,46166.9
49944.3,46269.7
50006.2,46362.3
50084.8,46441
50176.4,46502.1
50084.8,46563.3
50006.2,46642
49944.3,46734.5
49901.7,46837.3
49880,46946.5
49880,47057.8
49901.7,47166.9
49944.3,47269.7
50006.2,47362.3
50084.8,47441
50176.4,47502.1
50084.8,47563.3
50006.2,47642
49944.3,47734.5
49901.7,47837.3
49880,47946.5
49880,48057.8
49901.7,48166.9
49944.3,48269.7
50006.2,48362.3
50084.8,48441
50176.4,48502.1
50084.8,48563.3
50006.2,48642
49944.3,48734.5
49901.7,48837.3
49880,48946.5
49880,49057.8
49901.7,49166.9
49944.3,49269.7
50006.2,49362.3
50084.8,49441
50176.4,49502.1
50084.8,49563.3
50006.2,49642
49944.3,49734.5
49901.7,49837.3
49880,49946.5
49880,50057.8
49901.7,50166.9
49944.3,50269.7
50006.2,50362.3
50084.8,50441
50177.4,50502.8
50280.2,50545.4
50389.3,50567.1
50500.6,50567.1
50609.8,50545.4
50712.6,50502.8
50805.1,50441
50880.4,50365.7
51075.8,50561.2
51085.2,50572.6
51096.6,50582
51130.8,50610
51167,50629.4
51182.7,50637.8
51239.1,50654.9
51283.1,50659.2
51283.1,50659.2
51297.8,50660.7
51312.5,50659.2
51427.8,50659.2
51451.7,50695
51525,50768.3
51611,50825.8
51706.7,50865.4
51808.2,50885.6
51911.8,50885.6
52013.3,50865.4
52109,50825.8
52195,50768.3
52268.3,50695
52325.8,50609
52365.4,50513.3
52385.6,50411.8
52385.6,50308.2
52365.4,50206.7
52325.8,50111
52268.3,50025
52195,49951.7
52109,49894.2
52013.3,49854.6
51911.8,49834.4
51808.2,49834.4
51706.7,49854.6
51611,49894.2
51525,49951.7
51451.7,50025
51427.8,50060.8
51421.7,50060.8
51161.9,49800.9
51152.5,49789.5
51107,49752.1
51055,49724.4
50998.6,49707.2
50954.6,49702.9
50954.6,49702.9
50939.9,49701.5
50925.2,49702.9
50924.5,49702.9
50883.8,49642
50805.1,49563.3
50799,49559.2
51427.8,49559.2
51451.7,49595
51525,49668.3
51611,49725.8
51706.7,49765.4
51808.2,49785.6
51911.8,49785.6
52013.3,49765.4
52109,49725.8
52195,49668.3
52268.3,49595
52325.8,49509
52365.4,49413.3
52385.6,49311.8
52385.6,49208.2
52365.4,49106.7
52325.8,49011
52268.3,48925
52195,48851.7
52109,48794.2
52013.3,48754.6
51914.7,48735
52013.3,48715.4
52109,48675.8
52195,48618.3
52268.3,48545
52325.8,48459
52365.4,48363.3
52385.6,48261.8
52385.6,48158.2
52365.4,48056.7
52325.8,47961
52268.3,47875
52195,47801.7
52109,47744.2
52013.3,47704.6
51914.7,47685
52013.3,47665.4
52109,47625.8
52195,47568.3
52268.3,47495
52325.8,47409
52365.4,47313.3
52385.6,47211.8
52385.6,47108.2
52365.4,47006.7
52325.8,46911
52268.3,46825
52195,46751.7
52109,46694.2
52013.3,46654.6
51911.8,46634.4
51808.2,46634.4
51706.7,46654.6
51611,46694.2
51525,46751.7
51451.7,46825
51427.8,46860.8
50992.9,46860.8
50988.2,46837.3
50945.6,46734.5
50883.8,46642
50805.1,46563.3
50713.6,46502.1
50805.1,46441
50883.8,46362.3
50885.9,46359.2
51427.8,46359.2
51451.7,46395
51525,46468.3
51611,46525.8
51706.7,46565.4
51808.2,46585.6
51911.8,46585.6
52013.3,46565.4
52109,46525.8
52195,46468.3
52268.3,46395
52325.8,46309
52365.4,46213.3
52385.6,46111.8
52385.6,46008.2
52365.4,45906.7
52325.8,45811
52268.3,45725
52195,45651.7
52109,45594.2
52013.3,45554.6
51911.8,45534.4
51808.2,45534.4
51706.7,45554.6
51611,45594.2
51525,45651.7
51451.7,45725
51427.8,45760.8
50956.5,45760.8
50945.6,45734.5
50883.8,45642
50805.1,45563.3
50713.6,45502.1
50805.1,45441
50883.8,45362.3
50945.6,45269.7
50988.2,45166.9
51009.9,45057.8
51009.9,45002.9
51492.8,44520
52256.7,44520
52265,44528.3
52351,44585.8
52446.7,44625.4
52548.2,44645.6
52651.8,44645.6
52753.3,44625.4
52849,44585.8
52935,44528.3
53008.3,44455
53065.8,44369
53105.4,44273.3
53125.6,44171.8
53125.6,44068.2
53105.4,43966.7
53065.8,43871
53008.3,43785
52935,43711.7
52849,43654.2
52753.3,43614.6
52651.8,43594.4
52548.2,43594.4
52446.7,43614.6
52351,43654.2
52265,43711.7
52256.7,43720
51346.8,43720
51327.1,43718.1
51248.7,43725.8
51173.3,43748.7
51153,43759.5
51103.8,43785.8
51042.9,43835.8
51030.4,43851.1
50997.5,43883.9
50995.8,43875.5
51838.7,43032.7
52308,43032.7
52331.4,43124.7
52425.3,43168.4
52525.9,43192.9
52629.3,43197.3
52731.6,43181.5
52828.9,43146
52868.6,43124.7
52892,43032.7
52600,42740.7
52308,43032.7
51838.7,43032.7
52086,42785.4
52088.5,42801.6
52124,42898.9
52145.3,42938.6
52237.3,42962
52529.3,42670
52670.7,42670
52962.7,42962
53054.7,42938.6
53098.4,42844.7
53122.9,42744.1
53127.3,42640.7
53111.5,42538.4
53076,42441.1
53054.7,42401.4
52962.7,42378
52670.7,42670
52529.3,42670
52523.7,42664.4
52594.4,42593.7
52600,42599.3
52892,42307.3
52868.6,42215.3
52774.7,42171.6
52714.5,42156.9
52751.7,42119.7
52763.2,42110.3
52800.6,42064.6
52828.5,42012.5
52845.7,41955.9
52850,41911.8
52850,41911.8
52851.5,41897.1
52850,41882.4
52850,41421.7
52885,41398.3
52958.3,41325
53015.8,41239
53055.4,41143.3
53075.6,41041.8
53075.6,40938.2
53055.4,40836.7
53015.8,40741
52958.3,40655
52885,40581.7
52799,40524.2
52703.3,40484.6
52601.8,40464.4
52498.2,40464.4
52396.7,40484.6
52301,40524.2
52267.9,40546.4
52456.9,40357.4
52498.2,40365.6
52601.8,40365.6
52703.3,40345.4
52799,40305.8
52885,40248.3
52958.3,40175
53015.8,40089
53055.4,39993.3
53075.6,39891.8
53075.6,39788.2
53055.4,39686.7
53015.8,39591
52958.3,39505
52885,39431.7
52799,39374.2
52703.3,39334.6
52604.7,39315
52703.3,39295.4
52799,39255.8
52885,39198.3
52958.3,39125
53015.8,39039
53055.4,38943.3
53075.6,38841.8
53075.6,38738.2
53055.4,38636.7
53015.8,38541
52958.3,38455
52885,38381.7
52799,38324.2
52703.3,38284.6
52604.7,38265
52703.3,38245.4
52799,38205.8
52885,38148.3
52958.3,38075
53015.8,37989
53055.4,37893.3
53075.6,37791.8
53075.6,37688.2
53055.4,37586.7
53015.8,37491
52958.3,37405
52885,37331.7
52799,37274.2
52703.3,37234.6
52604.7,37215
52703.3,37195.4
52799,37155.8
52885,37098.3
52958.3,37025
53015.8,36939
53055.4,36843.3
53075.6,36741.8
53075.6,36638.2
53055.4,36536.7
53015.8,36441
52958.3,36355
52885,36281.7
52799,36224.2
52703.3,36184.6
52601.8,36164.4
52498.2,36164.4
52396.7,36184.6
52301,36224.2
52215,36281.7
52141.7,36355
52084.2,36441
52044.6,36536.7
52024.4,36638.2
52024.4,36741.8
52032.6,36783.1
52009.5,36806.2
52015.7,36785.9
52020,36741.8
52020,36741.8
52021.5,36727.1
52020,36712.4
52020,35341.7
52055,35318.3
52128.3,35245
52185.8,35159
52225.4,35063.3
52245.6,34961.8
52245.6,34858.2
52225.4,34756.7
52185.8,34661
52128.3,34575
52055,34501.7
51969,34444.2
51873.3,34404.6
51771.8,34384.4
51668.2,34384.4
51566.7,34404.6
51471,34444.2
51385,34501.7
51311.7,34575
51254.2,34661
51214.6,34756.7
51194.4,34858.2
51194.4,34961.8
51214.6,35063.3
51254.2,35159
51311.7,35245
51385,35318.3
51420,35341.7
51420,36602.8
51009.9,37012.9
51009.9,36946.5
50988.2,36837.3
50945.6,36734.5
50883.8,36642
50805.1,36563.3
50720,36506.4
50720,35371.7
50755,35348.3
50828.3,35275
50885.8,35189
50925.4,35093.3
50945.6,34991.8
50945.6,34888.2
50925.4,34786.7
50885.8,34691
50828.3,34605
50755,34531.7
50669,34474.2
50573.3,34434.6
50471.8,34414.4
50368.2,34414.4
50266.7,34434.6
50171,34474.2
50085,34531.7
50011.7,34605
49954.2,34691
49914.6,34786.7
49894.4,34888.2
49894.4,34991.8
49914.6,35093.3
49954.2,35189
50011.7,35275
50085,35348.3
50120,35371.7
50120,36539.8
50084.8,36563.3
50006.2,36642
49944.3,36734.5
49901.7,36837.3
49880,36946.5
49880,37057.8
49901.7,37166.9
49944.3,37269.7
50006.2,37362.3
50084.8,37441
50176.4,37502.1
50084.8,37563.3
50006.2,37642
49944.3,37734.5
49901.7,37837.3
49880,37946.5
49880,38057.8
49901.7,38166.9
49944.3,38269.7
50006.2,38362.3
50084.8,38441
50176.4,38502.1
50084.8,38563.3
50006.2,38642
49944.3,38734.5
49901.7,38837.3
49880,38946.5
49880,39057.8
49901.7,39166.9
49944.3,39269.7
50006.2,39362.3
50084.8,39441
50176.4,39502.1
50084.8,39563.3
50006.2,39642
49944.3,39734.5
49901.7,39837.3
49880,39946.5
49880,40057.8
49901.7,40166.9
49944.3,40269.7
50006.2,40362.3
50084.8,40441
50176.4,40502.1
50084.8,40563.3
50006.2,40642
49944.3,40734.5
49901.7,40837.3
49880,40946.5
49880,41057.8
49901.7,41166.9
49944.3,41269.7
50006.2,41362.3
50084.8,41441
50176.4,41502.1
50084.8,41563.3
50006.2,41642
49944.3,41734.5
49901.7,41837.3
49880,41946.5
49880,42057.8
49901.7,42166.9
49944.3,42269.7
50006.2,42362.3
50084.8,42441
50176.9,42502.5
50153.1,42515.2
50124.9,42611.3
50445,42931.4
50765.1,42611.3
50736.9,42515.2
50711.5,42503.2
50712.6,42502.8
50805.1,42441
50883.8,42362.3
50945.6,42269.7
50988.2,42166.9
51009.9,42057.8
51009.9,41946.5
50988.2,41837.3
50984.9,41829.3
52106.4,40707.9
52084.2,40741
52044.6,40836.7
52024.4,40938.2
52024.4,41041.8
52044.6,41143.3
52084.2,41239
52141.7,41325
52215,41398.3
52250,41421.7
52250,41772.8
51010.1,43012.7
51012,42974.4
50995.7,42864.3
50958.2,42759.5
50931.9,42710.2
50835.8,42682
50515.7,43002.1
50521.3,43007.7
50450.6,43078.4
50445,43072.8
50124.9,43393
50153.1,43489
50178.4,43501
50177.4,43501.5
50084.8,43563.3
50006.2,43642
49944.3,43734.5
49901.7,43837.3
49880,43946.5
49880,44057.8
49901.7,44166.9
49944.3,44269.7
50006.2,44362.3
50084.8,44441
50176.4,44502.1
50084.8,44563.3
50046,44602.1
49610.7,44602.1
48038.4,43029.9
49878,43029.9
49894.3,43140
49931.8,43244.8
49958.1,43294.1
50054.2,43322.2
50374.3,43002.1
50054.2,42682
49958.1,42710.2
49910.5,42810.8
49883.5,42918.7
49878,43029.9
48038.4,43029.9
48009.9,43001.4
48009.9,42946.5
47988.2,42837.3
47945.6,42734.5
47883.8,42642
47805.1,42563.3
47713.6,42502.1
47805.1,42441
47883.8,42362.3
47945.6,42269.7
47988.2,42166.9
48009.9,42057.8
48009.9,41946.5
47988.2,41837.3
47945.6,41734.5
47883.8,41642
47805.1,41563.3
47713.6,41502.1
47805.1,41441
47883.8,41362.3
47945.6,41269.7
47988.2,41166.9
48009.9,41057.8
48009.9,40946.5
47988.2,40837.3
47945.6,40734.5
47883.8,40642
47805.1,40563.3
47713.6,40502.1
47805.1,40441
47883.8,40362.3
47945.6,40269.7
47988.2,40166.9
48009.9,40057.8
48009.9,39946.5
47988.2,39837.3
47945.6,39734.5
47883.8,39642
47805.1,39563.3
47713.6,39502.1
47805.1,39441
47883.8,39362.3
47945.6,39269.7
47988.2,39166.9
48009.9,39057.8
48009.9,38946.5
47995.8,38875.5
48951.7,37919.7
48963.2,37910.3
49000.6,37864.6
49028.5,37812.5
49045.7,37755.9
49050,37711.8
49050,37711.8
49051.5,37697.1
49050,37682.4
49050,35381.7
49085,35358.3
49158.3,35285
49215.8,35199
49255.4,35103.3
49275.6,35001.8
49275.6,34898.2
49255.4,34796.7
49215.8,34701
49158.3,34615
49085,34541.7
48999,34484.2
48903.3,34444.6
48801.8,34424.4
48698.2,34424.4
48596.7,34444.6
48501,34484.2
48415,34541.7
48341.7,34615
48284.2,34701
48244.6,34796.7
48224.4,34898.2
48224.4,35001.8
48244.6,35103.3
48284.2,35199
48341.7,35285
48415,35358.3
48450,35381.7
48450,37572.8
48009.9,38012.9
48009.9,37946.5
47995.8,37875.5
48111.7,37759.7
48123.1,37750.3
48154.7,37711.8
48160.6,37704.6
48188.5,37652.5
48188.5,37652.5
48205.6,37596
48209.9,37551.9
48209.9,37551.9
48211.4,37537.2
48209.9,37522.4
48209.9,35374.7
48211.4,35359.9
48207.3,35318.3
48205.6,35301.1
48188.5,35244.6
48160.6,35192.5
48123.1,35146.8
48111.7,35137.4
48017.4,35043.1
48025.6,35001.8
48025.6,34898.2
48005.4,34796.7
47965.8,34701
47908.3,34615
47835,34541.7
47749,34484.2
47653.3,34444.6
47551.8,34424.4
47448.2,34424.4
47346.7,34444.6
47251,34484.2
47165,34541.7
47091.7,34615
47034.2,34701
46994.6,34796.7
46974.4,34898.2
46974.4,35001.8
46994.6,35103.3
47034.2,35199
47091.7,35285
47165,35358.3
47251,35415.8
47346.7,35455.4
47448.2,35475.6
47551.8,35475.6
47593.1,35467.4
47609.9,35484.2
47609.9,36436
47130,36436
47081,36440.8
47033.9,36455.1
46990.5,36478.3
46952.4,36509.5
46921.2,36547.6
46897.9,36591
46883.6,36638.2
46878.8,36687.2
46878.8,37144
45568.3,38454.6
45556.8,38464
45548.4,38474.2
43642.6,36568.3
43665.4,36513.3
43685.6,36411.8
43685.6,36308.2
43665.4,36206.7
43625.8,36111
43568.3,36025
43495,35951.7
43409,35894.2
43313.3,35854.6
43211.8,35834.4
43108.2,35834.4
43006.7,35854.6
42911,35894.2
42825,35951.7
42751.7,36025
42694.2,36111
42654.6,36206.7
42634.4,36308.2
42634.4,36411.8
42654.6,36513.3
42694.2,36609
42751.7,36695
42825,36768.3
42911,36825.8
43006.7,36865.4
43108.2,36885.6
43111.3,36885.6
45219.2,38993.4
45205,39064.4
45205,39175.6
45226.8,39284.8
45269.3,39387.6
45331.2,39480.1
45409.9,39558.8
45502.4,39620.7
45605.2,39663.2
45714.4,39685
45825.6,39685
45934.8,39663.2
46037.6,39620.7
46130.1,39558.8
46208.8,39480.1
46270.7,39387.6
46313.2,39284.8
46335,39175.6
46335,39064.4
46313.2,38955.2
46270.7,38852.4
46208.8,38759.9
46160.2,38711.2
46880,37991.4
46880,38057.8
46901.7,38166.9
46944.3,38269.7
47006.2,38362.3
47084.8,38441
47176.4,38502.1
47084.8,38563.3
47006.2,38642
46944.3,38734.5
46901.7,38837.3
46880,38946.5
46880,39057.8
46901.7,39166.9
46944.3,39269.7
47006.2,39362.3
47084.8,39441
47176.4,39502.1
47084.8,39563.3
47006.2,39642
46965.4,39702.9
45276.1,39702.9
43777.2,38204
43785.6,38161.8
43785.6,38058.2
43765.4,37956.7
43725.8,37861
43668.3,37775
43595,37701.7
43509,37644.2
43413.3,37604.6
43311.8,37584.4
43208.2,37584.4
43106.7,37604.6
43011,37644.2
42925,37701.7
42851.7,37775
42794.2,37861
42754.6,37956.7
42734.4,38058.2
42734.4,38161.8
42754.6,38263.3
42794.2,38359
42851.7,38445
42925,38518.3
43011,38575.8
43106.7,38615.4
43205.3,38635
43106.7,38654.6
43011,38694.2
42925,38751.7
42851.7,38825
42794.2,38911
42754.6,39006.7
42734.4,39108.2
42734.4,39211.8
42754.6,39313.3
42794.2,39409
42851.7,39495
42925,39568.3
43011,39625.8
43106.7,39665.4
43205.3,39685
43106.7,39704.6
43011,39744.2
42925,39801.7
42851.7,39875
42794.2,39961
42754.6,40056.7
42734.4,40158.2
42734.4,40261.8
42754.6,40363.3
42794.2,40459
42851.7,40545
42925,40618.3
43011,40675.8
43106.7,40715.4
43208.2,40735.6
43311.8,40735.6
43354,40727.2
44195.1,41568.3
44204.5,41579.7
44250,41617.1
44302,41644.9
44358.4,41662
44402.4,41666.3
44402.4,41666.3
44417.1,41667.7
44431.8,41666.3
45432.1,41666.3
45409.9,41681.2
45371,41720
43726.2,41720
43726.2,41495
43721.3,41446
43707,41398.9
43683.8,41355.5
43652.6,41317.4
43614.5,41286.2
43571.1,41263
43524,41248.7
43475,41243.8
42845,41243.8
42796,41248.7
42748.9,41263
42705.5,41286.2
42667.4,41317.4
42636.2,41355.5
42613,41398.9
42598.7,41446
42593.8,41495
41799.8,41495
41799.8,33530.5
Z" /> 
</g>
</g> 
</svg>
