<?xml version="1.0" standalone="no"?>
<!DOCTYPE svg PUBLIC "-//W3C//DTD SVG 1.1//EN"
"http://www.w3.org/Graphics/SVG/1.1/DTD/svg11.dtd">
<svg width="179.781" height="117.864" viewBox="0 0 3745.43 2455.5" version="1.1"
xmlns="http://www.w3.org/2000/svg"
xmlns:xlink="http://www.w3.org/1999/xlink">
<g fill-rule="evenodd"><path d="M 15.7475,323.428 L 15.7475,25.7495 L 15.9397,23.7986 L 16.5087,21.9227 L 17.4328,20.1938 L 18.6765,18.6785 L 20.1918,17.4348 L 21.9207,16.5107 L 23.7966,15.9417 L 25.7475,15.7495 L 3719.69,15.7495 L 3721.42,15.9019 L 3723.11,16.3544 L 3724.69,17.0933 L 3726.12,18.0959 L 3727.35,19.3318 L 3728.35,20.7633 L 3729.09,22.3468 L 3729.54,24.034 L 3729.69,25.7735 L 3723.93,2429.78 L 3723.74,2431.73 L 3723.16,2433.6 L 3722.24,2435.33 L 3720.99,2436.84 L 3719.48,2438.08 L 3717.75,2439 L 3715.87,2439.57 L 3713.92,2439.76 L 25.737,2435.87 L 23.7876,2435.67 L 21.9134,2435.1 L 20.1863,2434.18 L 18.6727,2432.93 L 17.4306,2431.42 L 16.5077,2429.69 L 15.9394,2427.82 L 15.7475,2425.87 L 15.7475,2027.43 L 15.7475,323.428M 1869.83,2236.01 L 1844.47,2261.37 L 1846.58,2269.66 L 1860.16,2275.98 L 1878.37,2280.41 L 1897.09,2281.21 L 1915.6,2278.34 L 1933.46,2271.82 L 1936.89,2269.99 L 1939.08,2261.37 L 1913.73,2236.01 L 1908.81,2238.2 L 1897.54,2240.6 L 1886.02,2240.6 L 1874.75,2238.2 L 1869.83,2236.01M 1841.34,2207.93 L 1837.87,2197.24 L 1836.66,2185.78 L 1837.87,2174.32 L 1841.34,2163.63 L 1816.19,2138.48 L 1807.9,2140.58 L 1801.58,2154.16 L 1797.15,2172.37 L 1796.35,2191.09 L 1799.22,2209.6 L 1805.74,2227.47 L 1807.57,2230.89 L 1816.19,2233.09 L 1841.34,2207.93M 1853.23,1698.61 L 1878.11,1673.74 L 1875.41,1664.52 L 1860.23,1657.34 L 1840.56,1652.41 L 1820.29,1651.41 L 1800.22,1654.39 L 1780.89,1661.3 L 1775.38,1664.24 L 1772.6,1673.73 L 1797.47,1698.61 L 1805.89,1694.87 L 1818.77,1692.13 L 1831.94,1692.13 L 1844.82,1694.87 L 1853.23,1698.61M 1569.14,1182.71 L 1567.81,1180.4 L 1563.74,1167.87 L 1562.36,1154.78 L 1563.74,1141.68 L 1567.81,1129.16 L 1569.14,1126.85 L 1544.31,1102.02 L 1535.1,1104.72 L 1534.61,1105.75 L 1533.63,1107.4 L 1532.34,1108.83 L 1530.81,1109.99 L 1529.09,1110.83 L 1527.23,1111.33 L 1525.31,1111.47 L 1523.41,1111.23 L 1521.58,1110.64 L 1519.9,1109.7 L 1518.43,1108.47 L 1517.22,1106.97 L 1517.02,1106.58 L 1505.35,1089.12 L 1491.01,1074.78 L 1479.8,1067.29 L 1478.28,1066.04 L 1477.04,1064.53 L 1476.11,1062.8 L 1475.55,1060.92 L 1475.35,1058.97 L 1475.35,816.466 L 1475.44,815.16 L 1475.69,813.877 L 1476.11,812.638 L 1482.73,796.675 L 1486.53,777.537 L 1486.53,758.024 L 1482.73,738.886 L 1475.26,720.86 L 1464.42,704.637 L 1450.62,690.839 L 1441.92,685.026 L 1440.41,683.782 L 1439.16,682.267 L 1438.24,680.538 L 1437.67,678.662 L 1437.48,676.712 L 1437.48,413.286 L 1437.62,411.61 L 1438.04,409.983 L 1438.73,408.448 L 1439.66,407.051 L 1440.82,405.829 L 1442.16,404.818 L 1443.65,404.047 L 1455.71,399.052 L 1472.58,387.78 L 1481.48,378.888 L 1481.49,378.874 L 1481.5,378.863 L 1486.93,373.437 L 1496.93,358.457 L 1498.11,357.005 L 1499.54,355.799 L 1501.17,354.88 L 1502.95,354.28 L 1504.8,354.022 L 1506.67,354.113 L 1508.49,354.55 L 1510.19,355.319 L 1511.73,356.393 L 1512.98,357.675 L 1522.74,360.54 L 1547.57,335.709 L 1546.23,333.401 L 1542.16,320.876 L 1540.79,307.78 L 1542.16,294.683 L 1546.23,282.158 L 1547.57,279.851 L 1522.74,255.023 L 1513.17,257.83 L 1512.11,259.018 L 1510.58,260.175 L 1508.86,261.021 L 1507.01,261.523 L 1505.1,261.663 L 1503.2,261.437 L 1501.38,260.852 L 1499.7,259.93 L 1498.22,258.704 L 1497.01,257.221 L 1486.93,242.126 L 1481.49,236.693 L 1481.49,236.687 L 1481.48,236.679 L 1472.58,227.781 L 1455.71,216.51 L 1436.97,208.747 L 1417.07,204.788 L 1396.78,204.788 L 1376.89,208.747 L 1358.14,216.51 L 1341.27,227.781 L 1326.93,242.126 L 1315.66,258.996 L 1307.89,277.739 L 1303.94,297.636 L 1303.94,317.925 L 1307.89,337.822 L 1315.66,356.565 L 1326.93,373.437 L 1334.55,381.058 L 1335.79,382.574 L 1336.72,384.303 L 1337.29,386.179 L 1337.48,388.13 L 1337.48,676.712 L 1337.29,678.662 L 1336.72,680.538 L 1335.79,682.267 L 1334.55,683.782 L 1333.04,685.026 L 1324.34,690.839 L 1310.54,704.636 L 1299.7,720.861 L 1292.23,738.886 L 1288.42,758.024 L 1288.42,777.537 L 1292.23,796.675 L 1299.7,814.7 L 1310.54,830.925 L 1324.34,844.722 L 1340.56,855.562 L 1358.59,863.03 L 1367.3,864.764 L 1368.95,865.242 L 1370.49,865.994 L 1371.89,866.999 L 1373.08,868.227 L 1374.05,869.642 L 1374.77,871.203 L 1375.21,872.862 L 1375.35,874.572 L 1375.35,1058.97 L 1375.16,1060.92 L 1374.59,1062.8 L 1373.67,1064.53 L 1372.42,1066.04 L 1370.91,1067.29 L 1359.7,1074.78 L 1345.36,1089.12 L 1333.67,1106.61 L 1332.42,1108.13 L 1330.91,1109.37 L 1329.18,1110.3 L 1327.3,1110.87 L 1325.35,1111.06 L 1323.4,1110.87 L 1321.53,1110.3 L 1319.8,1109.37 L 1318.28,1108.13 L 1317.04,1106.61 L 1305.35,1089.12 L 1291.01,1074.78 L 1279.8,1067.29 L 1278.28,1066.04 L 1277.04,1064.53 L 1276.11,1062.8 L 1275.55,1060.92 L 1275.35,1058.97 L 1275.35,1002.3 L 1275.4,1001.32 L 1275.6,999.356 L 1274.63,989.554 L 1271.77,980.129 L 1267.13,971.442 L 1260.88,963.83 L 1259.35,962.578 L 1258.62,961.917 L 1093.53,796.821 L 1092.47,795.574 L 1091.63,794.172 L 1091.03,792.652 L 1090.69,791.054 L 1090.6,789.422 L 1090.79,787.798 L 1092.83,777.537 L 1092.83,758.024 L 1089.03,738.887 L 1081.56,720.86 L 1070.72,704.636 L 1056.92,690.839 L 1048.22,685.026 L 1046.71,683.782 L 1045.46,682.267 L 1044.54,680.538 L 1043.97,678.662 L 1043.78,676.712 L 1043.78,395.946 L 1043.78,390.726 L 1043.97,388.775 L 1044.54,386.899 L 1045.46,385.17 L 1046.71,383.654 L 1046.93,383.435 L 1056.93,368.458 L 1058.11,367.007 L 1059.54,365.8 L 1061.17,364.882 L 1062.95,364.282 L 1064.8,364.024 L 1066.67,364.115 L 1068.49,364.552 L 1070.19,365.32 L 1071.72,366.393 L 1072.97,367.674 L 1082.74,370.538 L 1107.57,345.708 L 1106.23,343.401 L 1102.16,330.876 L 1100.79,317.78 L 1102.16,304.683 L 1106.23,292.158 L 1107.57,289.851 L 1082.74,265.023 L 1073.17,267.83 L 1072.11,269.018 L 1070.58,270.175 L 1068.86,271.021 L 1067.01,271.523 L 1065.1,271.663 L 1063.2,271.437 L 1061.38,270.852 L 1059.7,269.93 L 1058.22,268.704 L 1057.01,267.221 L 1046.93,252.126 L 1041.49,246.692 L 1041.49,246.687 L 1041.48,246.68 L 1032.58,237.781 L 1015.71,226.509 L 996.97,218.747 L 977.072,214.788 L 956.785,214.788 L 936.886,218.747 L 918.142,226.509 L 901.274,237.781 L 886.929,252.126 L 875.655,268.997 L 867.891,287.738 L 863.936,307.636 L 863.936,327.927 L 867.891,347.823 L 875.655,366.566 L 886.929,383.435 L 901.275,397.782 L 918.142,409.051 L 937.606,417.113 L 939.099,417.884 L 940.443,418.895 L 941.598,420.116 L 942.532,421.514 L 943.218,423.049 L 943.638,424.676 L 943.78,426.352 L 943.78,676.712 L 943.646,678.341 L 943.249,679.926 L 942.599,681.426 L 941.713,682.8 L 940.615,684.011 L 939.335,685.027 L 930.634,690.84 L 916.837,704.636 L 905.997,720.861 L 898.529,738.887 L 894.724,758.024 L 894.724,777.537 L 898.529,796.674 L 905.997,814.701 L 916.837,830.925 L 930.634,844.722 L 946.858,855.562 L 964.885,863.03 L 984.022,866.836 L 1003.53,866.836 L 1013.8,864.794 L 1015.42,864.607 L 1017.05,864.687 L 1018.65,865.032 L 1020.17,865.633 L 1021.57,866.473 L 1022.82,867.53 L 1172.42,1017.14 L 1173.67,1018.65 L 1174.59,1020.38 L 1175.16,1022.26 L 1175.35,1024.21 L 1175.35,1058.97 L 1175.16,1060.92 L 1174.59,1062.8 L 1173.67,1064.53 L 1172.42,1066.04 L 1170.91,1067.29 L 1159.7,1074.78 L 1145.36,1089.12 L 1133.67,1106.61 L 1132.42,1108.13 L 1130.91,1109.37 L 1129.18,1110.3 L 1127.3,1110.87 L 1125.35,1111.06 L 1123.4,1110.87 L 1121.53,1110.3 L 1119.8,1109.37 L 1118.28,1108.13 L 1117.04,1106.61 L 1105.35,1089.12 L 1091.01,1074.78 L 1074.14,1063.51 L 1055.39,1055.74 L 1035.5,1051.79 L 1015.21,1051.79 L 1001.99,1054.42 L 1000.04,1054.61 L 998.084,1054.42 L 996.209,1053.85 L 994.48,1052.92 L 992.964,1051.68 L 266.842,325.557 L 265.881,324.442 L 265.094,323.199 L 264.498,321.854 L 264.106,320.436 L 261.242,306.036 L 254.072,288.724 L 243.662,273.146 L 230.413,259.897 L 214.835,249.487 L 197.522,242.317 L 179.147,238.662 L 160.41,238.662 L 142.035,242.317 L 124.722,249.487 L 109.144,259.897 L 95.8951,273.146 L 85.4853,288.724 L 78.3151,306.037 L 74.6594,324.413 L 74.6595,343.15 L 78.3152,361.524 L 85.4855,378.837 L 95.8949,394.415 L 109.144,407.666 L 124.722,418.073 L 142.035,425.244 L 160.411,428.9 L 179.146,428.9 L 197.522,425.244 L 210.854,419.721 L 212.456,419.21 L 214.12,418.975 L 215.801,419.022 L 217.45,419.35 L 219.02,419.95 L 220.468,420.804 L 221.753,421.888 L 834.579,1034.71 L 835.822,1036.23 L 836.746,1037.96 L 837.315,1039.83 L 837.508,1041.79 L 837.315,1043.74 L 836.746,1045.61 L 835.822,1047.34 L 834.579,1048.86 L 833.063,1050.1 L 831.334,1051.02 L 829.458,1051.59 L 827.508,1051.79 L 815.211,1051.79 L 801.986,1054.42 L 800.035,1054.61 L 798.084,1054.42 L 796.209,1053.85 L 794.48,1052.92 L 792.964,1051.68 L 293.794,552.509 L 293.136,551.782 L 291.882,550.255 L 284.269,544.006 L 275.583,539.363 L 266.157,536.505 L 255.891,535.492 L 255.161,535.501 L 253.382,535.197 L 251.687,534.58 L 250.131,533.667 L 248.764,532.49 L 247.63,531.086 L 243.662,525.146 L 230.412,511.896 L 214.835,501.488 L 197.523,494.317 L 179.147,490.662 L 160.41,490.662 L 142.034,494.317 L 124.722,501.488 L 109.145,511.897 L 95.895,525.146 L 85.4855,540.724 L 78.3152,558.037 L 74.6595,576.413 L 74.6595,595.148 L 78.3152,613.524 L 85.4855,630.837 L 95.895,646.415 L 109.144,659.664 L 124.722,670.074 L 142.035,677.244 L 160.411,680.9 L 179.146,680.9 L 197.522,677.244 L 214.835,670.074 L 230.413,659.664 L 237.9,652.176 L 239.236,651.056 L 240.745,650.184 L 242.383,649.588 L 244.1,649.286 L 245.843,649.286 L 247.56,649.588 L 249.198,650.184 L 250.707,651.056 L 252.043,652.176 L 634.579,1034.71 L 635.822,1036.23 L 636.746,1037.96 L 637.315,1039.83 L 637.508,1041.79 L 637.315,1043.74 L 636.746,1045.61 L 635.822,1047.34 L 634.579,1048.86 L 633.063,1050.1 L 631.334,1051.02 L 629.458,1051.59 L 627.508,1051.79 L 615.211,1051.79 L 601.986,1054.42 L 600.035,1054.61 L 598.084,1054.42 L 596.209,1053.85 L 594.48,1052.92 L 592.964,1051.68 L 343.794,802.509 L 343.136,801.782 L 341.883,800.256 L 334.267,794.006 L 325.582,789.363 L 316.157,786.505 L 306.355,785.538 L 304.389,785.731 L 303.41,785.78 L 258.112,785.78 L 256.482,785.646 L 254.897,785.249 L 253.397,784.599 L 252.024,783.713 L 250.813,782.615 L 249.797,781.335 L 245.662,775.146 L 232.412,761.897 L 216.834,751.487 L 199.522,744.317 L 181.146,740.662 L 162.411,740.662 L 144.035,744.317 L 126.723,751.487 L 111.144,761.897 L 97.895,775.146 L 87.4855,790.724 L 80.3152,808.037 L 76.6595,826.413 L 76.6595,845.148 L 80.3152,863.524 L 87.4855,880.837 L 97.895,896.415 L 111.144,909.664 L 126.722,920.074 L 144.034,927.244 L 162.411,930.9 L 181.146,930.9 L 199.523,927.244 L 216.835,920.074 L 232.412,909.664 L 245.661,896.415 L 249.796,890.225 L 250.812,888.945 L 252.023,887.847 L 253.397,886.961 L 254.897,886.31 L 256.482,885.913 L 258.112,885.78 L 281.504,885.78 L 283.068,885.903 L 284.594,886.269 L 286.043,886.869 L 287.381,887.689 L 288.575,888.709 L 434.579,1034.71 L 435.822,1036.23 L 436.746,1037.96 L 437.315,1039.83 L 437.508,1041.79 L 437.315,1043.74 L 436.746,1045.61 L 435.822,1047.34 L 434.579,1048.86 L 433.063,1050.1 L 431.334,1051.02 L 429.458,1051.59 L 427.508,1051.79 L 415.21,1051.79 L 395.312,1055.74 L 376.568,1063.51 L 359.698,1074.78 L 345.355,1089.12 L 337.864,1100.33 L 336.62,1101.85 L 335.105,1103.09 L 333.376,1104.02 L 331.5,1104.59 L 329.55,1104.78 L 276.898,1104.78 L 274.947,1104.59 L 273.071,1104.02 L 271.342,1103.09 L 269.826,1101.85 L 268.583,1100.33 L 267.659,1098.6 L 267.09,1096.73 L 266.898,1094.78 L 266.898,1076.41 L 263.242,1058.04 L 256.072,1040.72 L 245.662,1025.15 L 232.412,1011.9 L 216.835,1001.49 L 199.523,994.317 L 181.146,990.662 L 162.411,990.662 L 144.034,994.317 L 126.722,1001.49 L 111.144,1011.9 L 97.895,1025.15 L 87.4855,1040.72 L 80.3152,1058.04 L 76.6595,1076.41 L 76.6595,1095.15 L 80.3152,1113.52 L 87.4855,1130.84 L 97.895,1146.41 L 111.144,1159.66 L 126.723,1170.07 L 144.035,1177.24 L 162.411,1180.9 L 181.146,1180.9 L 188.447,1179.45 L 190.071,1179.26 L 191.704,1179.34 L 193.302,1179.68 L 194.822,1180.28 L 196.224,1181.12 L 197.471,1182.18 L 203.337,1188.05 L 203.998,1188.78 L 205.25,1190.31 L 212.862,1196.55 L 221.549,1201.2 L 230.973,1204.05 L 240.776,1205.02 L 242.745,1204.83 L 243.724,1204.78 L 329.55,1204.78 L 331.5,1204.97 L 333.376,1205.54 L 335.105,1206.46 L 336.62,1207.71 L 337.864,1209.22 L 345.355,1220.43 L 359.699,1234.78 L 376.568,1246.05 L 395.312,1253.81 L 415.21,1257.77 L 435.497,1257.77 L 455.395,1253.81 L 474.139,1246.05 L 491.007,1234.78 L 505.352,1220.43 L 517.039,1202.94 L 518.283,1201.43 L 519.798,1200.18 L 521.527,1199.26 L 523.403,1198.69 L 525.354,1198.5 L 527.304,1198.69 L 529.18,1199.26 L 530.909,1200.18 L 532.424,1201.43 L 533.668,1202.94 L 545.355,1220.43 L 559.7,1234.78 L 576.569,1246.05 L 595.312,1253.81 L 615.21,1257.77 L 635.497,1257.77 L 655.395,1253.81 L 674.139,1246.05 L 691.007,1234.78 L 705.352,1220.43 L 717.039,1202.94 L 718.283,1201.43 L 719.798,1200.18 L 721.527,1199.26 L 723.403,1198.69 L 725.354,1198.5 L 727.304,1198.69 L 729.18,1199.26 L 730.909,1200.18 L 732.424,1201.43 L 733.668,1202.94 L 745.355,1220.43 L 759.7,1234.78 L 776.569,1246.05 L 795.312,1253.81 L 815.21,1257.77 L 835.497,1257.77 L 855.395,1253.81 L 874.139,1246.05 L 891.007,1234.78 L 905.352,1220.43 L 917.039,1202.94 L 918.283,1201.43 L 919.798,1200.18 L 921.527,1199.26 L 923.403,1198.69 L 925.354,1198.5 L 927.304,1198.69 L 929.18,1199.26 L 930.909,1200.18 L 932.424,1201.43 L 933.668,1202.94 L 945.355,1220.43 L 959.7,1234.78 L 976.568,1246.05 L 995.312,1253.81 L 1015.21,1257.77 L 1035.5,1257.77 L 1055.39,1253.81 L 1074.14,1246.05 L 1091.01,1234.78 L 1105.35,1220.43 L 1117.04,1202.94 L 1118.28,1201.43 L 1119.8,1200.18 L 1121.53,1199.26 L 1123.4,1198.69 L 1125.35,1198.5 L 1127.3,1198.69 L 1129.18,1199.26 L 1130.91,1200.18 L 1132.42,1201.43 L 1133.67,1202.94 L 1145.36,1220.43 L 1159.7,1234.78 L 1176.57,1246.05 L 1195.31,1253.81 L 1215.21,1257.77 L 1235.5,1257.77 L 1255.39,1253.81 L 1274.14,1246.05 L 1291.01,1234.78 L 1305.35,1220.43 L 1317.04,1202.94 L 1318.28,1201.43 L 1319.8,1200.18 L 1321.53,1199.26 L 1323.4,1198.69 L 1325.35,1198.5 L 1327.3,1198.69 L 1329.18,1199.26 L 1330.91,1200.18 L 1332.42,1201.43 L 1333.67,1202.94 L 1345.36,1220.43 L 1359.7,1234.78 L 1376.57,1246.05 L 1395.31,1253.81 L 1415.21,1257.77 L 1435.5,1257.77 L 1455.39,1253.81 L 1474.14,1246.05 L 1491.01,1234.78 L 1505.35,1220.43 L 1517.11,1202.83 L 1518.29,1201.38 L 1519.72,1200.18 L 1521.35,1199.26 L 1523.13,1198.66 L 1524.98,1198.4 L 1526.85,1198.49 L 1528.67,1198.93 L 1530.37,1199.7 L 1531.91,1200.77 L 1533.21,1202.12 L 1534.25,1203.68 L 1534.82,1204.75 L 1544.31,1207.54 L 1569.14,1182.71M 1597.47,1098.61 L 1605.89,1094.87 L 1618.77,1092.13 L 1631.94,1092.13 L 1644.82,1094.87 L 1653.23,1098.61 L 1678.11,1073.74 L 1675.41,1064.52 L 1660.23,1057.34 L 1640.56,1052.41 L 1620.29,1051.41 L 1600.22,1054.39 L 1580.89,1061.3 L 1575.38,1064.24 L 1572.6,1073.73 L 1597.47,1098.61M 1219.99,345.71 L 1244.82,370.538 L 1254.03,367.835 L 1261.21,352.662 L 1266.15,332.985 L 1267.15,312.719 L 1264.17,292.652 L 1257.26,273.317 L 1254.31,267.808 L 1244.82,265.023 L 1219.99,289.85 L 1221.33,292.158 L 1225.4,304.683 L 1226.77,317.78 L 1225.4,330.876 L 1221.33,343.401 L 1219.99,345.71M 1191.66,373.943 L 1183.25,377.689 L 1170.36,380.427 L 1157.2,380.427 L 1144.31,377.689 L 1135.9,373.943 L 1111.02,398.822 L 1113.72,408.035 L 1128.9,415.215 L 1148.58,420.148 L 1168.84,421.147 L 1188.91,418.174 L 1208.24,411.258 L 1213.75,408.314 L 1216.54,398.822 L 1191.66,373.943M 1135.9,261.617 L 1144.31,257.87 L 1157.2,255.132 L 1170.36,255.132 L 1183.25,257.87 L 1191.66,261.616 L 1216.54,236.739 L 1213.83,227.526 L 1198.66,220.346 L 1178.98,215.413 L 1158.72,214.414 L 1138.65,217.387 L 1119.31,224.303 L 1113.81,227.247 L 1111.02,236.739 L 1135.9,261.617M 1659.99,335.71 L 1684.82,360.54 L 1694.03,357.835 L 1701.21,342.664 L 1706.15,322.984 L 1707.15,302.718 L 1704.17,282.652 L 1697.26,263.317 L 1694.31,257.808 L 1684.82,255.023 L 1659.99,279.85 L 1661.33,282.158 L 1665.4,294.683 L 1666.77,307.78 L 1665.4,320.876 L 1661.33,333.401 L 1659.99,335.71M 1631.66,363.943 L 1623.25,367.689 L 1610.36,370.427 L 1597.2,370.427 L 1584.31,367.689 L 1575.9,363.943 L 1551.02,388.822 L 1553.72,398.035 L 1568.9,405.215 L 1588.58,410.148 L 1608.84,411.147 L 1628.91,408.174 L 1648.24,401.258 L 1653.75,398.314 L 1656.54,388.822 L 1631.66,363.943M 1575.9,251.617 L 1584.31,247.87 L 1597.2,245.132 L 1610.36,245.132 L 1623.25,247.87 L 1631.66,251.616 L 1656.54,226.739 L 1653.83,217.526 L 1638.66,210.346 L 1618.98,205.413 L 1598.72,204.414 L 1578.65,207.387 L 1559.31,214.303 L 1553.81,217.247 L 1551.02,226.739 L 1575.9,251.617M 1839.05,353.943 L 1814.17,378.822 L 1816.87,388.036 L 1832.05,395.215 L 1851.73,400.15 L 1871.99,401.149 L 1892.05,398.174 L 1911.39,391.26 L 1917.06,388.229 L 1918.79,387.505 L 1920.62,387.115 L 1922.49,387.073 L 1924.34,387.38 L 1926.09,388.027 L 1927.7,388.989 L 1929.1,390.233 L 1930.24,391.716 L 1931.08,393.386 L 1931.6,395.184 L 1931.78,397.048 L 1931.78,739.986 L 1931.65,741.55 L 1931.29,743.076 L 1930.69,744.526 L 1929.87,745.864 L 1928.85,747.058 L 1921.78,754.125 L 1910.51,770.996 L 1902.75,789.738 L 1898.79,809.636 L 1898.79,819.636 L 1898.59,821.586 L 1898.02,823.462 L 1897.1,825.191 L 1895.86,826.707 L 1778.63,943.931 L 1777.91,944.591 L 1775.62,946.47 L 1766.87,957.127 L 1760.37,969.288 L 1756.37,982.483 L 1755.01,996.204 L 1755.31,999.153 L 1755.35,1000.14 L 1755.35,1074.98 L 1755.16,1076.93 L 1754.59,1078.81 L 1753.67,1080.54 L 1752.42,1082.05 L 1745.36,1089.12 L 1733.6,1106.72 L 1732.42,1108.17 L 1730.98,1109.38 L 1729.35,1110.3 L 1727.58,1110.9 L 1725.73,1111.16 L 1723.86,1111.06 L 1722.04,1110.63 L 1720.33,1109.86 L 1718.8,1108.78 L 1717.5,1107.44 L 1716.46,1105.88 L 1715.89,1104.81 L 1706.4,1102.02 L 1681.57,1126.85 L 1682.9,1129.16 L 1686.97,1141.68 L 1688.35,1154.78 L 1686.97,1167.87 L 1682.9,1180.4 L 1676.32,1191.8 L 1667.5,1201.59 L 1656.85,1209.33 L 1644.82,1214.69 L 1631.94,1217.42 L 1618.77,1217.42 L 1605.89,1214.69 L 1597.48,1210.94 L 1572.6,1235.82 L 1575.3,1245.03 L 1590.47,1252.21 L 1604.1,1255.63 L 1605.9,1256.27 L 1607.55,1257.24 L 1608.99,1258.51 L 1610.15,1260.03 L 1611,1261.75 L 1611.51,1263.6 L 1611.66,1265.51 L 1611.45,1267.41 L 1610.87,1269.24 L 1609.96,1270.92 L 1608.74,1272.4 L 1378.63,1502.5 L 1377.91,1503.16 L 1375.62,1505.04 L 1366.87,1515.7 L 1360.37,1527.86 L 1356.37,1541.05 L 1355.01,1554.78 L 1355.31,1557.73 L 1355.35,1558.71 L 1355.35,1674.98 L 1355.16,1676.93 L 1354.59,1678.81 L 1353.67,1680.54 L 1352.42,1682.05 L 1345.36,1689.12 L 1333.67,1706.61 L 1332.42,1708.13 L 1330.91,1709.37 L 1329.18,1710.3 L 1327.3,1710.87 L 1325.35,1711.06 L 1323.4,1710.87 L 1321.53,1710.3 L 1319.8,1709.37 L 1318.28,1708.13 L 1317.04,1706.61 L 1305.35,1689.12 L 1291.01,1674.78 L 1274.14,1663.51 L 1255.39,1655.74 L 1235.5,1651.79 L 1215.21,1651.79 L 1195.31,1655.74 L 1176.57,1663.51 L 1159.7,1674.78 L 1145.36,1689.12 L 1133.67,1706.61 L 1132.42,1708.13 L 1130.91,1709.37 L 1129.18,1710.3 L 1127.3,1710.87 L 1125.35,1711.06 L 1123.4,1710.87 L 1121.53,1710.3 L 1119.8,1709.37 L 1118.28,1708.13 L 1117.04,1706.61 L 1105.35,1689.12 L 1091.01,1674.78 L 1074.14,1663.51 L 1055.39,1655.74 L 1035.5,1651.79 L 1015.21,1651.79 L 995.313,1655.74 L 976.569,1663.51 L 959.7,1674.78 L 945.355,1689.12 L 933.668,1706.61 L 932.424,1708.13 L 930.909,1709.37 L 929.18,1710.3 L 927.304,1710.87 L 925.354,1711.06 L 923.403,1710.87 L 921.527,1710.3 L 919.798,1709.37 L 918.283,1708.13 L 917.039,1706.61 L 905.352,1689.12 L 891.006,1674.78 L 874.138,1663.51 L 855.394,1655.74 L 835.496,1651.79 L 815.211,1651.79 L 795.313,1655.74 L 776.569,1663.51 L 759.7,1674.78 L 745.355,1689.12 L 733.668,1706.61 L 732.424,1708.13 L 730.909,1709.37 L 729.18,1710.3 L 727.304,1710.87 L 725.354,1711.06 L 723.403,1710.87 L 721.527,1710.3 L 719.798,1709.37 L 718.283,1708.13 L 717.039,1706.61 L 705.352,1689.12 L 691.006,1674.78 L 674.138,1663.51 L 655.394,1655.74 L 635.496,1651.79 L 615.211,1651.79 L 595.313,1655.74 L 576.569,1663.51 L 559.7,1674.78 L 545.355,1689.12 L 533.668,1706.61 L 532.424,1708.13 L 530.909,1709.37 L 529.18,1710.3 L 527.304,1710.87 L 525.354,1711.06 L 523.403,1710.87 L 521.527,1710.3 L 519.798,1709.37 L 518.283,1708.13 L 517.039,1706.61 L 505.352,1689.12 L 491.006,1674.78 L 474.138,1663.51 L 455.394,1655.74 L 435.496,1651.79 L 415.211,1651.79 L 395.313,1655.74 L 376.568,1663.51 L 359.697,1674.78 L 345.356,1689.12 L 334.083,1705.99 L 326.319,1724.74 L 322.362,1744.63 L 322.362,1764.92 L 326.319,1784.82 L 334.083,1803.56 L 345.355,1820.43 L 359.707,1834.78 L 360.827,1836.12 L 361.699,1837.63 L 362.295,1839.27 L 362.597,1840.98 L 362.597,1842.73 L 362.295,1844.44 L 361.699,1846.08 L 360.827,1847.59 L 359.706,1848.92 L 320.612,1888.02 L 319.892,1888.67 L 318.368,1889.92 L 312.136,1897.52 L 307.507,1906.18 L 304.657,1915.57 L 303.696,1925.34 L 303.888,1927.3 L 303.936,1928.28 L 303.936,1951.34 L 303.802,1952.97 L 303.405,1954.56 L 302.755,1956.06 L 301.869,1957.43 L 300.771,1958.64 L 299.491,1959.66 L 293.143,1963.9 L 279.895,1977.15 L 269.486,1992.72 L 262.315,2010.04 L 258.659,2028.41 L 258.659,2047.15 L 262.315,2065.53 L 269.485,2082.84 L 279.895,2098.42 L 293.144,2111.66 L 308.722,2122.07 L 326.034,2129.24 L 344.411,2132.9 L 363.146,2132.9 L 381.523,2129.24 L 398.835,2122.07 L 414.412,2111.66 L 427.662,2098.42 L 438.072,2082.84 L 445.242,2065.53 L 448.897,2047.15 L 448.897,2028.41 L 445.242,2010.04 L 438.071,1992.72 L 427.662,1977.15 L 414.413,1963.9 L 408.066,1959.66 L 406.786,1958.64 L 405.688,1957.43 L 404.802,1956.06 L 404.152,1954.56 L 403.755,1952.97 L 403.622,1951.34 L 403.622,1950.13 L 403.745,1948.56 L 404.111,1947.04 L 404.712,1945.59 L 405.531,1944.25 L 406.551,1943.06 L 458.519,1891.09 L 459.242,1890.43 L 460.767,1889.18 L 466.996,1881.59 L 471.624,1872.93 L 474.474,1863.54 L 475.437,1853.77 L 475.244,1851.81 L 475.196,1850.83 L 475.196,1850.69 L 475.329,1849.06 L 475.726,1847.47 L 476.376,1845.97 L 477.262,1844.6 L 478.36,1843.39 L 479.64,1842.37 L 491.007,1834.78 L 505.354,1820.43 L 505.623,1820.03 L 506.868,1818.51 L 508.383,1817.27 L 510.112,1816.35 L 511.988,1815.78 L 513.938,1815.59 L 515.889,1815.78 L 517.764,1816.35 L 519.493,1817.27 L 521.008,1818.52 L 522.251,1820.03 L 523.175,1821.76 L 523.743,1823.63 L 523.936,1825.59 L 523.936,1951.34 L 523.802,1952.97 L 523.405,1954.56 L 522.755,1956.06 L 521.869,1957.43 L 520.771,1958.64 L 519.491,1959.66 L 513.143,1963.9 L 499.895,1977.15 L 489.486,1992.72 L 482.315,2010.04 L 478.659,2028.41 L 478.659,2047.15 L 482.315,2065.53 L 489.485,2082.84 L 499.895,2098.42 L 513.144,2111.66 L 528.722,2122.07 L 546.034,2129.24 L 564.411,2132.9 L 583.146,2132.9 L 601.523,2129.24 L 618.835,2122.07 L 634.412,2111.66 L 647.662,2098.42 L 658.072,2082.84 L 665.242,2065.53 L 668.972,2046.78 L 669.492,2045.02 L 670.322,2043.39 L 671.437,2041.94 L 672.797,2040.71 L 674.357,2039.76 L 676.066,2039.1 L 677.865,2038.77 L 679.695,2038.77 L 681.494,2039.1 L 683.203,2039.76 L 684.763,2040.72 L 686.123,2041.94 L 687.237,2043.39 L 688.068,2045.02 L 688.588,2046.78 L 692.315,2065.52 L 699.484,2082.84 L 709.895,2098.42 L 723.145,2111.66 L 738.722,2122.07 L 756.034,2129.24 L 774.411,2132.9 L 793.146,2132.9 L 811.523,2129.24 L 828.835,2122.07 L 844.411,2111.66 L 857.662,2098.41 L 868.069,2082.84 L 875.242,2065.52 L 878.972,2046.78 L 879.492,2045.02 L 880.322,2043.39 L 881.437,2041.94 L 882.797,2040.71 L 884.357,2039.76 L 886.066,2039.1 L 887.865,2038.77 L 889.695,2038.77 L 891.494,2039.1 L 893.203,2039.76 L 894.763,2040.72 L 896.123,2041.94 L 897.237,2043.39 L 898.068,2045.02 L 898.588,2046.78 L 902.315,2065.52 L 909.485,2082.84 L 919.895,2098.42 L 933.145,2111.66 L 948.722,2122.07 L 966.034,2129.24 L 984.411,2132.9 L 1003.15,2132.9 L 1021.52,2129.24 L 1038.83,2122.07 L 1054.41,2111.66 L 1067.66,2098.42 L 1078.07,2082.84 L 1085.24,2065.53 L 1088.9,2047.15 L 1088.9,2028.41 L 1085.24,2010.04 L 1078.07,1992.72 L 1067.66,1977.15 L 1054.41,1963.9 L 1048.07,1959.66 L 1046.79,1958.64 L 1045.69,1957.43 L 1044.8,1956.06 L 1044.15,1954.56 L 1043.76,1952.97 L 1043.62,1951.34 L 1043.62,1864.36 L 1043.81,1862.41 L 1044.38,1860.54 L 1045.31,1858.81 L 1046.55,1857.29 L 1048.06,1856.05 L 1049.79,1855.12 L 1051.67,1854.55 L 1055.39,1853.81 L 1074.14,1846.05 L 1091.01,1834.78 L 1105.35,1820.43 L 1117.04,1802.94 L 1118.28,1801.43 L 1119.8,1800.18 L 1121.53,1799.26 L 1123.4,1798.69 L 1125.35,1798.5 L 1127.3,1798.69 L 1129.18,1799.26 L 1130.91,1800.18 L 1132.42,1801.43 L 1133.67,1802.94 L 1145.36,1820.43 L 1159.88,1834.96 L 1161.01,1835.89 L 1162.25,1837.4 L 1163.18,1839.13 L 1163.74,1841 L 1163.94,1842.95 L 1163.94,1951.34 L 1163.8,1952.97 L 1163.4,1954.56 L 1162.75,1956.06 L 1161.87,1957.43 L 1160.77,1958.64 L 1159.49,1959.66 L 1153.14,1963.9 L 1139.9,1977.15 L 1129.49,1992.72 L 1122.32,2010.04 L 1118.66,2028.41 L 1118.66,2047.15 L 1122.32,2065.53 L 1129.49,2082.84 L 1139.9,2098.42 L 1153.14,2111.66 L 1168.72,2122.07 L 1186.03,2129.24 L 1204.41,2132.9 L 1223.15,2132.9 L 1241.52,2129.24 L 1258.83,2122.07 L 1274.41,2111.66 L 1287.66,2098.42 L 1298.07,2082.84 L 1305.24,2065.52 L 1308.9,2047.15 L 1308.9,2028.41 L 1305.24,2010.04 L 1298.07,1992.72 L 1287.66,1977.15 L 1274.41,1963.9 L 1268.07,1959.66 L 1266.79,1958.64 L 1265.69,1957.43 L 1264.8,1956.06 L 1264.15,1954.56 L 1263.76,1952.97 L 1263.62,1951.34 L 1263.62,1857.09 L 1263.76,1855.41 L 1264.18,1853.78 L 1264.87,1852.25 L 1265.8,1850.85 L 1266.96,1849.63 L 1268.3,1848.62 L 1269.8,1847.85 L 1274.14,1846.05 L 1291.01,1834.78 L 1305.35,1820.43 L 1317.04,1802.94 L 1318.28,1801.43 L 1319.8,1800.18 L 1321.53,1799.26 L 1323.4,1798.69 L 1325.35,1798.5 L 1327.3,1798.69 L 1329.18,1799.26 L 1330.91,1800.18 L 1332.42,1801.43 L 1333.67,1802.94 L 1345.36,1820.43 L 1359.7,1834.78 L 1376.57,1846.05 L 1395.31,1853.81 L 1415.21,1857.77 L 1425.21,1857.77 L 1427.16,1857.96 L 1429.03,1858.53 L 1430.76,1859.45 L 1432.28,1860.7 L 1528.85,1957.27 L 1529.87,1958.46 L 1530.69,1959.8 L 1531.29,1961.25 L 1531.66,1962.78 L 1531.78,1964.34 L 1531.78,2117.12 L 1531.66,2118.69 L 1531.29,2120.21 L 1530.69,2121.66 L 1529.87,2123 L 1528.85,2124.2 L 1527.89,2125.15 L 1517.49,2140.72 L 1510.31,2158.04 L 1506.66,2176.41 L 1506.66,2195.15 L 1510.31,2213.52 L 1517.49,2230.84 L 1527.9,2246.42 L 1541.14,2259.66 L 1556.72,2270.07 L 1574.03,2277.24 L 1592.41,2280.9 L 1611.15,2280.9 L 1629.52,2277.24 L 1646.84,2270.07 L 1662.41,2259.66 L 1670.82,2251.25 L 1670.83,2251.25 L 1670.83,2251.25 L 1675.66,2246.42 L 1686.07,2230.84 L 1693.24,2213.52 L 1696.9,2195.15 L 1696.9,2191.65 L 1696.9,2176.41 L 1693.24,2158.04 L 1686.07,2140.72 L 1675.66,2125.15 L 1674.71,2124.19 L 1673.46,2122.68 L 1672.54,2120.95 L 1671.97,2119.07 L 1671.78,2117.12 L 1671.78,1935.13 L 1671.83,1934.15 L 1672.12,1931.21 L 1670.77,1917.48 L 1666.76,1904.29 L 1660.26,1892.12 L 1651.52,1881.47 L 1649.22,1879.58 L 1648.5,1878.93 L 1641.92,1872.35 L 1640.68,1870.84 L 1639.76,1869.11 L 1639.19,1867.23 L 1638.99,1865.28 L 1639.19,1863.33 L 1639.75,1861.46 L 1640.68,1859.73 L 1641.92,1858.21 L 1643.44,1856.97 L 1645.16,1856.04 L 1647.04,1855.47 L 1648.72,1855.14 L 1650.34,1854.95 L 1651.97,1855.03 L 1653.57,1855.38 L 1655.09,1855.98 L 1656.49,1856.82 L 1657.74,1857.88 L 1875.77,2075.91 L 1876.95,2077.32 L 1877.84,2078.92 L 1878.43,2080.66 L 1878.69,2082.47 L 1878.62,2084.3 L 1878.21,2086.09 L 1877.48,2087.77 L 1876.46,2089.29 L 1875.18,2090.6 L 1873.68,2091.66 L 1872.01,2092.42 L 1870.24,2092.87 L 1867.96,2093.22 L 1850.09,2099.74 L 1846.67,2101.57 L 1844.47,2110.19 L 1869.83,2135.55 L 1874.75,2133.36 L 1886.02,2130.96 L 1897.54,2130.96 L 1908.81,2133.36 L 1919.34,2138.05 L 1928.66,2144.82 L 1936.37,2153.38 L 1942.13,2163.36 L 1945.69,2174.32 L 1946.9,2185.78 L 1945.69,2197.24 L 1942.22,2207.93 L 1967.37,2233.09 L 1975.66,2230.98 L 1981.97,2217.4 L 1984.68,2206.3 L 1985.31,2204.49 L 1986.28,2202.83 L 1987.55,2201.38 L 1989.07,2200.21 L 1990.78,2199.35 L 1992.63,2198.83 L 1994.55,2198.67 L 1996.46,2198.89 L 1998.29,2199.46 L 1999.98,2200.38 L 2001.46,2201.6 L 2008.92,2209.05 L 2009.58,2209.78 L 2010.83,2211.31 L 2018.44,2217.56 L 2027.13,2222.2 L 2036.55,2225.06 L 2046.35,2226.02 L 2048.32,2225.83 L 2049.3,2225.78 L 2141.45,2225.78 L 2143.07,2225.91 L 2144.66,2226.31 L 2146.16,2226.96 L 2147.53,2227.85 L 2148.75,2228.94 L 2149.76,2230.23 L 2153.9,2236.42 L 2167.14,2249.66 L 2182.72,2260.07 L 2200.04,2267.24 L 2218.41,2270.9 L 2237.15,2270.9 L 2255.52,2267.24 L 2272.83,2260.07 L 2288.41,2249.66 L 2301.66,2236.41 L 2312.07,2220.84 L 2319.24,2203.52 L 2322.9,2185.15 L 2322.9,2166.41 L 2319.24,2148.04 L 2312.07,2130.72 L 2308.19,2124.91 L 2307.31,2123.3 L 2306.74,2121.55 L 2306.51,2119.72 L 2306.61,2117.89 L 2307.05,2116.1 L 2307.8,2114.43 L 2308.85,2112.92 L 2310.16,2111.63 L 2311.68,2110.59 L 2313.36,2109.86 L 2315.16,2109.45 L 2316.99,2109.37 L 2318.81,2109.63 L 2320.55,2110.21 L 2322.16,2111.11 L 2323.57,2112.28 L 2361.38,2150.09 L 2362.43,2151.33 L 2363.27,2152.74 L 2363.88,2154.26 L 2364.22,2155.86 L 2364.3,2157.49 L 2364.11,2159.11 L 2362.66,2166.41 L 2362.66,2185.15 L 2366.32,2203.52 L 2373.49,2220.84 L 2383.89,2236.41 L 2397.14,2249.66 L 2412.72,2260.07 L 2430.04,2267.24 L 2448.41,2270.9 L 2467.15,2270.9 L 2485.52,2267.24 L 2502.83,2260.07 L 2518.41,2249.66 L 2531.66,2236.41 L 2542.07,2220.84 L 2549.24,2203.53 L 2552.97,2184.78 L 2553.49,2183.02 L 2554.32,2181.39 L 2555.44,2179.94 L 2556.8,2178.71 L 2558.36,2177.76 L 2560.07,2177.1 L 2561.86,2176.77 L 2563.7,2176.77 L 2565.49,2177.1 L 2567.2,2177.76 L 2568.76,2178.72 L 2570.12,2179.94 L 2571.24,2181.39 L 2572.07,2183.02 L 2572.59,2184.78 L 2576.32,2203.52 L 2583.49,2220.84 L 2593.89,2236.41 L 2607.14,2249.66 L 2622.72,2260.07 L 2640.04,2267.24 L 2658.41,2270.9 L 2677.15,2270.9 L 2695.52,2267.24 L 2712.83,2260.07 L 2728.41,2249.66 L 2741.66,2236.42 L 2752.07,2220.84 L 2759.24,2203.53 L 2762.97,2184.78 L 2763.49,2183.02 L 2764.32,2181.39 L 2765.44,2179.94 L 2766.8,2178.71 L 2768.36,2177.76 L 2770.07,2177.1 L 2771.86,2176.77 L 2773.7,2176.77 L 2775.49,2177.1 L 2777.2,2177.76 L 2778.76,2178.72 L 2780.12,2179.94 L 2781.24,2181.39 L 2782.07,2183.02 L 2782.59,2184.78 L 2786.32,2203.52 L 2793.49,2220.84 L 2803.89,2236.41 L 2817.14,2249.66 L 2832.72,2260.07 L 2850.04,2267.24 L 2868.41,2270.9 L 2887.15,2270.9 L 2905.52,2267.24 L 2922.83,2260.07 L 2938.41,2249.66 L 2951.66,2236.41 L 2962.07,2220.84 L 2969.24,2203.53 L 2972.97,2184.78 L 2973.49,2183.02 L 2974.32,2181.39 L 2975.44,2179.94 L 2976.8,2178.71 L 2978.36,2177.76 L 2980.07,2177.1 L 2981.86,2176.77 L 2983.7,2176.77 L 2985.49,2177.1 L 2987.2,2177.76 L 2988.76,2178.72 L 2990.12,2179.94 L 2991.24,2181.39 L 2992.07,2183.02 L 2992.59,2184.78 L 2996.32,2203.52 L 3003.49,2220.84 L 3013.89,2236.41 L 3027.14,2249.66 L 3042.72,2260.07 L 3060.04,2267.24 L 3078.41,2270.9 L 3097.15,2270.9 L 3115.52,2267.24 L 3132.83,2260.07 L 3148.41,2249.66 L 3161.66,2236.41 L 3172.07,2220.84 L 3179.24,2203.52 L 3182.9,2185.15 L 3182.9,2166.41 L 3179.24,2148.04 L 3172.07,2130.72 L 3161.66,2115.15 L 3148.41,2101.9 L 3132.84,2091.49 L 3115.52,2084.32 L 3097.15,2080.66 L 3078.41,2080.66 L 3071.11,2082.12 L 3069.49,2082.3 L 3067.85,2082.22 L 3066.25,2081.88 L 3064.73,2081.28 L 3063.33,2080.44 L 3062.08,2079.38 L 3057.46,2074.75 L 3056.25,2073.29 L 3055.35,2071.63 L 3054.77,2069.83 L 3054.54,2067.96 L 3054.66,2066.07 L 3055.14,2064.24 L 3055.95,2062.54 L 3057.08,2061.02 L 3058.46,2059.73 L 3060.07,2058.73 L 3061.83,2058.05 L 3063.69,2057.71 L 3065.58,2057.73 L 3067.43,2058.11 L 3070.55,2059.06 L 3080.35,2060.02 L 3082.32,2059.83 L 3083.3,2059.78 L 3357.45,2059.78 L 3359.07,2059.91 L 3360.66,2060.31 L 3362.16,2060.96 L 3363.53,2061.85 L 3364.75,2062.94 L 3365.76,2064.23 L 3369.9,2070.42 L 3383.14,2083.66 L 3398.72,2094.07 L 3416.04,2101.24 L 3434.41,2104.9 L 3453.15,2104.9 L 3471.52,2101.24 L 3488.83,2094.07 L 3504.41,2083.66 L 3517.66,2070.41 L 3528.07,2054.84 L 3535.24,2037.52 L 3538.9,2019.15 L 3538.9,2000.41 L 3535.24,1982.04 L 3528.07,1964.72 L 3517.66,1949.15 L 3504.41,1935.9 L 3488.83,1925.49 L 3471.52,1918.32 L 3453.15,1914.66 L 3434.41,1914.66 L 3416.03,1918.32 L 3398.72,1925.49 L 3383.14,1935.9 L 3369.9,1949.14 L 3365.76,1955.33 L 3364.74,1956.62 L 3363.53,1957.71 L 3362.16,1958.6 L 3360.66,1959.25 L 3359.07,1959.65 L 3357.45,1959.78 L 3105.21,1959.78 L 3103.26,1959.59 L 3101.38,1959.02 L 3099.65,1958.09 L 3098.14,1956.85 L 3016.13,1874.84 L 3014.97,1873.45 L 3014.08,1871.87 L 3013.49,1870.16 L 3013.22,1868.37 L 3013.27,1866.56 L 3013.65,1864.79 L 3014.34,1863.12 L 3015.33,1861.6 L 3016.57,1860.28 L 3018.02,1859.21 L 3019.65,1858.42 L 3021.39,1857.93 L 3023.2,1857.77 L 3035.5,1857.77 L 3055.39,1853.81 L 3074.14,1846.05 L 3091.01,1834.78 L 3105.35,1820.43 L 3116.18,1804.22 L 3117.2,1802.94 L 3118.41,1801.85 L 3119.78,1800.96 L 3121.28,1800.31 L 3122.87,1799.91 L 3124.5,1799.78 L 3351.45,1799.78 L 3353.07,1799.91 L 3354.66,1800.31 L 3356.16,1800.96 L 3357.53,1801.85 L 3358.75,1802.94 L 3359.76,1804.23 L 3363.9,1810.41 L 3377.14,1823.66 L 3392.72,1834.07 L 3410.03,1841.24 L 3428.41,1844.9 L 3447.15,1844.9 L 3465.52,1841.24 L 3482.84,1834.07 L 3498.41,1823.66 L 3511.66,1810.41 L 3522.07,1794.84 L 3529.24,1777.52 L 3532.9,1759.15 L 3532.9,1740.41 L 3529.24,1722.04 L 3522.07,1704.72 L 3511.66,1689.15 L 3498.41,1675.9 L 3482.84,1665.49 L 3465.52,1658.32 L 3447.15,1654.66 L 3428.41,1654.66 L 3410.03,1658.32 L 3392.72,1665.49 L 3377.14,1675.9 L 3363.9,1689.15 L 3359.76,1695.33 L 3358.74,1696.62 L 3357.53,1697.71 L 3356.16,1698.6 L 3354.66,1699.25 L 3353.07,1699.65 L 3351.45,1699.78 L 3117.82,1699.78 L 3115.87,1699.59 L 3113.99,1699.02 L 3112.26,1698.09 L 3110.75,1696.85 L 3109.5,1695.34 L 3105.35,1689.12 L 3091.01,1674.78 L 3074.14,1663.51 L 3055.39,1655.74 L 3035.5,1651.79 L 3015.21,1651.79 L 2995.31,1655.74 L 2976.57,1663.51 L 2959.7,1674.78 L 2945.36,1689.12 L 2933.67,1706.61 L 2932.42,1708.13 L 2930.91,1709.37 L 2929.18,1710.3 L 2927.3,1710.87 L 2925.35,1711.06 L 2923.4,1710.87 L 2921.53,1710.3 L 2919.8,1709.37 L 2918.28,1708.13 L 2917.04,1706.61 L 2905.35,1689.12 L 2891.01,1674.78 L 2874.14,1663.51 L 2855.39,1655.74 L 2835.5,1651.79 L 2815.21,1651.79 L 2795.31,1655.74 L 2776.57,1663.51 L 2759.7,1674.78 L 2745.36,1689.12 L 2733.67,1706.61 L 2732.42,1708.13 L 2730.91,1709.37 L 2729.18,1710.3 L 2727.3,1710.87 L 2725.35,1711.06 L 2723.4,1710.87 L 2721.53,1710.3 L 2719.8,1709.37 L 2718.28,1708.13 L 2717.04,1706.61 L 2705.35,1689.12 L 2691.01,1674.78 L 2674.14,1663.51 L 2655.39,1655.74 L 2635.5,1651.79 L 2615.21,1651.79 L 2595.31,1655.74 L 2576.57,1663.51 L 2559.7,1674.78 L 2545.36,1689.12 L 2533.67,1706.61 L 2532.42,1708.13 L 2530.91,1709.37 L 2529.18,1710.3 L 2527.3,1710.87 L 2525.35,1711.06 L 2523.4,1710.87 L 2521.53,1710.3 L 2519.8,1709.37 L 2518.28,1708.13 L 2517.04,1706.61 L 2505.35,1689.12 L 2491.01,1674.78 L 2474.14,1663.51 L 2455.39,1655.74 L 2435.5,1651.79 L 2415.21,1651.79 L 2395.31,1655.74 L 2376.57,1663.51 L 2359.7,1674.78 L 2345.36,1689.12 L 2333.67,1706.61 L 2332.42,1708.13 L 2330.91,1709.37 L 2329.18,1710.3 L 2327.3,1710.87 L 2325.35,1711.06 L 2323.4,1710.87 L 2321.53,1710.3 L 2319.8,1709.37 L 2318.28,1708.13 L 2317.04,1706.61 L 2305.35,1689.12 L 2291.01,1674.78 L 2274.14,1663.51 L 2255.39,1655.74 L 2235.5,1651.79 L 2215.21,1651.79 L 2195.31,1655.74 L 2176.57,1663.51 L 2159.7,1674.78 L 2145.36,1689.12 L 2133.67,1706.61 L 2132.42,1708.13 L 2130.91,1709.37 L 2129.18,1710.3 L 2127.3,1710.87 L 2125.35,1711.06 L 2123.4,1710.87 L 2121.53,1710.3 L 2119.8,1709.37 L 2118.28,1708.13 L 2117.04,1706.61 L 2105.35,1689.12 L 2091.01,1674.78 L 2074.14,1663.51 L 2055.39,1655.74 L 2035.5,1651.79 L 2015.21,1651.79 L 1995.31,1655.74 L 1976.57,1663.51 L 1959.7,1674.78 L 1945.36,1689.12 L 1933.6,1706.72 L 1932.42,1708.17 L 1930.99,1709.38 L 1929.36,1710.3 L 1927.58,1710.9 L 1925.73,1711.16 L 1923.86,1711.06 L 1922.04,1710.63 L 1920.34,1709.86 L 1918.8,1708.78 L 1917.5,1707.44 L 1916.46,1705.88 L 1915.89,1704.81 L 1906.4,1702.02 L 1881.57,1726.85 L 1882.9,1729.16 L 1886.97,1741.68 L 1888.35,1754.78 L 1886.97,1767.87 L 1882.9,1780.4 L 1881.57,1782.71 L 1906.4,1807.54 L 1915.61,1804.83 L 1916.09,1803.81 L 1917.07,1802.17 L 1918.34,1800.75 L 1919.85,1799.59 L 1921.56,1798.74 L 1923.4,1798.24 L 1925.31,1798.09 L 1927.2,1798.3 L 1929.03,1798.88 L 1930.7,1799.78 L 1932.18,1800.99 L 1933.4,1802.46 L 1933.63,1802.88 L 1945.35,1820.43 L 1959.7,1834.78 L 1976.57,1846.05 L 1995.31,1853.81 L 2015.21,1857.77 L 2035.5,1857.77 L 2055.4,1853.81 L 2056.09,1853.53 L 2057.96,1852.96 L 2059.91,1852.77 L 2061.86,1852.96 L 2063.74,1853.53 L 2065.47,1854.45 L 2066.98,1855.69 L 2291.27,2079.99 L 2292.45,2081.4 L 2293.35,2083.01 L 2293.93,2084.75 L 2294.19,2086.57 L 2294.11,2088.4 L 2293.7,2090.19 L 2292.96,2091.88 L 2291.93,2093.4 L 2290.64,2094.71 L 2289.13,2095.76 L 2287.46,2096.51 L 2285.67,2096.95 L 2283.83,2097.05 L 2282.01,2096.81 L 2280.26,2096.25 L 2278.65,2095.37 L 2272.83,2091.49 L 2255.52,2084.32 L 2237.15,2080.66 L 2218.41,2080.66 L 2200.04,2084.32 L 2182.72,2091.49 L 2167.14,2101.9 L 2153.9,2115.15 L 2149.76,2121.33 L 2148.74,2122.62 L 2147.53,2123.71 L 2146.16,2124.6 L 2144.66,2125.25 L 2143.07,2125.65 L 2141.45,2125.78 L 2071.21,2125.78 L 2069.26,2125.59 L 2067.38,2125.02 L 2065.65,2124.09 L 2064.14,2122.85 L 1816.16,1874.87 L 1814.98,1873.45 L 1814.08,1871.84 L 1813.5,1870.08 L 1813.24,1868.25 L 1813.33,1866.41 L 1813.75,1864.61 L 1814.5,1862.92 L 1815.55,1861.4 L 1816.86,1860.09 L 1818.39,1859.05 L 1820.08,1858.31 L 1821.88,1857.89 L 1823.73,1857.81 L 1830.42,1858.15 L 1850.48,1855.17 L 1869.82,1848.26 L 1875.32,1845.31 L 1878.11,1835.82 L 1853.23,1810.94 L 1844.82,1814.69 L 1831.94,1817.42 L 1818.77,1817.42 L 1805.89,1814.69 L 1793.86,1809.33 L 1783.2,1801.59 L 1774.39,1791.8 L 1767.81,1780.4 L 1763.74,1767.87 L 1762.36,1754.78 L 1763.74,1741.68 L 1767.81,1729.16 L 1769.14,1726.85 L 1744.31,1702.02 L 1735.1,1704.72 L 1734.61,1705.75 L 1733.63,1707.4 L 1732.34,1708.83 L 1730.81,1709.99 L 1729.09,1710.83 L 1727.23,1711.33 L 1725.31,1711.47 L 1723.41,1711.23 L 1721.58,1710.64 L 1719.9,1709.7 L 1718.43,1708.47 L 1717.22,1706.97 L 1717.01,1706.58 L 1705.35,1689.12 L 1691.01,1674.78 L 1674.14,1663.51 L 1655.39,1655.74 L 1635.5,1651.79 L 1615.21,1651.79 L 1595.31,1655.74 L 1576.57,1663.51 L 1559.7,1674.78 L 1545.36,1689.12 L 1533.67,1706.61 L 1532.42,1708.13 L 1530.91,1709.37 L 1529.18,1710.3 L 1527.3,1710.87 L 1525.35,1711.06 L 1523.4,1710.87 L 1521.53,1710.3 L 1519.8,1709.37 L 1518.28,1708.13 L 1517.04,1706.61 L 1505.35,1689.12 L 1498.28,1682.05 L 1497.04,1680.54 L 1496.11,1678.81 L 1495.55,1676.93 L 1495.35,1674.98 L 1495.35,1587.92 L 1495.55,1585.96 L 1496.11,1584.09 L 1497.04,1582.36 L 1498.28,1580.84 L 1818.43,1260.7 L 1819.62,1259.68 L 1820.96,1258.86 L 1822.41,1258.26 L 1823.93,1257.89 L 1825.5,1257.77 L 1835.5,1257.77 L 1855.4,1253.81 L 1874.14,1246.05 L 1891.01,1234.78 L 1905.35,1220.43 L 1917.04,1202.94 L 1918.28,1201.43 L 1919.8,1200.18 L 1921.52,1199.26 L 1923.4,1198.69 L 1925.35,1198.5 L 1927.3,1198.69 L 1929.18,1199.26 L 1930.91,1200.18 L 1932.42,1201.43 L 1933.67,1202.94 L 1945.35,1220.43 L 1959.7,1234.78 L 1976.57,1246.05 L 1995.31,1253.81 L 2015.21,1257.77 L 2035.5,1257.77 L 2055.39,1253.81 L 2074.14,1246.05 L 2091.01,1234.78 L 2105.35,1220.43 L 2117.04,1202.94 L 2118.28,1201.43 L 2119.8,1200.18 L 2121.53,1199.26 L 2123.4,1198.69 L 2125.35,1198.5 L 2127.3,1198.69 L 2129.18,1199.26 L 2130.91,1200.18 L 2132.42,1201.43 L 2133.67,1202.94 L 2145.36,1220.43 L 2159.7,1234.78 L 2176.57,1246.05 L 2195.31,1253.81 L 2215.21,1257.77 L 2235.5,1257.77 L 2255.39,1253.81 L 2274.14,1246.05 L 2291.01,1234.78 L 2305.35,1220.43 L 2317.04,1202.94 L 2318.28,1201.43 L 2319.8,1200.18 L 2321.53,1199.26 L 2323.4,1198.69 L 2325.35,1198.5 L 2327.3,1198.69 L 2329.18,1199.26 L 2330.91,1200.18 L 2332.42,1201.43 L 2333.67,1202.94 L 2345.36,1220.43 L 2359.7,1234.78 L 2376.57,1246.05 L 2395.31,1253.81 L 2415.21,1257.77 L 2435.5,1257.77 L 2455.39,1253.81 L 2474.14,1246.05 L 2491.01,1234.78 L 2505.35,1220.43 L 2517.04,1202.94 L 2518.28,1201.43 L 2519.8,1200.18 L 2521.53,1199.26 L 2523.4,1198.69 L 2525.35,1198.5 L 2527.3,1198.69 L 2529.18,1199.26 L 2530.91,1200.18 L 2532.42,1201.43 L 2533.67,1202.94 L 2545.36,1220.43 L 2559.7,1234.78 L 2576.57,1246.05 L 2595.31,1253.81 L 2615.21,1257.77 L 2635.5,1257.77 L 2648.72,1255.14 L 2650.67,1254.95 L 2652.62,1255.14 L 2654.5,1255.71 L 2656.23,1256.63 L 2657.74,1257.88 L 2848.92,1449.05 L 2849.58,1449.78 L 2850.83,1451.31 L 2858.44,1457.55 L 2867.13,1462.2 L 2876.55,1465.06 L 2886.35,1466.02 L 2888.32,1465.83 L 2889.3,1465.78 L 3349.45,1465.78 L 3351.07,1465.91 L 3352.66,1466.31 L 3354.16,1466.96 L 3355.53,1467.85 L 3356.75,1468.94 L 3357.76,1470.23 L 3361.9,1476.41 L 3375.14,1489.66 L 3390.72,1500.07 L 3408.03,1507.24 L 3426.41,1510.9 L 3445.15,1510.9 L 3463.52,1507.24 L 3480.84,1500.07 L 3496.41,1489.66 L 3509.66,1476.42 L 3520.07,1460.84 L 3527.24,1443.52 L 3530.9,1425.15 L 3530.9,1406.41 L 3527.24,1388.04 L 3520.07,1370.72 L 3509.66,1355.14 L 3496.41,1341.9 L 3480.84,1331.49 L 3463.52,1324.32 L 3445.15,1320.66 L 3426.41,1320.66 L 3408.03,1324.32 L 3390.72,1331.49 L 3375.14,1341.9 L 3361.9,1355.15 L 3357.76,1361.33 L 3356.74,1362.62 L 3355.53,1363.71 L 3354.16,1364.6 L 3352.66,1365.25 L 3351.07,1365.65 L 3349.45,1365.78 L 2911.21,1365.78 L 2909.26,1365.59 L 2907.38,1365.02 L 2905.65,1364.09 L 2904.14,1362.85 L 2816.13,1274.84 L 2814.97,1273.45 L 2814.08,1271.87 L 2813.49,1270.16 L 2813.22,1268.37 L 2813.27,1266.56 L 2813.65,1264.79 L 2814.34,1263.12 L 2815.33,1261.6 L 2816.57,1260.28 L 2818.02,1259.21 L 2819.65,1258.42 L 2821.39,1257.93 L 2823.2,1257.77 L 2835.5,1257.77 L 2848.72,1255.14 L 2850.67,1254.95 L 2852.62,1255.14 L 2854.5,1255.71 L 2856.22,1256.63 L 2857.74,1257.88 L 2880.91,1281.04 L 2881.57,1281.77 L 2882.82,1283.3 L 2890.43,1289.54 L 2899.12,1294.19 L 2908.54,1297.05 L 2918.35,1298.01 L 2920.31,1297.82 L 2921.29,1297.77 L 3350.84,1297.77 L 3351.82,1297.82 L 3353.79,1298.01 L 3363.59,1297.05 L 3373.02,1294.19 L 3381.7,1289.54 L 3389.31,1283.3 L 3390.57,1281.77 L 3391.23,1281.04 L 3410.09,1262.18 L 3411.33,1261.12 L 3412.74,1260.28 L 3414.26,1259.68 L 3415.85,1259.34 L 3417.49,1259.26 L 3419.11,1259.45 L 3426.41,1260.9 L 3445.15,1260.9 L 3463.52,1257.24 L 3480.84,1250.07 L 3496.41,1239.66 L 3509.66,1226.42 L 3520.07,1210.84 L 3527.24,1193.52 L 3530.9,1175.15 L 3530.9,1156.41 L 3527.24,1138.04 L 3520.07,1120.72 L 3509.66,1105.14 L 3496.41,1091.9 L 3480.84,1081.49 L 3463.52,1074.32 L 3445.15,1070.66 L 3426.41,1070.66 L 3408.03,1074.32 L 3390.72,1081.49 L 3375.14,1091.9 L 3361.9,1105.15 L 3351.49,1120.72 L 3344.32,1138.04 L 3340.66,1156.41 L 3340.66,1175.15 L 3342.11,1182.45 L 3342.3,1184.07 L 3342.22,1185.71 L 3341.87,1187.31 L 3341.27,1188.83 L 3340.43,1190.23 L 3339.37,1191.47 L 3336,1194.84 L 3334.49,1196.09 L 3332.76,1197.01 L 3330.89,1197.58 L 3328.94,1197.77 L 3138.59,1197.77 L 3136.64,1197.58 L 3134.76,1197.01 L 3133.03,1196.08 L 3131.52,1194.84 L 3130.27,1193.33 L 3129.35,1191.6 L 3128.78,1189.72 L 3128.59,1187.77 L 3128.59,1092.28 L 3127.77,1083.94 L 3125.48,1076.4 L 3121.77,1069.46 L 3116.77,1063.37 L 3110.67,1058.37 L 3103.72,1054.65 L 3096.19,1052.36 L 3087.85,1051.54 L 2996.97,1051.54 L 2995.02,1051.35 L 2993.14,1050.78 L 2991.42,1049.86 L 2989.9,1048.61 L 2727.79,786.509 L 2727.14,785.782 L 2725.88,784.254 L 2724.6,783.198 L 2723.28,781.896 L 2722.23,780.373 L 2721.47,778.682 L 2721.04,776.881 L 2720.95,775.032 L 2721.2,773.198 L 2721.79,771.442 L 2722.69,769.823 L 2723.87,768.398 L 3105.04,387.228 L 3106.33,386.144 L 3107.77,385.29 L 3109.34,384.69 L 3110.99,384.362 L 3112.67,384.315 L 3114.34,384.551 L 3115.94,385.062 L 3126.04,389.246 L 3144.41,392.9 L 3163.15,392.9 L 3181.52,389.246 L 3198.84,382.075 L 3214.41,371.667 L 3227.66,358.414 L 3238.07,342.837 L 3245.24,325.525 L 3248.9,307.149 L 3248.9,288.412 L 3245.24,270.036 L 3238.07,252.724 L 3227.66,237.146 L 3214.41,223.897 L 3198.84,213.488 L 3181.52,206.317 L 3163.15,202.661 L 3144.41,202.661 L 3126.03,206.317 L 3108.72,213.487 L 3093.14,223.897 L 3079.9,237.146 L 3069.49,252.724 L 3062.32,270.036 L 3058.59,288.773 L 3058.47,289.996 L 3057.9,291.872 L 3056.97,293.601 L 3055.73,295.117 L 2634.17,716.683 L 2632.92,717.74 L 2631.52,718.58 L 2630,719.181 L 2628.4,719.526 L 2626.77,719.606 L 2625.14,719.419 L 2611.92,716.788 L 2591.64,716.788 L 2571.74,720.747 L 2552.99,728.509 L 2536.12,739.782 L 2521.78,754.126 L 2510.51,770.997 L 2502.75,789.738 L 2498.79,809.636 L 2498.79,829.925 L 2502.75,849.824 L 2510.51,868.564 L 2521.78,885.435 L 2536.12,899.779 L 2552.99,911.052 L 2571.74,918.814 L 2591.63,922.774 L 2611.92,922.774 L 2631.82,918.814 L 2650.56,911.051 L 2667.43,899.78 L 2676.47,890.745 L 2677.8,889.625 L 2679.31,888.753 L 2680.95,888.156 L 2682.67,887.854 L 2684.41,887.854 L 2686.13,888.156 L 2687.76,888.752 L 2689.27,889.624 L 2690.61,890.744 L 2834.58,1034.71 L 2835.74,1036.1 L 2836.63,1037.68 L 2837.22,1039.39 L 2837.49,1041.18 L 2837.43,1042.99 L 2837.05,1044.76 L 2836.36,1046.43 L 2835.38,1047.95 L 2834.14,1049.27 L 2832.68,1050.34 L 2831.05,1051.14 L 2829.31,1051.62 L 2827.51,1051.79 L 2815.21,1051.79 L 2795.31,1055.74 L 2776.57,1063.51 L 2759.7,1074.78 L 2745.36,1089.12 L 2733.67,1106.61 L 2732.42,1108.13 L 2730.91,1109.37 L 2729.18,1110.3 L 2727.3,1110.87 L 2725.35,1111.06 L 2723.4,1110.87 L 2721.53,1110.3 L 2719.8,1109.37 L 2718.28,1108.13 L 2717.04,1106.61 L 2705.35,1089.12 L 2691.01,1074.78 L 2674.14,1063.51 L 2655.39,1055.74 L 2635.5,1051.79 L 2615.21,1051.79 L 2595.31,1055.74 L 2576.57,1063.51 L 2559.7,1074.78 L 2545.36,1089.12 L 2533.67,1106.61 L 2532.42,1108.13 L 2530.91,1109.37 L 2529.18,1110.3 L 2527.3,1110.87 L 2525.35,1111.06 L 2523.4,1110.87 L 2521.53,1110.3 L 2519.8,1109.37 L 2518.28,1108.13 L 2517.04,1106.61 L 2505.35,1089.12 L 2491.01,1074.78 L 2479.64,1067.18 L 2478.36,1066.17 L 2477.26,1064.96 L 2476.38,1063.58 L 2475.73,1062.08 L 2475.33,1060.5 L 2475.2,1058.87 L 2475.2,720.994 L 2475.32,719.429 L 2475.68,717.903 L 2476.29,716.454 L 2477.11,715.116 L 2478.12,713.922 L 2777.9,414.146 L 2779.15,413.089 L 2780.55,412.249 L 2782.07,411.648 L 2783.67,411.303 L 2785.3,411.223 L 2786.92,411.41 L 2794.41,412.9 L 2813.15,412.9 L 2831.52,409.244 L 2848.83,402.076 L 2864.41,391.666 L 2877.66,378.415 L 2888.07,362.837 L 2895.24,345.525 L 2898.9,327.149 L 2898.9,308.412 L 2895.24,290.036 L 2888.07,272.724 L 2877.66,257.147 L 2864.41,243.897 L 2848.84,233.488 L 2831.52,226.317 L 2813.15,222.661 L 2794.41,222.661 L 2776.03,226.317 L 2758.72,233.487 L 2743.14,243.897 L 2729.89,257.147 L 2719.49,272.724 L 2712.32,290.036 L 2708.59,308.784 L 2708.07,310.539 L 2707.24,312.169 L 2706.12,313.621 L 2704.76,314.846 L 2703.2,315.802 L 2701.49,316.458 L 2699.7,316.792 L 2697.86,316.792 L 2696.07,316.458 L 2694.36,315.802 L 2692.8,314.846 L 2691.44,313.622 L 2690.32,312.17 L 2689.49,310.539 L 2688.97,308.785 L 2685.24,290.036 L 2678.07,272.724 L 2667.66,257.147 L 2654.41,243.897 L 2638.83,233.487 L 2621.52,226.317 L 2603.15,222.661 L 2584.41,222.661 L 2566.03,226.317 L 2548.72,233.488 L 2533.14,243.897 L 2519.89,257.147 L 2509.49,272.724 L 2502.32,290.036 L 2498.59,308.784 L 2498.07,310.539 L 2497.24,312.169 L 2496.12,313.621 L 2494.76,314.846 L 2493.2,315.802 L 2491.49,316.458 L 2489.7,316.792 L 2487.86,316.792 L 2486.07,316.458 L 2484.36,315.802 L 2482.8,314.846 L 2481.44,313.622 L 2480.32,312.17 L 2479.49,310.539 L 2478.97,308.785 L 2475.24,290.038 L 2468.07,272.724 L 2457.66,257.147 L 2444.41,243.897 L 2428.84,233.488 L 2411.52,226.317 L 2393.15,222.661 L 2374.41,222.661 L 2356.03,226.317 L 2338.72,233.487 L 2323.14,243.897 L 2309.89,257.147 L 2299.48,272.725 L 2292.31,290.038 L 2288.66,308.412 L 2288.66,327.149 L 2290.15,334.636 L 2290.34,336.26 L 2290.26,337.892 L 2289.91,339.49 L 2289.31,341.01 L 2288.47,342.412 L 2287.41,343.659 L 2119.2,511.875 L 2118.47,512.534 L 2116.95,513.783 L 2110.72,521.372 L 2106.09,530.031 L 2103.24,539.428 L 2102.28,549.197 L 2102.47,551.156 L 2102.52,552.138 L 2102.52,752.204 L 2102.35,754.017 L 2101.86,755.77 L 2101.06,757.405 L 2099.98,758.867 L 2098.64,760.109 L 2097.11,761.088 L 2095.42,761.773 L 2093.64,762.141 L 2091.82,762.179 L 2090.02,761.886 L 2088.31,761.273 L 2086.73,760.359 L 2085.35,759.174 L 2084.2,757.758 L 2081.78,754.126 L 2074.71,747.057 L 2073.69,745.863 L 2072.87,744.525 L 2072.27,743.076 L 2071.9,741.55 L 2071.78,739.986 L 2071.78,411.016 L 2071.97,409.065 L 2072.54,407.189 L 2073.46,405.46 L 2074.71,403.944 L 2076.22,402.701 L 2077.95,401.777 L 2079.83,401.208 L 2081.78,401.016 L 2126.28,401.015 L 2134.61,400.196 L 2142.15,397.908 L 2149.1,394.192 L 2155.19,389.193 L 2160.19,383.103 L 2163.9,376.155 L 2166.19,368.613 L 2167.01,360.283 L 2167.01,235.279 L 2166.19,226.948 L 2163.9,219.406 L 2160.19,212.458 L 2155.19,206.367 L 2149.1,201.368 L 2142.15,197.655 L 2134.61,195.367 L 2126.28,194.546 L 2001.28,194.546 L 1992.95,195.367 L 1985.41,197.654 L 1978.46,201.368 L 1972.37,206.366 L 1967.37,212.458 L 1963.65,219.406 L 1961.36,226.948 L 1960.54,235.279 L 1960.54,235.356 L 1960.37,237.201 L 1959.86,238.983 L 1959.03,240.64 L 1957.91,242.116 L 1956.54,243.36 L 1954.96,244.328 L 1953.23,244.989 L 1951.4,245.319 L 1949.55,245.306 L 1947.99,245.002 L 1923.14,269.85 L 1924.48,272.158 L 1928.54,284.683 L 1929.92,297.78 L 1928.54,310.876 L 1924.48,323.401 L 1917.89,334.805 L 1909.08,344.592 L 1898.43,352.332 L 1886.39,357.689 L 1873.51,360.427 L 1860.34,360.427 L 1847.46,357.689 L 1839.05,353.943M 1894.81,241.616 L 1919.68,216.739 L 1916.98,207.526 L 1901.81,200.346 L 1882.13,195.413 L 1861.87,194.414 L 1841.8,197.387 L 1822.46,204.303 L 1816.96,207.247 L 1814.17,216.739 L 1839.05,241.617 L 1847.46,237.87 L 1860.34,235.132 L 1873.51,235.132 L 1886.39,237.87 L 1894.81,241.616M 1810.72,325.708 L 1809.38,323.401 L 1805.31,310.876 L 1803.94,297.78 L 1805.31,284.683 L 1809.38,272.158 L 1810.71,269.852 L 1785.89,245.023 L 1776.67,247.726 L 1769.49,262.898 L 1764.56,282.578 L 1763.56,302.842 L 1766.54,322.91 L 1773.45,342.245 L 1776.39,347.753 L 1785.89,350.538 L 1810.72,325.708 z " style="fill-opacity:1.000000;fill:rgb(167,241,217);stroke:rgb(0,0,0);stroke-width:2"/></g>
<g fill-rule="evenodd"><path d="M 2662.01,1205.58 L 2656.85,1209.33 L 2644.82,1214.69 L 2631.94,1217.42 L 2618.77,1217.42 L 2605.89,1214.69 L 2593.86,1209.33 L 2583.2,1201.59 L 2574.39,1191.8 L 2567.81,1180.4 L 2563.74,1167.87 L 2562.36,1154.78 L 2563.74,1141.68 L 2567.81,1129.16 L 2574.39,1117.75 L 2583.2,1107.96 L 2593.86,1100.22 L 2605.89,1094.87 L 2618.77,1092.13 L 2631.94,1092.13 L 2644.82,1094.87 L 2656.85,1100.22 L 2667.5,1107.96 L 2676.32,1117.75 L 2682.9,1129.16 L 2686.97,1141.68 L 2688.35,1154.78 L 2686.97,1167.87 L 2682.9,1180.4 L 2676.39,1191.67 L 2890.5,1405.78 L 3381.71,1405.78 L 3381.87,1404.32 L 3385.43,1393.36 L 3391.19,1383.38 L 3398.9,1374.82 L 3408.22,1368.05 L 3418.75,1363.36 L 3430.02,1360.96 L 3441.54,1360.96 L 3452.81,1363.36 L 3463.34,1368.05 L 3472.66,1374.82 L 3480.37,1383.38 L 3486.13,1393.36 L 3489.69,1404.32 L 3490.9,1415.78 L 3489.69,1427.24 L 3486.13,1438.2 L 3480.37,1448.18 L 3472.66,1456.74 L 3463.34,1463.51 L 3452.81,1468.2 L 3441.54,1470.6 L 3430.02,1470.6 L 3418.75,1468.2 L 3408.22,1463.51 L 3398.9,1456.74 L 3391.19,1448.18 L 3385.43,1438.2 L 3381.87,1427.24 L 3381.71,1425.78 L 2886.36,1425.78 L 2884.4,1425.59 L 2882.53,1425.02 L 2880.8,1424.09 L 2879.28,1422.85 L 2662.01,1205.58 z " style="fill-opacity:1.000000;fill:rgb(42,130,200);stroke:rgb(0,0,0);stroke-width:2"/></g>
<g fill-rule="evenodd"><path d="M 2862.01,1205.58 L 2856.85,1209.33 L 2844.82,1214.69 L 2831.94,1217.42 L 2818.77,1217.42 L 2805.89,1214.69 L 2793.86,1209.33 L 2783.2,1201.59 L 2774.39,1191.8 L 2767.81,1180.4 L 2763.74,1167.87 L 2762.36,1154.78 L 2763.74,1141.68 L 2767.81,1129.16 L 2774.39,1117.75 L 2783.2,1107.96 L 2793.86,1100.22 L 2805.89,1094.87 L 2818.77,1092.13 L 2831.94,1092.13 L 2844.82,1094.87 L 2856.85,1100.22 L 2867.5,1107.96 L 2876.32,1117.75 L 2882.9,1129.16 L 2886.97,1141.68 L 2888.35,1154.78 L 2886.97,1167.87 L 2882.9,1180.4 L 2876.39,1191.67 L 2922.49,1237.77 L 3349.65,1237.77 L 3390.47,1196.94 L 3385.43,1188.2 L 3381.87,1177.24 L 3380.66,1165.78 L 3381.87,1154.32 L 3385.43,1143.36 L 3391.19,1133.38 L 3398.9,1124.82 L 3408.22,1118.05 L 3418.75,1113.36 L 3430.02,1110.96 L 3441.54,1110.96 L 3452.81,1113.36 L 3463.34,1118.05 L 3472.66,1124.82 L 3480.37,1133.38 L 3486.13,1143.36 L 3489.69,1154.32 L 3490.9,1165.78 L 3489.69,1177.24 L 3486.13,1188.2 L 3480.37,1198.18 L 3472.66,1206.74 L 3463.34,1213.51 L 3452.81,1218.2 L 3441.54,1220.6 L 3430.02,1220.6 L 3418.75,1218.2 L 3408.22,1213.51 L 3404.73,1210.97 L 3360.86,1254.84 L 3359.35,1256.08 L 3357.62,1257.01 L 3355.74,1257.58 L 3353.79,1257.77 L 2918.35,1257.77 L 2916.39,1257.58 L 2914.52,1257.01 L 2912.79,1256.08 L 2911.27,1254.84 L 2862.01,1205.58 z " style="fill-opacity:1.000000;fill:rgb(216,254,67);stroke:rgb(0,0,0);stroke-width:2"/></g>
<g fill-rule="evenodd"><path d="M 1662.01,1805.58 L 1656.85,1809.33 L 1644.82,1814.69 L 1631.94,1817.42 L 1618.77,1817.42 L 1605.89,1814.69 L 1593.86,1809.33 L 1583.2,1801.59 L 1574.39,1791.8 L 1567.81,1780.4 L 1563.74,1767.87 L 1562.36,1754.78 L 1563.74,1741.68 L 1567.81,1729.16 L 1574.39,1717.75 L 1583.2,1707.96 L 1593.86,1700.22 L 1605.89,1694.87 L 1618.77,1692.13 L 1631.94,1692.13 L 1644.82,1694.87 L 1656.85,1700.22 L 1667.5,1707.96 L 1676.32,1717.75 L 1682.9,1729.16 L 1686.97,1741.68 L 1688.35,1754.78 L 1686.97,1767.87 L 1682.9,1780.4 L 1676.39,1791.67 L 2050.5,2165.78 L 2173.71,2165.78 L 2173.87,2164.32 L 2177.43,2153.36 L 2183.19,2143.38 L 2190.9,2134.82 L 2200.22,2128.05 L 2210.75,2123.36 L 2222.02,2120.96 L 2233.54,2120.96 L 2244.81,2123.36 L 2255.34,2128.05 L 2264.66,2134.82 L 2272.37,2143.38 L 2278.13,2153.36 L 2281.69,2164.32 L 2282.9,2175.78 L 2281.69,2187.24 L 2278.13,2198.2 L 2272.37,2208.18 L 2264.66,2216.74 L 2255.34,2223.51 L 2244.81,2228.2 L 2233.54,2230.6 L 2222.02,2230.6 L 2210.75,2228.2 L 2200.22,2223.51 L 2190.9,2216.74 L 2183.19,2208.18 L 2177.43,2198.2 L 2173.87,2187.24 L 2173.71,2185.78 L 2046.36,2185.78 L 2044.4,2185.59 L 2042.53,2185.02 L 2040.8,2184.09 L 2039.28,2182.85 L 1662.01,1805.58 z " style="fill-opacity:1.000000;fill:rgb(77,152,85);stroke:rgb(0,0,0);stroke-width:2"/></g>
<g fill-rule="evenodd"><path d="M 835.196,1816.73 L 835.196,1996.21 L 835.007,1998.13 L 834.447,1999.97 L 833.537,2001.67 L 832.313,2003.17 L 829.003,2006.48 L 834.132,2015.36 L 837.693,2026.32 L 838.898,2037.78 L 837.693,2049.24 L 834.132,2060.2 L 828.371,2070.18 L 820.661,2078.74 L 811.339,2085.51 L 800.812,2090.2 L 789.541,2092.6 L 778.018,2092.6 L 766.747,2090.2 L 756.22,2085.51 L 746.898,2078.74 L 739.188,2070.18 L 733.427,2060.2 L 729.866,2049.24 L 728.661,2037.78 L 729.866,2026.32 L 733.427,2015.36 L 739.188,2005.38 L 746.898,1996.82 L 756.22,1990.05 L 766.747,1985.36 L 778.018,1982.96 L 789.541,1982.96 L 800.812,1985.36 L 811.339,1990.05 L 814.962,1992.68 L 815.511,1992.13 L 815.511,1816.73 L 805.889,1814.69 L 793.858,1809.33 L 783.204,1801.59 L 774.393,1791.8 L 767.808,1780.4 L 763.739,1767.87 L 762.362,1754.78 L 763.739,1741.68 L 767.808,1729.16 L 774.393,1717.75 L 783.204,1707.96 L 793.858,1700.22 L 805.889,1694.87 L 818.77,1692.13 L 831.939,1692.13 L 844.82,1694.87 L 856.85,1700.22 L 867.504,1707.96 L 876.316,1717.75 L 882.901,1729.16 L 886.97,1741.68 L 888.346,1754.78 L 886.97,1767.87 L 882.901,1780.4 L 876.316,1791.8 L 867.504,1801.59 L 856.85,1809.33 L 844.82,1814.69 L 835.196,1816.73 z " style="fill-opacity:1.000000;fill:rgb(140,226,179);stroke:rgb(0,0,0);stroke-width:2"/></g>
<g fill-rule="evenodd"><path d="M 435.196,1816.73 L 435.196,1853.77 L 435.007,1855.69 L 434.447,1857.53 L 433.537,1859.23 L 432.313,1860.73 L 363.622,1929.42 L 363.622,1983.83 L 370.812,1985.36 L 381.339,1990.05 L 390.661,1996.82 L 398.371,2005.38 L 404.132,2015.36 L 407.693,2026.32 L 408.898,2037.78 L 407.693,2049.24 L 404.132,2060.2 L 398.371,2070.18 L 390.661,2078.74 L 381.339,2085.51 L 370.812,2090.2 L 359.541,2092.6 L 348.018,2092.6 L 336.747,2090.2 L 326.22,2085.51 L 316.898,2078.74 L 309.188,2070.18 L 303.427,2060.2 L 299.866,2049.24 L 298.661,2037.78 L 299.866,2026.32 L 303.427,2015.36 L 309.188,2005.38 L 316.898,1996.82 L 326.22,1990.05 L 336.747,1985.36 L 343.937,1983.83 L 343.937,1925.34 L 344.126,1923.42 L 344.686,1921.57 L 345.596,1919.87 L 346.82,1918.38 L 415.511,1849.69 L 415.511,1816.73 L 405.889,1814.69 L 393.858,1809.33 L 383.204,1801.59 L 374.393,1791.8 L 367.808,1780.4 L 363.739,1767.87 L 362.362,1754.78 L 363.739,1741.68 L 367.808,1729.16 L 374.393,1717.75 L 383.204,1707.96 L 393.858,1700.22 L 405.889,1694.87 L 418.77,1692.13 L 431.939,1692.13 L 444.82,1694.87 L 456.85,1700.22 L 467.504,1707.96 L 476.316,1717.75 L 482.901,1729.16 L 486.97,1741.68 L 488.346,1754.78 L 486.97,1767.87 L 482.901,1780.4 L 476.316,1791.8 L 467.504,1801.59 L 456.85,1809.33 L 444.82,1814.69 L 435.196,1816.73 z " style="fill-opacity:1.000000;fill:rgb(71,23,17);stroke:rgb(0,0,0);stroke-width:2"/></g>
<g fill-rule="evenodd"><path d="M 574.401,1791.81 L 574.393,1791.8 L 567.808,1780.4 L 563.739,1767.87 L 562.362,1754.78 L 563.739,1741.68 L 567.808,1729.16 L 574.393,1717.75 L 583.204,1707.96 L 593.858,1700.22 L 605.889,1694.87 L 618.77,1692.13 L 631.939,1692.13 L 644.82,1694.87 L 656.85,1700.22 L 667.504,1707.96 L 676.316,1717.75 L 682.901,1729.16 L 686.97,1741.68 L 688.346,1754.78 L 686.97,1767.87 L 682.901,1780.4 L 676.316,1791.8 L 667.504,1801.59 L 656.85,1809.33 L 644.82,1814.69 L 631.939,1817.42 L 618.77,1817.42 L 605.889,1814.69 L 593.858,1809.33 L 588.567,1805.49 L 583.622,1810.43 L 583.622,1983.83 L 590.812,1985.36 L 601.339,1990.05 L 610.661,1996.82 L 618.371,2005.38 L 624.132,2015.36 L 627.693,2026.32 L 628.898,2037.78 L 627.693,2049.24 L 624.132,2060.2 L 618.371,2070.18 L 610.661,2078.74 L 601.339,2085.51 L 590.812,2090.2 L 579.541,2092.6 L 568.018,2092.6 L 556.747,2090.2 L 546.22,2085.51 L 536.898,2078.74 L 529.188,2070.18 L 523.427,2060.2 L 519.866,2049.24 L 518.661,2037.78 L 519.866,2026.32 L 523.427,2015.36 L 529.188,2005.38 L 536.898,1996.82 L 546.22,1990.05 L 556.747,1985.36 L 563.937,1983.83 L 563.937,1806.35 L 564.126,1804.43 L 564.686,1802.59 L 565.596,1800.89 L 566.82,1799.39 L 574.401,1791.81 z " style="fill-opacity:1.000000;fill:rgb(152,84,47);stroke:rgb(0,0,0);stroke-width:2"/></g>
<g fill-rule="evenodd"><path d="M 1223.62,1817.42 L 1223.62,1983.83 L 1230.81,1985.36 L 1241.34,1990.05 L 1250.66,1996.82 L 1258.37,2005.38 L 1264.13,2015.36 L 1267.69,2026.32 L 1268.9,2037.78 L 1267.69,2049.24 L 1264.13,2060.2 L 1258.37,2070.18 L 1250.66,2078.74 L 1241.34,2085.51 L 1230.81,2090.2 L 1219.54,2092.6 L 1208.02,2092.6 L 1196.75,2090.2 L 1186.22,2085.51 L 1176.9,2078.74 L 1169.19,2070.18 L 1163.43,2060.2 L 1159.87,2049.24 L 1158.66,2037.78 L 1159.87,2026.32 L 1163.43,2015.36 L 1169.19,2005.38 L 1176.9,1996.82 L 1186.22,1990.05 L 1196.75,1985.36 L 1203.94,1983.83 L 1203.94,1813.82 L 1193.86,1809.33 L 1183.2,1801.59 L 1174.39,1791.8 L 1167.81,1780.4 L 1163.74,1767.87 L 1162.36,1754.78 L 1163.74,1741.68 L 1167.81,1729.16 L 1174.39,1717.75 L 1183.2,1707.96 L 1193.86,1700.22 L 1205.89,1694.87 L 1218.77,1692.13 L 1231.94,1692.13 L 1244.82,1694.87 L 1256.85,1700.22 L 1267.5,1707.96 L 1276.32,1717.75 L 1282.9,1729.16 L 1286.97,1741.68 L 1288.35,1754.78 L 1286.97,1767.87 L 1282.9,1780.4 L 1276.32,1791.8 L 1267.5,1801.59 L 1256.85,1809.33 L 1244.82,1814.69 L 1231.94,1817.42 L 1223.62,1817.42 z " style="fill-opacity:1.000000;fill:rgb(17,45,5);stroke:rgb(0,0,0);stroke-width:2"/></g>
<g fill-rule="evenodd"><path d="M 983.937,1802.12 L 983.204,1801.59 L 974.393,1791.8 L 967.808,1780.4 L 963.739,1767.87 L 962.362,1754.78 L 963.739,1741.68 L 967.808,1729.16 L 974.393,1717.75 L 983.204,1707.96 L 993.858,1700.22 L 1005.89,1694.87 L 1018.77,1692.13 L 1031.94,1692.13 L 1044.82,1694.87 L 1056.85,1700.22 L 1067.5,1707.96 L 1076.32,1717.75 L 1082.9,1729.16 L 1086.97,1741.68 L 1088.35,1754.78 L 1086.97,1767.87 L 1082.9,1780.4 L 1076.32,1791.8 L 1067.5,1801.59 L 1056.85,1809.33 L 1044.82,1814.69 L 1031.94,1817.42 L 1018.77,1817.42 L 1005.89,1814.69 L 1003.62,1813.68 L 1003.62,1983.83 L 1010.81,1985.36 L 1021.34,1990.05 L 1030.66,1996.82 L 1038.37,2005.38 L 1044.13,2015.36 L 1047.69,2026.32 L 1048.9,2037.78 L 1047.69,2049.24 L 1044.13,2060.2 L 1038.37,2070.18 L 1030.66,2078.74 L 1021.34,2085.51 L 1010.81,2090.2 L 999.541,2092.6 L 988.018,2092.6 L 976.747,2090.2 L 966.22,2085.51 L 956.898,2078.74 L 949.188,2070.18 L 943.427,2060.2 L 939.866,2049.24 L 938.661,2037.78 L 939.866,2026.32 L 943.427,2015.36 L 949.188,2005.38 L 956.898,1996.82 L 966.22,1990.05 L 976.747,1985.36 L 983.937,1983.83 L 983.937,1802.12 z " style="fill-opacity:1.000000;fill:rgb(88,245,107);stroke:rgb(0,0,0);stroke-width:2"/></g>
<g fill-rule="evenodd"><path d="M 983.779,709.861 L 983.779,378.245 L 973.514,380.427 L 960.345,380.427 L 947.463,377.689 L 935.433,372.332 L 924.779,364.592 L 915.967,354.805 L 909.383,343.401 L 905.314,330.876 L 903.937,317.78 L 905.314,304.683 L 909.383,292.158 L 915.967,280.754 L 924.779,270.967 L 935.433,263.227 L 947.463,257.87 L 960.345,255.132 L 973.514,255.132 L 986.395,257.87 L 998.425,263.227 L 1009.08,270.967 L 1017.89,280.754 L 1024.48,292.158 L 1028.54,304.683 L 1029.92,317.78 L 1028.54,330.876 L 1024.48,343.401 L 1017.89,354.805 L 1009.08,364.592 L 1003.78,368.442 L 1003.78,709.861 L 1012.03,711.615 L 1023.31,716.636 L 1033.3,723.893 L 1041.56,733.068 L 1047.73,743.76 L 1051.54,755.501 L 1052.83,767.78 L 1051.54,780.058 L 1047.73,791.799 L 1041.95,801.808 L 1232.42,992.284 L 1233.67,993.8 L 1234.59,995.529 L 1235.16,997.405 L 1235.35,999.356 L 1235.35,1092.86 L 1244.82,1094.87 L 1256.85,1100.22 L 1267.5,1107.96 L 1276.32,1117.75 L 1282.9,1129.16 L 1286.97,1141.68 L 1288.35,1154.78 L 1286.97,1167.87 L 1282.9,1180.4 L 1276.32,1191.8 L 1267.5,1201.59 L 1256.85,1209.33 L 1244.82,1214.69 L 1231.94,1217.42 L 1218.77,1217.42 L 1205.89,1214.69 L 1193.86,1209.33 L 1183.2,1201.59 L 1174.39,1191.8 L 1167.81,1180.4 L 1163.74,1167.87 L 1162.36,1154.78 L 1163.74,1141.68 L 1167.81,1129.16 L 1174.39,1117.75 L 1183.2,1107.96 L 1193.86,1100.22 L 1205.89,1094.87 L 1215.35,1092.86 L 1215.35,1003.5 L 1027.64,815.778 L 1023.31,818.923 L 1012.03,823.944 L 999.952,826.511 L 987.607,826.511 L 975.53,823.944 L 964.252,818.923 L 954.264,811.666 L 946.003,802.491 L 939.83,791.799 L 936.015,780.058 L 934.724,767.78 L 936.015,755.501 L 939.83,743.76 L 946.003,733.068 L 954.264,723.893 L 964.252,716.636 L 975.53,711.615 L 983.779,709.861 z " style="fill-opacity:1.000000;fill:rgb(214,136,7);stroke:rgb(0,0,0);stroke-width:2"/></g>
<g fill-rule="evenodd"><path d="M 988.694,1103.98 L 993.858,1100.22 L 1005.89,1094.87 L 1018.77,1092.13 L 1031.94,1092.13 L 1044.82,1094.87 L 1056.85,1100.22 L 1067.5,1107.96 L 1076.32,1117.75 L 1082.9,1129.16 L 1086.97,1141.68 L 1088.35,1154.78 L 1086.97,1167.87 L 1082.9,1180.4 L 1076.32,1191.8 L 1067.5,1201.59 L 1056.85,1209.33 L 1044.82,1214.69 L 1031.94,1217.42 L 1018.77,1217.42 L 1005.89,1214.69 L 993.858,1209.33 L 983.204,1201.59 L 974.393,1191.8 L 967.808,1180.4 L 963.739,1167.87 L 962.362,1154.78 L 963.739,1141.68 L 967.808,1129.16 L 974.317,1117.88 L 217.386,360.954 L 214.371,366.177 L 206.661,374.74 L 197.339,381.513 L 186.812,386.2 L 175.541,388.596 L 164.018,388.596 L 152.747,386.2 L 142.22,381.513 L 132.898,374.74 L 125.188,366.177 L 119.427,356.198 L 115.866,345.239 L 114.661,333.78 L 115.866,322.32 L 119.427,311.361 L 125.188,301.382 L 132.898,292.819 L 142.22,286.046 L 152.747,281.359 L 164.018,278.963 L 175.541,278.963 L 186.812,281.359 L 197.339,286.046 L 206.661,292.819 L 214.371,301.382 L 220.132,311.361 L 223.693,322.32 L 224.898,333.78 L 224.289,339.572 L 988.694,1103.98 z " style="fill-opacity:1.000000;fill:rgb(153,146,72);stroke:rgb(0,0,0);stroke-width:2"/></g>
<g fill-rule="evenodd"><path d="M 788.694,1103.98 L 793.858,1100.22 L 805.889,1094.87 L 818.77,1092.13 L 831.939,1092.13 L 844.82,1094.87 L 856.85,1100.22 L 867.504,1107.96 L 876.316,1117.75 L 882.901,1129.16 L 886.97,1141.68 L 888.346,1154.78 L 886.97,1167.87 L 882.901,1180.4 L 876.316,1191.8 L 867.504,1201.59 L 856.85,1209.33 L 844.82,1214.69 L 831.939,1217.42 L 818.77,1217.42 L 805.889,1214.69 L 793.858,1209.33 L 783.204,1201.59 L 774.393,1191.8 L 767.808,1180.4 L 763.739,1167.87 L 762.362,1154.78 L 763.739,1141.68 L 767.808,1129.16 L 774.317,1117.88 L 252.213,595.78 L 223.847,595.78 L 223.693,597.239 L 220.132,608.198 L 214.371,618.177 L 206.661,626.74 L 197.339,633.513 L 186.812,638.2 L 175.541,640.596 L 164.018,640.596 L 152.747,638.2 L 142.22,633.513 L 132.898,626.74 L 125.188,618.177 L 119.427,608.198 L 115.866,597.239 L 114.661,585.78 L 115.866,574.32 L 119.427,563.361 L 125.188,553.382 L 132.898,544.819 L 142.22,538.046 L 152.747,533.359 L 164.018,530.963 L 175.541,530.963 L 186.812,533.359 L 197.339,538.046 L 206.661,544.819 L 214.371,553.382 L 220.132,563.361 L 223.693,574.32 L 223.847,575.78 L 256.356,575.78 L 258.306,575.972 L 260.182,576.541 L 261.911,577.465 L 263.427,578.708 L 788.694,1103.98 z " style="fill-opacity:1.000000;fill:rgb(51,98,65);stroke:rgb(0,0,0);stroke-width:2"/></g>
<g fill-rule="evenodd"><path d="M 588.694,1103.98 L 593.858,1100.22 L 605.889,1094.87 L 618.77,1092.13 L 631.939,1092.13 L 644.82,1094.87 L 656.85,1100.22 L 667.504,1107.96 L 676.316,1117.75 L 682.901,1129.16 L 686.97,1141.68 L 688.346,1154.78 L 686.97,1167.87 L 682.901,1180.4 L 676.316,1191.8 L 667.504,1201.59 L 656.85,1209.33 L 644.82,1214.69 L 631.939,1217.42 L 618.77,1217.42 L 605.889,1214.69 L 593.858,1209.33 L 583.204,1201.59 L 574.393,1191.8 L 567.808,1180.4 L 563.739,1167.87 L 562.362,1154.78 L 563.739,1141.68 L 567.808,1129.16 L 574.317,1117.88 L 302.213,845.78 L 225.847,845.78 L 225.693,847.239 L 222.132,858.198 L 216.371,868.177 L 208.661,876.74 L 199.339,883.513 L 188.812,888.2 L 177.541,890.596 L 166.018,890.596 L 154.747,888.2 L 144.22,883.513 L 134.898,876.74 L 127.188,868.177 L 121.427,858.198 L 117.866,847.239 L 116.661,835.78 L 117.866,824.32 L 121.427,813.361 L 127.188,803.382 L 134.898,794.819 L 144.22,788.046 L 154.747,783.359 L 166.018,780.963 L 177.541,780.963 L 188.812,783.359 L 199.339,788.046 L 208.661,794.819 L 216.371,803.382 L 222.132,813.361 L 225.693,824.32 L 225.847,825.78 L 306.356,825.78 L 308.306,825.972 L 310.182,826.541 L 311.911,827.465 L 313.427,828.708 L 588.694,1103.98 z " style="fill-opacity:1.000000;fill:rgb(243,13,35);stroke:rgb(0,0,0);stroke-width:2"/></g>
<g fill-rule="evenodd"><path d="M 363.413,1164.78 L 240.776,1164.78 L 239.211,1164.65 L 237.685,1164.29 L 236.236,1163.69 L 234.898,1162.87 L 233.704,1161.85 L 202.832,1130.98 L 199.339,1133.51 L 188.812,1138.2 L 177.541,1140.6 L 166.018,1140.6 L 154.747,1138.2 L 144.22,1133.51 L 134.898,1126.74 L 127.188,1118.18 L 121.427,1108.2 L 117.866,1097.24 L 116.661,1085.78 L 117.866,1074.32 L 121.427,1063.36 L 127.188,1053.38 L 134.898,1044.82 L 144.22,1038.05 L 154.747,1033.36 L 166.018,1030.96 L 177.541,1030.96 L 188.812,1033.36 L 199.339,1038.05 L 208.661,1044.82 L 216.371,1053.38 L 222.132,1063.36 L 225.693,1074.32 L 226.898,1085.78 L 225.693,1097.24 L 222.132,1108.2 L 217.084,1116.94 L 244.918,1144.78 L 363.413,1144.78 L 363.739,1141.68 L 367.808,1129.16 L 374.393,1117.75 L 383.204,1107.96 L 393.858,1100.22 L 405.889,1094.87 L 418.77,1092.13 L 431.939,1092.13 L 444.82,1094.87 L 456.85,1100.22 L 467.504,1107.96 L 476.316,1117.75 L 482.901,1129.16 L 486.97,1141.68 L 488.346,1154.78 L 486.97,1167.87 L 482.901,1180.4 L 476.316,1191.8 L 467.504,1201.59 L 456.85,1209.33 L 444.82,1214.69 L 431.939,1217.42 L 418.77,1217.42 L 405.889,1214.69 L 393.858,1209.33 L 383.204,1201.59 L 374.393,1191.8 L 367.808,1180.4 L 363.739,1167.87 L 363.413,1164.78 z " style="fill-opacity:1.000000;fill:rgb(229,95,48);stroke:rgb(0,0,0);stroke-width:2"/></g>
<g fill-rule="evenodd"><path d="M 1377.48,709.862 L 1377.48,363.243 L 1375.43,362.332 L 1364.78,354.592 L 1355.97,344.805 L 1349.38,333.401 L 1345.31,320.876 L 1343.94,307.78 L 1345.31,294.683 L 1349.38,282.158 L 1355.97,270.754 L 1364.78,260.967 L 1375.43,253.227 L 1387.46,247.87 L 1400.34,245.132 L 1413.51,245.132 L 1426.39,247.87 L 1438.43,253.227 L 1449.08,260.967 L 1457.89,270.754 L 1464.48,282.158 L 1468.54,294.683 L 1469.92,307.78 L 1468.54,320.876 L 1464.48,333.401 L 1457.89,344.805 L 1449.08,354.592 L 1438.43,362.332 L 1426.39,367.689 L 1413.51,370.427 L 1400.34,370.427 L 1397.48,369.818 L 1397.48,709.861 L 1405.73,711.615 L 1417.01,716.636 L 1427,723.893 L 1435.26,733.068 L 1441.43,743.76 L 1445.24,755.501 L 1446.54,767.78 L 1445.24,780.058 L 1441.43,791.799 L 1435.26,802.491 L 1434.91,802.876 L 1435.16,803.705 L 1435.35,805.656 L 1435.35,1092.86 L 1444.82,1094.87 L 1456.85,1100.22 L 1467.5,1107.96 L 1476.32,1117.75 L 1482.9,1129.16 L 1486.97,1141.68 L 1488.35,1154.78 L 1486.97,1167.87 L 1482.9,1180.4 L 1476.32,1191.8 L 1467.5,1201.59 L 1456.85,1209.33 L 1444.82,1214.69 L 1431.94,1217.42 L 1418.77,1217.42 L 1405.89,1214.69 L 1393.86,1209.33 L 1383.2,1201.59 L 1374.39,1191.8 L 1367.81,1180.4 L 1363.74,1167.87 L 1362.36,1154.78 L 1363.74,1141.68 L 1367.81,1129.16 L 1374.39,1117.75 L 1383.2,1107.96 L 1393.86,1100.22 L 1405.89,1094.87 L 1415.35,1092.86 L 1415.35,819.659 L 1405.73,823.944 L 1393.65,826.511 L 1381.31,826.511 L 1369.23,823.944 L 1357.95,818.923 L 1347.96,811.666 L 1339.7,802.491 L 1333.53,791.799 L 1329.72,780.058 L 1328.43,767.78 L 1329.72,755.501 L 1333.53,743.76 L 1339.7,733.068 L 1347.96,723.893 L 1357.95,716.636 L 1369.23,711.615 L 1377.48,709.862 z " style="fill-opacity:1.000000;fill:rgb(209,200,237);stroke:rgb(0,0,0);stroke-width:2"/></g>
<g fill-rule="evenodd"><path d="M 2681.2,1783.34 L 2676.32,1791.8 L 2667.5,1801.59 L 2656.85,1809.33 L 2644.82,1814.69 L 2631.94,1817.42 L 2618.77,1817.42 L 2605.89,1814.69 L 2593.86,1809.33 L 2583.2,1801.59 L 2574.39,1791.8 L 2567.81,1780.4 L 2563.74,1767.87 L 2562.36,1754.78 L 2563.74,1741.68 L 2567.81,1729.16 L 2574.39,1717.75 L 2583.2,1707.96 L 2593.86,1700.22 L 2605.89,1694.87 L 2618.77,1692.13 L 2631.94,1692.13 L 2644.82,1694.87 L 2656.85,1700.22 L 2667.5,1707.96 L 2676.32,1717.75 L 2682.9,1729.16 L 2686.97,1741.68 L 2688.35,1754.78 L 2687.64,1761.5 L 3056.73,2130.58 L 3060.22,2128.05 L 3070.75,2123.36 L 3082.02,2120.96 L 3093.54,2120.96 L 3104.81,2123.36 L 3115.34,2128.05 L 3124.66,2134.82 L 3132.37,2143.38 L 3138.13,2153.36 L 3141.69,2164.32 L 3142.9,2175.78 L 3141.69,2187.24 L 3138.13,2198.2 L 3132.37,2208.18 L 3124.66,2216.74 L 3115.34,2223.51 L 3104.81,2228.2 L 3093.54,2230.6 L 3082.02,2230.6 L 3070.75,2228.2 L 3060.22,2223.51 L 3050.9,2216.74 L 3043.19,2208.18 L 3037.43,2198.2 L 3033.87,2187.24 L 3032.66,2175.78 L 3033.87,2164.32 L 3037.43,2153.36 L 3042.47,2144.62 L 2681.2,1783.34 z " style="fill-opacity:1.000000;fill:rgb(97,12,75);stroke:rgb(0,0,0);stroke-width:2"/></g>
<g fill-rule="evenodd"><path d="M 2477.54,1789.68 L 2476.32,1791.8 L 2467.5,1801.59 L 2456.85,1809.33 L 2444.82,1814.69 L 2431.94,1817.42 L 2418.77,1817.42 L 2405.89,1814.69 L 2393.86,1809.33 L 2383.2,1801.59 L 2374.39,1791.8 L 2367.81,1780.4 L 2363.74,1767.87 L 2362.36,1754.78 L 2363.74,1741.68 L 2367.81,1729.16 L 2374.39,1717.75 L 2383.2,1707.96 L 2393.86,1700.22 L 2405.89,1694.87 L 2418.77,1692.13 L 2431.94,1692.13 L 2444.82,1694.87 L 2456.85,1700.22 L 2467.5,1707.96 L 2476.32,1717.75 L 2482.9,1729.16 L 2486.97,1741.68 L 2488.35,1754.78 L 2486.97,1767.87 L 2486.25,1770.1 L 2846.73,2130.58 L 2850.22,2128.05 L 2860.75,2123.36 L 2872.02,2120.96 L 2883.54,2120.96 L 2894.81,2123.36 L 2905.34,2128.05 L 2914.66,2134.82 L 2922.37,2143.38 L 2928.13,2153.36 L 2931.69,2164.32 L 2932.9,2175.78 L 2931.69,2187.24 L 2928.13,2198.2 L 2922.37,2208.18 L 2914.66,2216.74 L 2905.34,2223.51 L 2894.81,2228.2 L 2883.54,2230.6 L 2872.02,2230.6 L 2860.75,2228.2 L 2850.22,2223.51 L 2840.9,2216.74 L 2833.19,2208.18 L 2827.43,2198.2 L 2823.87,2187.24 L 2822.66,2175.78 L 2823.87,2164.32 L 2827.43,2153.36 L 2832.47,2144.62 L 2477.54,1789.68 z " style="fill-opacity:1.000000;fill:rgb(2,53,57);stroke:rgb(0,0,0);stroke-width:2"/></g>
<g fill-rule="evenodd"><path d="M 2273.16,1795.31 L 2267.5,1801.59 L 2256.85,1809.33 L 2244.82,1814.69 L 2231.94,1817.42 L 2218.77,1817.42 L 2205.89,1814.69 L 2193.86,1809.33 L 2183.2,1801.59 L 2174.39,1791.8 L 2167.81,1780.4 L 2163.74,1767.87 L 2162.36,1754.78 L 2163.74,1741.68 L 2167.81,1729.16 L 2174.39,1717.75 L 2183.2,1707.96 L 2193.86,1700.22 L 2205.89,1694.87 L 2218.77,1692.13 L 2231.94,1692.13 L 2244.82,1694.87 L 2256.85,1700.22 L 2267.5,1707.96 L 2276.32,1717.75 L 2282.9,1729.16 L 2286.97,1741.68 L 2288.35,1754.78 L 2286.97,1767.87 L 2283.79,1777.65 L 2636.73,2130.58 L 2640.22,2128.05 L 2650.75,2123.36 L 2662.02,2120.96 L 2673.54,2120.96 L 2684.81,2123.36 L 2695.34,2128.05 L 2704.66,2134.82 L 2712.37,2143.38 L 2718.13,2153.36 L 2721.69,2164.32 L 2722.9,2175.78 L 2721.69,2187.24 L 2718.13,2198.2 L 2712.37,2208.18 L 2704.66,2216.74 L 2695.34,2223.51 L 2684.81,2228.2 L 2673.54,2230.6 L 2662.02,2230.6 L 2650.75,2228.2 L 2640.22,2223.51 L 2630.9,2216.74 L 2623.19,2208.18 L 2617.43,2198.2 L 2613.87,2187.24 L 2612.66,2175.78 L 2613.87,2164.32 L 2617.43,2153.36 L 2622.47,2144.62 L 2273.16,1795.31 z " style="fill-opacity:1.000000;fill:rgb(129,132,184);stroke:rgb(0,0,0);stroke-width:2"/></g>
<g fill-rule="evenodd"><path d="M 2068.42,1800.57 L 2067.5,1801.59 L 2056.85,1809.33 L 2044.82,1814.69 L 2031.94,1817.42 L 2018.77,1817.42 L 2005.89,1814.69 L 1993.86,1809.33 L 1983.2,1801.59 L 1974.39,1791.8 L 1967.81,1780.4 L 1963.74,1767.87 L 1962.36,1754.78 L 1963.74,1741.68 L 1967.81,1729.16 L 1974.39,1717.75 L 1983.2,1707.96 L 1993.86,1700.22 L 2005.89,1694.87 L 2018.77,1692.13 L 2031.94,1692.13 L 2044.82,1694.87 L 2056.85,1700.22 L 2067.5,1707.96 L 2076.32,1717.75 L 2082.9,1729.16 L 2086.97,1741.68 L 2088.35,1754.78 L 2086.97,1767.87 L 2082.9,1780.4 L 2080.57,1784.43 L 2426.73,2130.58 L 2430.22,2128.05 L 2440.75,2123.36 L 2452.02,2120.96 L 2463.54,2120.96 L 2474.81,2123.36 L 2485.34,2128.05 L 2494.66,2134.82 L 2502.37,2143.38 L 2508.13,2153.36 L 2511.69,2164.32 L 2512.9,2175.78 L 2511.69,2187.24 L 2508.13,2198.2 L 2502.37,2208.18 L 2494.66,2216.74 L 2485.34,2223.51 L 2474.81,2228.2 L 2463.54,2230.6 L 2452.02,2230.6 L 2440.75,2228.2 L 2430.22,2223.51 L 2420.9,2216.74 L 2413.19,2208.18 L 2407.43,2198.2 L 2403.87,2187.24 L 2402.66,2175.78 L 2403.87,2164.32 L 2407.43,2153.36 L 2412.47,2144.62 L 2068.42,1800.57 z " style="fill-opacity:1.000000;fill:rgb(20,162,156);stroke:rgb(0,0,0);stroke-width:2"/></g>
<g fill-rule="evenodd"><path d="M 3087.82,1759.78 L 3086.97,1767.87 L 3082.9,1780.4 L 3076.32,1791.8 L 3067.5,1801.59 L 3056.85,1809.33 L 3044.82,1814.69 L 3031.94,1817.42 L 3018.77,1817.42 L 3005.89,1814.69 L 2993.86,1809.33 L 2983.2,1801.59 L 2974.39,1791.8 L 2967.81,1780.4 L 2963.74,1767.87 L 2962.36,1754.78 L 2963.74,1741.68 L 2967.81,1729.16 L 2974.39,1717.75 L 2983.2,1707.96 L 2993.86,1700.22 L 3005.89,1694.87 L 3018.77,1692.13 L 3031.94,1692.13 L 3044.82,1694.87 L 3056.85,1700.22 L 3067.5,1707.96 L 3076.32,1717.75 L 3082.9,1729.16 L 3086.35,1739.78 L 3383.71,1739.78 L 3383.87,1738.32 L 3387.43,1727.36 L 3393.19,1717.38 L 3400.9,1708.82 L 3410.22,1702.05 L 3420.75,1697.36 L 3432.02,1694.96 L 3443.54,1694.96 L 3454.81,1697.36 L 3465.34,1702.05 L 3474.66,1708.82 L 3482.37,1717.38 L 3488.13,1727.36 L 3491.69,1738.32 L 3492.9,1749.78 L 3491.69,1761.24 L 3488.13,1772.2 L 3482.37,1782.18 L 3474.66,1790.74 L 3465.34,1797.51 L 3454.81,1802.2 L 3443.54,1804.6 L 3432.02,1804.6 L 3420.75,1802.2 L 3410.22,1797.51 L 3400.9,1790.74 L 3393.19,1782.18 L 3387.43,1772.2 L 3383.87,1761.24 L 3383.71,1759.78 L 3087.82,1759.78 z " style="fill-opacity:1.000000;fill:rgb(180,90,103);stroke:rgb(0,0,0);stroke-width:2"/></g>
<g fill-rule="evenodd"><path d="M 2862.01,1805.58 L 2856.85,1809.33 L 2844.82,1814.69 L 2831.94,1817.42 L 2818.77,1817.42 L 2805.89,1814.69 L 2793.86,1809.33 L 2783.2,1801.59 L 2774.39,1791.8 L 2767.81,1780.4 L 2763.74,1767.87 L 2762.36,1754.78 L 2763.74,1741.68 L 2767.81,1729.16 L 2774.39,1717.75 L 2783.2,1707.96 L 2793.86,1700.22 L 2805.89,1694.87 L 2818.77,1692.13 L 2831.94,1692.13 L 2844.82,1694.87 L 2856.85,1700.22 L 2867.5,1707.96 L 2876.32,1717.75 L 2882.9,1729.16 L 2886.97,1741.68 L 2888.35,1754.78 L 2886.97,1767.87 L 2882.9,1780.4 L 2876.39,1791.67 L 3084.5,1999.78 L 3389.71,1999.78 L 3389.87,1998.32 L 3393.43,1987.36 L 3399.19,1977.38 L 3406.9,1968.82 L 3416.22,1962.05 L 3426.75,1957.36 L 3438.02,1954.96 L 3449.54,1954.96 L 3460.81,1957.36 L 3471.34,1962.05 L 3480.66,1968.82 L 3488.37,1977.38 L 3494.13,1987.36 L 3497.69,1998.32 L 3498.9,2009.78 L 3497.69,2021.24 L 3494.13,2032.2 L 3488.37,2042.18 L 3480.66,2050.74 L 3471.34,2057.51 L 3460.81,2062.2 L 3449.54,2064.6 L 3438.02,2064.6 L 3426.75,2062.2 L 3416.22,2057.51 L 3406.9,2050.74 L 3399.19,2042.18 L 3393.43,2032.2 L 3389.87,2021.24 L 3389.71,2019.78 L 3080.36,2019.78 L 3078.4,2019.59 L 3076.53,2019.02 L 3074.8,2018.09 L 3073.28,2016.85 L 2862.01,1805.58 z " style="fill-opacity:1.000000;fill:rgb(42,202,229);stroke:rgb(0,0,0);stroke-width:2"/></g>
<g fill-rule="evenodd"><path d="M 2076.31,1117.74 L 2076.32,1117.75 L 2082.9,1129.16 L 2086.97,1141.68 L 2088.35,1154.78 L 2086.97,1167.87 L 2082.9,1180.4 L 2076.32,1191.8 L 2067.5,1201.59 L 2056.85,1209.33 L 2044.82,1214.69 L 2031.94,1217.42 L 2018.77,1217.42 L 2005.89,1214.69 L 1993.86,1209.33 L 1983.2,1201.59 L 1974.39,1191.8 L 1967.81,1180.4 L 1963.74,1167.87 L 1962.36,1154.78 L 1963.74,1141.68 L 1967.81,1129.16 L 1974.39,1117.75 L 1983.2,1107.96 L 1993.86,1100.22 L 2005.89,1094.87 L 2018.77,1092.13 L 2031.94,1092.13 L 2044.82,1094.87 L 2056.85,1100.22 L 2062.14,1104.07 L 2142.52,1023.69 L 2142.52,549.198 L 2142.71,547.277 L 2143.27,545.431 L 2144.18,543.729 L 2145.4,542.238 L 2338.56,349.083 L 2333.43,340.198 L 2329.87,329.239 L 2328.66,317.78 L 2329.87,306.32 L 2333.43,295.361 L 2339.19,285.382 L 2346.9,276.819 L 2356.22,270.046 L 2366.75,265.359 L 2378.02,262.963 L 2389.54,262.963 L 2400.81,265.359 L 2411.34,270.046 L 2420.66,276.819 L 2428.37,285.382 L 2434.13,295.361 L 2437.69,306.32 L 2438.9,317.78 L 2437.69,329.239 L 2434.13,340.198 L 2428.37,350.177 L 2420.66,358.74 L 2411.34,365.513 L 2400.81,370.2 L 2389.54,372.596 L 2378.02,372.596 L 2366.75,370.2 L 2356.22,365.513 L 2352.6,362.881 L 2162.2,553.274 L 2162.2,1027.77 L 2162.01,1029.69 L 2161.45,1031.54 L 2160.55,1033.24 L 2159.32,1034.73 L 2076.31,1117.74 z " style="fill-opacity:1.000000;fill:rgb(72,233,197);stroke:rgb(0,0,0);stroke-width:2"/></g>
<g fill-rule="evenodd"><path d="M 2215.51,1092.82 L 2215.51,686.206 L 2215.7,684.285 L 2216.26,682.439 L 2217.17,680.737 L 2218.39,679.246 L 2548.56,349.083 L 2543.43,340.198 L 2539.87,329.239 L 2538.66,317.78 L 2539.87,306.32 L 2543.43,295.361 L 2549.19,285.382 L 2556.9,276.819 L 2566.22,270.046 L 2576.75,265.359 L 2588.02,262.963 L 2599.54,262.963 L 2610.81,265.359 L 2621.34,270.046 L 2630.66,276.819 L 2638.37,285.382 L 2644.13,295.361 L 2647.69,306.32 L 2648.9,317.78 L 2647.69,329.239 L 2644.13,340.198 L 2638.37,350.177 L 2630.66,358.74 L 2621.34,365.513 L 2610.81,370.2 L 2599.54,372.596 L 2588.02,372.596 L 2576.75,370.2 L 2566.22,365.513 L 2562.6,362.881 L 2235.2,690.282 L 2235.2,1092.82 L 2244.82,1094.87 L 2256.85,1100.22 L 2267.5,1107.96 L 2276.32,1117.75 L 2282.9,1129.16 L 2286.97,1141.68 L 2288.35,1154.78 L 2286.97,1167.87 L 2282.9,1180.4 L 2276.32,1191.8 L 2267.5,1201.59 L 2256.85,1209.33 L 2244.82,1214.69 L 2231.94,1217.42 L 2218.77,1217.42 L 2205.89,1214.69 L 2193.86,1209.33 L 2183.2,1201.59 L 2174.39,1191.8 L 2167.81,1180.4 L 2163.74,1167.87 L 2162.36,1154.78 L 2163.74,1141.68 L 2167.81,1129.16 L 2174.39,1117.75 L 2183.2,1107.96 L 2193.86,1100.22 L 2205.89,1094.87 L 2215.51,1092.82 z " style="fill-opacity:1.000000;fill:rgb(241,176,196);stroke:rgb(0,0,0);stroke-width:2"/></g>
<g fill-rule="evenodd"><path d="M 2415.51,1092.82 L 2415.51,696.206 L 2415.7,694.285 L 2416.26,692.439 L 2417.17,690.737 L 2418.39,689.246 L 2758.56,349.083 L 2753.43,340.198 L 2749.87,329.239 L 2748.66,317.78 L 2749.87,306.32 L 2753.43,295.361 L 2759.19,285.382 L 2766.9,276.819 L 2776.22,270.046 L 2786.75,265.359 L 2798.02,262.963 L 2809.54,262.963 L 2820.81,265.359 L 2831.34,270.046 L 2840.66,276.819 L 2848.37,285.382 L 2854.13,295.361 L 2857.69,306.32 L 2858.9,317.78 L 2857.69,329.239 L 2854.13,340.198 L 2848.37,350.177 L 2840.66,358.74 L 2831.34,365.513 L 2820.81,370.2 L 2809.54,372.596 L 2798.02,372.596 L 2786.75,370.2 L 2776.22,365.513 L 2772.6,362.881 L 2435.2,700.282 L 2435.2,1092.82 L 2444.82,1094.87 L 2456.85,1100.22 L 2467.5,1107.96 L 2476.32,1117.75 L 2482.9,1129.16 L 2486.97,1141.68 L 2488.35,1154.78 L 2486.97,1167.87 L 2482.9,1180.4 L 2476.32,1191.8 L 2467.5,1201.59 L 2456.85,1209.33 L 2444.82,1214.69 L 2431.94,1217.42 L 2418.77,1217.42 L 2405.89,1214.69 L 2393.86,1209.33 L 2383.2,1201.59 L 2374.39,1191.8 L 2367.81,1180.4 L 2363.74,1167.87 L 2362.36,1154.78 L 2363.74,1141.68 L 2367.81,1129.16 L 2374.39,1117.75 L 2383.2,1107.96 L 2393.86,1100.22 L 2405.89,1094.87 L 2415.51,1092.82 z " style="fill-opacity:1.000000;fill:rgb(21,138,229);stroke:rgb(0,0,0);stroke-width:2"/></g>
<g fill-rule="evenodd"><path d="M 1941.66,837.475 L 1940.16,832.876 L 1938.79,819.78 L 1940.16,806.683 L 1944.23,794.158 L 1950.82,782.754 L 1959.63,772.967 L 1970.28,765.227 L 1971.78,764.561 L 1971.78,359.78 L 1972.36,353.927 L 1974.06,348.299 L 1976.84,343.112 L 1980.57,338.566 L 2000.79,318.345 L 2000.79,234.787 L 2126.77,234.787 L 2126.77,360.772 L 2043.21,360.771 L 2031.78,372.206 L 2031.78,764.561 L 2033.28,765.227 L 2043.93,772.967 L 2052.74,782.754 L 2059.33,794.158 L 2063.4,806.683 L 2064.77,819.78 L 2063.4,832.876 L 2059.33,845.401 L 2052.74,856.805 L 2043.93,866.592 L 2033.28,874.332 L 2021.25,879.689 L 2008.36,882.427 L 1995.2,882.427 L 1983.95,880.036 L 1855.35,1008.63 L 1855.35,1099.56 L 1856.85,1100.22 L 1867.5,1107.96 L 1876.32,1117.75 L 1882.9,1129.16 L 1886.97,1141.68 L 1888.35,1154.78 L 1886.97,1167.87 L 1882.9,1180.4 L 1876.32,1191.8 L 1867.5,1201.59 L 1856.85,1209.33 L 1844.82,1214.69 L 1831.94,1217.42 L 1818.77,1217.42 L 1807.52,1215.03 L 1455.35,1567.2 L 1455.35,1699.56 L 1456.85,1700.22 L 1467.5,1707.96 L 1476.32,1717.75 L 1482.9,1729.16 L 1486.97,1741.68 L 1488.35,1754.78 L 1486.97,1767.87 L 1485.48,1772.47 L 1622.99,1909.99 L 1626.72,1914.54 L 1629.5,1919.72 L 1631.2,1925.35 L 1631.78,1931.2 L 1631.78,2139.82 L 1638.66,2144.82 L 1646.37,2153.38 L 1652.13,2163.36 L 1655.69,2174.32 L 1656.9,2185.78 L 1655.69,2197.24 L 1652.13,2208.2 L 1646.37,2218.18 L 1638.66,2226.74 L 1629.34,2233.51 L 1618.81,2238.2 L 1607.54,2240.6 L 1596.02,2240.6 L 1584.75,2238.2 L 1574.22,2233.51 L 1564.9,2226.74 L 1557.19,2218.18 L 1551.43,2208.2 L 1547.87,2197.24 L 1546.66,2185.78 L 1547.87,2174.32 L 1551.43,2163.36 L 1557.19,2153.38 L 1564.9,2144.82 L 1571.78,2139.82 L 1571.78,1943.63 L 1443.18,1815.03 L 1431.94,1817.42 L 1418.77,1817.42 L 1405.89,1814.69 L 1393.86,1809.33 L 1383.2,1801.59 L 1374.39,1791.8 L 1367.81,1780.4 L 1363.74,1767.87 L 1362.36,1754.78 L 1363.74,1741.68 L 1367.81,1729.16 L 1374.39,1717.75 L 1383.2,1707.96 L 1393.86,1700.22 L 1395.35,1699.56 L 1395.35,1554.78 L 1395.93,1548.92 L 1397.64,1543.3 L 1400.41,1538.11 L 1404.14,1533.56 L 1765.23,1172.47 L 1763.74,1167.87 L 1762.36,1154.78 L 1763.74,1141.68 L 1767.81,1129.16 L 1774.39,1117.75 L 1783.2,1107.96 L 1793.86,1100.22 L 1795.35,1099.56 L 1795.35,996.206 L 1795.93,990.353 L 1797.64,984.725 L 1800.41,979.538 L 1804.14,974.992 L 1941.66,837.475 z " style="fill-opacity:1.000000;fill:rgb(155,77,57);stroke:rgb(0,0,0);stroke-width:2"/></g>
<g fill-rule="evenodd"><path d="M 2663.72,829.78 L 2663.4,832.876 L 2659.33,845.401 L 2652.74,856.805 L 2643.93,866.592 L 2633.28,874.332 L 2621.25,879.689 L 2608.36,882.427 L 2595.2,882.427 L 2582.31,879.689 L 2570.28,874.332 L 2559.63,866.592 L 2550.82,856.805 L 2544.23,845.401 L 2540.16,832.876 L 2538.79,819.78 L 2540.16,806.683 L 2544.23,794.158 L 2550.82,782.754 L 2559.63,772.967 L 2570.28,765.227 L 2582.31,759.87 L 2595.2,757.132 L 2608.36,757.132 L 2621.25,759.87 L 2633.28,765.227 L 2638.44,768.978 L 3099.71,307.711 L 3098.66,297.78 L 3099.87,286.32 L 3103.43,275.361 L 3109.19,265.382 L 3116.9,256.819 L 3126.22,250.046 L 3136.75,245.359 L 3148.02,242.963 L 3159.54,242.963 L 3170.81,245.359 L 3181.34,250.046 L 3190.66,256.819 L 3198.37,265.382 L 3204.13,275.361 L 3207.69,286.32 L 3208.9,297.78 L 3207.69,309.239 L 3204.13,320.198 L 3198.37,330.177 L 3190.66,338.74 L 3181.34,345.513 L 3170.81,350.2 L 3159.54,352.596 L 3148.02,352.596 L 3136.75,350.2 L 3126.22,345.513 L 3116.9,338.74 L 3109.19,330.177 L 3107.85,327.854 L 2652.82,782.884 L 2659.33,794.158 L 2663.4,806.683 L 2663.72,809.779 L 2690.36,809.78 L 2692.31,809.972 L 2694.18,810.541 L 2695.91,811.465 L 2697.43,812.708 L 2976.5,1091.78 L 3088.35,1091.78 L 3088.35,1217.77 L 2962.36,1217.77 L 2962.36,1105.93 L 2686.21,829.78 L 2663.72,829.78 z " style="fill-opacity:1.000000;fill:rgb(246,247,232);stroke:rgb(0,0,0);stroke-width:2"/></g>
</svg>
