<svg width="446.01px" height="393.467px">
<path d="M346.246 9.39378 L344.612 9.39378 L344.204 4.97449 L342.187 9.39378 L340.528 9.39378 L339.711 2.45055 L341.345 2.45055 L341.753 7.14744 L343.764 2.45055 L345.429 2.45055 L345.633 7.14744 L347.88 2.45055 L349.718 2.45055 L346.246 9.39378 Z " stroke="black" stroke-width="1" fill="none" />
<path d="M351.182 9.39378 L349.309 9.39378 L351.345 1.06581e-14 L353.218 1.06581e-14 L352.491 3.35993 L352.615 3.24516 L352.737 3.13696 L352.858 3.03533 L352.977 2.94028 L353.094 2.8518 L353.21 2.76989 L353.324 2.69455 L353.436 2.62579 L353.546 2.5636 L353.655 2.50799 L353.764 2.45827 L353.874 2.41379 L353.986 2.37455 L354.099 2.34053 L354.214 2.31175 L354.331 2.2882 L354.449 2.26989 L354.569 2.2568 L354.69 2.24895 L354.813 2.24634 L354.976 2.25164 L355.131 2.26752 L355.28 2.29401 L355.421 2.33109 L355.556 2.37876 L355.684 2.43702 L355.804 2.50588 L355.918 2.58533 L356.025 2.67538 L356.125 2.77601 L356.216 2.88524 L356.298 3.00103 L356.371 3.1234 L356.433 3.25234 L356.486 3.38785 L356.53 3.52994 L356.563 3.6786 L356.587 3.83384 L356.602 3.99564 L356.607 4.16402 L356.589 4.24654 L356.569 4.33837 L356.548 4.43952 L356.524 4.54998 L356.498 4.66977 L356.47 4.79887 L356.441 4.93729 L356.409 5.08502 L356.375 5.24207 L356.339 5.40844 L355.471 9.39378 L353.598 9.39378 L354.482 5.32229 L354.509 5.19542 L354.534 5.07774 L354.556 4.96926 L354.577 4.86996 L354.596 4.77985 L354.612 4.69893 L354.627 4.6272 L354.639 4.56466 L354.649 4.51131 L354.657 4.46715 L354.655 4.39708 L354.649 4.32982 L354.638 4.26536 L354.624 4.20372 L354.605 4.14488 L354.582 4.08885 L354.555 4.03562 L354.524 3.98521 L354.489 3.9376 L354.45 3.8928 L354.407 3.85158 L354.362 3.81469 L354.313 3.78214 L354.262 3.75394 L354.207 3.73007 L354.15 3.71054 L354.089 3.69535 L354.025 3.6845 L353.958 3.678 L353.888 3.67583 L353.798 3.67908 L353.709 3.68884 L353.62 3.70512 L353.532 3.7279 L353.445 3.75719 L353.359 3.79299 L353.274 3.8353 L353.19 3.88412 L353.106 3.93945 L353.023 4.00129 L352.918 4.09003 L352.818 4.18266 L352.723 4.27918 L352.633 4.37959 L352.549 4.4839 L352.469 4.5921 L352.395 4.7042 L352.326 4.82018 L352.262 4.94006 L352.203 5.06383 L352.169 5.14214 L352.133 5.2392 L352.095 5.35503 L352.054 5.48962 L352.012 5.64297 L351.967 5.81508 L351.921 6.00595 L351.873 6.21559 L351.822 6.44399 L351.769 6.69115 L351.182 9.39378 Z " stroke="black" stroke-width="1" fill="none" />
<path d="M359.928 4.49268 L358.09 4.32994 L358.16 4.1383 L358.238 3.95521 L358.327 3.78068 L358.424 3.61469 L358.532 3.45725 L358.648 3.30837 L358.775 3.16804 L358.91 3.03626 L359.056 2.91303 L359.21 2.79835 L359.376 2.69347 L359.551 2.59963 L359.737 2.51682 L359.934 2.44506 L360.141 2.38434 L360.358 2.33466 L360.585 2.29602 L360.823 2.26842 L361.071 2.25186 L361.329 2.24634 L361.596 2.25176 L361.849 2.26804 L362.088 2.29516 L362.312 2.33313 L362.522 2.38195 L362.717 2.44162 L362.898 2.51213 L363.065 2.5935 L363.217 2.68571 L363.355 2.78878 L363.48 2.89966 L363.592 3.01533 L363.691 3.13578 L363.776 3.26102 L363.848 3.39105 L363.907 3.52586 L363.953 3.66546 L363.986 3.80984 L364.006 3.95901 L364.013 4.11297 L364.012 4.17656 L364.01 4.24098 L364.007 4.30624 L364.002 4.37232 L363.997 4.43923 L363.99 4.50697 L363.981 4.57554 L363.972 4.64494 L363.961 4.71517 L363.949 4.78623 L363.933 4.86865 L363.911 4.97423 L363.882 5.10298 L363.848 5.2549 L363.807 5.42998 L363.76 5.62823 L363.706 5.84964 L363.647 6.09421 L363.581 6.36195 L363.508 6.65286 L363.449 6.89492 L363.396 7.12204 L363.349 7.33423 L363.308 7.53149 L363.274 7.71381 L363.246 7.8812 L363.224 8.03366 L363.208 8.17118 L363.199 8.29377 L363.196 8.40143 L363.198 8.49176 L363.205 8.58407 L363.216 8.67836 L363.232 8.77463 L363.252 8.87288 L363.277 8.9731 L363.307 9.0753 L363.341 9.17948 L363.379 9.28564 L363.422 9.39378 L361.562 9.39378 L361.53 9.31949 L361.501 9.2447 L361.474 9.1694 L361.45 9.09358 L361.428 9.01726 L361.409 8.94043 L361.392 8.86308 L361.378 8.78522 L361.367 8.70686 L361.358 8.62798 L361.273 8.71547 L361.186 8.79926 L361.096 8.87935 L361.003 8.95574 L360.908 9.02843 L360.81 9.09741 L360.71 9.1627 L360.607 9.22428 L360.502 9.28216 L360.394 9.33634 L360.285 9.38606 L360.176 9.43054 L360.066 9.46978 L359.957 9.5038 L359.847 9.53258 L359.737 9.55613 L359.627 9.57444 L359.517 9.58752 L359.407 9.59537 L359.297 9.59799 L359.124 9.59221 L358.958 9.57489 L358.797 9.54601 L358.643 9.50558 L358.495 9.45361 L358.353 9.39008 L358.217 9.315 L358.087 9.22837 L357.963 9.13018 L357.845 9.02045 L357.736 8.90163 L357.639 8.77616 L357.553 8.64406 L357.479 8.50532 L357.416 8.35995 L357.365 8.20794 L357.325 8.04929 L357.296 7.88401 L357.279 7.71209 L357.274 7.53353 L357.28 7.33468 L357.299 7.14399 L357.331 6.96148 L357.376 6.78713 L357.433 6.62095 L357.503 6.46294 L357.586 6.3131 L357.682 6.17143 L357.79 6.03793 L357.912 5.91259 L358.049 5.79552 L358.207 5.68809 L358.385 5.59029 L358.583 5.50212 L358.8 5.4236 L359.038 5.35471 L359.296 5.29545 L359.574 5.24584 L359.872 5.20586 L360.19 5.17551 L360.458 5.15209 L360.707 5.12778 L360.938 5.10257 L361.151 5.07647 L361.345 5.04947 L361.521 5.02159 L361.678 4.99281 L361.818 4.96313 L361.938 4.93256 L362.041 4.9011 L362.066 4.83042 L362.089 4.76262 L362.109 4.69769 L362.126 4.63562 L362.141 4.57644 L362.153 4.52012 L362.163 4.46667 L362.169 4.4161 L362.173 4.36839 L362.175 4.32356 L362.172 4.26957 L362.165 4.21737 L362.152 4.16696 L362.134 4.11833 L362.112 4.07149 L362.084 4.02643 L362.051 3.98317 L362.013 3.94169 L361.97 3.90199 L361.923 3.86408 L361.87 3.82832 L361.812 3.79631 L361.749 3.76807 L361.681 3.7436 L361.608 3.72289 L361.531 3.70595 L361.448 3.69277 L361.36 3.68336 L361.267 3.67771 L361.17 3.67583 L361.067 3.67796 L360.969 3.68438 L360.875 3.69507 L360.786 3.71003 L360.701 3.72927 L360.62 3.75279 L360.543 3.78058 L360.471 3.81265 L360.403 3.84899 L360.34 3.88961 L360.281 3.93355 L360.226 3.98112 L360.176 4.03234 L360.129 4.08719 L360.085 4.14567 L360.046 4.2078 L360.011 4.27356 L359.98 4.34296 L359.952 4.416 L359.928 4.49268 Z " stroke="black" stroke-width="1" fill="none" />
<path d="M361.76 6.12638 L361.724 6.13585 L361.686 6.14514 L361.646 6.15423 L361.604 6.16313 L361.559 6.17185 L361.512 6.18037 L361.462 6.18869 L361.411 6.19683 L361.357 6.20477 L361.3 6.21253 L361.023 6.24922 L360.766 6.28911 L360.528 6.33218 L360.311 6.37845 L360.113 6.42791 L359.936 6.48056 L359.778 6.5364 L359.64 6.59543 L359.522 6.65765 L359.424 6.72306 L359.365 6.77261 L359.312 6.82555 L359.265 6.88187 L359.224 6.94157 L359.19 7.00465 L359.162 7.07111 L359.14 7.14096 L359.124 7.21419 L359.115 7.2908 L359.111 7.3708 L359.114 7.43678 L359.121 7.50073 L359.133 7.56263 L359.15 7.62249 L359.171 7.68031 L359.198 7.73608 L359.229 7.78982 L359.265 7.84151 L359.305 7.89116 L359.351 7.93876 L359.4 7.98241 L359.453 8.02147 L359.508 8.05593 L359.566 8.0858 L359.628 8.11107 L359.692 8.13174 L359.759 8.14783 L359.83 8.15931 L359.903 8.1662 L359.979 8.1685 L360.066 8.1664 L360.151 8.16008 L360.235 8.14955 L360.318 8.13481 L360.4 8.11585 L360.481 8.09269 L360.56 8.06531 L360.639 8.03372 L360.717 7.99792 L360.793 7.95791 L360.868 7.91458 L360.938 7.86882 L361.005 7.82064 L361.068 7.77003 L361.127 7.717 L361.182 7.66154 L361.234 7.60366 L361.281 7.54336 L361.325 7.48062 L361.364 7.41547 L361.401 7.3454 L361.438 7.26792 L361.473 7.18305 L361.508 7.09077 L361.542 6.99109 L361.575 6.884 L361.607 6.76952 L361.639 6.64763 L361.669 6.51834 L361.699 6.38164 L361.76 6.12638 Z " stroke="black" stroke-width="1" fill="none" />
<path d="M365.034 3.88004 L365.442 2.45055 L366.39 2.45055 L366.613 1.42949 L368.729 0.204213 L368.269 2.45055 L369.322 2.45055 L368.914 3.88004 L367.979 3.88004 L367.366 6.87303 L367.332 7.02204 L367.301 7.15765 L367.273 7.27986 L367.25 7.38867 L367.23 7.48407 L367.213 7.56607 L367.201 7.63468 L367.192 7.68988 L367.186 7.73168 L367.184 7.76008 L367.186 7.80191 L367.19 7.84189 L367.197 7.88002 L367.207 7.9163 L367.22 7.95073 L367.236 7.98331 L367.255 8.01403 L367.276 8.04291 L367.301 8.06994 L367.328 8.09511 L367.36 8.11754 L367.396 8.13761 L367.437 8.15532 L367.482 8.17067 L367.532 8.18366 L367.587 8.19428 L367.646 8.20255 L367.71 8.20845 L367.778 8.21199 L367.851 8.21317 L367.881 8.21273 L367.919 8.21139 L367.965 8.20915 L368.019 8.20603 L368.08 8.20201 L368.149 8.19709 L368.227 8.19128 L368.312 8.18458 L368.405 8.17699 L368.505 8.1685 L368.097 9.50546 L368.001 9.52304 L367.904 9.53877 L367.807 9.55265 L367.71 9.56468 L367.612 9.57486 L367.513 9.58318 L367.414 9.58966 L367.315 9.59429 L367.215 9.59706 L367.114 9.59799 L366.923 9.59416 L366.742 9.58267 L366.573 9.56353 L366.414 9.53673 L366.265 9.50227 L366.128 9.46015 L366.001 9.41037 L365.885 9.35293 L365.779 9.28784 L365.685 9.21509 L365.6 9.13487 L365.524 9.04866 L365.457 8.95644 L365.399 8.85823 L365.35 8.75402 L365.309 8.64381 L365.278 8.5276 L365.256 8.40539 L365.242 8.27718 L365.238 8.14298 L365.241 8.0723 L365.249 7.98535 L365.264 7.88213 L365.284 7.76263 L365.31 7.62686 L365.342 7.47482 L365.38 7.3065 L365.424 7.12191 L365.473 6.92105 L365.528 6.70392 L366.103 3.88004 L365.034 3.88004 Z " stroke="black" stroke-width="1" fill="none" />
<path d="M368.709 7.42504 L370.547 7.14744 L370.6 7.25586 L370.656 7.35778 L370.714 7.45318 L370.774 7.54208 L370.837 7.62447 L370.902 7.70034 L370.97 7.76971 L371.041 7.83257 L371.113 7.88892 L371.189 7.93876 L371.268 7.98241 L371.353 8.02147 L371.443 8.05593 L371.539 8.0858 L371.641 8.11107 L371.748 8.13174 L371.861 8.14783 L371.979 8.15931 L372.103 8.1662 L372.232 8.1685 L372.366 8.16582 L372.494 8.15778 L372.617 8.14438 L372.735 8.12562 L372.847 8.10149 L372.954 8.07201 L373.055 8.03717 L373.151 7.99696 L373.242 7.9514 L373.327 7.90047 L373.381 7.86327 L373.429 7.8244 L373.471 7.78388 L373.508 7.7417 L373.54 7.69786 L373.565 7.65235 L373.585 7.60519 L373.599 7.55637 L373.608 7.5059 L373.611 7.45376 L373.609 7.41888 L373.605 7.38445 L373.597 7.35047 L373.587 7.31694 L373.574 7.28385 L373.558 7.2512 L373.539 7.21901 L373.517 7.18726 L373.492 7.15596 L373.464 7.1251 L373.428 7.09568 L373.382 7.06486 L373.325 7.03263 L373.258 6.999 L373.181 6.96397 L373.093 6.92753 L372.995 6.88968 L372.886 6.85044 L372.767 6.80979 L372.637 6.76773 L372.291 6.6565 L371.971 6.54999 L371.679 6.4482 L371.415 6.35114 L371.178 6.2588 L370.968 6.17118 L370.786 6.08828 L370.631 6.0101 L370.504 5.93665 L370.404 5.86792 L370.276 5.76138 L370.161 5.64852 L370.06 5.52934 L369.973 5.40385 L369.899 5.27203 L369.838 5.1339 L369.791 4.98946 L369.757 4.83869 L369.737 4.6816 L369.731 4.5182 L369.737 4.35455 L369.755 4.19542 L369.787 4.04082 L369.83 3.89076 L369.886 3.74523 L369.955 3.60422 L370.035 3.46775 L370.129 3.33581 L370.235 3.2084 L370.353 3.08552 L370.535 2.92608 L370.733 2.78342 L370.949 2.65754 L371.181 2.54844 L371.43 2.45613 L371.695 2.38061 L371.977 2.32186 L372.276 2.27991 L372.592 2.25473 L372.925 2.24634 L373.19 2.2516 L373.442 2.2674 L373.68 2.29372 L373.905 2.33058 L374.117 2.37796 L374.316 2.43587 L374.501 2.50432 L374.673 2.58329 L374.831 2.67279 L374.976 2.77282 L375.11 2.88182 L375.234 2.99822 L375.348 3.12203 L375.451 3.25323 L375.544 3.39184 L375.627 3.53785 L375.7 3.69127 L375.762 3.85209 L375.815 4.02031 L375.857 4.19593 L374.019 4.49268 L373.991 4.41926 L373.96 4.3496 L373.926 4.28371 L373.888 4.22158 L373.847 4.16322 L373.802 4.10863 L373.755 4.0578 L373.703 4.01073 L373.649 3.96744 L373.591 3.9279 L373.51 3.88001 L373.425 3.83715 L373.337 3.79934 L373.246 3.76657 L373.151 3.73884 L373.053 3.71616 L372.952 3.69851 L372.847 3.68591 L372.739 3.67835 L372.628 3.67583 L372.518 3.67755 L372.415 3.68272 L372.317 3.69133 L372.227 3.70339 L372.142 3.7189 L372.064 3.73786 L371.992 3.76026 L371.926 3.7861 L371.867 3.81539 L371.814 3.84813 L371.767 3.8831 L371.726 3.91909 L371.689 3.95611 L371.657 3.99414 L371.63 4.0332 L371.608 4.07327 L371.591 4.11437 L371.578 4.15649 L371.571 4.19963 L371.568 4.24379 L371.571 4.28917 L371.579 4.33339 L371.593 4.37647 L371.611 4.41839 L371.635 4.45917 L371.665 4.4988 L371.7 4.53728 L371.74 4.57462 L371.786 4.6108 L371.836 4.64584 L371.877 4.66849 L371.932 4.69434 L372.003 4.72337 L372.088 4.7556 L372.187 4.79102 L372.302 4.82963 L372.432 4.87143 L372.576 4.91642 L372.735 4.9646 L372.909 5.01597 L373.179 5.09686 L373.432 5.17743 L373.665 5.25768 L373.881 5.33761 L374.077 5.41722 L374.255 5.49651 L374.415 5.57548 L374.556 5.65413 L374.678 5.73247 L374.782 5.81049 L374.908 5.92248 L375.022 6.03895 L375.122 6.15988 L375.208 6.28528 L375.282 6.41515 L375.342 6.54948 L375.388 6.68828 L375.422 6.83155 L375.442 6.97928 L375.448 7.13149 L375.44 7.32858 L375.415 7.52038 L375.372 7.70689 L375.313 7.88809 L375.236 8.064 L375.143 8.23462 L375.033 8.39993 L374.905 8.55995 L374.761 8.71467 L374.6 8.8641 L374.424 9.00354 L374.234 9.1283 L374.03 9.23838 L373.812 9.33379 L373.581 9.41452 L373.336 9.48057 L373.077 9.53194 L372.804 9.56863 L372.517 9.59065 L372.216 9.59799 L371.916 9.59231 L371.63 9.57527 L371.358 9.54687 L371.1 9.50712 L370.856 9.456 L370.626 9.39352 L370.41 9.31969 L370.208 9.23449 L370.02 9.13794 L369.845 9.03002 L369.684 8.91117 L369.532 8.78305 L369.392 8.64569 L369.262 8.49907 L369.143 8.3432 L369.035 8.17807 L368.938 8.0037 L368.851 7.82006 L368.775 7.62718 L368.709 7.42504 Z " stroke="black" stroke-width="1" fill="none" />
<path d="M381.814 9.39378 L379.941 9.39378 L381.977 1.06581e-14 L383.85 1.06581e-14 L383.122 3.35993 L383.247 3.24516 L383.369 3.13696 L383.49 3.03533 L383.609 2.94028 L383.726 2.8518 L383.842 2.76989 L383.956 2.69455 L384.068 2.62579 L384.178 2.5636 L384.287 2.50799 L384.396 2.45827 L384.506 2.41379 L384.618 2.37455 L384.731 2.34053 L384.846 2.31175 L384.963 2.2882 L385.081 2.26989 L385.201 2.2568 L385.322 2.24895 L385.445 2.24634 L385.608 2.25164 L385.763 2.26752 L385.912 2.29401 L386.053 2.33109 L386.188 2.37876 L386.316 2.43702 L386.436 2.50588 L386.55 2.58533 L386.657 2.67538 L386.757 2.77601 L386.848 2.88524 L386.93 3.00103 L387.002 3.1234 L387.065 3.25234 L387.118 3.38785 L387.161 3.52994 L387.195 3.6786 L387.219 3.83384 L387.234 3.99564 L387.239 4.16402 L387.221 4.24654 L387.201 4.33837 L387.18 4.43952 L387.156 4.54998 L387.13 4.66977 L387.102 4.79887 L387.072 4.93729 L387.04 5.08502 L387.007 5.24207 L386.971 5.40844 L386.103 9.39378 L384.23 9.39378 L385.113 5.32229 L385.141 5.19542 L385.165 5.07774 L385.188 4.96926 L385.209 4.86996 L385.228 4.77985 L385.244 4.69893 L385.258 4.6272 L385.271 4.56466 L385.281 4.51131 L385.289 4.46715 L385.287 4.39708 L385.281 4.32982 L385.27 4.26536 L385.256 4.20372 L385.237 4.14488 L385.214 4.08885 L385.187 4.03562 L385.156 3.98521 L385.121 3.9376 L385.082 3.8928 L385.039 3.85158 L384.994 3.81469 L384.945 3.78214 L384.894 3.75394 L384.839 3.73007 L384.781 3.71054 L384.721 3.69535 L384.657 3.6845 L384.59 3.678 L384.52 3.67583 L384.43 3.67908 L384.34 3.68884 L384.252 3.70512 L384.164 3.7279 L384.077 3.75719 L383.991 3.79299 L383.906 3.8353 L383.822 3.88412 L383.738 3.93945 L383.655 4.00129 L383.55 4.09003 L383.45 4.18266 L383.355 4.27918 L383.265 4.37959 L383.181 4.4839 L383.101 4.5921 L383.027 4.7042 L382.958 4.82018 L382.894 4.94006 L382.835 5.06383 L382.801 5.14214 L382.765 5.2392 L382.726 5.35503 L382.686 5.48962 L382.644 5.64297 L382.599 5.81508 L382.553 6.00595 L382.504 6.21559 L382.454 6.44399 L382.401 6.69115 L381.814 9.39378 Z " stroke="black" stroke-width="1" fill="none" />
<path d="M390.56 4.49268 L388.722 4.32994 L388.792 4.1383 L388.87 3.95521 L388.958 3.78068 L389.056 3.61469 L389.163 3.45725 L389.28 3.30837 L389.406 3.16804 L389.542 3.03626 L389.687 2.91303 L389.842 2.79835 L390.008 2.69347 L390.183 2.59963 L390.369 2.51682 L390.566 2.44506 L390.772 2.38434 L390.989 2.33466 L391.217 2.29602 L391.455 2.26842 L391.703 2.25186 L391.961 2.24634 L392.228 2.25176 L392.481 2.26804 L392.72 2.29516 L392.944 2.33313 L393.154 2.38195 L393.349 2.44162 L393.53 2.51213 L393.697 2.5935 L393.849 2.68571 L393.987 2.78878 L394.112 2.89966 L394.224 3.01533 L394.322 3.13578 L394.408 3.26102 L394.48 3.39105 L394.539 3.52586 L394.585 3.66546 L394.618 3.80984 L394.638 3.95901 L394.644 4.11297 L394.644 4.17656 L394.642 4.24098 L394.639 4.30624 L394.634 4.37232 L394.629 4.43923 L394.621 4.50697 L394.613 4.57554 L394.604 4.64494 L394.593 4.71517 L394.581 4.78623 L394.565 4.86865 L394.543 4.97423 L394.514 5.10298 L394.48 5.2549 L394.439 5.42998 L394.392 5.62823 L394.338 5.84964 L394.278 6.09421 L394.212 6.36195 L394.14 6.65286 L394.081 6.89492 L394.028 7.12204 L393.981 7.33423 L393.94 7.53149 L393.906 7.71381 L393.878 7.8812 L393.856 8.03366 L393.84 8.17118 L393.831 8.29377 L393.828 8.40143 L393.83 8.49176 L393.837 8.58407 L393.848 8.67836 L393.864 8.77463 L393.884 8.87288 L393.909 8.9731 L393.939 9.0753 L393.973 9.17948 L394.011 9.28564 L394.054 9.39378 L392.194 9.39378 L392.162 9.31949 L392.133 9.2447 L392.106 9.1694 L392.082 9.09358 L392.06 9.01726 L392.041 8.94043 L392.024 8.86308 L392.01 8.78522 L391.999 8.70686 L391.99 8.62798 L391.905 8.71547 L391.817 8.79926 L391.727 8.87935 L391.635 8.95574 L391.54 9.02843 L391.442 9.09741 L391.342 9.1627 L391.239 9.22428 L391.134 9.28216 L391.026 9.33634 L390.917 9.38606 L390.808 9.43054 L390.698 9.46978 L390.589 9.5038 L390.479 9.53258 L390.369 9.55613 L390.259 9.57444 L390.149 9.58752 L390.039 9.59537 L389.928 9.59799 L389.756 9.59221 L389.59 9.57489 L389.429 9.54601 L389.275 9.50558 L389.127 9.45361 L388.985 9.39008 L388.849 9.315 L388.718 9.22837 L388.595 9.13018 L388.477 9.02045 L388.368 8.90163 L388.271 8.77616 L388.185 8.64406 L388.111 8.50532 L388.048 8.35995 L387.997 8.20794 L387.957 8.04929 L387.928 7.88401 L387.911 7.71209 L387.905 7.53353 L387.912 7.33468 L387.931 7.14399 L387.963 6.96148 L388.008 6.78713 L388.065 6.62095 L388.135 6.46294 L388.218 6.3131 L388.314 6.17143 L388.422 6.03793 L388.544 5.91259 L388.681 5.79552 L388.839 5.68809 L389.017 5.59029 L389.214 5.50212 L389.432 5.4236 L389.67 5.35471 L389.928 5.29545 L390.206 5.24584 L390.504 5.20586 L390.822 5.17551 L391.09 5.15209 L391.339 5.12778 L391.57 5.10257 L391.783 5.07647 L391.977 5.04947 L392.153 5.02159 L392.31 4.99281 L392.449 4.96313 L392.57 4.93256 L392.673 4.9011 L392.698 4.83042 L392.721 4.76262 L392.741 4.69769 L392.758 4.63562 L392.773 4.57644 L392.785 4.52012 L392.794 4.46667 L392.801 4.4161 L392.805 4.36839 L392.807 4.32356 L392.804 4.26957 L392.796 4.21737 L392.784 4.16696 L392.766 4.11833 L392.744 4.07149 L392.716 4.02643 L392.683 3.98317 L392.645 3.94169 L392.602 3.90199 L392.554 3.86408 L392.502 3.82832 L392.444 3.79631 L392.381 3.76807 L392.313 3.7436 L392.24 3.72289 L392.162 3.70595 L392.08 3.69277 L391.992 3.68336 L391.899 3.67771 L391.801 3.67583 L391.699 3.67796 L391.601 3.68438 L391.507 3.69507 L391.418 3.71003 L391.332 3.72927 L391.252 3.75279 L391.175 3.78058 L391.103 3.81265 L391.035 3.84899 L390.972 3.88961 L390.913 3.93355 L390.858 3.98112 L390.807 4.03234 L390.76 4.08719 L390.717 4.14567 L390.678 4.2078 L390.643 4.27356 L390.611 4.34296 L390.584 4.416 L390.56 4.49268 Z " stroke="black" stroke-width="1" fill="none" />
<path d="M392.392 6.12638 L392.356 6.13585 L392.318 6.14514 L392.278 6.15423 L392.236 6.16313 L392.191 6.17185 L392.144 6.18037 L392.094 6.18869 L392.043 6.19683 L391.989 6.20477 L391.932 6.21253 L391.655 6.24922 L391.398 6.28911 L391.16 6.33218 L390.943 6.37845 L390.745 6.42791 L390.568 6.48056 L390.41 6.5364 L390.272 6.59543 L390.154 6.65765 L390.056 6.72306 L389.997 6.77261 L389.943 6.82555 L389.897 6.88187 L389.856 6.94157 L389.822 7.00465 L389.793 7.07111 L389.772 7.14096 L389.756 7.21419 L389.746 7.2908 L389.743 7.3708 L389.746 7.43678 L389.753 7.50073 L389.765 7.56263 L389.782 7.62249 L389.803 7.68031 L389.83 7.73608 L389.861 7.78982 L389.897 7.84151 L389.937 7.89116 L389.983 7.93876 L390.032 7.98241 L390.084 8.02147 L390.14 8.05593 L390.198 8.0858 L390.259 8.11107 L390.324 8.13174 L390.391 8.14783 L390.462 8.15931 L390.535 8.1662 L390.611 8.1685 L390.698 8.1664 L390.783 8.16008 L390.867 8.14955 L390.95 8.13481 L391.032 8.11585 L391.112 8.09269 L391.192 8.06531 L391.271 8.03372 L391.348 7.99792 L391.425 7.95791 L391.5 7.91458 L391.57 7.86882 L391.637 7.82064 L391.7 7.77003 L391.759 7.717 L391.814 7.66154 L391.866 7.60366 L391.913 7.54336 L391.956 7.48062 L391.996 7.41547 L392.033 7.3454 L392.07 7.26792 L392.105 7.18305 L392.14 7.09077 L392.174 6.99109 L392.207 6.884 L392.239 6.76952 L392.271 6.64763 L392.301 6.51834 L392.331 6.38164 L392.392 6.12638 Z " stroke="black" stroke-width="1" fill="none" />
<path d="M396.687 2.45055 L398.556 2.45055 L398.403 3.19401 L398.508 3.09484 L398.611 3.00154 L398.713 2.91411 L398.814 2.83256 L398.913 2.75687 L399.011 2.68705 L399.108 2.62311 L399.203 2.56504 L399.297 2.51284 L399.389 2.4665 L399.482 2.42467 L399.576 2.38724 L399.671 2.35422 L399.767 2.3256 L399.865 2.30138 L399.964 2.28156 L400.064 2.26615 L400.165 2.25514 L400.268 2.24854 L400.372 2.24634 L400.57 2.25396 L400.761 2.27684 L400.943 2.31497 L401.117 2.36835 L401.284 2.43699 L401.442 2.52088 L401.593 2.62001 L401.735 2.73441 L401.87 2.86405 L401.996 3.00894 L402.113 3.16829 L402.217 3.34258 L402.309 3.53179 L402.388 3.73594 L402.456 3.95502 L402.511 4.18904 L402.554 4.43799 L402.584 4.70187 L402.603 4.98068 L402.609 5.27443 L402.598 5.64823 L402.565 6.01023 L402.51 6.36042 L402.434 6.69881 L402.335 7.02539 L402.215 7.34016 L402.072 7.64313 L401.908 7.9343 L401.722 8.21365 L401.514 8.4812 L401.323 8.69339 L401.125 8.88325 L400.921 9.05076 L400.709 9.19595 L400.491 9.31879 L400.266 9.4193 L400.034 9.49748 L399.795 9.55332 L399.549 9.58682 L399.297 9.59799 L399.04 9.5866 L398.795 9.55242 L398.564 9.49547 L398.345 9.41573 L398.139 9.31321 L397.946 9.18791 L397.766 9.03982 L397.599 8.86895 L397.444 8.6753 L397.302 8.45887 L396.514 12.2528 L394.644 12.2528 L396.687 2.45055 Z " stroke="black" stroke-width="1" fill="none" />
<path d="M397.72 6.46779 L397.724 6.62564 L397.735 6.77628 L397.754 6.91971 L397.78 7.05593 L397.814 7.18493 L397.855 7.30672 L397.903 7.42131 L397.959 7.52868 L398.023 7.62884 L398.094 7.72179 L398.17 7.80666 L398.25 7.8826 L398.331 7.94961 L398.416 8.00768 L398.503 8.05682 L398.593 8.09703 L398.685 8.1283 L398.78 8.15063 L398.877 8.16403 L398.978 8.1685 L399.065 8.16515 L399.151 8.1551 L399.237 8.13835 L399.323 8.1149 L399.408 8.08474 L399.492 8.04789 L399.576 8.00433 L399.659 7.95408 L399.741 7.89712 L399.823 7.83347 L399.903 7.76202 L399.981 7.68171 L400.056 7.59253 L400.127 7.49447 L400.196 7.38755 L400.263 7.27175 L400.326 7.14709 L400.387 7.01355 L400.445 6.87115 L400.5 6.71987 L400.551 6.56531 L400.597 6.41304 L400.638 6.26307 L400.673 6.1154 L400.703 5.97003 L400.727 5.82695 L400.746 5.68617 L400.76 5.54769 L400.768 5.4115 L400.771 5.27762 L400.767 5.12618 L400.757 4.98202 L400.739 4.84513 L400.714 4.71552 L400.682 4.59319 L400.643 4.47813 L400.597 4.37034 L400.544 4.26983 L400.484 4.17659 L400.417 4.09063 L400.345 4.01182 L400.268 3.9413 L400.189 3.87908 L400.105 3.82516 L400.017 3.77953 L399.925 3.74219 L399.83 3.71316 L399.731 3.69242 L399.627 3.67997 L399.52 3.67583 L399.419 3.67966 L399.321 3.69114 L399.224 3.71029 L399.128 3.73709 L399.035 3.77155 L398.943 3.81367 L398.854 3.86345 L398.765 3.92088 L398.679 3.98597 L398.595 4.05872 L398.513 4.13827 L398.435 4.22503 L398.361 4.319 L398.29 4.42018 L398.224 4.52857 L398.161 4.64418 L398.102 4.76699 L398.046 4.89702 L397.995 5.03425 L397.947 5.1787 L397.904 5.32427 L397.865 5.46613 L397.831 5.60429 L397.802 5.73876 L397.777 5.86952 L397.757 5.99657 L397.741 6.11993 L397.729 6.23959 L397.723 6.35554 L397.72 6.46779 Z " stroke="black" stroke-width="1" fill="none" />
<path d="M404.651 2.45055 L406.521 2.45055 L406.368 3.19401 L406.472 3.09484 L406.575 3.00154 L406.677 2.91411 L406.778 2.83256 L406.877 2.75687 L406.975 2.68705 L407.072 2.62311 L407.167 2.56504 L407.261 2.51284 L407.354 2.4665 L407.446 2.42467 L407.54 2.38724 L407.635 2.35422 L407.731 2.3256 L407.829 2.30138 L407.928 2.28156 L408.028 2.26615 L408.13 2.25514 L408.232 2.24854 L408.336 2.24634 L408.535 2.25396 L408.725 2.27684 L408.907 2.31497 L409.082 2.36835 L409.248 2.43699 L409.406 2.52088 L409.557 2.62001 L409.699 2.73441 L409.834 2.86405 L409.96 3.00894 L410.077 3.16829 L410.181 3.34258 L410.273 3.53179 L410.352 3.73594 L410.42 3.95502 L410.475 4.18904 L410.518 4.43799 L410.549 4.70187 L410.567 4.98068 L410.573 5.27443 L410.562 5.64823 L410.529 6.01023 L410.475 6.36042 L410.398 6.69881 L410.299 7.02539 L410.179 7.34016 L410.037 7.64313 L409.873 7.9343 L409.687 8.21365 L409.479 8.4812 L409.288 8.69339 L409.09 8.88325 L408.885 9.05076 L408.673 9.19595 L408.455 9.31879 L408.23 9.4193 L407.998 9.49748 L407.759 9.55332 L407.513 9.58682 L407.261 9.59799 L407.004 9.5866 L406.76 9.55242 L406.528 9.49547 L406.309 9.41573 L406.104 9.31321 L405.91 9.18791 L405.73 9.03982 L405.563 8.86895 L405.408 8.6753 L405.267 8.45887 L404.479 12.2528 L402.609 12.2528 L404.651 2.45055 Z " stroke="black" stroke-width="1" fill="none" />
<path d="M405.685 6.46779 L405.688 6.62564 L405.7 6.77628 L405.718 6.91971 L405.744 7.05593 L405.778 7.18493 L405.819 7.30672 L405.868 7.42131 L405.924 7.52868 L405.987 7.62884 L406.058 7.72179 L406.135 7.80666 L406.214 7.8826 L406.296 7.94961 L406.38 8.00768 L406.467 8.05682 L406.557 8.09703 L406.649 8.1283 L406.744 8.15063 L406.842 8.16403 L406.942 8.1685 L407.029 8.16515 L407.116 8.1551 L407.202 8.13835 L407.287 8.1149 L407.372 8.08474 L407.456 8.04789 L407.54 8.00433 L407.623 7.95408 L407.705 7.89712 L407.787 7.83347 L407.868 7.76202 L407.945 7.68171 L408.02 7.59253 L408.092 7.49447 L408.161 7.38755 L408.227 7.27175 L408.29 7.14709 L408.351 7.01355 L408.409 6.87115 L408.464 6.71987 L408.515 6.56531 L408.562 6.41304 L408.602 6.26307 L408.637 6.1154 L408.667 5.97003 L408.692 5.82695 L408.711 5.68617 L408.724 5.54769 L408.732 5.4115 L408.735 5.27762 L408.732 5.12618 L408.721 4.98202 L408.703 4.84513 L408.678 4.71552 L408.647 4.59319 L408.608 4.47813 L408.562 4.37034 L408.508 4.26983 L408.448 4.17659 L408.381 4.09063 L408.309 4.01182 L408.233 3.9413 L408.153 3.87908 L408.069 3.82516 L407.981 3.77953 L407.89 3.74219 L407.794 3.71316 L407.695 3.69242 L407.592 3.67997 L407.484 3.67583 L407.384 3.67966 L407.285 3.69114 L407.188 3.71029 L407.093 3.73709 L406.999 3.77155 L406.908 3.81367 L406.818 3.86345 L406.73 3.92088 L406.643 3.98597 L406.559 4.05872 L406.477 4.13827 L406.399 4.22503 L406.325 4.319 L406.255 4.42018 L406.188 4.52857 L406.125 4.64418 L406.066 4.76699 L406.011 4.89702 L405.959 5.03425 L405.911 5.1787 L405.868 5.32427 L405.83 5.46613 L405.796 5.60429 L405.766 5.73876 L405.741 5.86952 L405.721 5.99657 L405.705 6.11993 L405.694 6.23959 L405.687 6.35554 L405.685 6.46779 Z " stroke="black" stroke-width="1" fill="none" />
<path d="M418.001 6.5348 L413.432 6.5348 L413.431 6.55538 L413.43 6.57501 L413.429 6.59367 L413.428 6.61138 L413.427 6.62813 L413.427 6.64393 L413.426 6.65876 L413.426 6.67264 L413.426 6.68557 L413.426 6.69753 L413.429 6.82708 L413.441 6.95152 L413.459 7.07086 L413.485 7.18509 L413.519 7.29422 L413.56 7.39824 L413.609 7.49715 L413.665 7.59096 L413.728 7.67967 L413.799 7.76327 L413.875 7.84026 L413.955 7.90915 L414.038 7.96994 L414.124 8.02262 L414.214 8.06719 L414.307 8.10366 L414.403 8.13203 L414.502 8.15229 L414.605 8.16445 L414.712 8.1685 L414.884 8.16033 L415.048 8.13583 L415.205 8.09499 L415.354 8.03781 L415.496 7.96429 L415.629 7.87444 L415.755 7.76825 L415.874 7.64572 L415.984 7.50685 L416.087 7.35165 L417.72 7.76008 L417.622 7.93927 L417.517 8.10928 L417.406 8.2701 L417.289 8.42173 L417.164 8.56416 L417.034 8.69741 L416.897 8.82147 L416.754 8.93634 L416.604 9.04202 L416.447 9.13851 L416.286 9.22581 L416.12 9.30392 L415.951 9.37285 L415.778 9.43258 L415.601 9.48312 L415.42 9.52447 L415.235 9.55664 L415.046 9.57961 L414.854 9.59339 L414.657 9.59799 L414.391 9.58906 L414.134 9.56225 L413.887 9.51758 L413.651 9.45504 L413.425 9.37463 L413.209 9.27635 L413.003 9.16021 L412.807 9.02619 L412.622 8.87431 L412.446 8.70456 L412.284 8.51943 L412.139 8.32268 L412.012 8.11432 L411.901 7.89435 L411.807 7.66276 L411.73 7.41955 L411.671 7.16473 L411.628 6.8983 L411.603 6.62025 L411.594 6.33059 L411.602 6.04594 L411.625 5.7676 L411.664 5.49558 L411.719 5.22988 L411.789 4.9705 L411.874 4.71744 L411.976 4.47069 L412.092 4.23026 L412.225 3.99615 L412.373 3.76836 L412.594 3.47918 L412.833 3.22043 L413.09 2.99213 L413.365 2.79427 L413.659 2.62684 L413.97 2.48986 L414.3 2.38332 L414.648 2.30722 L415.014 2.26156 L415.398 2.24634 L415.643 2.25435 L415.878 2.27837 L416.103 2.31842 L416.318 2.37448 L416.522 2.44656 L416.716 2.53466 L416.9 2.63878 L417.073 2.75891 L417.236 2.89506 L417.389 3.04723 L417.529 3.21383 L417.655 3.39325 L417.766 3.58549 L417.862 3.79057 L417.944 4.00847 L418.01 4.2392 L418.062 4.48275 L418.099 4.73914 L418.122 5.00834 L418.129 5.29038 L418.128 5.42746 L418.124 5.56173 L418.117 5.69319 L418.108 5.82184 L418.097 5.94769 L418.083 6.07073 L418.066 6.19096 L418.047 6.30838 L418.026 6.423 L418.001 6.5348 Z " stroke="black" stroke-width="1" fill="none" />
<path d="M416.291 5.51374 L416.292 5.48818 L416.293 5.46383 L416.294 5.4407 L416.295 5.41878 L416.296 5.39807 L416.296 5.37858 L416.297 5.36029 L416.297 5.34322 L416.297 5.32736 L416.297 5.31272 L416.294 5.15283 L416.285 5.00117 L416.269 4.85774 L416.247 4.72254 L416.218 4.59558 L416.184 4.47685 L416.143 4.36635 L416.095 4.26409 L416.042 4.17005 L415.981 4.08425 L415.916 4.00665 L415.846 3.93722 L415.772 3.87595 L415.694 3.82286 L415.611 3.77793 L415.524 3.74117 L415.433 3.71258 L415.337 3.69216 L415.237 3.67991 L415.133 3.67583 L415.028 3.68048 L414.925 3.69446 L414.825 3.71775 L414.726 3.75036 L414.63 3.79229 L414.536 3.84354 L414.444 3.9041 L414.355 3.97398 L414.267 4.05317 L414.182 4.14169 L414.1 4.23869 L414.024 4.34462 L413.954 4.45949 L413.888 4.5833 L413.828 4.71603 L413.774 4.85771 L413.725 5.00831 L413.682 5.16785 L413.643 5.33633 L413.611 5.51374 L416.291 5.51374 Z " stroke="black" stroke-width="1" fill="none" />
<path d="M420.008 2.45055 L421.881 2.45055 L421.658 3.49714 L421.786 3.36574 L421.912 3.24213 L422.037 3.1263 L422.16 3.01826 L422.281 2.91801 L422.4 2.82554 L422.518 2.74085 L422.634 2.66395 L422.748 2.59484 L422.861 2.53351 L422.974 2.47895 L423.088 2.43013 L423.203 2.38705 L423.32 2.34972 L423.438 2.31813 L423.557 2.29229 L423.677 2.27218 L423.798 2.25782 L423.921 2.24921 L424.045 2.24634 L424.207 2.2517 L424.362 2.26778 L424.511 2.29458 L424.652 2.33211 L424.786 2.38035 L424.913 2.43932 L425.033 2.50901 L425.145 2.58942 L425.251 2.68054 L425.35 2.7824 L425.441 2.89248 L425.522 3.00958 L425.594 3.13371 L425.656 3.26485 L425.709 3.40301 L425.752 3.54819 L425.785 3.7004 L425.809 3.85962 L425.824 4.02586 L425.828 4.19912 L425.812 4.27395 L425.793 4.36185 L425.771 4.46284 L425.747 4.57691 L425.719 4.70407 L425.689 4.8443 L425.655 4.99762 L425.619 5.16402 L425.58 5.34351 L425.538 5.53607 L424.699 9.39378 L422.826 9.39378 L423.668 5.51374 L423.704 5.34829 L423.737 5.19657 L423.767 5.05857 L423.793 4.93429 L423.817 4.82372 L423.837 4.72688 L423.854 4.64376 L423.867 4.57436 L423.878 4.51868 L423.885 4.47672 L423.883 4.40365 L423.877 4.33377 L423.867 4.26708 L423.854 4.20359 L423.836 4.14328 L423.814 4.08617 L423.788 4.03224 L423.759 3.98151 L423.725 3.93396 L423.687 3.88961 L423.647 3.84899 L423.603 3.81265 L423.556 3.78058 L423.507 3.75279 L423.454 3.72927 L423.397 3.71003 L423.338 3.69507 L423.276 3.68438 L423.21 3.67796 L423.142 3.67583 L423.065 3.6793 L422.986 3.68974 L422.906 3.70713 L422.824 3.73147 L422.74 3.76278 L422.655 3.80103 L422.568 3.84625 L422.479 3.89842 L422.388 3.95754 L422.296 4.02363 L422.206 4.09481 L422.119 4.17053 L422.036 4.25078 L421.958 4.33556 L421.883 4.42487 L421.812 4.51871 L421.745 4.61709 L421.682 4.71999 L421.624 4.82743 L421.569 4.93939 L421.518 5.02886 L421.465 5.13518 L421.412 5.25835 L421.357 5.39836 L421.301 5.55522 L421.244 5.72893 L421.186 5.91948 L421.126 6.12689 L421.066 6.35114 L421.004 6.59224 L420.41 9.39378 L418.537 9.39378 L420.008 2.45055 Z " stroke="black" stroke-width="1" fill="none" />
<path d="M428.534 1.06581e-14 L430.407 1.06581e-14 L430.098 1.42949 L428.225 1.42949 L428.534 1.06581e-14 Z " stroke="black" stroke-width="1" fill="none" />
<path d="M428.005 2.45055 L429.878 2.45055 L428.375 9.39378 L426.502 9.39378 L428.005 2.45055 Z " stroke="black" stroke-width="1" fill="none" />
<path d="M431.648 2.45055 L433.521 2.45055 L433.298 3.49714 L433.426 3.36574 L433.552 3.24213 L433.677 3.1263 L433.8 3.01826 L433.921 2.91801 L434.041 2.82554 L434.158 2.74085 L434.274 2.66395 L434.388 2.59484 L434.501 2.53351 L434.614 2.47895 L434.728 2.43013 L434.843 2.38705 L434.96 2.34972 L435.078 2.31813 L435.197 2.29229 L435.317 2.27218 L435.438 2.25782 L435.561 2.24921 L435.685 2.24634 L435.847 2.2517 L436.002 2.26778 L436.151 2.29458 L436.292 2.33211 L436.426 2.38035 L436.553 2.43932 L436.673 2.50901 L436.786 2.58942 L436.891 2.68054 L436.99 2.7824 L437.081 2.89248 L437.162 3.00958 L437.234 3.13371 L437.296 3.26485 L437.349 3.40301 L437.392 3.54819 L437.425 3.7004 L437.449 3.85962 L437.464 4.02586 L437.468 4.19912 L437.452 4.27395 L437.433 4.36185 L437.412 4.46284 L437.387 4.57691 L437.359 4.70407 L437.329 4.8443 L437.295 4.99762 L437.259 5.16402 L437.22 5.34351 L437.178 5.53607 L436.339 9.39378 L434.466 9.39378 L435.308 5.51374 L435.344 5.34829 L435.377 5.19657 L435.407 5.05857 L435.433 4.93429 L435.457 4.82372 L435.477 4.72688 L435.494 4.64376 L435.507 4.57436 L435.518 4.51868 L435.525 4.47672 L435.523 4.40365 L435.517 4.33377 L435.507 4.26708 L435.494 4.20359 L435.476 4.14328 L435.454 4.08617 L435.428 4.03224 L435.399 3.98151 L435.365 3.93396 L435.327 3.88961 L435.287 3.84899 L435.243 3.81265 L435.197 3.78058 L435.147 3.75279 L435.094 3.72927 L435.038 3.71003 L434.978 3.69507 L434.916 3.68438 L434.85 3.67796 L434.782 3.67583 L434.705 3.6793 L434.626 3.68974 L434.546 3.70713 L434.464 3.73147 L434.381 3.76278 L434.295 3.80103 L434.208 3.84625 L434.119 3.89842 L434.029 3.95754 L433.936 4.02363 L433.846 4.09481 L433.759 4.17053 L433.676 4.25078 L433.598 4.33556 L433.523 4.42487 L433.452 4.51871 L433.385 4.61709 L433.323 4.71999 L433.264 4.82743 L433.209 4.93939 L433.158 5.02886 L433.105 5.13518 L433.052 5.25835 L432.997 5.39836 L432.942 5.55522 L432.884 5.72893 L432.826 5.91948 L432.767 6.12689 L432.706 6.35114 L432.644 6.59224 L432.05 9.39378 L430.177 9.39378 L431.648 2.45055 Z " stroke="black" stroke-width="1" fill="none" />
<path d="M438.087 10.0064 L439.98 10.217 L439.981 10.26 L439.984 10.3007 L439.989 10.3393 L439.997 10.3758 L440.006 10.4101 L440.018 10.4422 L440.031 10.4721 L440.047 10.4998 L440.065 10.5254 L440.085 10.5489 L440.108 10.5715 L440.134 10.5934 L440.162 10.6146 L440.193 10.6351 L440.226 10.6549 L440.262 10.6741 L440.301 10.6925 L440.342 10.7102 L440.386 10.7272 L440.433 10.7435 L440.482 10.7587 L440.535 10.7722 L440.592 10.7842 L440.652 10.7945 L440.716 10.8033 L440.783 10.8105 L440.854 10.8161 L440.928 10.8201 L441.006 10.8225 L441.087 10.8233 L441.203 10.8209 L441.315 10.8139 L441.422 10.8023 L441.524 10.786 L441.621 10.765 L441.714 10.7394 L441.802 10.7091 L441.885 10.6742 L441.964 10.6346 L442.038 10.5903 L442.09 10.5512 L442.14 10.5076 L442.188 10.4598 L442.234 10.4076 L442.279 10.351 L442.321 10.2901 L442.362 10.2249 L442.4 10.1554 L442.437 10.0815 L442.472 10.0032 L442.493 9.9462 L442.516 9.87725 L442.54 9.79636 L442.565 9.70354 L442.591 9.59879 L442.619 9.4821 L442.647 9.35348 L442.677 9.21292 L442.708 9.06043 L442.74 8.89601 L442.81 8.57374 L442.616 8.72954 L442.421 8.86895 L442.224 8.99196 L442.026 9.09856 L441.826 9.18877 L441.626 9.26257 L441.424 9.31997 L441.22 9.36098 L441.015 9.38558 L440.809 9.39378 L440.615 9.38657 L440.428 9.36493 L440.248 9.32888 L440.075 9.2784 L439.909 9.2135 L439.75 9.13417 L439.598 9.04043 L439.453 8.93226 L439.316 8.80967 L439.185 8.67265 L439.064 8.52176 L438.957 8.35753 L438.861 8.17996 L438.779 7.98905 L438.709 7.78481 L438.652 7.56722 L438.607 7.3363 L438.576 7.09205 L438.557 6.83445 L438.55 6.56352 L438.555 6.32051 L438.568 6.08158 L438.59 5.84673 L438.62 5.61597 L438.659 5.3893 L438.708 5.16671 L438.764 4.9482 L438.83 4.73377 L438.904 4.52344 L438.987 4.31718 L439.078 4.11795 L439.176 3.92867 L439.281 3.74934 L439.394 3.57997 L439.513 3.42056 L439.639 3.2711 L439.773 3.1316 L439.913 3.00205 L440.061 2.88246 L440.216 2.77282 L440.374 2.67279 L440.534 2.58329 L440.693 2.50432 L440.854 2.43587 L441.015 2.37796 L441.177 2.33058 L441.339 2.29372 L441.502 2.2674 L441.666 2.2516 L441.83 2.24634 L441.96 2.2501 L442.088 2.2614 L442.213 2.28022 L442.336 2.30658 L442.457 2.34047 L442.575 2.38188 L442.691 2.43083 L442.805 2.48731 L442.917 2.55132 L443.027 2.62285 L443.134 2.70052 L443.235 2.78418 L443.332 2.87384 L443.425 2.96951 L443.512 3.07117 L443.594 3.17882 L443.672 3.29248 L443.745 3.41214 L443.813 3.53779 L443.876 3.66944 L444.14 2.45055 L446.01 2.45055 L444.756 8.23551 L444.698 8.50887 L444.642 8.76608 L444.588 9.00715 L444.536 9.23207 L444.485 9.44084 L444.436 9.63347 L444.389 9.80996 L444.344 9.97029 L444.3 10.1145 L444.259 10.2425 L444.218 10.3607 L444.176 10.4739 L444.132 10.5823 L444.088 10.6857 L444.042 10.7842 L443.995 10.8778 L443.947 10.9664 L443.898 11.0502 L443.848 11.129 L443.796 11.203 L443.743 11.2733 L443.687 11.3412 L443.628 11.4068 L443.567 11.47 L443.502 11.5308 L443.435 11.5893 L443.365 11.6454 L443.292 11.6992 L443.217 11.7506 L443.139 11.7997 L443.057 11.8468 L442.973 11.8912 L442.886 11.9328 L442.797 11.9717 L442.704 12.0079 L442.608 12.0413 L442.51 12.0719 L442.409 12.0998 L442.304 12.125 L442.197 12.1475 L442.088 12.1675 L441.977 12.1854 L441.864 12.2012 L441.749 12.2148 L441.633 12.2264 L441.514 12.2359 L441.394 12.2433 L441.272 12.2485 L441.149 12.2517 L441.023 12.2528 L440.738 12.2481 L440.467 12.2342 L440.211 12.2111 L439.968 12.1787 L439.74 12.1371 L439.527 12.0862 L439.327 12.026 L439.142 11.9566 L438.971 11.878 L438.815 11.7901 L438.673 11.6921 L438.546 11.5818 L438.434 11.4593 L438.337 11.3245 L438.255 11.1774 L438.188 11.0182 L438.136 10.8466 L438.098 10.6628 L438.076 10.4668 L438.068 10.2585 L438.069 10.2353 L438.069 10.2116 L438.07 10.1876 L438.071 10.163 L438.073 10.138 L438.075 10.1126 L438.078 10.0867 L438.081 10.0604 L438.084 10.0336 L438.087 10.0064 Z " stroke="black" stroke-width="1" fill="none" />
<path d="M440.388 6.38483 L440.391 6.53499 L440.401 6.67788 L440.418 6.81349 L440.441 6.94182 L440.471 7.06288 L440.508 7.17667 L440.551 7.28318 L440.6 7.38241 L440.657 7.47437 L440.72 7.55906 L440.789 7.63605 L440.861 7.70494 L440.936 7.76572 L441.015 7.8184 L441.097 7.86298 L441.183 7.89945 L441.272 7.92782 L441.364 7.94808 L441.46 7.96024 L441.559 7.96429 L441.654 7.96065 L441.748 7.94974 L441.842 7.93155 L441.935 7.90609 L442.027 7.87335 L442.119 7.83334 L442.211 7.78605 L442.301 7.73149 L442.392 7.66965 L442.481 7.60054 L442.569 7.52475 L442.653 7.44291 L442.732 7.355 L442.807 7.26103 L442.878 7.161 L442.944 7.05491 L443.006 6.94275 L443.064 6.82453 L443.118 6.70025 L443.167 6.5699 L443.213 6.43633 L443.253 6.30366 L443.289 6.17188 L443.32 6.04099 L443.347 5.911 L443.368 5.7819 L443.385 5.65369 L443.397 5.52637 L443.404 5.39995 L443.407 5.27443 L443.403 5.13362 L443.391 4.99836 L443.372 4.86865 L443.344 4.7445 L443.309 4.62589 L443.266 4.51284 L443.216 4.40534 L443.157 4.3034 L443.091 4.207 L443.017 4.11616 L442.939 4.0325 L442.858 3.95764 L442.775 3.89159 L442.689 3.83435 L442.601 3.78591 L442.51 3.74628 L442.417 3.71546 L442.322 3.69344 L442.224 3.68023 L442.124 3.67583 L442.029 3.67972 L441.936 3.6914 L441.844 3.71086 L441.754 3.73811 L441.665 3.77315 L441.578 3.81597 L441.493 3.86657 L441.409 3.92497 L441.327 3.99114 L441.246 4.06511 L441.168 4.14714 L441.092 4.23754 L441.019 4.33629 L440.949 4.44341 L440.882 4.55889 L440.817 4.68272 L440.755 4.81492 L440.696 4.95547 L440.64 5.10439 L440.586 5.26166 L440.548 5.38547 L440.515 5.50672 L440.485 5.62542 L440.459 5.74156 L440.438 5.85516 L440.42 5.9662 L440.406 6.07469 L440.396 6.18062 L440.39 6.284 L440.388 6.38483 Z " stroke="black" stroke-width="1" fill="none" />


</svg>
