%TF.GenerationSoftware,KiCad,Pcbnew,(5.1.6-0-10_14)*%
%TF.CreationDate,2020-08-20T17:19:26-04:00*%
%TF.ProjectId,atiny85_shield,6174696e-7938-4355-9f73-6869656c642e,rev?*%
%TF.SameCoordinates,Original*%
%TF.FileFunction,Copper,L1,Top*%
%TF.FilePolarity,Positive*%
%FSLAX46Y46*%
G04 Gerber Fmt 4.6, Leading zero omitted, Abs format (unit mm)*
G04 Created by KiCad (PCBNEW (5.1.6-0-10_14)) date 2020-08-20 17:19:26*
%MOMM*%
%LPD*%
G01*
G04 APERTURE LIST*
%TA.AperFunction,ComponentPad*%
%ADD10C,1.600000*%
%TD*%
%TA.AperFunction,ComponentPad*%
%ADD11R,1.600000X1.600000*%
%TD*%
%TA.AperFunction,ComponentPad*%
%ADD12C,2.020000*%
%TD*%
%TA.AperFunction,Conductor*%
%ADD13C,0.762000*%
%TD*%
%TA.AperFunction,Conductor*%
%ADD14C,1.524000*%
%TD*%
G04 APERTURE END LIST*
D10*
%TO.P,U1,8*%
%TO.N,Net-(C1-Pad1)*%
X42646600Y-2247900D03*
%TO.P,U1,7*%
%TO.N,Net-(J1-Pad1)*%
X42646600Y292100D03*
%TO.P,U1,6*%
%TO.N,Net-(J1-Pad2)*%
X42646600Y2832100D03*
%TO.P,U1,5*%
%TO.N,Net-(J1-Pad3)*%
X42646600Y5372100D03*
%TO.P,U1,4*%
%TO.N,Net-(C1-Pad2)*%
X35026600Y5372100D03*
%TO.P,U1,3*%
%TO.N,Net-(U1-Pad3)*%
X35026600Y2832100D03*
%TO.P,U1,2*%
%TO.N,Net-(U1-Pad2)*%
X35026600Y292100D03*
D11*
%TO.P,U1,1*%
%TO.N,Net-(J1-Pad4)*%
X35026600Y-2247900D03*
%TD*%
D12*
%TO.P,J2,2*%
%TO.N,Net-(C1-Pad1)*%
X15405100Y4572000D03*
%TO.P,J2,1*%
%TO.N,Net-(C1-Pad2)*%
X15405100Y7112000D03*
%TD*%
%TO.P,J1,4*%
%TO.N,Net-(J1-Pad4)*%
X62649100Y1689100D03*
%TO.P,J1,3*%
%TO.N,Net-(J1-Pad3)*%
X62649100Y-850900D03*
%TO.P,J1,2*%
%TO.N,Net-(J1-Pad2)*%
X62649100Y-3390900D03*
%TO.P,J1,1*%
%TO.N,Net-(J1-Pad1)*%
X62649100Y-5930900D03*
%TD*%
D10*
%TO.P,C1,2*%
%TO.N,Net-(C1-Pad2)*%
X15352400Y13093700D03*
D11*
%TO.P,C1,1*%
%TO.N,Net-(C1-Pad1)*%
X12852400Y13093700D03*
%TD*%
D13*
%TO.N,Net-(C1-Pad2)*%
X16878300Y8585200D02*
X15405100Y7112000D01*
X15352400Y13093700D02*
X16878300Y11567800D01*
X22339300Y5372100D02*
X16878300Y10833100D01*
X35026600Y5372100D02*
X22339300Y5372100D01*
X16878300Y10833100D02*
X16878300Y8585200D01*
X16878300Y11567800D02*
X16878300Y10833100D01*
%TO.N,Net-(C1-Pad1)*%
X15405100Y3873500D02*
X15405100Y4572000D01*
X39814500Y-5080000D02*
X24358600Y-5080000D01*
X24358600Y-5080000D02*
X15405100Y3873500D01*
X42646600Y-2247900D02*
X39814500Y-5080000D01*
X15405100Y4572000D02*
X13182600Y4572000D01*
X13182600Y4572000D02*
X10922000Y6832600D01*
X10922000Y11163300D02*
X12852400Y13093700D01*
X10922000Y6832600D02*
X10922000Y11163300D01*
%TO.N,Net-(J1-Pad4)*%
X35026600Y-2247900D02*
X37172900Y-2247900D01*
X37172900Y-2247900D02*
X38671500Y-749300D01*
X38671500Y-749300D02*
X38671500Y5892800D01*
X38671500Y5892800D02*
X41363900Y8585200D01*
X55753000Y8585200D02*
X62649100Y1689100D01*
X41363900Y8585200D02*
X55753000Y8585200D01*
D14*
%TO.N,Net-(J1-Pad3)*%
X62636400Y-863600D02*
X62649100Y-850900D01*
D13*
X42646600Y5372100D02*
X48615600Y5372100D01*
X54838600Y-850900D02*
X62649100Y-850900D01*
X48615600Y5372100D02*
X54838600Y-850900D01*
D14*
%TO.N,Net-(J1-Pad2)*%
X62636400Y-3403600D02*
X62649100Y-3390900D01*
D13*
X42646600Y2832100D02*
X46964600Y2832100D01*
X53187600Y-3390900D02*
X62649100Y-3390900D01*
X46964600Y2832100D02*
X53187600Y-3390900D01*
D14*
%TO.N,Net-(J1-Pad1)*%
X62636400Y-5943600D02*
X62649100Y-5930900D01*
D13*
X52260500Y-5930900D02*
X62649100Y-5930900D01*
X46037500Y292100D02*
X52260500Y-5930900D01*
X42646600Y292100D02*
X46037500Y292100D01*
%TD*%
M02*
