%TF.GenerationSoftware,KiCad,Pcbnew,(5.1.6-0-10_14)*%
%TF.CreationDate,2020-09-11T15:04:09-04:00*%
%TF.ProjectId,bare_atmega328,62617265-5f61-4746-9d65-67613332382e,rev?*%
%TF.SameCoordinates,Original*%
%TF.FileFunction,Copper,L1,Top*%
%TF.FilePolarity,Positive*%
%FSLAX46Y46*%
G04 Gerber Fmt 4.6, Leading zero omitted, Abs format (unit mm)*
G04 Created by KiCad (PCBNEW (5.1.6-0-10_14)) date 2020-09-11 15:04:09*
%MOMM*%
%LPD*%
G01*
G04 APERTURE LIST*
%TA.AperFunction,ComponentPad*%
%ADD10O,1.600000X1.600000*%
%TD*%
%TA.AperFunction,ComponentPad*%
%ADD11R,1.600000X1.600000*%
%TD*%
%TA.AperFunction,ComponentPad*%
%ADD12O,1.400000X1.400000*%
%TD*%
%TA.AperFunction,ComponentPad*%
%ADD13C,1.400000*%
%TD*%
%TA.AperFunction,ComponentPad*%
%ADD14O,1.700000X1.700000*%
%TD*%
%TA.AperFunction,ComponentPad*%
%ADD15R,1.700000X1.700000*%
%TD*%
%TA.AperFunction,ComponentPad*%
%ADD16C,1.600000*%
%TD*%
%TA.AperFunction,ComponentPad*%
%ADD17C,2.000000*%
%TD*%
%TA.AperFunction,ComponentPad*%
%ADD18C,1.500000*%
%TD*%
%TA.AperFunction,Conductor*%
%ADD19C,0.250000*%
%TD*%
%TA.AperFunction,Conductor*%
%ADD20C,0.254000*%
%TD*%
G04 APERTURE END LIST*
D10*
%TO.P,U2,8*%
%TO.N,Net-(J7-Pad2)*%
X150400000Y-58180000D03*
%TO.P,U2,4*%
X158020000Y-65800000D03*
%TO.P,U2,7*%
%TO.N,Net-(R3-Pad1)*%
X152940000Y-58180000D03*
%TO.P,U2,3*%
%TO.N,Net-(J6-Pad4)*%
X155480000Y-65800000D03*
%TO.P,U2,6*%
%TO.N,Net-(C5-Pad1)*%
X155480000Y-58180000D03*
%TO.P,U2,2*%
X152940000Y-65800000D03*
%TO.P,U2,5*%
%TO.N,N/C*%
X158020000Y-58180000D03*
D11*
%TO.P,U2,1*%
%TO.N,GND*%
X150400000Y-65800000D03*
%TD*%
D12*
%TO.P,R4,2*%
%TO.N,Net-(R3-Pad1)*%
X146950900Y-65792160D03*
D13*
%TO.P,R4,1*%
%TO.N,Net-(J7-Pad2)*%
X146950900Y-58172160D03*
%TD*%
D14*
%TO.P,J7,2*%
%TO.N,Net-(J7-Pad2)*%
X162400000Y-65140000D03*
D15*
%TO.P,J7,1*%
%TO.N,VCC*%
X162400000Y-62600000D03*
%TD*%
D12*
%TO.P,R3,2*%
%TO.N,Net-(C5-Pad1)*%
X144098480Y-65792160D03*
D13*
%TO.P,R3,1*%
%TO.N,Net-(R3-Pad1)*%
X144098480Y-58172160D03*
%TD*%
D16*
%TO.P,C5,2*%
%TO.N,GND*%
X157000000Y-70800000D03*
D11*
%TO.P,C5,1*%
%TO.N,Net-(C5-Pad1)*%
X159000000Y-70800000D03*
%TD*%
D14*
%TO.P,J5,14*%
%TO.N,Net-(J5-Pad14)*%
X165000000Y-73660000D03*
%TO.P,J5,13*%
%TO.N,Net-(J5-Pad13)*%
X165000000Y-76200000D03*
%TO.P,J5,12*%
%TO.N,Net-(J5-Pad12)*%
X165000000Y-78740000D03*
%TO.P,J5,11*%
%TO.N,Net-(J5-Pad11)*%
X165000000Y-81280000D03*
%TO.P,J5,10*%
%TO.N,Net-(J5-Pad10)*%
X165000000Y-83820000D03*
%TO.P,J5,9*%
%TO.N,Net-(J5-Pad9)*%
X165000000Y-86360000D03*
%TO.P,J5,8*%
%TO.N,GND*%
X165000000Y-88900000D03*
%TO.P,J5,7*%
%TO.N,Net-(J5-Pad7)*%
X165000000Y-91440000D03*
%TO.P,J5,6*%
%TO.N,VCC*%
X165000000Y-93980000D03*
%TO.P,J5,5*%
%TO.N,Net-(J5-Pad5)*%
X165000000Y-96520000D03*
%TO.P,J5,4*%
%TO.N,Net-(J5-Pad4)*%
X165000000Y-99060000D03*
%TO.P,J5,3*%
%TO.N,Net-(J5-Pad3)*%
X165000000Y-101600000D03*
%TO.P,J5,2*%
%TO.N,Net-(J5-Pad2)*%
X165000000Y-104140000D03*
D15*
%TO.P,J5,1*%
%TO.N,Net-(J5-Pad1)*%
X165000000Y-106680000D03*
%TD*%
D14*
%TO.P,J6,14*%
%TO.N,Net-(J6-Pad14)*%
X132709920Y-106436160D03*
%TO.P,J6,13*%
%TO.N,Net-(J6-Pad13)*%
X132709920Y-103896160D03*
%TO.P,J6,12*%
%TO.N,Net-(J6-Pad12)*%
X132709920Y-101356160D03*
%TO.P,J6,11*%
%TO.N,Net-(J6-Pad11)*%
X132709920Y-98816160D03*
%TO.P,J6,10*%
%TO.N,Net-(C2-Pad2)*%
X132709920Y-96276160D03*
%TO.P,J6,9*%
%TO.N,Net-(C1-Pad1)*%
X132709920Y-93736160D03*
%TO.P,J6,8*%
%TO.N,GND*%
X132709920Y-91196160D03*
%TO.P,J6,7*%
%TO.N,VCC*%
X132709920Y-88656160D03*
%TO.P,J6,6*%
%TO.N,Net-(J6-Pad6)*%
X132709920Y-86116160D03*
%TO.P,J6,5*%
%TO.N,Net-(J6-Pad5)*%
X132709920Y-83576160D03*
%TO.P,J6,4*%
%TO.N,Net-(J6-Pad4)*%
X132709920Y-81036160D03*
%TO.P,J6,3*%
%TO.N,Net-(J3-Pad1)*%
X132709920Y-78496160D03*
%TO.P,J6,2*%
%TO.N,Net-(J3-Pad2)*%
X132709920Y-75956160D03*
D15*
%TO.P,J6,1*%
%TO.N,Net-(C4-Pad1)*%
X132709920Y-73416160D03*
%TD*%
D14*
%TO.P,J3,3*%
%TO.N,Net-(C4-Pad2)*%
X141439900Y-71561960D03*
%TO.P,J3,2*%
%TO.N,Net-(J3-Pad2)*%
X141439900Y-74101960D03*
D15*
%TO.P,J3,1*%
%TO.N,Net-(J3-Pad1)*%
X141439900Y-76641960D03*
%TD*%
D14*
%TO.P,J4,2*%
%TO.N,VCC*%
X167000000Y-62460000D03*
D15*
%TO.P,J4,1*%
%TO.N,GND*%
X167000000Y-65000000D03*
%TD*%
D14*
%TO.P,J2,2*%
%TO.N,GND*%
X137728960Y-73825100D03*
D15*
%TO.P,J2,1*%
%TO.N,VCC*%
X137728960Y-76365100D03*
%TD*%
D14*
%TO.P,J1,2*%
%TO.N,Net-(J1-Pad2)*%
X155267660Y-100873560D03*
D15*
%TO.P,J1,1*%
%TO.N,VCC*%
X155267660Y-98333560D03*
%TD*%
D16*
%TO.P,U1,28*%
%TO.N,Net-(J5-Pad14)*%
X152400000Y-73660000D03*
%TO.P,U1,27*%
%TO.N,Net-(J5-Pad13)*%
X152400000Y-76200000D03*
%TO.P,U1,26*%
%TO.N,Net-(J5-Pad12)*%
X152400000Y-78740000D03*
%TO.P,U1,25*%
%TO.N,Net-(J5-Pad11)*%
X152400000Y-81280000D03*
%TO.P,U1,24*%
%TO.N,Net-(J5-Pad10)*%
X152400000Y-83820000D03*
%TO.P,U1,23*%
%TO.N,Net-(J5-Pad9)*%
X152400000Y-86360000D03*
%TO.P,U1,22*%
%TO.N,GND*%
X152400000Y-88900000D03*
%TO.P,U1,21*%
%TO.N,Net-(J5-Pad7)*%
X152400000Y-91440000D03*
%TO.P,U1,20*%
%TO.N,VCC*%
X152400000Y-93980000D03*
%TO.P,U1,19*%
%TO.N,Net-(J5-Pad5)*%
X152400000Y-96520000D03*
%TO.P,U1,18*%
%TO.N,Net-(J5-Pad4)*%
X152400000Y-99060000D03*
%TO.P,U1,17*%
%TO.N,Net-(J5-Pad3)*%
X152400000Y-101600000D03*
%TO.P,U1,16*%
%TO.N,Net-(J5-Pad2)*%
X152400000Y-104140000D03*
%TO.P,U1,15*%
%TO.N,Net-(J5-Pad1)*%
X152400000Y-106680000D03*
%TO.P,U1,14*%
%TO.N,Net-(J6-Pad14)*%
X144780000Y-106680000D03*
%TO.P,U1,13*%
%TO.N,Net-(J6-Pad13)*%
X144780000Y-104140000D03*
%TO.P,U1,12*%
%TO.N,Net-(J6-Pad12)*%
X144780000Y-101600000D03*
%TO.P,U1,11*%
%TO.N,Net-(J6-Pad11)*%
X144780000Y-99060000D03*
%TO.P,U1,10*%
%TO.N,Net-(C2-Pad2)*%
X144780000Y-96520000D03*
%TO.P,U1,9*%
%TO.N,Net-(C1-Pad1)*%
X144780000Y-93980000D03*
%TO.P,U1,8*%
%TO.N,GND*%
X144780000Y-91440000D03*
%TO.P,U1,7*%
%TO.N,VCC*%
X144780000Y-88900000D03*
%TO.P,U1,6*%
%TO.N,Net-(J6-Pad6)*%
X144780000Y-86360000D03*
%TO.P,U1,5*%
%TO.N,Net-(J6-Pad5)*%
X144780000Y-83820000D03*
%TO.P,U1,4*%
%TO.N,Net-(J6-Pad4)*%
X144780000Y-81280000D03*
%TO.P,U1,3*%
%TO.N,Net-(J3-Pad1)*%
X144780000Y-78740000D03*
%TO.P,U1,2*%
%TO.N,Net-(J3-Pad2)*%
X144780000Y-76200000D03*
D11*
%TO.P,U1,1*%
%TO.N,Net-(C4-Pad1)*%
X144780000Y-73660000D03*
%TD*%
D17*
%TO.P,SW1,1*%
%TO.N,GND*%
X138917820Y-62918340D03*
%TO.P,SW1,2*%
%TO.N,Net-(C4-Pad1)*%
X138917820Y-67418340D03*
%TO.P,SW1,1*%
%TO.N,GND*%
X132417820Y-62918340D03*
%TO.P,SW1,2*%
%TO.N,Net-(C4-Pad1)*%
X132417820Y-67418340D03*
%TD*%
D16*
%TO.P,C4,2*%
%TO.N,Net-(C4-Pad2)*%
X139679040Y-79766160D03*
%TO.P,C4,1*%
%TO.N,Net-(C4-Pad1)*%
X142179040Y-79766160D03*
%TD*%
D12*
%TO.P,R2,2*%
%TO.N,Net-(D1-Pad1)*%
X162184080Y-104272080D03*
D13*
%TO.P,R2,1*%
%TO.N,Net-(J1-Pad2)*%
X154564080Y-104272080D03*
%TD*%
%TO.P,D1,2*%
%TO.N,GND*%
%TA.AperFunction,SMDPad,CuDef*%
G36*
G01*
X157787980Y-106379700D02*
X157787980Y-108529700D01*
G75*
G02*
X157537980Y-108779700I-250000J0D01*
G01*
X156612980Y-108779700D01*
G75*
G02*
X156362980Y-108529700I0J250000D01*
G01*
X156362980Y-106379700D01*
G75*
G02*
X156612980Y-106129700I250000J0D01*
G01*
X157537980Y-106129700D01*
G75*
G02*
X157787980Y-106379700I0J-250000D01*
G01*
G37*
%TD.AperFunction*%
%TO.P,D1,1*%
%TO.N,Net-(D1-Pad1)*%
%TA.AperFunction,SMDPad,CuDef*%
G36*
G01*
X160762980Y-106379700D02*
X160762980Y-108529700D01*
G75*
G02*
X160512980Y-108779700I-250000J0D01*
G01*
X159587980Y-108779700D01*
G75*
G02*
X159337980Y-108529700I0J250000D01*
G01*
X159337980Y-106379700D01*
G75*
G02*
X159587980Y-106129700I250000J0D01*
G01*
X160512980Y-106129700D01*
G75*
G02*
X160762980Y-106379700I0J-250000D01*
G01*
G37*
%TD.AperFunction*%
%TD*%
D18*
%TO.P,Y1,2*%
%TO.N,Net-(C2-Pad2)*%
X140256260Y-99240680D03*
%TO.P,Y1,1*%
%TO.N,Net-(C1-Pad1)*%
X140256260Y-94340680D03*
%TD*%
D12*
%TO.P,R1,2*%
%TO.N,Net-(C4-Pad1)*%
X142062200Y-81991200D03*
D13*
%TO.P,R1,1*%
%TO.N,VCC*%
X142062200Y-89611200D03*
%TD*%
D16*
%TO.P,C3,2*%
%TO.N,GND*%
X156343600Y-87858600D03*
D11*
%TO.P,C3,1*%
%TO.N,VCC*%
X158343600Y-87858600D03*
%TD*%
D16*
%TO.P,C2,2*%
%TO.N,Net-(C2-Pad2)*%
X142107920Y-104187620D03*
%TO.P,C2,1*%
%TO.N,GND*%
X142107920Y-106687620D03*
%TD*%
%TO.P,C1,2*%
%TO.N,GND*%
X139291060Y-106721280D03*
%TO.P,C1,1*%
%TO.N,Net-(C1-Pad1)*%
X139291060Y-104221280D03*
%TD*%
D19*
%TO.N,Net-(J1-Pad2)*%
X154564080Y-101577140D02*
X155267660Y-100873560D01*
X154564080Y-104272080D02*
X154564080Y-101577140D01*
%TO.N,VCC*%
X144780000Y-88900000D02*
X149860000Y-88900000D01*
X149860000Y-91440000D02*
X149860000Y-88900000D01*
X152400000Y-93980000D02*
X149860000Y-91440000D01*
X152796240Y-93583760D02*
X152400000Y-93980000D01*
X138404600Y-82961480D02*
X132709920Y-88656160D01*
X141107160Y-88656160D02*
X142062200Y-89611200D01*
X132709920Y-88656160D02*
X141107160Y-88656160D01*
X144068800Y-89611200D02*
X144780000Y-88900000D01*
X142062200Y-89611200D02*
X144068800Y-89611200D01*
X158343600Y-88036400D02*
X152400000Y-93980000D01*
X158343600Y-87858600D02*
X158343600Y-88036400D01*
X158343600Y-87858600D02*
X158343600Y-88397080D01*
X138404600Y-77040740D02*
X137728960Y-76365100D01*
X138404600Y-82961480D02*
X138404600Y-77040740D01*
X158878600Y-87858600D02*
X165000000Y-93980000D01*
X158343600Y-87858600D02*
X158878600Y-87858600D01*
X162540000Y-62460000D02*
X162400000Y-62600000D01*
X167000000Y-62460000D02*
X162540000Y-62460000D01*
%TO.N,Net-(C1-Pad1)*%
X140616940Y-93980000D02*
X140256260Y-94340680D01*
X144780000Y-93980000D02*
X140616940Y-93980000D01*
X139181259Y-104111479D02*
X139291060Y-104221280D01*
X133314440Y-94340680D02*
X132709920Y-93736160D01*
X140256260Y-94340680D02*
X133314440Y-94340680D01*
%TO.N,Net-(C2-Pad2)*%
X142976940Y-96520000D02*
X140256260Y-99240680D01*
X144780000Y-96520000D02*
X142976940Y-96520000D01*
X135674440Y-99240680D02*
X132709920Y-96276160D01*
X140256260Y-99240680D02*
X135674440Y-99240680D01*
%TO.N,Net-(D1-Pad1)*%
X162184080Y-105321100D02*
X160050480Y-107454700D01*
X162184080Y-104272080D02*
X162184080Y-105321100D01*
%TO.N,Net-(C4-Pad2)*%
X140679170Y-72322690D02*
X141439900Y-71561960D01*
X140679170Y-73061830D02*
X140679170Y-72322690D01*
X139671420Y-74069580D02*
X140679170Y-73061830D01*
X139671420Y-79758540D02*
X139679040Y-79766160D01*
X139671420Y-79529940D02*
X139671420Y-78401540D01*
X139671420Y-78401540D02*
X139671420Y-79758540D01*
X139671420Y-78401540D02*
X139671420Y-74069580D01*
%TO.N,Net-(C4-Pad1)*%
X142062200Y-79639160D02*
X142171420Y-79529940D01*
X142062200Y-81991200D02*
X142062200Y-79639160D01*
X143290541Y-75149459D02*
X144780000Y-73660000D01*
X143290541Y-78410819D02*
X143290541Y-75149459D01*
X142171420Y-79529940D02*
X143290541Y-78410819D01*
X139588340Y-67418340D02*
X138917820Y-67418340D01*
X144780000Y-72610000D02*
X139588340Y-67418340D01*
X144780000Y-73660000D02*
X144780000Y-72610000D01*
X138917820Y-67418340D02*
X132417820Y-67418340D01*
X132417820Y-73124060D02*
X132709920Y-73416160D01*
X132417820Y-67418340D02*
X132417820Y-73124060D01*
%TO.N,Net-(J5-Pad14)*%
X152400000Y-73660000D02*
X165000000Y-73660000D01*
%TO.N,Net-(J5-Pad13)*%
X165000000Y-76200000D02*
X152400000Y-76200000D01*
%TO.N,Net-(J5-Pad11)*%
X152400000Y-81280000D02*
X165000000Y-81280000D01*
%TO.N,Net-(J5-Pad10)*%
X165000000Y-83820000D02*
X152400000Y-83820000D01*
%TO.N,Net-(J5-Pad5)*%
X164200001Y-95720001D02*
X165000000Y-96520000D01*
X153199999Y-95720001D02*
X164200001Y-95720001D01*
X152400000Y-96520000D02*
X153199999Y-95720001D01*
%TO.N,Net-(J5-Pad4)*%
X158253460Y-97788450D02*
X163728450Y-97788450D01*
X156533349Y-99508561D02*
X158253460Y-97788450D01*
X152848561Y-99508561D02*
X156533349Y-99508561D01*
X163728450Y-97788450D02*
X165000000Y-99060000D01*
X152400000Y-99060000D02*
X152848561Y-99508561D01*
%TO.N,Net-(J5-Pad2)*%
X152400000Y-104140000D02*
X152914998Y-104140000D01*
%TO.N,Net-(J6-Pad14)*%
X143613719Y-107846281D02*
X134120041Y-107846281D01*
X134120041Y-107846281D02*
X132709920Y-106436160D01*
X144780000Y-106680000D02*
X143613719Y-107846281D01*
%TO.N,Net-(J6-Pad13)*%
X133543461Y-103062619D02*
X132709920Y-103896160D01*
X143702619Y-103062619D02*
X133543461Y-103062619D01*
X144780000Y-104140000D02*
X143702619Y-103062619D01*
%TO.N,Net-(J6-Pad12)*%
X132953760Y-101600000D02*
X132709920Y-101356160D01*
X144780000Y-101600000D02*
X132953760Y-101600000D01*
%TO.N,Net-(J6-Pad11)*%
X134209441Y-100315681D02*
X132709920Y-98816160D01*
X143524319Y-100315681D02*
X134209441Y-100315681D01*
X144780000Y-99060000D02*
X143524319Y-100315681D01*
%TO.N,Net-(J5-Pad9)*%
X152400000Y-86360000D02*
X165000000Y-86360000D01*
%TO.N,Net-(J5-Pad12)*%
X165000000Y-78740000D02*
X152400000Y-78740000D01*
%TO.N,Net-(C5-Pad1)*%
X156814999Y-69674999D02*
X152940000Y-65800000D01*
X157874999Y-69674999D02*
X156814999Y-69674999D01*
X159000000Y-70800000D02*
X157874999Y-69674999D01*
%TO.N,Net-(J7-Pad2)*%
X158680000Y-65140000D02*
X158020000Y-65800000D01*
X162400000Y-65140000D02*
X158680000Y-65140000D01*
X158020000Y-65800000D02*
X150400000Y-58180000D01*
%TD*%
D20*
%TO.N,GND*%
G36*
X169440758Y-56258465D02*
G01*
X169503999Y-111248206D01*
X127170017Y-111142309D01*
X127198049Y-108779700D01*
X155724908Y-108779700D01*
X155737168Y-108904182D01*
X155773478Y-109023880D01*
X155832443Y-109134194D01*
X155911795Y-109230885D01*
X156008486Y-109310237D01*
X156118800Y-109369202D01*
X156238498Y-109405512D01*
X156362980Y-109417772D01*
X156789730Y-109414700D01*
X156948480Y-109255950D01*
X156948480Y-107581700D01*
X157202480Y-107581700D01*
X157202480Y-109255950D01*
X157361230Y-109414700D01*
X157787980Y-109417772D01*
X157912462Y-109405512D01*
X158032160Y-109369202D01*
X158142474Y-109310237D01*
X158239165Y-109230885D01*
X158318517Y-109134194D01*
X158377482Y-109023880D01*
X158413792Y-108904182D01*
X158426052Y-108779700D01*
X158422980Y-107740450D01*
X158264230Y-107581700D01*
X157202480Y-107581700D01*
X156948480Y-107581700D01*
X155886730Y-107581700D01*
X155727980Y-107740450D01*
X155724908Y-108779700D01*
X127198049Y-108779700D01*
X127378280Y-93589900D01*
X131224920Y-93589900D01*
X131224920Y-93882420D01*
X131281988Y-94169318D01*
X131393930Y-94439571D01*
X131556445Y-94682792D01*
X131763288Y-94889635D01*
X131937680Y-95006160D01*
X131763288Y-95122685D01*
X131556445Y-95329528D01*
X131393930Y-95572749D01*
X131281988Y-95843002D01*
X131224920Y-96129900D01*
X131224920Y-96422420D01*
X131281988Y-96709318D01*
X131393930Y-96979571D01*
X131556445Y-97222792D01*
X131763288Y-97429635D01*
X131937680Y-97546160D01*
X131763288Y-97662685D01*
X131556445Y-97869528D01*
X131393930Y-98112749D01*
X131281988Y-98383002D01*
X131224920Y-98669900D01*
X131224920Y-98962420D01*
X131281988Y-99249318D01*
X131393930Y-99519571D01*
X131556445Y-99762792D01*
X131763288Y-99969635D01*
X131937680Y-100086160D01*
X131763288Y-100202685D01*
X131556445Y-100409528D01*
X131393930Y-100652749D01*
X131281988Y-100923002D01*
X131224920Y-101209900D01*
X131224920Y-101502420D01*
X131281988Y-101789318D01*
X131393930Y-102059571D01*
X131556445Y-102302792D01*
X131763288Y-102509635D01*
X131937680Y-102626160D01*
X131763288Y-102742685D01*
X131556445Y-102949528D01*
X131393930Y-103192749D01*
X131281988Y-103463002D01*
X131224920Y-103749900D01*
X131224920Y-104042420D01*
X131281988Y-104329318D01*
X131393930Y-104599571D01*
X131556445Y-104842792D01*
X131763288Y-105049635D01*
X131937680Y-105166160D01*
X131763288Y-105282685D01*
X131556445Y-105489528D01*
X131393930Y-105732749D01*
X131281988Y-106003002D01*
X131224920Y-106289900D01*
X131224920Y-106582420D01*
X131281988Y-106869318D01*
X131393930Y-107139571D01*
X131556445Y-107382792D01*
X131763288Y-107589635D01*
X132006509Y-107752150D01*
X132276762Y-107864092D01*
X132563660Y-107921160D01*
X132856180Y-107921160D01*
X133076328Y-107877370D01*
X133556242Y-108357284D01*
X133580040Y-108386282D01*
X133695765Y-108481255D01*
X133827794Y-108551827D01*
X133971055Y-108595284D01*
X134082708Y-108606281D01*
X134082717Y-108606281D01*
X134120040Y-108609957D01*
X134157363Y-108606281D01*
X143576397Y-108606281D01*
X143613719Y-108609957D01*
X143651041Y-108606281D01*
X143651052Y-108606281D01*
X143762705Y-108595284D01*
X143905966Y-108551827D01*
X144037995Y-108481255D01*
X144153720Y-108386282D01*
X144177522Y-108357279D01*
X144456114Y-108078688D01*
X144638665Y-108115000D01*
X144921335Y-108115000D01*
X145198574Y-108059853D01*
X145459727Y-107951680D01*
X145694759Y-107794637D01*
X145894637Y-107594759D01*
X146051680Y-107359727D01*
X146159853Y-107098574D01*
X146215000Y-106821335D01*
X146215000Y-106538665D01*
X146159853Y-106261426D01*
X146051680Y-106000273D01*
X145894637Y-105765241D01*
X145694759Y-105565363D01*
X145462241Y-105410000D01*
X145694759Y-105254637D01*
X145894637Y-105054759D01*
X146051680Y-104819727D01*
X146159853Y-104558574D01*
X146215000Y-104281335D01*
X146215000Y-103998665D01*
X146159853Y-103721426D01*
X146051680Y-103460273D01*
X145894637Y-103225241D01*
X145694759Y-103025363D01*
X145462241Y-102870000D01*
X145694759Y-102714637D01*
X145894637Y-102514759D01*
X146051680Y-102279727D01*
X146159853Y-102018574D01*
X146215000Y-101741335D01*
X146215000Y-101458665D01*
X146159853Y-101181426D01*
X146051680Y-100920273D01*
X145894637Y-100685241D01*
X145694759Y-100485363D01*
X145462241Y-100330000D01*
X145694759Y-100174637D01*
X145894637Y-99974759D01*
X146051680Y-99739727D01*
X146159853Y-99478574D01*
X146215000Y-99201335D01*
X146215000Y-98918665D01*
X146159853Y-98641426D01*
X146051680Y-98380273D01*
X145894637Y-98145241D01*
X145694759Y-97945363D01*
X145462241Y-97790000D01*
X145694759Y-97634637D01*
X145894637Y-97434759D01*
X146051680Y-97199727D01*
X146159853Y-96938574D01*
X146215000Y-96661335D01*
X146215000Y-96378665D01*
X146159853Y-96101426D01*
X146051680Y-95840273D01*
X145894637Y-95605241D01*
X145694759Y-95405363D01*
X145462241Y-95250000D01*
X145694759Y-95094637D01*
X145894637Y-94894759D01*
X146051680Y-94659727D01*
X146159853Y-94398574D01*
X146215000Y-94121335D01*
X146215000Y-93838665D01*
X146159853Y-93561426D01*
X146051680Y-93300273D01*
X145894637Y-93065241D01*
X145694759Y-92865363D01*
X145460872Y-92709085D01*
X145521514Y-92676671D01*
X145593097Y-92432702D01*
X144780000Y-91619605D01*
X143966903Y-92432702D01*
X144038486Y-92676671D01*
X144102992Y-92707194D01*
X144100273Y-92708320D01*
X143865241Y-92865363D01*
X143665363Y-93065241D01*
X143561957Y-93220000D01*
X141071977Y-93220000D01*
X140912303Y-93113309D01*
X140660249Y-93008905D01*
X140392671Y-92955680D01*
X140119849Y-92955680D01*
X139852271Y-93008905D01*
X139600217Y-93113309D01*
X139373374Y-93264881D01*
X139180461Y-93457794D01*
X139098351Y-93580680D01*
X134193086Y-93580680D01*
X134137852Y-93303002D01*
X134025910Y-93032749D01*
X133863395Y-92789528D01*
X133656552Y-92582685D01*
X133474386Y-92460965D01*
X133591275Y-92391338D01*
X133807508Y-92196429D01*
X133981561Y-91963080D01*
X134106745Y-91700259D01*
X134151396Y-91553050D01*
X134128948Y-91510512D01*
X143339783Y-91510512D01*
X143381213Y-91790130D01*
X143476397Y-92056292D01*
X143543329Y-92181514D01*
X143787298Y-92253097D01*
X144600395Y-91440000D01*
X144959605Y-91440000D01*
X145772702Y-92253097D01*
X146016671Y-92181514D01*
X146137571Y-91926004D01*
X146206300Y-91651816D01*
X146220217Y-91369488D01*
X146178787Y-91089870D01*
X146083603Y-90823708D01*
X146016671Y-90698486D01*
X145772702Y-90626903D01*
X144959605Y-91440000D01*
X144600395Y-91440000D01*
X143787298Y-90626903D01*
X143543329Y-90698486D01*
X143422429Y-90953996D01*
X143353700Y-91228184D01*
X143339783Y-91510512D01*
X134128948Y-91510512D01*
X134030075Y-91323160D01*
X132836920Y-91323160D01*
X132836920Y-91343160D01*
X132582920Y-91343160D01*
X132582920Y-91323160D01*
X131389765Y-91323160D01*
X131268444Y-91553050D01*
X131313095Y-91700259D01*
X131438279Y-91963080D01*
X131612332Y-92196429D01*
X131828565Y-92391338D01*
X131945454Y-92460965D01*
X131763288Y-92582685D01*
X131556445Y-92789528D01*
X131393930Y-93032749D01*
X131281988Y-93303002D01*
X131224920Y-93589900D01*
X127378280Y-93589900D01*
X127690722Y-67257307D01*
X130782820Y-67257307D01*
X130782820Y-67579373D01*
X130845652Y-67895252D01*
X130968902Y-68192803D01*
X131147833Y-68460592D01*
X131375568Y-68688327D01*
X131643357Y-68867258D01*
X131657820Y-68873249D01*
X131657821Y-71963893D01*
X131615740Y-71976658D01*
X131505426Y-72035623D01*
X131408735Y-72114975D01*
X131329383Y-72211666D01*
X131270418Y-72321980D01*
X131234108Y-72441678D01*
X131221848Y-72566160D01*
X131221848Y-74266160D01*
X131234108Y-74390642D01*
X131270418Y-74510340D01*
X131329383Y-74620654D01*
X131408735Y-74717345D01*
X131505426Y-74796697D01*
X131615740Y-74855662D01*
X131688300Y-74877673D01*
X131556445Y-75009528D01*
X131393930Y-75252749D01*
X131281988Y-75523002D01*
X131224920Y-75809900D01*
X131224920Y-76102420D01*
X131281988Y-76389318D01*
X131393930Y-76659571D01*
X131556445Y-76902792D01*
X131763288Y-77109635D01*
X131937680Y-77226160D01*
X131763288Y-77342685D01*
X131556445Y-77549528D01*
X131393930Y-77792749D01*
X131281988Y-78063002D01*
X131224920Y-78349900D01*
X131224920Y-78642420D01*
X131281988Y-78929318D01*
X131393930Y-79199571D01*
X131556445Y-79442792D01*
X131763288Y-79649635D01*
X131937680Y-79766160D01*
X131763288Y-79882685D01*
X131556445Y-80089528D01*
X131393930Y-80332749D01*
X131281988Y-80603002D01*
X131224920Y-80889900D01*
X131224920Y-81182420D01*
X131281988Y-81469318D01*
X131393930Y-81739571D01*
X131556445Y-81982792D01*
X131763288Y-82189635D01*
X131937680Y-82306160D01*
X131763288Y-82422685D01*
X131556445Y-82629528D01*
X131393930Y-82872749D01*
X131281988Y-83143002D01*
X131224920Y-83429900D01*
X131224920Y-83722420D01*
X131281988Y-84009318D01*
X131393930Y-84279571D01*
X131556445Y-84522792D01*
X131763288Y-84729635D01*
X131937680Y-84846160D01*
X131763288Y-84962685D01*
X131556445Y-85169528D01*
X131393930Y-85412749D01*
X131281988Y-85683002D01*
X131224920Y-85969900D01*
X131224920Y-86262420D01*
X131281988Y-86549318D01*
X131393930Y-86819571D01*
X131556445Y-87062792D01*
X131763288Y-87269635D01*
X131937680Y-87386160D01*
X131763288Y-87502685D01*
X131556445Y-87709528D01*
X131393930Y-87952749D01*
X131281988Y-88223002D01*
X131224920Y-88509900D01*
X131224920Y-88802420D01*
X131281988Y-89089318D01*
X131393930Y-89359571D01*
X131556445Y-89602792D01*
X131763288Y-89809635D01*
X131945454Y-89931355D01*
X131828565Y-90000982D01*
X131612332Y-90195891D01*
X131438279Y-90429240D01*
X131313095Y-90692061D01*
X131268444Y-90839270D01*
X131389765Y-91069160D01*
X132582920Y-91069160D01*
X132582920Y-91049160D01*
X132836920Y-91049160D01*
X132836920Y-91069160D01*
X134030075Y-91069160D01*
X134151396Y-90839270D01*
X134106745Y-90692061D01*
X133981561Y-90429240D01*
X133807508Y-90195891D01*
X133591275Y-90000982D01*
X133474386Y-89931355D01*
X133656552Y-89809635D01*
X133863395Y-89602792D01*
X133988098Y-89416160D01*
X140739842Y-89416160D01*
X140727200Y-89479714D01*
X140727200Y-89742686D01*
X140778504Y-90000605D01*
X140879139Y-90243559D01*
X141025238Y-90462213D01*
X141211187Y-90648162D01*
X141429841Y-90794261D01*
X141672795Y-90894896D01*
X141930714Y-90946200D01*
X142193686Y-90946200D01*
X142451605Y-90894896D01*
X142694559Y-90794261D01*
X142913213Y-90648162D01*
X143099162Y-90462213D01*
X143159975Y-90371200D01*
X143989231Y-90371200D01*
X143966903Y-90447298D01*
X144780000Y-91260395D01*
X145593097Y-90447298D01*
X145521514Y-90203329D01*
X145457008Y-90172806D01*
X145459727Y-90171680D01*
X145694759Y-90014637D01*
X145894637Y-89814759D01*
X145998043Y-89660000D01*
X149100001Y-89660000D01*
X149100000Y-91402677D01*
X149096324Y-91440000D01*
X149100000Y-91477322D01*
X149100000Y-91477332D01*
X149110997Y-91588985D01*
X149144751Y-91700259D01*
X149154454Y-91732246D01*
X149225026Y-91864276D01*
X149264871Y-91912826D01*
X149319999Y-91980001D01*
X149349003Y-92003804D01*
X151001312Y-93656114D01*
X150965000Y-93838665D01*
X150965000Y-94121335D01*
X151020147Y-94398574D01*
X151128320Y-94659727D01*
X151285363Y-94894759D01*
X151485241Y-95094637D01*
X151717759Y-95250000D01*
X151485241Y-95405363D01*
X151285363Y-95605241D01*
X151128320Y-95840273D01*
X151020147Y-96101426D01*
X150965000Y-96378665D01*
X150965000Y-96661335D01*
X151020147Y-96938574D01*
X151128320Y-97199727D01*
X151285363Y-97434759D01*
X151485241Y-97634637D01*
X151717759Y-97790000D01*
X151485241Y-97945363D01*
X151285363Y-98145241D01*
X151128320Y-98380273D01*
X151020147Y-98641426D01*
X150965000Y-98918665D01*
X150965000Y-99201335D01*
X151020147Y-99478574D01*
X151128320Y-99739727D01*
X151285363Y-99974759D01*
X151485241Y-100174637D01*
X151717759Y-100330000D01*
X151485241Y-100485363D01*
X151285363Y-100685241D01*
X151128320Y-100920273D01*
X151020147Y-101181426D01*
X150965000Y-101458665D01*
X150965000Y-101741335D01*
X151020147Y-102018574D01*
X151128320Y-102279727D01*
X151285363Y-102514759D01*
X151485241Y-102714637D01*
X151717759Y-102870000D01*
X151485241Y-103025363D01*
X151285363Y-103225241D01*
X151128320Y-103460273D01*
X151020147Y-103721426D01*
X150965000Y-103998665D01*
X150965000Y-104281335D01*
X151020147Y-104558574D01*
X151128320Y-104819727D01*
X151285363Y-105054759D01*
X151485241Y-105254637D01*
X151717759Y-105410000D01*
X151485241Y-105565363D01*
X151285363Y-105765241D01*
X151128320Y-106000273D01*
X151020147Y-106261426D01*
X150965000Y-106538665D01*
X150965000Y-106821335D01*
X151020147Y-107098574D01*
X151128320Y-107359727D01*
X151285363Y-107594759D01*
X151485241Y-107794637D01*
X151720273Y-107951680D01*
X151981426Y-108059853D01*
X152258665Y-108115000D01*
X152541335Y-108115000D01*
X152818574Y-108059853D01*
X153079727Y-107951680D01*
X153314759Y-107794637D01*
X153514637Y-107594759D01*
X153671680Y-107359727D01*
X153779853Y-107098574D01*
X153835000Y-106821335D01*
X153835000Y-106538665D01*
X153779853Y-106261426D01*
X153725291Y-106129700D01*
X155724908Y-106129700D01*
X155727980Y-107168950D01*
X155886730Y-107327700D01*
X156948480Y-107327700D01*
X156948480Y-105653450D01*
X157202480Y-105653450D01*
X157202480Y-107327700D01*
X158264230Y-107327700D01*
X158422980Y-107168950D01*
X158426052Y-106129700D01*
X158413792Y-106005218D01*
X158377482Y-105885520D01*
X158318517Y-105775206D01*
X158239165Y-105678515D01*
X158142474Y-105599163D01*
X158032160Y-105540198D01*
X157912462Y-105503888D01*
X157787980Y-105491628D01*
X157361230Y-105494700D01*
X157202480Y-105653450D01*
X156948480Y-105653450D01*
X156789730Y-105494700D01*
X156362980Y-105491628D01*
X156238498Y-105503888D01*
X156118800Y-105540198D01*
X156008486Y-105599163D01*
X155911795Y-105678515D01*
X155832443Y-105775206D01*
X155773478Y-105885520D01*
X155737168Y-106005218D01*
X155724908Y-106129700D01*
X153725291Y-106129700D01*
X153671680Y-106000273D01*
X153514637Y-105765241D01*
X153314759Y-105565363D01*
X153082241Y-105410000D01*
X153314759Y-105254637D01*
X153494748Y-105074648D01*
X153527118Y-105123093D01*
X153713067Y-105309042D01*
X153931721Y-105455141D01*
X154174675Y-105555776D01*
X154432594Y-105607080D01*
X154695566Y-105607080D01*
X154953485Y-105555776D01*
X155196439Y-105455141D01*
X155415093Y-105309042D01*
X155601042Y-105123093D01*
X155747141Y-104904439D01*
X155847776Y-104661485D01*
X155899080Y-104403566D01*
X155899080Y-104140594D01*
X155847776Y-103882675D01*
X155747141Y-103639721D01*
X155601042Y-103421067D01*
X155415093Y-103235118D01*
X155324080Y-103174305D01*
X155324080Y-102358560D01*
X155413920Y-102358560D01*
X155700818Y-102301492D01*
X155971071Y-102189550D01*
X156214292Y-102027035D01*
X156421135Y-101820192D01*
X156583650Y-101576971D01*
X156695592Y-101306718D01*
X156752660Y-101019820D01*
X156752660Y-100727300D01*
X156695592Y-100440402D01*
X156622307Y-100263476D01*
X156682335Y-100257564D01*
X156825596Y-100214107D01*
X156957625Y-100143535D01*
X157073350Y-100048562D01*
X157097153Y-100019558D01*
X158568262Y-98548450D01*
X163413649Y-98548450D01*
X163558791Y-98693592D01*
X163515000Y-98913740D01*
X163515000Y-99206260D01*
X163572068Y-99493158D01*
X163684010Y-99763411D01*
X163846525Y-100006632D01*
X164053368Y-100213475D01*
X164227760Y-100330000D01*
X164053368Y-100446525D01*
X163846525Y-100653368D01*
X163684010Y-100896589D01*
X163572068Y-101166842D01*
X163515000Y-101453740D01*
X163515000Y-101746260D01*
X163572068Y-102033158D01*
X163684010Y-102303411D01*
X163846525Y-102546632D01*
X164053368Y-102753475D01*
X164227760Y-102870000D01*
X164053368Y-102986525D01*
X163846525Y-103193368D01*
X163684010Y-103436589D01*
X163572068Y-103706842D01*
X163515000Y-103993740D01*
X163515000Y-104120083D01*
X163467776Y-103882675D01*
X163367141Y-103639721D01*
X163221042Y-103421067D01*
X163035093Y-103235118D01*
X162816439Y-103089019D01*
X162573485Y-102988384D01*
X162315566Y-102937080D01*
X162052594Y-102937080D01*
X161794675Y-102988384D01*
X161551721Y-103089019D01*
X161333067Y-103235118D01*
X161147118Y-103421067D01*
X161001019Y-103639721D01*
X160900384Y-103882675D01*
X160849080Y-104140594D01*
X160849080Y-104403566D01*
X160900384Y-104661485D01*
X161001019Y-104904439D01*
X161147118Y-105123093D01*
X161227202Y-105203177D01*
X160864769Y-105565609D01*
X160852830Y-105559228D01*
X160686234Y-105508692D01*
X160512980Y-105491628D01*
X159587980Y-105491628D01*
X159414726Y-105508692D01*
X159248130Y-105559228D01*
X159094594Y-105641295D01*
X158960018Y-105751738D01*
X158849575Y-105886314D01*
X158767508Y-106039850D01*
X158716972Y-106206446D01*
X158699908Y-106379700D01*
X158699908Y-108529700D01*
X158716972Y-108702954D01*
X158767508Y-108869550D01*
X158849575Y-109023086D01*
X158960018Y-109157662D01*
X159094594Y-109268105D01*
X159248130Y-109350172D01*
X159414726Y-109400708D01*
X159587980Y-109417772D01*
X160512980Y-109417772D01*
X160686234Y-109400708D01*
X160852830Y-109350172D01*
X161006366Y-109268105D01*
X161140942Y-109157662D01*
X161251385Y-109023086D01*
X161333452Y-108869550D01*
X161383988Y-108702954D01*
X161401052Y-108529700D01*
X161401052Y-107178929D01*
X162695083Y-105884899D01*
X162724081Y-105861101D01*
X162773252Y-105801186D01*
X162819054Y-105745377D01*
X162889626Y-105613347D01*
X162903541Y-105567473D01*
X162933083Y-105470086D01*
X162942876Y-105370659D01*
X163035093Y-105309042D01*
X163221042Y-105123093D01*
X163367141Y-104904439D01*
X163467776Y-104661485D01*
X163519080Y-104403566D01*
X163519080Y-104306771D01*
X163572068Y-104573158D01*
X163684010Y-104843411D01*
X163846525Y-105086632D01*
X163978380Y-105218487D01*
X163905820Y-105240498D01*
X163795506Y-105299463D01*
X163698815Y-105378815D01*
X163619463Y-105475506D01*
X163560498Y-105585820D01*
X163524188Y-105705518D01*
X163511928Y-105830000D01*
X163511928Y-107530000D01*
X163524188Y-107654482D01*
X163560498Y-107774180D01*
X163619463Y-107884494D01*
X163698815Y-107981185D01*
X163795506Y-108060537D01*
X163905820Y-108119502D01*
X164025518Y-108155812D01*
X164150000Y-108168072D01*
X165850000Y-108168072D01*
X165974482Y-108155812D01*
X166094180Y-108119502D01*
X166204494Y-108060537D01*
X166301185Y-107981185D01*
X166380537Y-107884494D01*
X166439502Y-107774180D01*
X166475812Y-107654482D01*
X166488072Y-107530000D01*
X166488072Y-105830000D01*
X166475812Y-105705518D01*
X166439502Y-105585820D01*
X166380537Y-105475506D01*
X166301185Y-105378815D01*
X166204494Y-105299463D01*
X166094180Y-105240498D01*
X166021620Y-105218487D01*
X166153475Y-105086632D01*
X166315990Y-104843411D01*
X166427932Y-104573158D01*
X166485000Y-104286260D01*
X166485000Y-103993740D01*
X166427932Y-103706842D01*
X166315990Y-103436589D01*
X166153475Y-103193368D01*
X165946632Y-102986525D01*
X165772240Y-102870000D01*
X165946632Y-102753475D01*
X166153475Y-102546632D01*
X166315990Y-102303411D01*
X166427932Y-102033158D01*
X166485000Y-101746260D01*
X166485000Y-101453740D01*
X166427932Y-101166842D01*
X166315990Y-100896589D01*
X166153475Y-100653368D01*
X165946632Y-100446525D01*
X165772240Y-100330000D01*
X165946632Y-100213475D01*
X166153475Y-100006632D01*
X166315990Y-99763411D01*
X166427932Y-99493158D01*
X166485000Y-99206260D01*
X166485000Y-98913740D01*
X166427932Y-98626842D01*
X166315990Y-98356589D01*
X166153475Y-98113368D01*
X165946632Y-97906525D01*
X165772240Y-97790000D01*
X165946632Y-97673475D01*
X166153475Y-97466632D01*
X166315990Y-97223411D01*
X166427932Y-96953158D01*
X166485000Y-96666260D01*
X166485000Y-96373740D01*
X166427932Y-96086842D01*
X166315990Y-95816589D01*
X166153475Y-95573368D01*
X165946632Y-95366525D01*
X165772240Y-95250000D01*
X165946632Y-95133475D01*
X166153475Y-94926632D01*
X166315990Y-94683411D01*
X166427932Y-94413158D01*
X166485000Y-94126260D01*
X166485000Y-93833740D01*
X166427932Y-93546842D01*
X166315990Y-93276589D01*
X166153475Y-93033368D01*
X165946632Y-92826525D01*
X165772240Y-92710000D01*
X165946632Y-92593475D01*
X166153475Y-92386632D01*
X166315990Y-92143411D01*
X166427932Y-91873158D01*
X166485000Y-91586260D01*
X166485000Y-91293740D01*
X166427932Y-91006842D01*
X166315990Y-90736589D01*
X166153475Y-90493368D01*
X165946632Y-90286525D01*
X165764466Y-90164805D01*
X165881355Y-90095178D01*
X166097588Y-89900269D01*
X166271641Y-89666920D01*
X166396825Y-89404099D01*
X166441476Y-89256890D01*
X166320155Y-89027000D01*
X165127000Y-89027000D01*
X165127000Y-89047000D01*
X164873000Y-89047000D01*
X164873000Y-89027000D01*
X163679845Y-89027000D01*
X163558524Y-89256890D01*
X163603175Y-89404099D01*
X163728359Y-89666920D01*
X163902412Y-89900269D01*
X164118645Y-90095178D01*
X164235534Y-90164805D01*
X164053368Y-90286525D01*
X163846525Y-90493368D01*
X163684010Y-90736589D01*
X163572068Y-91006842D01*
X163515000Y-91293740D01*
X163515000Y-91420198D01*
X159781672Y-87686871D01*
X159781672Y-87120000D01*
X163721822Y-87120000D01*
X163846525Y-87306632D01*
X164053368Y-87513475D01*
X164235534Y-87635195D01*
X164118645Y-87704822D01*
X163902412Y-87899731D01*
X163728359Y-88133080D01*
X163603175Y-88395901D01*
X163558524Y-88543110D01*
X163679845Y-88773000D01*
X164873000Y-88773000D01*
X164873000Y-88753000D01*
X165127000Y-88753000D01*
X165127000Y-88773000D01*
X166320155Y-88773000D01*
X166441476Y-88543110D01*
X166396825Y-88395901D01*
X166271641Y-88133080D01*
X166097588Y-87899731D01*
X165881355Y-87704822D01*
X165764466Y-87635195D01*
X165946632Y-87513475D01*
X166153475Y-87306632D01*
X166315990Y-87063411D01*
X166427932Y-86793158D01*
X166485000Y-86506260D01*
X166485000Y-86213740D01*
X166427932Y-85926842D01*
X166315990Y-85656589D01*
X166153475Y-85413368D01*
X165946632Y-85206525D01*
X165772240Y-85090000D01*
X165946632Y-84973475D01*
X166153475Y-84766632D01*
X166315990Y-84523411D01*
X166427932Y-84253158D01*
X166485000Y-83966260D01*
X166485000Y-83673740D01*
X166427932Y-83386842D01*
X166315990Y-83116589D01*
X166153475Y-82873368D01*
X165946632Y-82666525D01*
X165772240Y-82550000D01*
X165946632Y-82433475D01*
X166153475Y-82226632D01*
X166315990Y-81983411D01*
X166427932Y-81713158D01*
X166485000Y-81426260D01*
X166485000Y-81133740D01*
X166427932Y-80846842D01*
X166315990Y-80576589D01*
X166153475Y-80333368D01*
X165946632Y-80126525D01*
X165772240Y-80010000D01*
X165946632Y-79893475D01*
X166153475Y-79686632D01*
X166315990Y-79443411D01*
X166427932Y-79173158D01*
X166485000Y-78886260D01*
X166485000Y-78593740D01*
X166427932Y-78306842D01*
X166315990Y-78036589D01*
X166153475Y-77793368D01*
X165946632Y-77586525D01*
X165772240Y-77470000D01*
X165946632Y-77353475D01*
X166153475Y-77146632D01*
X166315990Y-76903411D01*
X166427932Y-76633158D01*
X166485000Y-76346260D01*
X166485000Y-76053740D01*
X166427932Y-75766842D01*
X166315990Y-75496589D01*
X166153475Y-75253368D01*
X165946632Y-75046525D01*
X165772240Y-74930000D01*
X165946632Y-74813475D01*
X166153475Y-74606632D01*
X166315990Y-74363411D01*
X166427932Y-74093158D01*
X166485000Y-73806260D01*
X166485000Y-73513740D01*
X166427932Y-73226842D01*
X166315990Y-72956589D01*
X166153475Y-72713368D01*
X165946632Y-72506525D01*
X165703411Y-72344010D01*
X165433158Y-72232068D01*
X165146260Y-72175000D01*
X164853740Y-72175000D01*
X164566842Y-72232068D01*
X164296589Y-72344010D01*
X164053368Y-72506525D01*
X163846525Y-72713368D01*
X163721822Y-72900000D01*
X153618043Y-72900000D01*
X153514637Y-72745241D01*
X153314759Y-72545363D01*
X153079727Y-72388320D01*
X152818574Y-72280147D01*
X152541335Y-72225000D01*
X152258665Y-72225000D01*
X151981426Y-72280147D01*
X151720273Y-72388320D01*
X151485241Y-72545363D01*
X151285363Y-72745241D01*
X151128320Y-72980273D01*
X151020147Y-73241426D01*
X150965000Y-73518665D01*
X150965000Y-73801335D01*
X151020147Y-74078574D01*
X151128320Y-74339727D01*
X151285363Y-74574759D01*
X151485241Y-74774637D01*
X151717759Y-74930000D01*
X151485241Y-75085363D01*
X151285363Y-75285241D01*
X151128320Y-75520273D01*
X151020147Y-75781426D01*
X150965000Y-76058665D01*
X150965000Y-76341335D01*
X151020147Y-76618574D01*
X151128320Y-76879727D01*
X151285363Y-77114759D01*
X151485241Y-77314637D01*
X151717759Y-77470000D01*
X151485241Y-77625363D01*
X151285363Y-77825241D01*
X151128320Y-78060273D01*
X151020147Y-78321426D01*
X150965000Y-78598665D01*
X150965000Y-78881335D01*
X151020147Y-79158574D01*
X151128320Y-79419727D01*
X151285363Y-79654759D01*
X151485241Y-79854637D01*
X151717759Y-80010000D01*
X151485241Y-80165363D01*
X151285363Y-80365241D01*
X151128320Y-80600273D01*
X151020147Y-80861426D01*
X150965000Y-81138665D01*
X150965000Y-81421335D01*
X151020147Y-81698574D01*
X151128320Y-81959727D01*
X151285363Y-82194759D01*
X151485241Y-82394637D01*
X151717759Y-82550000D01*
X151485241Y-82705363D01*
X151285363Y-82905241D01*
X151128320Y-83140273D01*
X151020147Y-83401426D01*
X150965000Y-83678665D01*
X150965000Y-83961335D01*
X151020147Y-84238574D01*
X151128320Y-84499727D01*
X151285363Y-84734759D01*
X151485241Y-84934637D01*
X151717759Y-85090000D01*
X151485241Y-85245363D01*
X151285363Y-85445241D01*
X151128320Y-85680273D01*
X151020147Y-85941426D01*
X150965000Y-86218665D01*
X150965000Y-86501335D01*
X151020147Y-86778574D01*
X151128320Y-87039727D01*
X151285363Y-87274759D01*
X151485241Y-87474637D01*
X151719128Y-87630915D01*
X151658486Y-87663329D01*
X151586903Y-87907298D01*
X152400000Y-88720395D01*
X153213097Y-87907298D01*
X153141514Y-87663329D01*
X153077008Y-87632806D01*
X153079727Y-87631680D01*
X153314759Y-87474637D01*
X153514637Y-87274759D01*
X153618043Y-87120000D01*
X155105550Y-87120000D01*
X154986029Y-87372596D01*
X154917300Y-87646784D01*
X154903383Y-87929112D01*
X154944813Y-88208730D01*
X155039997Y-88474892D01*
X155106929Y-88600114D01*
X155350898Y-88671697D01*
X156163995Y-87858600D01*
X156149853Y-87844458D01*
X156329458Y-87664853D01*
X156343600Y-87678995D01*
X156357743Y-87664853D01*
X156537348Y-87844458D01*
X156523205Y-87858600D01*
X156537348Y-87872743D01*
X156357743Y-88052348D01*
X156343600Y-88038205D01*
X155530503Y-88851302D01*
X155602086Y-89095271D01*
X155857596Y-89216171D01*
X156042643Y-89262556D01*
X153835000Y-91470199D01*
X153835000Y-91298665D01*
X153779853Y-91021426D01*
X153671680Y-90760273D01*
X153514637Y-90525241D01*
X153314759Y-90325363D01*
X153080872Y-90169085D01*
X153141514Y-90136671D01*
X153213097Y-89892702D01*
X152400000Y-89079605D01*
X151586903Y-89892702D01*
X151658486Y-90136671D01*
X151722992Y-90167194D01*
X151720273Y-90168320D01*
X151485241Y-90325363D01*
X151285363Y-90525241D01*
X151128320Y-90760273D01*
X151020147Y-91021426D01*
X150965000Y-91298665D01*
X150965000Y-91470199D01*
X150620000Y-91125199D01*
X150620000Y-88970512D01*
X150959783Y-88970512D01*
X151001213Y-89250130D01*
X151096397Y-89516292D01*
X151163329Y-89641514D01*
X151407298Y-89713097D01*
X152220395Y-88900000D01*
X152579605Y-88900000D01*
X153392702Y-89713097D01*
X153636671Y-89641514D01*
X153757571Y-89386004D01*
X153826300Y-89111816D01*
X153840217Y-88829488D01*
X153798787Y-88549870D01*
X153703603Y-88283708D01*
X153636671Y-88158486D01*
X153392702Y-88086903D01*
X152579605Y-88900000D01*
X152220395Y-88900000D01*
X151407298Y-88086903D01*
X151163329Y-88158486D01*
X151042429Y-88413996D01*
X150973700Y-88688184D01*
X150959783Y-88970512D01*
X150620000Y-88970512D01*
X150620000Y-88937333D01*
X150623677Y-88900000D01*
X150614335Y-88805145D01*
X150609003Y-88751014D01*
X150565546Y-88607753D01*
X150494974Y-88475724D01*
X150400001Y-88359999D01*
X150284276Y-88265026D01*
X150152247Y-88194454D01*
X150008986Y-88150997D01*
X149860000Y-88136323D01*
X149822667Y-88140000D01*
X145998043Y-88140000D01*
X145894637Y-87985241D01*
X145694759Y-87785363D01*
X145462241Y-87630000D01*
X145694759Y-87474637D01*
X145894637Y-87274759D01*
X146051680Y-87039727D01*
X146159853Y-86778574D01*
X146215000Y-86501335D01*
X146215000Y-86218665D01*
X146159853Y-85941426D01*
X146051680Y-85680273D01*
X145894637Y-85445241D01*
X145694759Y-85245363D01*
X145462241Y-85090000D01*
X145694759Y-84934637D01*
X145894637Y-84734759D01*
X146051680Y-84499727D01*
X146159853Y-84238574D01*
X146215000Y-83961335D01*
X146215000Y-83678665D01*
X146159853Y-83401426D01*
X146051680Y-83140273D01*
X145894637Y-82905241D01*
X145694759Y-82705363D01*
X145462241Y-82550000D01*
X145694759Y-82394637D01*
X145894637Y-82194759D01*
X146051680Y-81959727D01*
X146159853Y-81698574D01*
X146215000Y-81421335D01*
X146215000Y-81138665D01*
X146159853Y-80861426D01*
X146051680Y-80600273D01*
X145894637Y-80365241D01*
X145694759Y-80165363D01*
X145462241Y-80010000D01*
X145694759Y-79854637D01*
X145894637Y-79654759D01*
X146051680Y-79419727D01*
X146159853Y-79158574D01*
X146215000Y-78881335D01*
X146215000Y-78598665D01*
X146159853Y-78321426D01*
X146051680Y-78060273D01*
X145894637Y-77825241D01*
X145694759Y-77625363D01*
X145462241Y-77470000D01*
X145694759Y-77314637D01*
X145894637Y-77114759D01*
X146051680Y-76879727D01*
X146159853Y-76618574D01*
X146215000Y-76341335D01*
X146215000Y-76058665D01*
X146159853Y-75781426D01*
X146051680Y-75520273D01*
X145894637Y-75285241D01*
X145696039Y-75086643D01*
X145704482Y-75085812D01*
X145824180Y-75049502D01*
X145934494Y-74990537D01*
X146031185Y-74911185D01*
X146110537Y-74814494D01*
X146169502Y-74704180D01*
X146205812Y-74584482D01*
X146218072Y-74460000D01*
X146218072Y-72860000D01*
X146205812Y-72735518D01*
X146169502Y-72615820D01*
X146110537Y-72505506D01*
X146031185Y-72408815D01*
X145934494Y-72329463D01*
X145824180Y-72270498D01*
X145704482Y-72234188D01*
X145580000Y-72221928D01*
X145434326Y-72221928D01*
X145414974Y-72185723D01*
X145343799Y-72098997D01*
X145320001Y-72069999D01*
X145291003Y-72046201D01*
X140552820Y-67308019D01*
X140552820Y-67257307D01*
X140489988Y-66941428D01*
X140366738Y-66643877D01*
X140187807Y-66376088D01*
X139960072Y-66148353D01*
X139692283Y-65969422D01*
X139394732Y-65846172D01*
X139078853Y-65783340D01*
X138756787Y-65783340D01*
X138440908Y-65846172D01*
X138143357Y-65969422D01*
X137875568Y-66148353D01*
X137647833Y-66376088D01*
X137468902Y-66643877D01*
X137462911Y-66658340D01*
X133872729Y-66658340D01*
X133866738Y-66643877D01*
X133687807Y-66376088D01*
X133460072Y-66148353D01*
X133192283Y-65969422D01*
X132894732Y-65846172D01*
X132578853Y-65783340D01*
X132256787Y-65783340D01*
X131940908Y-65846172D01*
X131643357Y-65969422D01*
X131375568Y-66148353D01*
X131147833Y-66376088D01*
X130968902Y-66643877D01*
X130845652Y-66941428D01*
X130782820Y-67257307D01*
X127690722Y-67257307D01*
X127709666Y-65660674D01*
X142763480Y-65660674D01*
X142763480Y-65923646D01*
X142814784Y-66181565D01*
X142915419Y-66424519D01*
X143061518Y-66643173D01*
X143247467Y-66829122D01*
X143466121Y-66975221D01*
X143709075Y-67075856D01*
X143966994Y-67127160D01*
X144229966Y-67127160D01*
X144487885Y-67075856D01*
X144730839Y-66975221D01*
X144949493Y-66829122D01*
X145135442Y-66643173D01*
X145281541Y-66424519D01*
X145382176Y-66181565D01*
X145433480Y-65923646D01*
X145433480Y-65660674D01*
X145615900Y-65660674D01*
X145615900Y-65923646D01*
X145667204Y-66181565D01*
X145767839Y-66424519D01*
X145913938Y-66643173D01*
X146099887Y-66829122D01*
X146318541Y-66975221D01*
X146561495Y-67075856D01*
X146819414Y-67127160D01*
X147082386Y-67127160D01*
X147340305Y-67075856D01*
X147583259Y-66975221D01*
X147801913Y-66829122D01*
X147987862Y-66643173D01*
X148016709Y-66600000D01*
X148961928Y-66600000D01*
X148974188Y-66724482D01*
X149010498Y-66844180D01*
X149069463Y-66954494D01*
X149148815Y-67051185D01*
X149245506Y-67130537D01*
X149355820Y-67189502D01*
X149475518Y-67225812D01*
X149600000Y-67238072D01*
X150114250Y-67235000D01*
X150273000Y-67076250D01*
X150273000Y-65927000D01*
X149123750Y-65927000D01*
X148965000Y-66085750D01*
X148961928Y-66600000D01*
X148016709Y-66600000D01*
X148133961Y-66424519D01*
X148234596Y-66181565D01*
X148285900Y-65923646D01*
X148285900Y-65660674D01*
X148234596Y-65402755D01*
X148133961Y-65159801D01*
X148027187Y-65000000D01*
X148961928Y-65000000D01*
X148965000Y-65514250D01*
X149123750Y-65673000D01*
X150273000Y-65673000D01*
X150273000Y-64523750D01*
X150114250Y-64365000D01*
X149600000Y-64361928D01*
X149475518Y-64374188D01*
X149355820Y-64410498D01*
X149245506Y-64469463D01*
X149148815Y-64548815D01*
X149069463Y-64645506D01*
X149010498Y-64755820D01*
X148974188Y-64875518D01*
X148961928Y-65000000D01*
X148027187Y-65000000D01*
X147987862Y-64941147D01*
X147801913Y-64755198D01*
X147583259Y-64609099D01*
X147340305Y-64508464D01*
X147082386Y-64457160D01*
X146819414Y-64457160D01*
X146561495Y-64508464D01*
X146318541Y-64609099D01*
X146099887Y-64755198D01*
X145913938Y-64941147D01*
X145767839Y-65159801D01*
X145667204Y-65402755D01*
X145615900Y-65660674D01*
X145433480Y-65660674D01*
X145382176Y-65402755D01*
X145281541Y-65159801D01*
X145135442Y-64941147D01*
X144949493Y-64755198D01*
X144730839Y-64609099D01*
X144487885Y-64508464D01*
X144229966Y-64457160D01*
X143966994Y-64457160D01*
X143709075Y-64508464D01*
X143466121Y-64609099D01*
X143247467Y-64755198D01*
X143061518Y-64941147D01*
X142915419Y-65159801D01*
X142814784Y-65402755D01*
X142763480Y-65660674D01*
X127709666Y-65660674D01*
X127728733Y-64053753D01*
X131462012Y-64053753D01*
X131557776Y-64318154D01*
X131847391Y-64459044D01*
X132158928Y-64540724D01*
X132480415Y-64560058D01*
X132799495Y-64516301D01*
X133103908Y-64411135D01*
X133277864Y-64318154D01*
X133373628Y-64053753D01*
X137962012Y-64053753D01*
X138057776Y-64318154D01*
X138347391Y-64459044D01*
X138658928Y-64540724D01*
X138980415Y-64560058D01*
X139299495Y-64516301D01*
X139603908Y-64411135D01*
X139777864Y-64318154D01*
X139873628Y-64053753D01*
X138917820Y-63097945D01*
X137962012Y-64053753D01*
X133373628Y-64053753D01*
X132417820Y-63097945D01*
X131462012Y-64053753D01*
X127728733Y-64053753D01*
X127741463Y-62980935D01*
X130776102Y-62980935D01*
X130819859Y-63300015D01*
X130925025Y-63604428D01*
X131018006Y-63778384D01*
X131282407Y-63874148D01*
X132238215Y-62918340D01*
X132597425Y-62918340D01*
X133553233Y-63874148D01*
X133817634Y-63778384D01*
X133958524Y-63488769D01*
X134040204Y-63177232D01*
X134052009Y-62980935D01*
X137276102Y-62980935D01*
X137319859Y-63300015D01*
X137425025Y-63604428D01*
X137518006Y-63778384D01*
X137782407Y-63874148D01*
X138738215Y-62918340D01*
X139097425Y-62918340D01*
X140053233Y-63874148D01*
X140317634Y-63778384D01*
X140458524Y-63488769D01*
X140540204Y-63177232D01*
X140559538Y-62855745D01*
X140515781Y-62536665D01*
X140410615Y-62232252D01*
X140317634Y-62058296D01*
X140053233Y-61962532D01*
X139097425Y-62918340D01*
X138738215Y-62918340D01*
X137782407Y-61962532D01*
X137518006Y-62058296D01*
X137377116Y-62347911D01*
X137295436Y-62659448D01*
X137276102Y-62980935D01*
X134052009Y-62980935D01*
X134059538Y-62855745D01*
X134015781Y-62536665D01*
X133910615Y-62232252D01*
X133817634Y-62058296D01*
X133553233Y-61962532D01*
X132597425Y-62918340D01*
X132238215Y-62918340D01*
X131282407Y-61962532D01*
X131018006Y-62058296D01*
X130877116Y-62347911D01*
X130795436Y-62659448D01*
X130776102Y-62980935D01*
X127741463Y-62980935D01*
X127755677Y-61782927D01*
X131462012Y-61782927D01*
X132417820Y-62738735D01*
X133373628Y-61782927D01*
X137962012Y-61782927D01*
X138917820Y-62738735D01*
X139873628Y-61782927D01*
X139777864Y-61518526D01*
X139488249Y-61377636D01*
X139176712Y-61295956D01*
X138855225Y-61276622D01*
X138536145Y-61320379D01*
X138231732Y-61425545D01*
X138057776Y-61518526D01*
X137962012Y-61782927D01*
X133373628Y-61782927D01*
X133277864Y-61518526D01*
X132988249Y-61377636D01*
X132676712Y-61295956D01*
X132355225Y-61276622D01*
X132036145Y-61320379D01*
X131731732Y-61425545D01*
X131557776Y-61518526D01*
X131462012Y-61782927D01*
X127755677Y-61782927D01*
X127800080Y-58040674D01*
X142763480Y-58040674D01*
X142763480Y-58303646D01*
X142814784Y-58561565D01*
X142915419Y-58804519D01*
X143061518Y-59023173D01*
X143247467Y-59209122D01*
X143466121Y-59355221D01*
X143709075Y-59455856D01*
X143966994Y-59507160D01*
X144229966Y-59507160D01*
X144487885Y-59455856D01*
X144730839Y-59355221D01*
X144949493Y-59209122D01*
X145135442Y-59023173D01*
X145281541Y-58804519D01*
X145382176Y-58561565D01*
X145433480Y-58303646D01*
X145433480Y-58040674D01*
X145615900Y-58040674D01*
X145615900Y-58303646D01*
X145667204Y-58561565D01*
X145767839Y-58804519D01*
X145913938Y-59023173D01*
X146099887Y-59209122D01*
X146318541Y-59355221D01*
X146561495Y-59455856D01*
X146819414Y-59507160D01*
X147082386Y-59507160D01*
X147340305Y-59455856D01*
X147583259Y-59355221D01*
X147801913Y-59209122D01*
X147987862Y-59023173D01*
X148133961Y-58804519D01*
X148234596Y-58561565D01*
X148285900Y-58303646D01*
X148285900Y-58040674D01*
X148285501Y-58038665D01*
X148965000Y-58038665D01*
X148965000Y-58321335D01*
X149020147Y-58598574D01*
X149128320Y-58859727D01*
X149285363Y-59094759D01*
X149485241Y-59294637D01*
X149720273Y-59451680D01*
X149981426Y-59559853D01*
X150258665Y-59615000D01*
X150541335Y-59615000D01*
X150723887Y-59578688D01*
X155510198Y-64365000D01*
X155338665Y-64365000D01*
X155061426Y-64420147D01*
X154800273Y-64528320D01*
X154565241Y-64685363D01*
X154365363Y-64885241D01*
X154210000Y-65117759D01*
X154054637Y-64885241D01*
X153854759Y-64685363D01*
X153619727Y-64528320D01*
X153358574Y-64420147D01*
X153081335Y-64365000D01*
X152798665Y-64365000D01*
X152521426Y-64420147D01*
X152260273Y-64528320D01*
X152025241Y-64685363D01*
X151826643Y-64883961D01*
X151825812Y-64875518D01*
X151789502Y-64755820D01*
X151730537Y-64645506D01*
X151651185Y-64548815D01*
X151554494Y-64469463D01*
X151444180Y-64410498D01*
X151324482Y-64374188D01*
X151200000Y-64361928D01*
X150685750Y-64365000D01*
X150527000Y-64523750D01*
X150527000Y-65673000D01*
X150547000Y-65673000D01*
X150547000Y-65927000D01*
X150527000Y-65927000D01*
X150527000Y-67076250D01*
X150685750Y-67235000D01*
X151200000Y-67238072D01*
X151324482Y-67225812D01*
X151444180Y-67189502D01*
X151554494Y-67130537D01*
X151651185Y-67051185D01*
X151730537Y-66954494D01*
X151789502Y-66844180D01*
X151825812Y-66724482D01*
X151826643Y-66716039D01*
X152025241Y-66914637D01*
X152260273Y-67071680D01*
X152521426Y-67179853D01*
X152798665Y-67235000D01*
X153081335Y-67235000D01*
X153263887Y-67198688D01*
X155913426Y-69848227D01*
X155891023Y-69870630D01*
X156007296Y-69986903D01*
X155763329Y-70058486D01*
X155642429Y-70313996D01*
X155573700Y-70588184D01*
X155559783Y-70870512D01*
X155601213Y-71150130D01*
X155696397Y-71416292D01*
X155763329Y-71541514D01*
X156007298Y-71613097D01*
X156820395Y-70800000D01*
X156806253Y-70785858D01*
X156985858Y-70606253D01*
X157000000Y-70620395D01*
X157014143Y-70606253D01*
X157193748Y-70785858D01*
X157179605Y-70800000D01*
X157193748Y-70814143D01*
X157014143Y-70993748D01*
X157000000Y-70979605D01*
X156186903Y-71792702D01*
X156258486Y-72036671D01*
X156513996Y-72157571D01*
X156788184Y-72226300D01*
X157070512Y-72240217D01*
X157350130Y-72198787D01*
X157616292Y-72103603D01*
X157738309Y-72038384D01*
X157748815Y-72051185D01*
X157845506Y-72130537D01*
X157955820Y-72189502D01*
X158075518Y-72225812D01*
X158200000Y-72238072D01*
X159800000Y-72238072D01*
X159924482Y-72225812D01*
X160044180Y-72189502D01*
X160154494Y-72130537D01*
X160251185Y-72051185D01*
X160330537Y-71954494D01*
X160389502Y-71844180D01*
X160425812Y-71724482D01*
X160438072Y-71600000D01*
X160438072Y-70000000D01*
X160425812Y-69875518D01*
X160389502Y-69755820D01*
X160330537Y-69645506D01*
X160251185Y-69548815D01*
X160154494Y-69469463D01*
X160044180Y-69410498D01*
X159924482Y-69374188D01*
X159800000Y-69361928D01*
X158636729Y-69361928D01*
X158438803Y-69164001D01*
X158415000Y-69134998D01*
X158299275Y-69040025D01*
X158167246Y-68969453D01*
X158023985Y-68925996D01*
X157912332Y-68914999D01*
X157912321Y-68914999D01*
X157874999Y-68911323D01*
X157837677Y-68914999D01*
X157129801Y-68914999D01*
X155449802Y-67235000D01*
X155621335Y-67235000D01*
X155898574Y-67179853D01*
X156159727Y-67071680D01*
X156394759Y-66914637D01*
X156594637Y-66714759D01*
X156750000Y-66482241D01*
X156905363Y-66714759D01*
X157105241Y-66914637D01*
X157340273Y-67071680D01*
X157601426Y-67179853D01*
X157878665Y-67235000D01*
X158161335Y-67235000D01*
X158438574Y-67179853D01*
X158699727Y-67071680D01*
X158934759Y-66914637D01*
X159134637Y-66714759D01*
X159291680Y-66479727D01*
X159399853Y-66218574D01*
X159455000Y-65941335D01*
X159455000Y-65900000D01*
X161121822Y-65900000D01*
X161246525Y-66086632D01*
X161453368Y-66293475D01*
X161696589Y-66455990D01*
X161966842Y-66567932D01*
X162253740Y-66625000D01*
X162546260Y-66625000D01*
X162833158Y-66567932D01*
X163103411Y-66455990D01*
X163346632Y-66293475D01*
X163553475Y-66086632D01*
X163711587Y-65850000D01*
X165511928Y-65850000D01*
X165524188Y-65974482D01*
X165560498Y-66094180D01*
X165619463Y-66204494D01*
X165698815Y-66301185D01*
X165795506Y-66380537D01*
X165905820Y-66439502D01*
X166025518Y-66475812D01*
X166150000Y-66488072D01*
X166714250Y-66485000D01*
X166873000Y-66326250D01*
X166873000Y-65127000D01*
X167127000Y-65127000D01*
X167127000Y-66326250D01*
X167285750Y-66485000D01*
X167850000Y-66488072D01*
X167974482Y-66475812D01*
X168094180Y-66439502D01*
X168204494Y-66380537D01*
X168301185Y-66301185D01*
X168380537Y-66204494D01*
X168439502Y-66094180D01*
X168475812Y-65974482D01*
X168488072Y-65850000D01*
X168485000Y-65285750D01*
X168326250Y-65127000D01*
X167127000Y-65127000D01*
X166873000Y-65127000D01*
X165673750Y-65127000D01*
X165515000Y-65285750D01*
X165511928Y-65850000D01*
X163711587Y-65850000D01*
X163715990Y-65843411D01*
X163827932Y-65573158D01*
X163885000Y-65286260D01*
X163885000Y-64993740D01*
X163827932Y-64706842D01*
X163715990Y-64436589D01*
X163553475Y-64193368D01*
X163421620Y-64061513D01*
X163494180Y-64039502D01*
X163604494Y-63980537D01*
X163701185Y-63901185D01*
X163780537Y-63804494D01*
X163839502Y-63694180D01*
X163875812Y-63574482D01*
X163888072Y-63450000D01*
X163888072Y-63220000D01*
X165721822Y-63220000D01*
X165846525Y-63406632D01*
X165978380Y-63538487D01*
X165905820Y-63560498D01*
X165795506Y-63619463D01*
X165698815Y-63698815D01*
X165619463Y-63795506D01*
X165560498Y-63905820D01*
X165524188Y-64025518D01*
X165511928Y-64150000D01*
X165515000Y-64714250D01*
X165673750Y-64873000D01*
X166873000Y-64873000D01*
X166873000Y-64853000D01*
X167127000Y-64853000D01*
X167127000Y-64873000D01*
X168326250Y-64873000D01*
X168485000Y-64714250D01*
X168488072Y-64150000D01*
X168475812Y-64025518D01*
X168439502Y-63905820D01*
X168380537Y-63795506D01*
X168301185Y-63698815D01*
X168204494Y-63619463D01*
X168094180Y-63560498D01*
X168021620Y-63538487D01*
X168153475Y-63406632D01*
X168315990Y-63163411D01*
X168427932Y-62893158D01*
X168485000Y-62606260D01*
X168485000Y-62313740D01*
X168427932Y-62026842D01*
X168315990Y-61756589D01*
X168153475Y-61513368D01*
X167946632Y-61306525D01*
X167703411Y-61144010D01*
X167433158Y-61032068D01*
X167146260Y-60975000D01*
X166853740Y-60975000D01*
X166566842Y-61032068D01*
X166296589Y-61144010D01*
X166053368Y-61306525D01*
X165846525Y-61513368D01*
X165721822Y-61700000D01*
X163883148Y-61700000D01*
X163875812Y-61625518D01*
X163839502Y-61505820D01*
X163780537Y-61395506D01*
X163701185Y-61298815D01*
X163604494Y-61219463D01*
X163494180Y-61160498D01*
X163374482Y-61124188D01*
X163250000Y-61111928D01*
X161550000Y-61111928D01*
X161425518Y-61124188D01*
X161305820Y-61160498D01*
X161195506Y-61219463D01*
X161098815Y-61298815D01*
X161019463Y-61395506D01*
X160960498Y-61505820D01*
X160924188Y-61625518D01*
X160911928Y-61750000D01*
X160911928Y-63450000D01*
X160924188Y-63574482D01*
X160960498Y-63694180D01*
X161019463Y-63804494D01*
X161098815Y-63901185D01*
X161195506Y-63980537D01*
X161305820Y-64039502D01*
X161378380Y-64061513D01*
X161246525Y-64193368D01*
X161121822Y-64380000D01*
X158717323Y-64380000D01*
X158680000Y-64376324D01*
X158642677Y-64380000D01*
X158642667Y-64380000D01*
X158531014Y-64390997D01*
X158436366Y-64419708D01*
X158161335Y-64365000D01*
X157878665Y-64365000D01*
X157696114Y-64401312D01*
X152909801Y-59615000D01*
X153081335Y-59615000D01*
X153358574Y-59559853D01*
X153619727Y-59451680D01*
X153854759Y-59294637D01*
X154054637Y-59094759D01*
X154210000Y-58862241D01*
X154365363Y-59094759D01*
X154565241Y-59294637D01*
X154800273Y-59451680D01*
X155061426Y-59559853D01*
X155338665Y-59615000D01*
X155621335Y-59615000D01*
X155898574Y-59559853D01*
X156159727Y-59451680D01*
X156394759Y-59294637D01*
X156594637Y-59094759D01*
X156750000Y-58862241D01*
X156905363Y-59094759D01*
X157105241Y-59294637D01*
X157340273Y-59451680D01*
X157601426Y-59559853D01*
X157878665Y-59615000D01*
X158161335Y-59615000D01*
X158438574Y-59559853D01*
X158699727Y-59451680D01*
X158934759Y-59294637D01*
X159134637Y-59094759D01*
X159291680Y-58859727D01*
X159399853Y-58598574D01*
X159455000Y-58321335D01*
X159455000Y-58038665D01*
X159399853Y-57761426D01*
X159291680Y-57500273D01*
X159134637Y-57265241D01*
X158934759Y-57065363D01*
X158699727Y-56908320D01*
X158438574Y-56800147D01*
X158161335Y-56745000D01*
X157878665Y-56745000D01*
X157601426Y-56800147D01*
X157340273Y-56908320D01*
X157105241Y-57065363D01*
X156905363Y-57265241D01*
X156750000Y-57497759D01*
X156594637Y-57265241D01*
X156394759Y-57065363D01*
X156159727Y-56908320D01*
X155898574Y-56800147D01*
X155621335Y-56745000D01*
X155338665Y-56745000D01*
X155061426Y-56800147D01*
X154800273Y-56908320D01*
X154565241Y-57065363D01*
X154365363Y-57265241D01*
X154210000Y-57497759D01*
X154054637Y-57265241D01*
X153854759Y-57065363D01*
X153619727Y-56908320D01*
X153358574Y-56800147D01*
X153081335Y-56745000D01*
X152798665Y-56745000D01*
X152521426Y-56800147D01*
X152260273Y-56908320D01*
X152025241Y-57065363D01*
X151825363Y-57265241D01*
X151670000Y-57497759D01*
X151514637Y-57265241D01*
X151314759Y-57065363D01*
X151079727Y-56908320D01*
X150818574Y-56800147D01*
X150541335Y-56745000D01*
X150258665Y-56745000D01*
X149981426Y-56800147D01*
X149720273Y-56908320D01*
X149485241Y-57065363D01*
X149285363Y-57265241D01*
X149128320Y-57500273D01*
X149020147Y-57761426D01*
X148965000Y-58038665D01*
X148285501Y-58038665D01*
X148234596Y-57782755D01*
X148133961Y-57539801D01*
X147987862Y-57321147D01*
X147801913Y-57135198D01*
X147583259Y-56989099D01*
X147340305Y-56888464D01*
X147082386Y-56837160D01*
X146819414Y-56837160D01*
X146561495Y-56888464D01*
X146318541Y-56989099D01*
X146099887Y-57135198D01*
X145913938Y-57321147D01*
X145767839Y-57539801D01*
X145667204Y-57782755D01*
X145615900Y-58040674D01*
X145433480Y-58040674D01*
X145382176Y-57782755D01*
X145281541Y-57539801D01*
X145135442Y-57321147D01*
X144949493Y-57135198D01*
X144730839Y-56989099D01*
X144487885Y-56888464D01*
X144229966Y-56837160D01*
X143966994Y-56837160D01*
X143709075Y-56888464D01*
X143466121Y-56989099D01*
X143247467Y-57135198D01*
X143061518Y-57321147D01*
X142915419Y-57539801D01*
X142814784Y-57782755D01*
X142763480Y-58040674D01*
X127800080Y-58040674D01*
X127822377Y-56161520D01*
X169440758Y-56258465D01*
G37*
X169440758Y-56258465D02*
X169503999Y-111248206D01*
X127170017Y-111142309D01*
X127198049Y-108779700D01*
X155724908Y-108779700D01*
X155737168Y-108904182D01*
X155773478Y-109023880D01*
X155832443Y-109134194D01*
X155911795Y-109230885D01*
X156008486Y-109310237D01*
X156118800Y-109369202D01*
X156238498Y-109405512D01*
X156362980Y-109417772D01*
X156789730Y-109414700D01*
X156948480Y-109255950D01*
X156948480Y-107581700D01*
X157202480Y-107581700D01*
X157202480Y-109255950D01*
X157361230Y-109414700D01*
X157787980Y-109417772D01*
X157912462Y-109405512D01*
X158032160Y-109369202D01*
X158142474Y-109310237D01*
X158239165Y-109230885D01*
X158318517Y-109134194D01*
X158377482Y-109023880D01*
X158413792Y-108904182D01*
X158426052Y-108779700D01*
X158422980Y-107740450D01*
X158264230Y-107581700D01*
X157202480Y-107581700D01*
X156948480Y-107581700D01*
X155886730Y-107581700D01*
X155727980Y-107740450D01*
X155724908Y-108779700D01*
X127198049Y-108779700D01*
X127378280Y-93589900D01*
X131224920Y-93589900D01*
X131224920Y-93882420D01*
X131281988Y-94169318D01*
X131393930Y-94439571D01*
X131556445Y-94682792D01*
X131763288Y-94889635D01*
X131937680Y-95006160D01*
X131763288Y-95122685D01*
X131556445Y-95329528D01*
X131393930Y-95572749D01*
X131281988Y-95843002D01*
X131224920Y-96129900D01*
X131224920Y-96422420D01*
X131281988Y-96709318D01*
X131393930Y-96979571D01*
X131556445Y-97222792D01*
X131763288Y-97429635D01*
X131937680Y-97546160D01*
X131763288Y-97662685D01*
X131556445Y-97869528D01*
X131393930Y-98112749D01*
X131281988Y-98383002D01*
X131224920Y-98669900D01*
X131224920Y-98962420D01*
X131281988Y-99249318D01*
X131393930Y-99519571D01*
X131556445Y-99762792D01*
X131763288Y-99969635D01*
X131937680Y-100086160D01*
X131763288Y-100202685D01*
X131556445Y-100409528D01*
X131393930Y-100652749D01*
X131281988Y-100923002D01*
X131224920Y-101209900D01*
X131224920Y-101502420D01*
X131281988Y-101789318D01*
X131393930Y-102059571D01*
X131556445Y-102302792D01*
X131763288Y-102509635D01*
X131937680Y-102626160D01*
X131763288Y-102742685D01*
X131556445Y-102949528D01*
X131393930Y-103192749D01*
X131281988Y-103463002D01*
X131224920Y-103749900D01*
X131224920Y-104042420D01*
X131281988Y-104329318D01*
X131393930Y-104599571D01*
X131556445Y-104842792D01*
X131763288Y-105049635D01*
X131937680Y-105166160D01*
X131763288Y-105282685D01*
X131556445Y-105489528D01*
X131393930Y-105732749D01*
X131281988Y-106003002D01*
X131224920Y-106289900D01*
X131224920Y-106582420D01*
X131281988Y-106869318D01*
X131393930Y-107139571D01*
X131556445Y-107382792D01*
X131763288Y-107589635D01*
X132006509Y-107752150D01*
X132276762Y-107864092D01*
X132563660Y-107921160D01*
X132856180Y-107921160D01*
X133076328Y-107877370D01*
X133556242Y-108357284D01*
X133580040Y-108386282D01*
X133695765Y-108481255D01*
X133827794Y-108551827D01*
X133971055Y-108595284D01*
X134082708Y-108606281D01*
X134082717Y-108606281D01*
X134120040Y-108609957D01*
X134157363Y-108606281D01*
X143576397Y-108606281D01*
X143613719Y-108609957D01*
X143651041Y-108606281D01*
X143651052Y-108606281D01*
X143762705Y-108595284D01*
X143905966Y-108551827D01*
X144037995Y-108481255D01*
X144153720Y-108386282D01*
X144177522Y-108357279D01*
X144456114Y-108078688D01*
X144638665Y-108115000D01*
X144921335Y-108115000D01*
X145198574Y-108059853D01*
X145459727Y-107951680D01*
X145694759Y-107794637D01*
X145894637Y-107594759D01*
X146051680Y-107359727D01*
X146159853Y-107098574D01*
X146215000Y-106821335D01*
X146215000Y-106538665D01*
X146159853Y-106261426D01*
X146051680Y-106000273D01*
X145894637Y-105765241D01*
X145694759Y-105565363D01*
X145462241Y-105410000D01*
X145694759Y-105254637D01*
X145894637Y-105054759D01*
X146051680Y-104819727D01*
X146159853Y-104558574D01*
X146215000Y-104281335D01*
X146215000Y-103998665D01*
X146159853Y-103721426D01*
X146051680Y-103460273D01*
X145894637Y-103225241D01*
X145694759Y-103025363D01*
X145462241Y-102870000D01*
X145694759Y-102714637D01*
X145894637Y-102514759D01*
X146051680Y-102279727D01*
X146159853Y-102018574D01*
X146215000Y-101741335D01*
X146215000Y-101458665D01*
X146159853Y-101181426D01*
X146051680Y-100920273D01*
X145894637Y-100685241D01*
X145694759Y-100485363D01*
X145462241Y-100330000D01*
X145694759Y-100174637D01*
X145894637Y-99974759D01*
X146051680Y-99739727D01*
X146159853Y-99478574D01*
X146215000Y-99201335D01*
X146215000Y-98918665D01*
X146159853Y-98641426D01*
X146051680Y-98380273D01*
X145894637Y-98145241D01*
X145694759Y-97945363D01*
X145462241Y-97790000D01*
X145694759Y-97634637D01*
X145894637Y-97434759D01*
X146051680Y-97199727D01*
X146159853Y-96938574D01*
X146215000Y-96661335D01*
X146215000Y-96378665D01*
X146159853Y-96101426D01*
X146051680Y-95840273D01*
X145894637Y-95605241D01*
X145694759Y-95405363D01*
X145462241Y-95250000D01*
X145694759Y-95094637D01*
X145894637Y-94894759D01*
X146051680Y-94659727D01*
X146159853Y-94398574D01*
X146215000Y-94121335D01*
X146215000Y-93838665D01*
X146159853Y-93561426D01*
X146051680Y-93300273D01*
X145894637Y-93065241D01*
X145694759Y-92865363D01*
X145460872Y-92709085D01*
X145521514Y-92676671D01*
X145593097Y-92432702D01*
X144780000Y-91619605D01*
X143966903Y-92432702D01*
X144038486Y-92676671D01*
X144102992Y-92707194D01*
X144100273Y-92708320D01*
X143865241Y-92865363D01*
X143665363Y-93065241D01*
X143561957Y-93220000D01*
X141071977Y-93220000D01*
X140912303Y-93113309D01*
X140660249Y-93008905D01*
X140392671Y-92955680D01*
X140119849Y-92955680D01*
X139852271Y-93008905D01*
X139600217Y-93113309D01*
X139373374Y-93264881D01*
X139180461Y-93457794D01*
X139098351Y-93580680D01*
X134193086Y-93580680D01*
X134137852Y-93303002D01*
X134025910Y-93032749D01*
X133863395Y-92789528D01*
X133656552Y-92582685D01*
X133474386Y-92460965D01*
X133591275Y-92391338D01*
X133807508Y-92196429D01*
X133981561Y-91963080D01*
X134106745Y-91700259D01*
X134151396Y-91553050D01*
X134128948Y-91510512D01*
X143339783Y-91510512D01*
X143381213Y-91790130D01*
X143476397Y-92056292D01*
X143543329Y-92181514D01*
X143787298Y-92253097D01*
X144600395Y-91440000D01*
X144959605Y-91440000D01*
X145772702Y-92253097D01*
X146016671Y-92181514D01*
X146137571Y-91926004D01*
X146206300Y-91651816D01*
X146220217Y-91369488D01*
X146178787Y-91089870D01*
X146083603Y-90823708D01*
X146016671Y-90698486D01*
X145772702Y-90626903D01*
X144959605Y-91440000D01*
X144600395Y-91440000D01*
X143787298Y-90626903D01*
X143543329Y-90698486D01*
X143422429Y-90953996D01*
X143353700Y-91228184D01*
X143339783Y-91510512D01*
X134128948Y-91510512D01*
X134030075Y-91323160D01*
X132836920Y-91323160D01*
X132836920Y-91343160D01*
X132582920Y-91343160D01*
X132582920Y-91323160D01*
X131389765Y-91323160D01*
X131268444Y-91553050D01*
X131313095Y-91700259D01*
X131438279Y-91963080D01*
X131612332Y-92196429D01*
X131828565Y-92391338D01*
X131945454Y-92460965D01*
X131763288Y-92582685D01*
X131556445Y-92789528D01*
X131393930Y-93032749D01*
X131281988Y-93303002D01*
X131224920Y-93589900D01*
X127378280Y-93589900D01*
X127690722Y-67257307D01*
X130782820Y-67257307D01*
X130782820Y-67579373D01*
X130845652Y-67895252D01*
X130968902Y-68192803D01*
X131147833Y-68460592D01*
X131375568Y-68688327D01*
X131643357Y-68867258D01*
X131657820Y-68873249D01*
X131657821Y-71963893D01*
X131615740Y-71976658D01*
X131505426Y-72035623D01*
X131408735Y-72114975D01*
X131329383Y-72211666D01*
X131270418Y-72321980D01*
X131234108Y-72441678D01*
X131221848Y-72566160D01*
X131221848Y-74266160D01*
X131234108Y-74390642D01*
X131270418Y-74510340D01*
X131329383Y-74620654D01*
X131408735Y-74717345D01*
X131505426Y-74796697D01*
X131615740Y-74855662D01*
X131688300Y-74877673D01*
X131556445Y-75009528D01*
X131393930Y-75252749D01*
X131281988Y-75523002D01*
X131224920Y-75809900D01*
X131224920Y-76102420D01*
X131281988Y-76389318D01*
X131393930Y-76659571D01*
X131556445Y-76902792D01*
X131763288Y-77109635D01*
X131937680Y-77226160D01*
X131763288Y-77342685D01*
X131556445Y-77549528D01*
X131393930Y-77792749D01*
X131281988Y-78063002D01*
X131224920Y-78349900D01*
X131224920Y-78642420D01*
X131281988Y-78929318D01*
X131393930Y-79199571D01*
X131556445Y-79442792D01*
X131763288Y-79649635D01*
X131937680Y-79766160D01*
X131763288Y-79882685D01*
X131556445Y-80089528D01*
X131393930Y-80332749D01*
X131281988Y-80603002D01*
X131224920Y-80889900D01*
X131224920Y-81182420D01*
X131281988Y-81469318D01*
X131393930Y-81739571D01*
X131556445Y-81982792D01*
X131763288Y-82189635D01*
X131937680Y-82306160D01*
X131763288Y-82422685D01*
X131556445Y-82629528D01*
X131393930Y-82872749D01*
X131281988Y-83143002D01*
X131224920Y-83429900D01*
X131224920Y-83722420D01*
X131281988Y-84009318D01*
X131393930Y-84279571D01*
X131556445Y-84522792D01*
X131763288Y-84729635D01*
X131937680Y-84846160D01*
X131763288Y-84962685D01*
X131556445Y-85169528D01*
X131393930Y-85412749D01*
X131281988Y-85683002D01*
X131224920Y-85969900D01*
X131224920Y-86262420D01*
X131281988Y-86549318D01*
X131393930Y-86819571D01*
X131556445Y-87062792D01*
X131763288Y-87269635D01*
X131937680Y-87386160D01*
X131763288Y-87502685D01*
X131556445Y-87709528D01*
X131393930Y-87952749D01*
X131281988Y-88223002D01*
X131224920Y-88509900D01*
X131224920Y-88802420D01*
X131281988Y-89089318D01*
X131393930Y-89359571D01*
X131556445Y-89602792D01*
X131763288Y-89809635D01*
X131945454Y-89931355D01*
X131828565Y-90000982D01*
X131612332Y-90195891D01*
X131438279Y-90429240D01*
X131313095Y-90692061D01*
X131268444Y-90839270D01*
X131389765Y-91069160D01*
X132582920Y-91069160D01*
X132582920Y-91049160D01*
X132836920Y-91049160D01*
X132836920Y-91069160D01*
X134030075Y-91069160D01*
X134151396Y-90839270D01*
X134106745Y-90692061D01*
X133981561Y-90429240D01*
X133807508Y-90195891D01*
X133591275Y-90000982D01*
X133474386Y-89931355D01*
X133656552Y-89809635D01*
X133863395Y-89602792D01*
X133988098Y-89416160D01*
X140739842Y-89416160D01*
X140727200Y-89479714D01*
X140727200Y-89742686D01*
X140778504Y-90000605D01*
X140879139Y-90243559D01*
X141025238Y-90462213D01*
X141211187Y-90648162D01*
X141429841Y-90794261D01*
X141672795Y-90894896D01*
X141930714Y-90946200D01*
X142193686Y-90946200D01*
X142451605Y-90894896D01*
X142694559Y-90794261D01*
X142913213Y-90648162D01*
X143099162Y-90462213D01*
X143159975Y-90371200D01*
X143989231Y-90371200D01*
X143966903Y-90447298D01*
X144780000Y-91260395D01*
X145593097Y-90447298D01*
X145521514Y-90203329D01*
X145457008Y-90172806D01*
X145459727Y-90171680D01*
X145694759Y-90014637D01*
X145894637Y-89814759D01*
X145998043Y-89660000D01*
X149100001Y-89660000D01*
X149100000Y-91402677D01*
X149096324Y-91440000D01*
X149100000Y-91477322D01*
X149100000Y-91477332D01*
X149110997Y-91588985D01*
X149144751Y-91700259D01*
X149154454Y-91732246D01*
X149225026Y-91864276D01*
X149264871Y-91912826D01*
X149319999Y-91980001D01*
X149349003Y-92003804D01*
X151001312Y-93656114D01*
X150965000Y-93838665D01*
X150965000Y-94121335D01*
X151020147Y-94398574D01*
X151128320Y-94659727D01*
X151285363Y-94894759D01*
X151485241Y-95094637D01*
X151717759Y-95250000D01*
X151485241Y-95405363D01*
X151285363Y-95605241D01*
X151128320Y-95840273D01*
X151020147Y-96101426D01*
X150965000Y-96378665D01*
X150965000Y-96661335D01*
X151020147Y-96938574D01*
X151128320Y-97199727D01*
X151285363Y-97434759D01*
X151485241Y-97634637D01*
X151717759Y-97790000D01*
X151485241Y-97945363D01*
X151285363Y-98145241D01*
X151128320Y-98380273D01*
X151020147Y-98641426D01*
X150965000Y-98918665D01*
X150965000Y-99201335D01*
X151020147Y-99478574D01*
X151128320Y-99739727D01*
X151285363Y-99974759D01*
X151485241Y-100174637D01*
X151717759Y-100330000D01*
X151485241Y-100485363D01*
X151285363Y-100685241D01*
X151128320Y-100920273D01*
X151020147Y-101181426D01*
X150965000Y-101458665D01*
X150965000Y-101741335D01*
X151020147Y-102018574D01*
X151128320Y-102279727D01*
X151285363Y-102514759D01*
X151485241Y-102714637D01*
X151717759Y-102870000D01*
X151485241Y-103025363D01*
X151285363Y-103225241D01*
X151128320Y-103460273D01*
X151020147Y-103721426D01*
X150965000Y-103998665D01*
X150965000Y-104281335D01*
X151020147Y-104558574D01*
X151128320Y-104819727D01*
X151285363Y-105054759D01*
X151485241Y-105254637D01*
X151717759Y-105410000D01*
X151485241Y-105565363D01*
X151285363Y-105765241D01*
X151128320Y-106000273D01*
X151020147Y-106261426D01*
X150965000Y-106538665D01*
X150965000Y-106821335D01*
X151020147Y-107098574D01*
X151128320Y-107359727D01*
X151285363Y-107594759D01*
X151485241Y-107794637D01*
X151720273Y-107951680D01*
X151981426Y-108059853D01*
X152258665Y-108115000D01*
X152541335Y-108115000D01*
X152818574Y-108059853D01*
X153079727Y-107951680D01*
X153314759Y-107794637D01*
X153514637Y-107594759D01*
X153671680Y-107359727D01*
X153779853Y-107098574D01*
X153835000Y-106821335D01*
X153835000Y-106538665D01*
X153779853Y-106261426D01*
X153725291Y-106129700D01*
X155724908Y-106129700D01*
X155727980Y-107168950D01*
X155886730Y-107327700D01*
X156948480Y-107327700D01*
X156948480Y-105653450D01*
X157202480Y-105653450D01*
X157202480Y-107327700D01*
X158264230Y-107327700D01*
X158422980Y-107168950D01*
X158426052Y-106129700D01*
X158413792Y-106005218D01*
X158377482Y-105885520D01*
X158318517Y-105775206D01*
X158239165Y-105678515D01*
X158142474Y-105599163D01*
X158032160Y-105540198D01*
X157912462Y-105503888D01*
X157787980Y-105491628D01*
X157361230Y-105494700D01*
X157202480Y-105653450D01*
X156948480Y-105653450D01*
X156789730Y-105494700D01*
X156362980Y-105491628D01*
X156238498Y-105503888D01*
X156118800Y-105540198D01*
X156008486Y-105599163D01*
X155911795Y-105678515D01*
X155832443Y-105775206D01*
X155773478Y-105885520D01*
X155737168Y-106005218D01*
X155724908Y-106129700D01*
X153725291Y-106129700D01*
X153671680Y-106000273D01*
X153514637Y-105765241D01*
X153314759Y-105565363D01*
X153082241Y-105410000D01*
X153314759Y-105254637D01*
X153494748Y-105074648D01*
X153527118Y-105123093D01*
X153713067Y-105309042D01*
X153931721Y-105455141D01*
X154174675Y-105555776D01*
X154432594Y-105607080D01*
X154695566Y-105607080D01*
X154953485Y-105555776D01*
X155196439Y-105455141D01*
X155415093Y-105309042D01*
X155601042Y-105123093D01*
X155747141Y-104904439D01*
X155847776Y-104661485D01*
X155899080Y-104403566D01*
X155899080Y-104140594D01*
X155847776Y-103882675D01*
X155747141Y-103639721D01*
X155601042Y-103421067D01*
X155415093Y-103235118D01*
X155324080Y-103174305D01*
X155324080Y-102358560D01*
X155413920Y-102358560D01*
X155700818Y-102301492D01*
X155971071Y-102189550D01*
X156214292Y-102027035D01*
X156421135Y-101820192D01*
X156583650Y-101576971D01*
X156695592Y-101306718D01*
X156752660Y-101019820D01*
X156752660Y-100727300D01*
X156695592Y-100440402D01*
X156622307Y-100263476D01*
X156682335Y-100257564D01*
X156825596Y-100214107D01*
X156957625Y-100143535D01*
X157073350Y-100048562D01*
X157097153Y-100019558D01*
X158568262Y-98548450D01*
X163413649Y-98548450D01*
X163558791Y-98693592D01*
X163515000Y-98913740D01*
X163515000Y-99206260D01*
X163572068Y-99493158D01*
X163684010Y-99763411D01*
X163846525Y-100006632D01*
X164053368Y-100213475D01*
X164227760Y-100330000D01*
X164053368Y-100446525D01*
X163846525Y-100653368D01*
X163684010Y-100896589D01*
X163572068Y-101166842D01*
X163515000Y-101453740D01*
X163515000Y-101746260D01*
X163572068Y-102033158D01*
X163684010Y-102303411D01*
X163846525Y-102546632D01*
X164053368Y-102753475D01*
X164227760Y-102870000D01*
X164053368Y-102986525D01*
X163846525Y-103193368D01*
X163684010Y-103436589D01*
X163572068Y-103706842D01*
X163515000Y-103993740D01*
X163515000Y-104120083D01*
X163467776Y-103882675D01*
X163367141Y-103639721D01*
X163221042Y-103421067D01*
X163035093Y-103235118D01*
X162816439Y-103089019D01*
X162573485Y-102988384D01*
X162315566Y-102937080D01*
X162052594Y-102937080D01*
X161794675Y-102988384D01*
X161551721Y-103089019D01*
X161333067Y-103235118D01*
X161147118Y-103421067D01*
X161001019Y-103639721D01*
X160900384Y-103882675D01*
X160849080Y-104140594D01*
X160849080Y-104403566D01*
X160900384Y-104661485D01*
X161001019Y-104904439D01*
X161147118Y-105123093D01*
X161227202Y-105203177D01*
X160864769Y-105565609D01*
X160852830Y-105559228D01*
X160686234Y-105508692D01*
X160512980Y-105491628D01*
X159587980Y-105491628D01*
X159414726Y-105508692D01*
X159248130Y-105559228D01*
X159094594Y-105641295D01*
X158960018Y-105751738D01*
X158849575Y-105886314D01*
X158767508Y-106039850D01*
X158716972Y-106206446D01*
X158699908Y-106379700D01*
X158699908Y-108529700D01*
X158716972Y-108702954D01*
X158767508Y-108869550D01*
X158849575Y-109023086D01*
X158960018Y-109157662D01*
X159094594Y-109268105D01*
X159248130Y-109350172D01*
X159414726Y-109400708D01*
X159587980Y-109417772D01*
X160512980Y-109417772D01*
X160686234Y-109400708D01*
X160852830Y-109350172D01*
X161006366Y-109268105D01*
X161140942Y-109157662D01*
X161251385Y-109023086D01*
X161333452Y-108869550D01*
X161383988Y-108702954D01*
X161401052Y-108529700D01*
X161401052Y-107178929D01*
X162695083Y-105884899D01*
X162724081Y-105861101D01*
X162773252Y-105801186D01*
X162819054Y-105745377D01*
X162889626Y-105613347D01*
X162903541Y-105567473D01*
X162933083Y-105470086D01*
X162942876Y-105370659D01*
X163035093Y-105309042D01*
X163221042Y-105123093D01*
X163367141Y-104904439D01*
X163467776Y-104661485D01*
X163519080Y-104403566D01*
X163519080Y-104306771D01*
X163572068Y-104573158D01*
X163684010Y-104843411D01*
X163846525Y-105086632D01*
X163978380Y-105218487D01*
X163905820Y-105240498D01*
X163795506Y-105299463D01*
X163698815Y-105378815D01*
X163619463Y-105475506D01*
X163560498Y-105585820D01*
X163524188Y-105705518D01*
X163511928Y-105830000D01*
X163511928Y-107530000D01*
X163524188Y-107654482D01*
X163560498Y-107774180D01*
X163619463Y-107884494D01*
X163698815Y-107981185D01*
X163795506Y-108060537D01*
X163905820Y-108119502D01*
X164025518Y-108155812D01*
X164150000Y-108168072D01*
X165850000Y-108168072D01*
X165974482Y-108155812D01*
X166094180Y-108119502D01*
X166204494Y-108060537D01*
X166301185Y-107981185D01*
X166380537Y-107884494D01*
X166439502Y-107774180D01*
X166475812Y-107654482D01*
X166488072Y-107530000D01*
X166488072Y-105830000D01*
X166475812Y-105705518D01*
X166439502Y-105585820D01*
X166380537Y-105475506D01*
X166301185Y-105378815D01*
X166204494Y-105299463D01*
X166094180Y-105240498D01*
X166021620Y-105218487D01*
X166153475Y-105086632D01*
X166315990Y-104843411D01*
X166427932Y-104573158D01*
X166485000Y-104286260D01*
X166485000Y-103993740D01*
X166427932Y-103706842D01*
X166315990Y-103436589D01*
X166153475Y-103193368D01*
X165946632Y-102986525D01*
X165772240Y-102870000D01*
X165946632Y-102753475D01*
X166153475Y-102546632D01*
X166315990Y-102303411D01*
X166427932Y-102033158D01*
X166485000Y-101746260D01*
X166485000Y-101453740D01*
X166427932Y-101166842D01*
X166315990Y-100896589D01*
X166153475Y-100653368D01*
X165946632Y-100446525D01*
X165772240Y-100330000D01*
X165946632Y-100213475D01*
X166153475Y-100006632D01*
X166315990Y-99763411D01*
X166427932Y-99493158D01*
X166485000Y-99206260D01*
X166485000Y-98913740D01*
X166427932Y-98626842D01*
X166315990Y-98356589D01*
X166153475Y-98113368D01*
X165946632Y-97906525D01*
X165772240Y-97790000D01*
X165946632Y-97673475D01*
X166153475Y-97466632D01*
X166315990Y-97223411D01*
X166427932Y-96953158D01*
X166485000Y-96666260D01*
X166485000Y-96373740D01*
X166427932Y-96086842D01*
X166315990Y-95816589D01*
X166153475Y-95573368D01*
X165946632Y-95366525D01*
X165772240Y-95250000D01*
X165946632Y-95133475D01*
X166153475Y-94926632D01*
X166315990Y-94683411D01*
X166427932Y-94413158D01*
X166485000Y-94126260D01*
X166485000Y-93833740D01*
X166427932Y-93546842D01*
X166315990Y-93276589D01*
X166153475Y-93033368D01*
X165946632Y-92826525D01*
X165772240Y-92710000D01*
X165946632Y-92593475D01*
X166153475Y-92386632D01*
X166315990Y-92143411D01*
X166427932Y-91873158D01*
X166485000Y-91586260D01*
X166485000Y-91293740D01*
X166427932Y-91006842D01*
X166315990Y-90736589D01*
X166153475Y-90493368D01*
X165946632Y-90286525D01*
X165764466Y-90164805D01*
X165881355Y-90095178D01*
X166097588Y-89900269D01*
X166271641Y-89666920D01*
X166396825Y-89404099D01*
X166441476Y-89256890D01*
X166320155Y-89027000D01*
X165127000Y-89027000D01*
X165127000Y-89047000D01*
X164873000Y-89047000D01*
X164873000Y-89027000D01*
X163679845Y-89027000D01*
X163558524Y-89256890D01*
X163603175Y-89404099D01*
X163728359Y-89666920D01*
X163902412Y-89900269D01*
X164118645Y-90095178D01*
X164235534Y-90164805D01*
X164053368Y-90286525D01*
X163846525Y-90493368D01*
X163684010Y-90736589D01*
X163572068Y-91006842D01*
X163515000Y-91293740D01*
X163515000Y-91420198D01*
X159781672Y-87686871D01*
X159781672Y-87120000D01*
X163721822Y-87120000D01*
X163846525Y-87306632D01*
X164053368Y-87513475D01*
X164235534Y-87635195D01*
X164118645Y-87704822D01*
X163902412Y-87899731D01*
X163728359Y-88133080D01*
X163603175Y-88395901D01*
X163558524Y-88543110D01*
X163679845Y-88773000D01*
X164873000Y-88773000D01*
X164873000Y-88753000D01*
X165127000Y-88753000D01*
X165127000Y-88773000D01*
X166320155Y-88773000D01*
X166441476Y-88543110D01*
X166396825Y-88395901D01*
X166271641Y-88133080D01*
X166097588Y-87899731D01*
X165881355Y-87704822D01*
X165764466Y-87635195D01*
X165946632Y-87513475D01*
X166153475Y-87306632D01*
X166315990Y-87063411D01*
X166427932Y-86793158D01*
X166485000Y-86506260D01*
X166485000Y-86213740D01*
X166427932Y-85926842D01*
X166315990Y-85656589D01*
X166153475Y-85413368D01*
X165946632Y-85206525D01*
X165772240Y-85090000D01*
X165946632Y-84973475D01*
X166153475Y-84766632D01*
X166315990Y-84523411D01*
X166427932Y-84253158D01*
X166485000Y-83966260D01*
X166485000Y-83673740D01*
X166427932Y-83386842D01*
X166315990Y-83116589D01*
X166153475Y-82873368D01*
X165946632Y-82666525D01*
X165772240Y-82550000D01*
X165946632Y-82433475D01*
X166153475Y-82226632D01*
X166315990Y-81983411D01*
X166427932Y-81713158D01*
X166485000Y-81426260D01*
X166485000Y-81133740D01*
X166427932Y-80846842D01*
X166315990Y-80576589D01*
X166153475Y-80333368D01*
X165946632Y-80126525D01*
X165772240Y-80010000D01*
X165946632Y-79893475D01*
X166153475Y-79686632D01*
X166315990Y-79443411D01*
X166427932Y-79173158D01*
X166485000Y-78886260D01*
X166485000Y-78593740D01*
X166427932Y-78306842D01*
X166315990Y-78036589D01*
X166153475Y-77793368D01*
X165946632Y-77586525D01*
X165772240Y-77470000D01*
X165946632Y-77353475D01*
X166153475Y-77146632D01*
X166315990Y-76903411D01*
X166427932Y-76633158D01*
X166485000Y-76346260D01*
X166485000Y-76053740D01*
X166427932Y-75766842D01*
X166315990Y-75496589D01*
X166153475Y-75253368D01*
X165946632Y-75046525D01*
X165772240Y-74930000D01*
X165946632Y-74813475D01*
X166153475Y-74606632D01*
X166315990Y-74363411D01*
X166427932Y-74093158D01*
X166485000Y-73806260D01*
X166485000Y-73513740D01*
X166427932Y-73226842D01*
X166315990Y-72956589D01*
X166153475Y-72713368D01*
X165946632Y-72506525D01*
X165703411Y-72344010D01*
X165433158Y-72232068D01*
X165146260Y-72175000D01*
X164853740Y-72175000D01*
X164566842Y-72232068D01*
X164296589Y-72344010D01*
X164053368Y-72506525D01*
X163846525Y-72713368D01*
X163721822Y-72900000D01*
X153618043Y-72900000D01*
X153514637Y-72745241D01*
X153314759Y-72545363D01*
X153079727Y-72388320D01*
X152818574Y-72280147D01*
X152541335Y-72225000D01*
X152258665Y-72225000D01*
X151981426Y-72280147D01*
X151720273Y-72388320D01*
X151485241Y-72545363D01*
X151285363Y-72745241D01*
X151128320Y-72980273D01*
X151020147Y-73241426D01*
X150965000Y-73518665D01*
X150965000Y-73801335D01*
X151020147Y-74078574D01*
X151128320Y-74339727D01*
X151285363Y-74574759D01*
X151485241Y-74774637D01*
X151717759Y-74930000D01*
X151485241Y-75085363D01*
X151285363Y-75285241D01*
X151128320Y-75520273D01*
X151020147Y-75781426D01*
X150965000Y-76058665D01*
X150965000Y-76341335D01*
X151020147Y-76618574D01*
X151128320Y-76879727D01*
X151285363Y-77114759D01*
X151485241Y-77314637D01*
X151717759Y-77470000D01*
X151485241Y-77625363D01*
X151285363Y-77825241D01*
X151128320Y-78060273D01*
X151020147Y-78321426D01*
X150965000Y-78598665D01*
X150965000Y-78881335D01*
X151020147Y-79158574D01*
X151128320Y-79419727D01*
X151285363Y-79654759D01*
X151485241Y-79854637D01*
X151717759Y-80010000D01*
X151485241Y-80165363D01*
X151285363Y-80365241D01*
X151128320Y-80600273D01*
X151020147Y-80861426D01*
X150965000Y-81138665D01*
X150965000Y-81421335D01*
X151020147Y-81698574D01*
X151128320Y-81959727D01*
X151285363Y-82194759D01*
X151485241Y-82394637D01*
X151717759Y-82550000D01*
X151485241Y-82705363D01*
X151285363Y-82905241D01*
X151128320Y-83140273D01*
X151020147Y-83401426D01*
X150965000Y-83678665D01*
X150965000Y-83961335D01*
X151020147Y-84238574D01*
X151128320Y-84499727D01*
X151285363Y-84734759D01*
X151485241Y-84934637D01*
X151717759Y-85090000D01*
X151485241Y-85245363D01*
X151285363Y-85445241D01*
X151128320Y-85680273D01*
X151020147Y-85941426D01*
X150965000Y-86218665D01*
X150965000Y-86501335D01*
X151020147Y-86778574D01*
X151128320Y-87039727D01*
X151285363Y-87274759D01*
X151485241Y-87474637D01*
X151719128Y-87630915D01*
X151658486Y-87663329D01*
X151586903Y-87907298D01*
X152400000Y-88720395D01*
X153213097Y-87907298D01*
X153141514Y-87663329D01*
X153077008Y-87632806D01*
X153079727Y-87631680D01*
X153314759Y-87474637D01*
X153514637Y-87274759D01*
X153618043Y-87120000D01*
X155105550Y-87120000D01*
X154986029Y-87372596D01*
X154917300Y-87646784D01*
X154903383Y-87929112D01*
X154944813Y-88208730D01*
X155039997Y-88474892D01*
X155106929Y-88600114D01*
X155350898Y-88671697D01*
X156163995Y-87858600D01*
X156149853Y-87844458D01*
X156329458Y-87664853D01*
X156343600Y-87678995D01*
X156357743Y-87664853D01*
X156537348Y-87844458D01*
X156523205Y-87858600D01*
X156537348Y-87872743D01*
X156357743Y-88052348D01*
X156343600Y-88038205D01*
X155530503Y-88851302D01*
X155602086Y-89095271D01*
X155857596Y-89216171D01*
X156042643Y-89262556D01*
X153835000Y-91470199D01*
X153835000Y-91298665D01*
X153779853Y-91021426D01*
X153671680Y-90760273D01*
X153514637Y-90525241D01*
X153314759Y-90325363D01*
X153080872Y-90169085D01*
X153141514Y-90136671D01*
X153213097Y-89892702D01*
X152400000Y-89079605D01*
X151586903Y-89892702D01*
X151658486Y-90136671D01*
X151722992Y-90167194D01*
X151720273Y-90168320D01*
X151485241Y-90325363D01*
X151285363Y-90525241D01*
X151128320Y-90760273D01*
X151020147Y-91021426D01*
X150965000Y-91298665D01*
X150965000Y-91470199D01*
X150620000Y-91125199D01*
X150620000Y-88970512D01*
X150959783Y-88970512D01*
X151001213Y-89250130D01*
X151096397Y-89516292D01*
X151163329Y-89641514D01*
X151407298Y-89713097D01*
X152220395Y-88900000D01*
X152579605Y-88900000D01*
X153392702Y-89713097D01*
X153636671Y-89641514D01*
X153757571Y-89386004D01*
X153826300Y-89111816D01*
X153840217Y-88829488D01*
X153798787Y-88549870D01*
X153703603Y-88283708D01*
X153636671Y-88158486D01*
X153392702Y-88086903D01*
X152579605Y-88900000D01*
X152220395Y-88900000D01*
X151407298Y-88086903D01*
X151163329Y-88158486D01*
X151042429Y-88413996D01*
X150973700Y-88688184D01*
X150959783Y-88970512D01*
X150620000Y-88970512D01*
X150620000Y-88937333D01*
X150623677Y-88900000D01*
X150614335Y-88805145D01*
X150609003Y-88751014D01*
X150565546Y-88607753D01*
X150494974Y-88475724D01*
X150400001Y-88359999D01*
X150284276Y-88265026D01*
X150152247Y-88194454D01*
X150008986Y-88150997D01*
X149860000Y-88136323D01*
X149822667Y-88140000D01*
X145998043Y-88140000D01*
X145894637Y-87985241D01*
X145694759Y-87785363D01*
X145462241Y-87630000D01*
X145694759Y-87474637D01*
X145894637Y-87274759D01*
X146051680Y-87039727D01*
X146159853Y-86778574D01*
X146215000Y-86501335D01*
X146215000Y-86218665D01*
X146159853Y-85941426D01*
X146051680Y-85680273D01*
X145894637Y-85445241D01*
X145694759Y-85245363D01*
X145462241Y-85090000D01*
X145694759Y-84934637D01*
X145894637Y-84734759D01*
X146051680Y-84499727D01*
X146159853Y-84238574D01*
X146215000Y-83961335D01*
X146215000Y-83678665D01*
X146159853Y-83401426D01*
X146051680Y-83140273D01*
X145894637Y-82905241D01*
X145694759Y-82705363D01*
X145462241Y-82550000D01*
X145694759Y-82394637D01*
X145894637Y-82194759D01*
X146051680Y-81959727D01*
X146159853Y-81698574D01*
X146215000Y-81421335D01*
X146215000Y-81138665D01*
X146159853Y-80861426D01*
X146051680Y-80600273D01*
X145894637Y-80365241D01*
X145694759Y-80165363D01*
X145462241Y-80010000D01*
X145694759Y-79854637D01*
X145894637Y-79654759D01*
X146051680Y-79419727D01*
X146159853Y-79158574D01*
X146215000Y-78881335D01*
X146215000Y-78598665D01*
X146159853Y-78321426D01*
X146051680Y-78060273D01*
X145894637Y-77825241D01*
X145694759Y-77625363D01*
X145462241Y-77470000D01*
X145694759Y-77314637D01*
X145894637Y-77114759D01*
X146051680Y-76879727D01*
X146159853Y-76618574D01*
X146215000Y-76341335D01*
X146215000Y-76058665D01*
X146159853Y-75781426D01*
X146051680Y-75520273D01*
X145894637Y-75285241D01*
X145696039Y-75086643D01*
X145704482Y-75085812D01*
X145824180Y-75049502D01*
X145934494Y-74990537D01*
X146031185Y-74911185D01*
X146110537Y-74814494D01*
X146169502Y-74704180D01*
X146205812Y-74584482D01*
X146218072Y-74460000D01*
X146218072Y-72860000D01*
X146205812Y-72735518D01*
X146169502Y-72615820D01*
X146110537Y-72505506D01*
X146031185Y-72408815D01*
X145934494Y-72329463D01*
X145824180Y-72270498D01*
X145704482Y-72234188D01*
X145580000Y-72221928D01*
X145434326Y-72221928D01*
X145414974Y-72185723D01*
X145343799Y-72098997D01*
X145320001Y-72069999D01*
X145291003Y-72046201D01*
X140552820Y-67308019D01*
X140552820Y-67257307D01*
X140489988Y-66941428D01*
X140366738Y-66643877D01*
X140187807Y-66376088D01*
X139960072Y-66148353D01*
X139692283Y-65969422D01*
X139394732Y-65846172D01*
X139078853Y-65783340D01*
X138756787Y-65783340D01*
X138440908Y-65846172D01*
X138143357Y-65969422D01*
X137875568Y-66148353D01*
X137647833Y-66376088D01*
X137468902Y-66643877D01*
X137462911Y-66658340D01*
X133872729Y-66658340D01*
X133866738Y-66643877D01*
X133687807Y-66376088D01*
X133460072Y-66148353D01*
X133192283Y-65969422D01*
X132894732Y-65846172D01*
X132578853Y-65783340D01*
X132256787Y-65783340D01*
X131940908Y-65846172D01*
X131643357Y-65969422D01*
X131375568Y-66148353D01*
X131147833Y-66376088D01*
X130968902Y-66643877D01*
X130845652Y-66941428D01*
X130782820Y-67257307D01*
X127690722Y-67257307D01*
X127709666Y-65660674D01*
X142763480Y-65660674D01*
X142763480Y-65923646D01*
X142814784Y-66181565D01*
X142915419Y-66424519D01*
X143061518Y-66643173D01*
X143247467Y-66829122D01*
X143466121Y-66975221D01*
X143709075Y-67075856D01*
X143966994Y-67127160D01*
X144229966Y-67127160D01*
X144487885Y-67075856D01*
X144730839Y-66975221D01*
X144949493Y-66829122D01*
X145135442Y-66643173D01*
X145281541Y-66424519D01*
X145382176Y-66181565D01*
X145433480Y-65923646D01*
X145433480Y-65660674D01*
X145615900Y-65660674D01*
X145615900Y-65923646D01*
X145667204Y-66181565D01*
X145767839Y-66424519D01*
X145913938Y-66643173D01*
X146099887Y-66829122D01*
X146318541Y-66975221D01*
X146561495Y-67075856D01*
X146819414Y-67127160D01*
X147082386Y-67127160D01*
X147340305Y-67075856D01*
X147583259Y-66975221D01*
X147801913Y-66829122D01*
X147987862Y-66643173D01*
X148016709Y-66600000D01*
X148961928Y-66600000D01*
X148974188Y-66724482D01*
X149010498Y-66844180D01*
X149069463Y-66954494D01*
X149148815Y-67051185D01*
X149245506Y-67130537D01*
X149355820Y-67189502D01*
X149475518Y-67225812D01*
X149600000Y-67238072D01*
X150114250Y-67235000D01*
X150273000Y-67076250D01*
X150273000Y-65927000D01*
X149123750Y-65927000D01*
X148965000Y-66085750D01*
X148961928Y-66600000D01*
X148016709Y-66600000D01*
X148133961Y-66424519D01*
X148234596Y-66181565D01*
X148285900Y-65923646D01*
X148285900Y-65660674D01*
X148234596Y-65402755D01*
X148133961Y-65159801D01*
X148027187Y-65000000D01*
X148961928Y-65000000D01*
X148965000Y-65514250D01*
X149123750Y-65673000D01*
X150273000Y-65673000D01*
X150273000Y-64523750D01*
X150114250Y-64365000D01*
X149600000Y-64361928D01*
X149475518Y-64374188D01*
X149355820Y-64410498D01*
X149245506Y-64469463D01*
X149148815Y-64548815D01*
X149069463Y-64645506D01*
X149010498Y-64755820D01*
X148974188Y-64875518D01*
X148961928Y-65000000D01*
X148027187Y-65000000D01*
X147987862Y-64941147D01*
X147801913Y-64755198D01*
X147583259Y-64609099D01*
X147340305Y-64508464D01*
X147082386Y-64457160D01*
X146819414Y-64457160D01*
X146561495Y-64508464D01*
X146318541Y-64609099D01*
X146099887Y-64755198D01*
X145913938Y-64941147D01*
X145767839Y-65159801D01*
X145667204Y-65402755D01*
X145615900Y-65660674D01*
X145433480Y-65660674D01*
X145382176Y-65402755D01*
X145281541Y-65159801D01*
X145135442Y-64941147D01*
X144949493Y-64755198D01*
X144730839Y-64609099D01*
X144487885Y-64508464D01*
X144229966Y-64457160D01*
X143966994Y-64457160D01*
X143709075Y-64508464D01*
X143466121Y-64609099D01*
X143247467Y-64755198D01*
X143061518Y-64941147D01*
X142915419Y-65159801D01*
X142814784Y-65402755D01*
X142763480Y-65660674D01*
X127709666Y-65660674D01*
X127728733Y-64053753D01*
X131462012Y-64053753D01*
X131557776Y-64318154D01*
X131847391Y-64459044D01*
X132158928Y-64540724D01*
X132480415Y-64560058D01*
X132799495Y-64516301D01*
X133103908Y-64411135D01*
X133277864Y-64318154D01*
X133373628Y-64053753D01*
X137962012Y-64053753D01*
X138057776Y-64318154D01*
X138347391Y-64459044D01*
X138658928Y-64540724D01*
X138980415Y-64560058D01*
X139299495Y-64516301D01*
X139603908Y-64411135D01*
X139777864Y-64318154D01*
X139873628Y-64053753D01*
X138917820Y-63097945D01*
X137962012Y-64053753D01*
X133373628Y-64053753D01*
X132417820Y-63097945D01*
X131462012Y-64053753D01*
X127728733Y-64053753D01*
X127741463Y-62980935D01*
X130776102Y-62980935D01*
X130819859Y-63300015D01*
X130925025Y-63604428D01*
X131018006Y-63778384D01*
X131282407Y-63874148D01*
X132238215Y-62918340D01*
X132597425Y-62918340D01*
X133553233Y-63874148D01*
X133817634Y-63778384D01*
X133958524Y-63488769D01*
X134040204Y-63177232D01*
X134052009Y-62980935D01*
X137276102Y-62980935D01*
X137319859Y-63300015D01*
X137425025Y-63604428D01*
X137518006Y-63778384D01*
X137782407Y-63874148D01*
X138738215Y-62918340D01*
X139097425Y-62918340D01*
X140053233Y-63874148D01*
X140317634Y-63778384D01*
X140458524Y-63488769D01*
X140540204Y-63177232D01*
X140559538Y-62855745D01*
X140515781Y-62536665D01*
X140410615Y-62232252D01*
X140317634Y-62058296D01*
X140053233Y-61962532D01*
X139097425Y-62918340D01*
X138738215Y-62918340D01*
X137782407Y-61962532D01*
X137518006Y-62058296D01*
X137377116Y-62347911D01*
X137295436Y-62659448D01*
X137276102Y-62980935D01*
X134052009Y-62980935D01*
X134059538Y-62855745D01*
X134015781Y-62536665D01*
X133910615Y-62232252D01*
X133817634Y-62058296D01*
X133553233Y-61962532D01*
X132597425Y-62918340D01*
X132238215Y-62918340D01*
X131282407Y-61962532D01*
X131018006Y-62058296D01*
X130877116Y-62347911D01*
X130795436Y-62659448D01*
X130776102Y-62980935D01*
X127741463Y-62980935D01*
X127755677Y-61782927D01*
X131462012Y-61782927D01*
X132417820Y-62738735D01*
X133373628Y-61782927D01*
X137962012Y-61782927D01*
X138917820Y-62738735D01*
X139873628Y-61782927D01*
X139777864Y-61518526D01*
X139488249Y-61377636D01*
X139176712Y-61295956D01*
X138855225Y-61276622D01*
X138536145Y-61320379D01*
X138231732Y-61425545D01*
X138057776Y-61518526D01*
X137962012Y-61782927D01*
X133373628Y-61782927D01*
X133277864Y-61518526D01*
X132988249Y-61377636D01*
X132676712Y-61295956D01*
X132355225Y-61276622D01*
X132036145Y-61320379D01*
X131731732Y-61425545D01*
X131557776Y-61518526D01*
X131462012Y-61782927D01*
X127755677Y-61782927D01*
X127800080Y-58040674D01*
X142763480Y-58040674D01*
X142763480Y-58303646D01*
X142814784Y-58561565D01*
X142915419Y-58804519D01*
X143061518Y-59023173D01*
X143247467Y-59209122D01*
X143466121Y-59355221D01*
X143709075Y-59455856D01*
X143966994Y-59507160D01*
X144229966Y-59507160D01*
X144487885Y-59455856D01*
X144730839Y-59355221D01*
X144949493Y-59209122D01*
X145135442Y-59023173D01*
X145281541Y-58804519D01*
X145382176Y-58561565D01*
X145433480Y-58303646D01*
X145433480Y-58040674D01*
X145615900Y-58040674D01*
X145615900Y-58303646D01*
X145667204Y-58561565D01*
X145767839Y-58804519D01*
X145913938Y-59023173D01*
X146099887Y-59209122D01*
X146318541Y-59355221D01*
X146561495Y-59455856D01*
X146819414Y-59507160D01*
X147082386Y-59507160D01*
X147340305Y-59455856D01*
X147583259Y-59355221D01*
X147801913Y-59209122D01*
X147987862Y-59023173D01*
X148133961Y-58804519D01*
X148234596Y-58561565D01*
X148285900Y-58303646D01*
X148285900Y-58040674D01*
X148285501Y-58038665D01*
X148965000Y-58038665D01*
X148965000Y-58321335D01*
X149020147Y-58598574D01*
X149128320Y-58859727D01*
X149285363Y-59094759D01*
X149485241Y-59294637D01*
X149720273Y-59451680D01*
X149981426Y-59559853D01*
X150258665Y-59615000D01*
X150541335Y-59615000D01*
X150723887Y-59578688D01*
X155510198Y-64365000D01*
X155338665Y-64365000D01*
X155061426Y-64420147D01*
X154800273Y-64528320D01*
X154565241Y-64685363D01*
X154365363Y-64885241D01*
X154210000Y-65117759D01*
X154054637Y-64885241D01*
X153854759Y-64685363D01*
X153619727Y-64528320D01*
X153358574Y-64420147D01*
X153081335Y-64365000D01*
X152798665Y-64365000D01*
X152521426Y-64420147D01*
X152260273Y-64528320D01*
X152025241Y-64685363D01*
X151826643Y-64883961D01*
X151825812Y-64875518D01*
X151789502Y-64755820D01*
X151730537Y-64645506D01*
X151651185Y-64548815D01*
X151554494Y-64469463D01*
X151444180Y-64410498D01*
X151324482Y-64374188D01*
X151200000Y-64361928D01*
X150685750Y-64365000D01*
X150527000Y-64523750D01*
X150527000Y-65673000D01*
X150547000Y-65673000D01*
X150547000Y-65927000D01*
X150527000Y-65927000D01*
X150527000Y-67076250D01*
X150685750Y-67235000D01*
X151200000Y-67238072D01*
X151324482Y-67225812D01*
X151444180Y-67189502D01*
X151554494Y-67130537D01*
X151651185Y-67051185D01*
X151730537Y-66954494D01*
X151789502Y-66844180D01*
X151825812Y-66724482D01*
X151826643Y-66716039D01*
X152025241Y-66914637D01*
X152260273Y-67071680D01*
X152521426Y-67179853D01*
X152798665Y-67235000D01*
X153081335Y-67235000D01*
X153263887Y-67198688D01*
X155913426Y-69848227D01*
X155891023Y-69870630D01*
X156007296Y-69986903D01*
X155763329Y-70058486D01*
X155642429Y-70313996D01*
X155573700Y-70588184D01*
X155559783Y-70870512D01*
X155601213Y-71150130D01*
X155696397Y-71416292D01*
X155763329Y-71541514D01*
X156007298Y-71613097D01*
X156820395Y-70800000D01*
X156806253Y-70785858D01*
X156985858Y-70606253D01*
X157000000Y-70620395D01*
X157014143Y-70606253D01*
X157193748Y-70785858D01*
X157179605Y-70800000D01*
X157193748Y-70814143D01*
X157014143Y-70993748D01*
X157000000Y-70979605D01*
X156186903Y-71792702D01*
X156258486Y-72036671D01*
X156513996Y-72157571D01*
X156788184Y-72226300D01*
X157070512Y-72240217D01*
X157350130Y-72198787D01*
X157616292Y-72103603D01*
X157738309Y-72038384D01*
X157748815Y-72051185D01*
X157845506Y-72130537D01*
X157955820Y-72189502D01*
X158075518Y-72225812D01*
X158200000Y-72238072D01*
X159800000Y-72238072D01*
X159924482Y-72225812D01*
X160044180Y-72189502D01*
X160154494Y-72130537D01*
X160251185Y-72051185D01*
X160330537Y-71954494D01*
X160389502Y-71844180D01*
X160425812Y-71724482D01*
X160438072Y-71600000D01*
X160438072Y-70000000D01*
X160425812Y-69875518D01*
X160389502Y-69755820D01*
X160330537Y-69645506D01*
X160251185Y-69548815D01*
X160154494Y-69469463D01*
X160044180Y-69410498D01*
X159924482Y-69374188D01*
X159800000Y-69361928D01*
X158636729Y-69361928D01*
X158438803Y-69164001D01*
X158415000Y-69134998D01*
X158299275Y-69040025D01*
X158167246Y-68969453D01*
X158023985Y-68925996D01*
X157912332Y-68914999D01*
X157912321Y-68914999D01*
X157874999Y-68911323D01*
X157837677Y-68914999D01*
X157129801Y-68914999D01*
X155449802Y-67235000D01*
X155621335Y-67235000D01*
X155898574Y-67179853D01*
X156159727Y-67071680D01*
X156394759Y-66914637D01*
X156594637Y-66714759D01*
X156750000Y-66482241D01*
X156905363Y-66714759D01*
X157105241Y-66914637D01*
X157340273Y-67071680D01*
X157601426Y-67179853D01*
X157878665Y-67235000D01*
X158161335Y-67235000D01*
X158438574Y-67179853D01*
X158699727Y-67071680D01*
X158934759Y-66914637D01*
X159134637Y-66714759D01*
X159291680Y-66479727D01*
X159399853Y-66218574D01*
X159455000Y-65941335D01*
X159455000Y-65900000D01*
X161121822Y-65900000D01*
X161246525Y-66086632D01*
X161453368Y-66293475D01*
X161696589Y-66455990D01*
X161966842Y-66567932D01*
X162253740Y-66625000D01*
X162546260Y-66625000D01*
X162833158Y-66567932D01*
X163103411Y-66455990D01*
X163346632Y-66293475D01*
X163553475Y-66086632D01*
X163711587Y-65850000D01*
X165511928Y-65850000D01*
X165524188Y-65974482D01*
X165560498Y-66094180D01*
X165619463Y-66204494D01*
X165698815Y-66301185D01*
X165795506Y-66380537D01*
X165905820Y-66439502D01*
X166025518Y-66475812D01*
X166150000Y-66488072D01*
X166714250Y-66485000D01*
X166873000Y-66326250D01*
X166873000Y-65127000D01*
X167127000Y-65127000D01*
X167127000Y-66326250D01*
X167285750Y-66485000D01*
X167850000Y-66488072D01*
X167974482Y-66475812D01*
X168094180Y-66439502D01*
X168204494Y-66380537D01*
X168301185Y-66301185D01*
X168380537Y-66204494D01*
X168439502Y-66094180D01*
X168475812Y-65974482D01*
X168488072Y-65850000D01*
X168485000Y-65285750D01*
X168326250Y-65127000D01*
X167127000Y-65127000D01*
X166873000Y-65127000D01*
X165673750Y-65127000D01*
X165515000Y-65285750D01*
X165511928Y-65850000D01*
X163711587Y-65850000D01*
X163715990Y-65843411D01*
X163827932Y-65573158D01*
X163885000Y-65286260D01*
X163885000Y-64993740D01*
X163827932Y-64706842D01*
X163715990Y-64436589D01*
X163553475Y-64193368D01*
X163421620Y-64061513D01*
X163494180Y-64039502D01*
X163604494Y-63980537D01*
X163701185Y-63901185D01*
X163780537Y-63804494D01*
X163839502Y-63694180D01*
X163875812Y-63574482D01*
X163888072Y-63450000D01*
X163888072Y-63220000D01*
X165721822Y-63220000D01*
X165846525Y-63406632D01*
X165978380Y-63538487D01*
X165905820Y-63560498D01*
X165795506Y-63619463D01*
X165698815Y-63698815D01*
X165619463Y-63795506D01*
X165560498Y-63905820D01*
X165524188Y-64025518D01*
X165511928Y-64150000D01*
X165515000Y-64714250D01*
X165673750Y-64873000D01*
X166873000Y-64873000D01*
X166873000Y-64853000D01*
X167127000Y-64853000D01*
X167127000Y-64873000D01*
X168326250Y-64873000D01*
X168485000Y-64714250D01*
X168488072Y-64150000D01*
X168475812Y-64025518D01*
X168439502Y-63905820D01*
X168380537Y-63795506D01*
X168301185Y-63698815D01*
X168204494Y-63619463D01*
X168094180Y-63560498D01*
X168021620Y-63538487D01*
X168153475Y-63406632D01*
X168315990Y-63163411D01*
X168427932Y-62893158D01*
X168485000Y-62606260D01*
X168485000Y-62313740D01*
X168427932Y-62026842D01*
X168315990Y-61756589D01*
X168153475Y-61513368D01*
X167946632Y-61306525D01*
X167703411Y-61144010D01*
X167433158Y-61032068D01*
X167146260Y-60975000D01*
X166853740Y-60975000D01*
X166566842Y-61032068D01*
X166296589Y-61144010D01*
X166053368Y-61306525D01*
X165846525Y-61513368D01*
X165721822Y-61700000D01*
X163883148Y-61700000D01*
X163875812Y-61625518D01*
X163839502Y-61505820D01*
X163780537Y-61395506D01*
X163701185Y-61298815D01*
X163604494Y-61219463D01*
X163494180Y-61160498D01*
X163374482Y-61124188D01*
X163250000Y-61111928D01*
X161550000Y-61111928D01*
X161425518Y-61124188D01*
X161305820Y-61160498D01*
X161195506Y-61219463D01*
X161098815Y-61298815D01*
X161019463Y-61395506D01*
X160960498Y-61505820D01*
X160924188Y-61625518D01*
X160911928Y-61750000D01*
X160911928Y-63450000D01*
X160924188Y-63574482D01*
X160960498Y-63694180D01*
X161019463Y-63804494D01*
X161098815Y-63901185D01*
X161195506Y-63980537D01*
X161305820Y-64039502D01*
X161378380Y-64061513D01*
X161246525Y-64193368D01*
X161121822Y-64380000D01*
X158717323Y-64380000D01*
X158680000Y-64376324D01*
X158642677Y-64380000D01*
X158642667Y-64380000D01*
X158531014Y-64390997D01*
X158436366Y-64419708D01*
X158161335Y-64365000D01*
X157878665Y-64365000D01*
X157696114Y-64401312D01*
X152909801Y-59615000D01*
X153081335Y-59615000D01*
X153358574Y-59559853D01*
X153619727Y-59451680D01*
X153854759Y-59294637D01*
X154054637Y-59094759D01*
X154210000Y-58862241D01*
X154365363Y-59094759D01*
X154565241Y-59294637D01*
X154800273Y-59451680D01*
X155061426Y-59559853D01*
X155338665Y-59615000D01*
X155621335Y-59615000D01*
X155898574Y-59559853D01*
X156159727Y-59451680D01*
X156394759Y-59294637D01*
X156594637Y-59094759D01*
X156750000Y-58862241D01*
X156905363Y-59094759D01*
X157105241Y-59294637D01*
X157340273Y-59451680D01*
X157601426Y-59559853D01*
X157878665Y-59615000D01*
X158161335Y-59615000D01*
X158438574Y-59559853D01*
X158699727Y-59451680D01*
X158934759Y-59294637D01*
X159134637Y-59094759D01*
X159291680Y-58859727D01*
X159399853Y-58598574D01*
X159455000Y-58321335D01*
X159455000Y-58038665D01*
X159399853Y-57761426D01*
X159291680Y-57500273D01*
X159134637Y-57265241D01*
X158934759Y-57065363D01*
X158699727Y-56908320D01*
X158438574Y-56800147D01*
X158161335Y-56745000D01*
X157878665Y-56745000D01*
X157601426Y-56800147D01*
X157340273Y-56908320D01*
X157105241Y-57065363D01*
X156905363Y-57265241D01*
X156750000Y-57497759D01*
X156594637Y-57265241D01*
X156394759Y-57065363D01*
X156159727Y-56908320D01*
X155898574Y-56800147D01*
X155621335Y-56745000D01*
X155338665Y-56745000D01*
X155061426Y-56800147D01*
X154800273Y-56908320D01*
X154565241Y-57065363D01*
X154365363Y-57265241D01*
X154210000Y-57497759D01*
X154054637Y-57265241D01*
X153854759Y-57065363D01*
X153619727Y-56908320D01*
X153358574Y-56800147D01*
X153081335Y-56745000D01*
X152798665Y-56745000D01*
X152521426Y-56800147D01*
X152260273Y-56908320D01*
X152025241Y-57065363D01*
X151825363Y-57265241D01*
X151670000Y-57497759D01*
X151514637Y-57265241D01*
X151314759Y-57065363D01*
X151079727Y-56908320D01*
X150818574Y-56800147D01*
X150541335Y-56745000D01*
X150258665Y-56745000D01*
X149981426Y-56800147D01*
X149720273Y-56908320D01*
X149485241Y-57065363D01*
X149285363Y-57265241D01*
X149128320Y-57500273D01*
X149020147Y-57761426D01*
X148965000Y-58038665D01*
X148285501Y-58038665D01*
X148234596Y-57782755D01*
X148133961Y-57539801D01*
X147987862Y-57321147D01*
X147801913Y-57135198D01*
X147583259Y-56989099D01*
X147340305Y-56888464D01*
X147082386Y-56837160D01*
X146819414Y-56837160D01*
X146561495Y-56888464D01*
X146318541Y-56989099D01*
X146099887Y-57135198D01*
X145913938Y-57321147D01*
X145767839Y-57539801D01*
X145667204Y-57782755D01*
X145615900Y-58040674D01*
X145433480Y-58040674D01*
X145382176Y-57782755D01*
X145281541Y-57539801D01*
X145135442Y-57321147D01*
X144949493Y-57135198D01*
X144730839Y-56989099D01*
X144487885Y-56888464D01*
X144229966Y-56837160D01*
X143966994Y-56837160D01*
X143709075Y-56888464D01*
X143466121Y-56989099D01*
X143247467Y-57135198D01*
X143061518Y-57321147D01*
X142915419Y-57539801D01*
X142814784Y-57782755D01*
X142763480Y-58040674D01*
X127800080Y-58040674D01*
X127822377Y-56161520D01*
X169440758Y-56258465D01*
G36*
X137468902Y-68192803D02*
G01*
X137647833Y-68460592D01*
X137875568Y-68688327D01*
X138143357Y-68867258D01*
X138440908Y-68990508D01*
X138756787Y-69053340D01*
X139078853Y-69053340D01*
X139394732Y-68990508D01*
X139692283Y-68867258D01*
X139854240Y-68759041D01*
X141192314Y-70097115D01*
X141006742Y-70134028D01*
X140736489Y-70245970D01*
X140493268Y-70408485D01*
X140286425Y-70615328D01*
X140123910Y-70858549D01*
X140011968Y-71128802D01*
X139954900Y-71415700D01*
X139954900Y-71708220D01*
X140006690Y-71968583D01*
X139973624Y-72030444D01*
X139967333Y-72051185D01*
X139930167Y-72173704D01*
X139919170Y-72285357D01*
X139919170Y-72285368D01*
X139915494Y-72322690D01*
X139919170Y-72360012D01*
X139919170Y-72747028D01*
X139160418Y-73505781D01*
X139143114Y-73519982D01*
X139170436Y-73468210D01*
X139125785Y-73321001D01*
X139000601Y-73058180D01*
X138826548Y-72824831D01*
X138610315Y-72629922D01*
X138360212Y-72480943D01*
X138085851Y-72383619D01*
X137855960Y-72504286D01*
X137855960Y-73698100D01*
X137875960Y-73698100D01*
X137875960Y-73952100D01*
X137855960Y-73952100D01*
X137855960Y-73972100D01*
X137601960Y-73972100D01*
X137601960Y-73952100D01*
X136408805Y-73952100D01*
X136287484Y-74181990D01*
X136332135Y-74329199D01*
X136457319Y-74592020D01*
X136631372Y-74825369D01*
X136715426Y-74901134D01*
X136634780Y-74925598D01*
X136524466Y-74984563D01*
X136427775Y-75063915D01*
X136348423Y-75160606D01*
X136289458Y-75270920D01*
X136253148Y-75390618D01*
X136240888Y-75515100D01*
X136240888Y-77215100D01*
X136253148Y-77339582D01*
X136289458Y-77459280D01*
X136348423Y-77569594D01*
X136427775Y-77666285D01*
X136524466Y-77745637D01*
X136634780Y-77804602D01*
X136754478Y-77840912D01*
X136878960Y-77853172D01*
X137644601Y-77853172D01*
X137644600Y-82646678D01*
X134194920Y-86096359D01*
X134194920Y-85969900D01*
X134137852Y-85683002D01*
X134025910Y-85412749D01*
X133863395Y-85169528D01*
X133656552Y-84962685D01*
X133482160Y-84846160D01*
X133656552Y-84729635D01*
X133863395Y-84522792D01*
X134025910Y-84279571D01*
X134137852Y-84009318D01*
X134194920Y-83722420D01*
X134194920Y-83429900D01*
X134137852Y-83143002D01*
X134025910Y-82872749D01*
X133863395Y-82629528D01*
X133656552Y-82422685D01*
X133482160Y-82306160D01*
X133656552Y-82189635D01*
X133863395Y-81982792D01*
X134025910Y-81739571D01*
X134137852Y-81469318D01*
X134194920Y-81182420D01*
X134194920Y-80889900D01*
X134137852Y-80603002D01*
X134025910Y-80332749D01*
X133863395Y-80089528D01*
X133656552Y-79882685D01*
X133482160Y-79766160D01*
X133656552Y-79649635D01*
X133863395Y-79442792D01*
X134025910Y-79199571D01*
X134137852Y-78929318D01*
X134194920Y-78642420D01*
X134194920Y-78349900D01*
X134137852Y-78063002D01*
X134025910Y-77792749D01*
X133863395Y-77549528D01*
X133656552Y-77342685D01*
X133482160Y-77226160D01*
X133656552Y-77109635D01*
X133863395Y-76902792D01*
X134025910Y-76659571D01*
X134137852Y-76389318D01*
X134194920Y-76102420D01*
X134194920Y-75809900D01*
X134137852Y-75523002D01*
X134025910Y-75252749D01*
X133863395Y-75009528D01*
X133731540Y-74877673D01*
X133804100Y-74855662D01*
X133914414Y-74796697D01*
X134011105Y-74717345D01*
X134090457Y-74620654D01*
X134149422Y-74510340D01*
X134185732Y-74390642D01*
X134197992Y-74266160D01*
X134197992Y-73468210D01*
X136287484Y-73468210D01*
X136408805Y-73698100D01*
X137601960Y-73698100D01*
X137601960Y-72504286D01*
X137372069Y-72383619D01*
X137097708Y-72480943D01*
X136847605Y-72629922D01*
X136631372Y-72824831D01*
X136457319Y-73058180D01*
X136332135Y-73321001D01*
X136287484Y-73468210D01*
X134197992Y-73468210D01*
X134197992Y-72566160D01*
X134185732Y-72441678D01*
X134149422Y-72321980D01*
X134090457Y-72211666D01*
X134011105Y-72114975D01*
X133914414Y-72035623D01*
X133804100Y-71976658D01*
X133684402Y-71940348D01*
X133559920Y-71928088D01*
X133177820Y-71928088D01*
X133177820Y-68873249D01*
X133192283Y-68867258D01*
X133460072Y-68688327D01*
X133687807Y-68460592D01*
X133866738Y-68192803D01*
X133872729Y-68178340D01*
X137462911Y-68178340D01*
X137468902Y-68192803D01*
G37*
X137468902Y-68192803D02*
X137647833Y-68460592D01*
X137875568Y-68688327D01*
X138143357Y-68867258D01*
X138440908Y-68990508D01*
X138756787Y-69053340D01*
X139078853Y-69053340D01*
X139394732Y-68990508D01*
X139692283Y-68867258D01*
X139854240Y-68759041D01*
X141192314Y-70097115D01*
X141006742Y-70134028D01*
X140736489Y-70245970D01*
X140493268Y-70408485D01*
X140286425Y-70615328D01*
X140123910Y-70858549D01*
X140011968Y-71128802D01*
X139954900Y-71415700D01*
X139954900Y-71708220D01*
X140006690Y-71968583D01*
X139973624Y-72030444D01*
X139967333Y-72051185D01*
X139930167Y-72173704D01*
X139919170Y-72285357D01*
X139919170Y-72285368D01*
X139915494Y-72322690D01*
X139919170Y-72360012D01*
X139919170Y-72747028D01*
X139160418Y-73505781D01*
X139143114Y-73519982D01*
X139170436Y-73468210D01*
X139125785Y-73321001D01*
X139000601Y-73058180D01*
X138826548Y-72824831D01*
X138610315Y-72629922D01*
X138360212Y-72480943D01*
X138085851Y-72383619D01*
X137855960Y-72504286D01*
X137855960Y-73698100D01*
X137875960Y-73698100D01*
X137875960Y-73952100D01*
X137855960Y-73952100D01*
X137855960Y-73972100D01*
X137601960Y-73972100D01*
X137601960Y-73952100D01*
X136408805Y-73952100D01*
X136287484Y-74181990D01*
X136332135Y-74329199D01*
X136457319Y-74592020D01*
X136631372Y-74825369D01*
X136715426Y-74901134D01*
X136634780Y-74925598D01*
X136524466Y-74984563D01*
X136427775Y-75063915D01*
X136348423Y-75160606D01*
X136289458Y-75270920D01*
X136253148Y-75390618D01*
X136240888Y-75515100D01*
X136240888Y-77215100D01*
X136253148Y-77339582D01*
X136289458Y-77459280D01*
X136348423Y-77569594D01*
X136427775Y-77666285D01*
X136524466Y-77745637D01*
X136634780Y-77804602D01*
X136754478Y-77840912D01*
X136878960Y-77853172D01*
X137644601Y-77853172D01*
X137644600Y-82646678D01*
X134194920Y-86096359D01*
X134194920Y-85969900D01*
X134137852Y-85683002D01*
X134025910Y-85412749D01*
X133863395Y-85169528D01*
X133656552Y-84962685D01*
X133482160Y-84846160D01*
X133656552Y-84729635D01*
X133863395Y-84522792D01*
X134025910Y-84279571D01*
X134137852Y-84009318D01*
X134194920Y-83722420D01*
X134194920Y-83429900D01*
X134137852Y-83143002D01*
X134025910Y-82872749D01*
X133863395Y-82629528D01*
X133656552Y-82422685D01*
X133482160Y-82306160D01*
X133656552Y-82189635D01*
X133863395Y-81982792D01*
X134025910Y-81739571D01*
X134137852Y-81469318D01*
X134194920Y-81182420D01*
X134194920Y-80889900D01*
X134137852Y-80603002D01*
X134025910Y-80332749D01*
X133863395Y-80089528D01*
X133656552Y-79882685D01*
X133482160Y-79766160D01*
X133656552Y-79649635D01*
X133863395Y-79442792D01*
X134025910Y-79199571D01*
X134137852Y-78929318D01*
X134194920Y-78642420D01*
X134194920Y-78349900D01*
X134137852Y-78063002D01*
X134025910Y-77792749D01*
X133863395Y-77549528D01*
X133656552Y-77342685D01*
X133482160Y-77226160D01*
X133656552Y-77109635D01*
X133863395Y-76902792D01*
X134025910Y-76659571D01*
X134137852Y-76389318D01*
X134194920Y-76102420D01*
X134194920Y-75809900D01*
X134137852Y-75523002D01*
X134025910Y-75252749D01*
X133863395Y-75009528D01*
X133731540Y-74877673D01*
X133804100Y-74855662D01*
X133914414Y-74796697D01*
X134011105Y-74717345D01*
X134090457Y-74620654D01*
X134149422Y-74510340D01*
X134185732Y-74390642D01*
X134197992Y-74266160D01*
X134197992Y-73468210D01*
X136287484Y-73468210D01*
X136408805Y-73698100D01*
X137601960Y-73698100D01*
X137601960Y-72504286D01*
X137372069Y-72383619D01*
X137097708Y-72480943D01*
X136847605Y-72629922D01*
X136631372Y-72824831D01*
X136457319Y-73058180D01*
X136332135Y-73321001D01*
X136287484Y-73468210D01*
X134197992Y-73468210D01*
X134197992Y-72566160D01*
X134185732Y-72441678D01*
X134149422Y-72321980D01*
X134090457Y-72211666D01*
X134011105Y-72114975D01*
X133914414Y-72035623D01*
X133804100Y-71976658D01*
X133684402Y-71940348D01*
X133559920Y-71928088D01*
X133177820Y-71928088D01*
X133177820Y-68873249D01*
X133192283Y-68867258D01*
X133460072Y-68688327D01*
X133687807Y-68460592D01*
X133866738Y-68192803D01*
X133872729Y-68178340D01*
X137462911Y-68178340D01*
X137468902Y-68192803D01*
G36*
X137856060Y-104079945D02*
G01*
X137856060Y-104362615D01*
X137911207Y-104639854D01*
X138019380Y-104901007D01*
X138176423Y-105136039D01*
X138376301Y-105335917D01*
X138576929Y-105469972D01*
X138549546Y-105484609D01*
X138477963Y-105728578D01*
X139291060Y-106541675D01*
X140104157Y-105728578D01*
X140032574Y-105484609D01*
X140003719Y-105470956D01*
X140205819Y-105335917D01*
X140405697Y-105136039D01*
X140562740Y-104901007D01*
X140670913Y-104639854D01*
X140702838Y-104479360D01*
X140728067Y-104606194D01*
X140836240Y-104867347D01*
X140993283Y-105102379D01*
X141193161Y-105302257D01*
X141393789Y-105436312D01*
X141366406Y-105450949D01*
X141294823Y-105694918D01*
X142107920Y-106508015D01*
X142921017Y-105694918D01*
X142849434Y-105450949D01*
X142820579Y-105437296D01*
X143022679Y-105302257D01*
X143222557Y-105102379D01*
X143379600Y-104867347D01*
X143453822Y-104688158D01*
X143508320Y-104819727D01*
X143665363Y-105054759D01*
X143865241Y-105254637D01*
X144097759Y-105410000D01*
X143865241Y-105565363D01*
X143665363Y-105765241D01*
X143508320Y-106000273D01*
X143442736Y-106158608D01*
X143411523Y-106071328D01*
X143344591Y-105946106D01*
X143100622Y-105874523D01*
X142287525Y-106687620D01*
X142301668Y-106701763D01*
X142122063Y-106881368D01*
X142107920Y-106867225D01*
X142093778Y-106881368D01*
X141914173Y-106701763D01*
X141928315Y-106687620D01*
X141115218Y-105874523D01*
X140871249Y-105946106D01*
X140750349Y-106201616D01*
X140696536Y-106416297D01*
X140689847Y-106371150D01*
X140594663Y-106104988D01*
X140527731Y-105979766D01*
X140283762Y-105908183D01*
X139470665Y-106721280D01*
X139484808Y-106735423D01*
X139305203Y-106915028D01*
X139291060Y-106900885D01*
X139276918Y-106915028D01*
X139097313Y-106735423D01*
X139111455Y-106721280D01*
X138298358Y-105908183D01*
X138054389Y-105979766D01*
X137933489Y-106235276D01*
X137864760Y-106509464D01*
X137850843Y-106791792D01*
X137892273Y-107071410D01*
X137897591Y-107086281D01*
X134434843Y-107086281D01*
X134151130Y-106802568D01*
X134194920Y-106582420D01*
X134194920Y-106289900D01*
X134137852Y-106003002D01*
X134025910Y-105732749D01*
X133863395Y-105489528D01*
X133656552Y-105282685D01*
X133482160Y-105166160D01*
X133656552Y-105049635D01*
X133863395Y-104842792D01*
X134025910Y-104599571D01*
X134137852Y-104329318D01*
X134194920Y-104042420D01*
X134194920Y-103822619D01*
X137907246Y-103822619D01*
X137856060Y-104079945D01*
G37*
X137856060Y-104079945D02*
X137856060Y-104362615D01*
X137911207Y-104639854D01*
X138019380Y-104901007D01*
X138176423Y-105136039D01*
X138376301Y-105335917D01*
X138576929Y-105469972D01*
X138549546Y-105484609D01*
X138477963Y-105728578D01*
X139291060Y-106541675D01*
X140104157Y-105728578D01*
X140032574Y-105484609D01*
X140003719Y-105470956D01*
X140205819Y-105335917D01*
X140405697Y-105136039D01*
X140562740Y-104901007D01*
X140670913Y-104639854D01*
X140702838Y-104479360D01*
X140728067Y-104606194D01*
X140836240Y-104867347D01*
X140993283Y-105102379D01*
X141193161Y-105302257D01*
X141393789Y-105436312D01*
X141366406Y-105450949D01*
X141294823Y-105694918D01*
X142107920Y-106508015D01*
X142921017Y-105694918D01*
X142849434Y-105450949D01*
X142820579Y-105437296D01*
X143022679Y-105302257D01*
X143222557Y-105102379D01*
X143379600Y-104867347D01*
X143453822Y-104688158D01*
X143508320Y-104819727D01*
X143665363Y-105054759D01*
X143865241Y-105254637D01*
X144097759Y-105410000D01*
X143865241Y-105565363D01*
X143665363Y-105765241D01*
X143508320Y-106000273D01*
X143442736Y-106158608D01*
X143411523Y-106071328D01*
X143344591Y-105946106D01*
X143100622Y-105874523D01*
X142287525Y-106687620D01*
X142301668Y-106701763D01*
X142122063Y-106881368D01*
X142107920Y-106867225D01*
X142093778Y-106881368D01*
X141914173Y-106701763D01*
X141928315Y-106687620D01*
X141115218Y-105874523D01*
X140871249Y-105946106D01*
X140750349Y-106201616D01*
X140696536Y-106416297D01*
X140689847Y-106371150D01*
X140594663Y-106104988D01*
X140527731Y-105979766D01*
X140283762Y-105908183D01*
X139470665Y-106721280D01*
X139484808Y-106735423D01*
X139305203Y-106915028D01*
X139291060Y-106900885D01*
X139276918Y-106915028D01*
X139097313Y-106735423D01*
X139111455Y-106721280D01*
X138298358Y-105908183D01*
X138054389Y-105979766D01*
X137933489Y-106235276D01*
X137864760Y-106509464D01*
X137850843Y-106791792D01*
X137892273Y-107071410D01*
X137897591Y-107086281D01*
X134434843Y-107086281D01*
X134151130Y-106802568D01*
X134194920Y-106582420D01*
X134194920Y-106289900D01*
X134137852Y-106003002D01*
X134025910Y-105732749D01*
X133863395Y-105489528D01*
X133656552Y-105282685D01*
X133482160Y-105166160D01*
X133656552Y-105049635D01*
X133863395Y-104842792D01*
X134025910Y-104599571D01*
X134137852Y-104329318D01*
X134194920Y-104042420D01*
X134194920Y-103822619D01*
X137907246Y-103822619D01*
X137856060Y-104079945D01*
%TD*%
M02*
