M48
; DRILL file {KiCad (5.1.6-0-10_14)} date Friday, September 11, 2020 at 05:54:01 PM
; FORMAT={-:-/ absolute / inch / decimal}
; #@! TF.CreationDate,2020-09-11T17:54:01-04:00
; #@! TF.GenerationSoftware,Kicad,Pcbnew,(5.1.6-0-10_14)
; #@! TF.FileFunction,Plated,1,2,PTH
FMAT,2
INCH
T1C0.0276
T2C0.0315
T3C0.0394
T4C0.0433
%
G90
G05
T1
X5.7855Y-2.2902
X5.7855Y-2.5902
X6.0852Y-4.1052
X6.3852Y-4.1052
X5.593Y-3.228
X5.593Y-3.528
X5.6732Y-2.2902
X5.6732Y-2.5902
T2
X5.5948Y-4.1019
X5.5948Y-4.2003
X5.4839Y-4.1032
X5.4839Y-4.2016
X5.4992Y-3.1404
X5.5976Y-3.1404
X5.9213Y-2.2906
X5.9213Y-2.5906
X6.0213Y-2.2906
X6.0213Y-2.5906
X6.1213Y-2.2906
X6.1213Y-2.5906
X6.2213Y-2.2906
X6.2213Y-2.5906
X6.1811Y-2.7874
X6.2598Y-2.7874
X6.1553Y-3.459
X6.234Y-3.459
X5.5219Y-3.7142
X5.5219Y-3.9071
T3
X6.1129Y-3.8714
X6.1129Y-3.9714
X6.5748Y-2.4591
X6.5748Y-2.5591
X6.3937Y-2.4646
X6.3937Y-2.5646
X6.4961Y-2.9
X6.4961Y-3.0
X6.4961Y-3.1
X6.4961Y-3.2
X6.4961Y-3.3
X6.4961Y-3.4
X6.4961Y-3.5
X6.4961Y-3.6
X6.4961Y-3.7
X6.4961Y-3.8
X6.4961Y-3.9
X6.4961Y-4.0
X6.4961Y-4.1
X6.4961Y-4.2
X5.5685Y-2.8174
X5.5685Y-2.9174
X5.5685Y-3.0174
X5.7Y-2.9
X5.7Y-3.0
X5.7Y-3.1
X5.7Y-3.2
X5.7Y-3.3
X5.7Y-3.4
X5.7Y-3.5
X5.7Y-3.6
X5.7Y-3.7
X5.7Y-3.8
X5.7Y-3.9
X5.7Y-4.0
X5.7Y-4.1
X5.7Y-4.2
X6.0Y-2.9
X6.0Y-3.0
X6.0Y-3.1
X6.0Y-3.2
X6.0Y-3.3
X6.0Y-3.4
X6.0Y-3.5
X6.0Y-3.6
X6.0Y-3.7
X6.0Y-3.8
X6.0Y-3.9
X6.0Y-4.0
X6.0Y-4.1
X6.0Y-4.2
X5.4224Y-2.9065
X5.4224Y-3.0065
X5.2248Y-2.8904
X5.2248Y-2.9904
X5.2248Y-3.0904
X5.2248Y-3.1904
X5.2248Y-3.2904
X5.2248Y-3.3904
X5.2248Y-3.4904
X5.2248Y-3.5904
X5.2248Y-3.6904
X5.2248Y-3.7904
X5.2248Y-3.8904
X5.2248Y-3.9904
X5.2248Y-4.0904
X5.2248Y-4.1904
T4
X5.2133Y-2.4771
X5.2133Y-2.6543
X5.4692Y-2.4771
X5.4692Y-2.6543
T0
M30
